#define noname_width 73
#define noname_height 99
static char noname_bits[] = {
 0x44,0x44,0x44,0x44,0x44,0x44,0x44,0x44,0x44,0x00,0x00,0x00,0x00,0x00,0x00,
 0x00,0x00,0x00,0x00,0x00,0x11,0x11,0x11,0x11,0x11,0x11,0x11,0x11,0x11,0x01,
 0x00,0x00,0x00,0x00,0x00,0x00,0x00,0x00,0x00,0x00,0x44,0x44,0x44,0x44,0x44,
 0x44,0x44,0x44,0x44,0x00,0xe0,0xee,0xee,0xee,0xee,0xee,0xee,0xee,0x6e,0x00,
 0x51,0x55,0x55,0x55,0x55,0x55,0x55,0x55,0x55,0x01,0x20,0x00,0x00,0x00,0x00,
 0x00,0x00,0x00,0x20,0x00,0x44,0x00,0x00,0x00,0x00,0x00,0x00,0x00,0x40,0x00,
 0x60,0x00,0x00,0x00,0x00,0x00,0x00,0x00,0x60,0x00,0x51,0x00,0x00,0x00,0x00,
 0x00,0x00,0x00,0x40,0x01,0x20,0x00,0x00,0x00,0x00,0x00,0x00,0x00,0x20,0x00,
 0x44,0x00,0x00,0x00,0x00,0x00,0x00,0x00,0x40,0x00,0x60,0x00,0x00,0x00,0x00,
 0x00,0x00,0x00,0x60,0x00,0x51,0x00,0x00,0x00,0x00,0x00,0x00,0x00,0x40,0x01,
 0x20,0x00,0x00,0x00,0x00,0x00,0x00,0x00,0x20,0x00,0x44,0x00,0x00,0x00,0x00,
 0x00,0x00,0x00,0x40,0x00,0x60,0x00,0x00,0x00,0x00,0x00,0x00,0x00,0x60,0x00,
 0x51,0x00,0x00,0x00,0x00,0x00,0x00,0x00,0x40,0x01,0x20,0x80,0xbb,0x0a,0x00,
 0x00,0xbb,0x3a,0x20,0x00,0x44,0x40,0x55,0x05,0x00,0x00,0x55,0x15,0x40,0x00,
 0x60,0x00,0xee,0x02,0x00,0x00,0xec,0x06,0x60,0x00,0x51,0x00,0x54,0x01,0x00,
 0x00,0x54,0x05,0x40,0x01,0x20,0x00,0xaa,0x03,0x00,0x00,0xa8,0x03,0x20,0x00,
 0x44,0x00,0x54,0x01,0x00,0x00,0x54,0x05,0x40,0x00,0x60,0x00,0xee,0x02,0x00,
 0x00,0xec,0x06,0x60,0x00,0x51,0x00,0x54,0x01,0x00,0x00,0x54,0x05,0x40,0x01,
 0x20,0x00,0xba,0x03,0x00,0x00,0xb8,0x03,0x20,0x00,0x44,0x00,0x54,0x01,0x00,
 0x00,0x54,0x05,0x40,0x00,0x60,0x00,0xee,0x02,0x00,0x00,0xec,0x06,0x60,0x00,
 0x51,0x00,0x54,0x01,0x00,0x00,0x54,0x05,0x40,0x01,0x20,0x00,0xaa,0x03,0x00,
 0x00,0xa8,0x03,0x20,0x00,0x44,0x00,0x54,0x01,0x00,0x00,0x54,0x05,0x40,0x00,
 0x60,0x00,0xee,0x02,0x00,0x00,0xec,0x06,0x60,0x00,0x51,0x00,0x54,0x01,0x00,
 0x00,0x54,0x05,0x40,0x01,0x20,0x00,0xba,0x02,0x00,0x00,0xb8,0x02,0x20,0x00,
 0x44,0x00,0x54,0x01,0x00,0x00,0x54,0x05,0x40,0x00,0x60,0x00,0xee,0x02,0x00,
 0x00,0xec,0x06,0x60,0x00,0x51,0x00,0x54,0x01,0x00,0x00,0x54,0x05,0x40,0x01,
 0x20,0x00,0xaa,0x03,0x00,0x00,0xa8,0x03,0x20,0x00,0x44,0x00,0x54,0x01,0x00,
 0x00,0x54,0x05,0x40,0x00,0x60,0x00,0xee,0x02,0x00,0x00,0xec,0x06,0x60,0x00,
 0x51,0x00,0x54,0x01,0x00,0x00,0x54,0x05,0x40,0x01,0x20,0x00,0xba,0x0b,0x00,
 0x00,0xba,0x03,0x20,0x00,0x44,0x00,0x54,0x05,0x00,0x00,0x55,0x05,0x40,0x00,
 0x60,0x00,0xee,0xee,0xee,0xee,0xee,0x06,0x60,0x00,0x51,0x00,0x54,0x55,0x55,
 0x55,0x55,0x05,0x40,0x01,0x20,0x00,0xaa,0xab,0xab,0xab,0xab,0x03,0x20,0x00,
 0x44,0x00,0x54,0x55,0x55,0x55,0x55,0x05,0x40,0x00,0x60,0x00,0xee,0xee,0xee,
 0xee,0xee,0x06,0x60,0x00,0x51,0x00,0x54,0x55,0x55,0x55,0x55,0x05,0x40,0x01,
 0x20,0x00,0xba,0xba,0xbb,0xba,0xbb,0x02,0x20,0x00,0x44,0x00,0x54,0x05,0x00,
 0x00,0x55,0x05,0x40,0x00,0x60,0x00,0xee,0x0e,0x00,0x00,0xee,0x06,0x60,0x00,
 0x51,0x00,0x54,0x05,0x00,0x00,0x55,0x05,0x40,0x01,0x20,0x00,0xaa,0x03,0x00,
 0x00,0xa8,0x03,0x20,0x00,0x44,0x00,0x54,0x01,0x00,0x00,0x54,0x05,0x40,0x00,
 0x60,0x00,0xee,0x02,0x00,0x00,0xec,0x06,0x60,0x00,0x51,0x00,0x54,0x01,0x00,
 0x00,0x54,0x05,0x40,0x01,0x20,0x00,0xba,0x03,0x00,0x00,0xb8,0x03,0x20,0x00,
 0x44,0x00,0x54,0x01,0x00,0x00,0x54,0x05,0x40,0x00,0x60,0x00,0xee,0x02,0x00,
 0x00,0xec,0x06,0x60,0x00,0x51,0x00,0x54,0x01,0x00,0x00,0x54,0x05,0x40,0x01,
 0x20,0x00,0xaa,0x03,0x00,0x00,0xa8,0x03,0x20,0x00,0x44,0x00,0x54,0x01,0x00,
 0x00,0x54,0x05,0x40,0x00,0x60,0x00,0xee,0x02,0x00,0x00,0xec,0x06,0x60,0x00,
 0x51,0x00,0x54,0x01,0x00,0x00,0x54,0x05,0x40,0x01,0x20,0x00,0xba,0x02,0x00,
 0x00,0xb8,0x02,0x20,0x00,0x44,0x00,0x54,0x01,0x00,0x00,0x54,0x05,0x40,0x00,
 0x60,0x00,0xee,0x02,0x00,0x00,0xec,0x06,0x60,0x00,0x51,0x00,0x54,0x01,0x00,
 0x00,0x54,0x05,0x40,0x01,0x20,0x00,0xaa,0x03,0x00,0x00,0xa8,0x03,0x20,0x00,
 0x44,0x00,0x54,0x01,0x00,0x00,0x54,0x05,0x40,0x00,0x60,0x00,0xee,0x02,0x00,
 0x00,0xec,0x06,0x60,0x00,0x51,0x00,0x54,0x01,0x00,0x00,0x54,0x05,0x40,0x01,
 0x20,0x00,0xba,0x03,0x00,0x00,0xb8,0x03,0x20,0x00,0x44,0x00,0x54,0x01,0x00,
 0x00,0x54,0x05,0x40,0x00,0x60,0x00,0xee,0x02,0x00,0x00,0xec,0x06,0x60,0x00,
 0x51,0x00,0x54,0x01,0x00,0x00,0x54,0x05,0x40,0x01,0x20,0x00,0xaa,0x03,0x00,
 0x00,0xa8,0x03,0x20,0x00,0x44,0x00,0x54,0x01,0x00,0x00,0x54,0x05,0x40,0x00,
 0x60,0xc0,0xee,0x0e,0x00,0x00,0xee,0x2e,0x60,0x00,0x51,0x40,0x55,0x05,0x00,
 0x00,0x55,0x15,0x40,0x01,0x20,0x00,0x00,0x00,0x00,0x00,0x00,0x00,0x20,0x00,
 0x44,0x00,0x00,0x00,0x00,0x00,0x00,0x00,0x40,0x00,0x60,0x00,0x00,0x00,0x00,
 0x00,0x00,0x00,0x60,0x00,0x51,0x00,0x00,0x00,0x00,0x00,0x00,0x00,0x40,0x01,
 0x20,0x00,0x00,0x00,0x00,0x00,0x00,0x00,0x20,0x00,0x44,0x00,0x00,0x00,0x00,
 0x00,0x00,0x00,0x40,0x00,0x60,0x00,0x00,0x00,0x00,0x00,0x00,0x00,0x60,0x00,
 0x51,0x00,0x00,0x00,0x00,0x00,0x00,0x00,0x40,0x01,0x20,0x00,0x00,0x00,0x00,
 0x00,0x00,0x00,0x20,0x00,0x44,0x00,0x00,0x00,0x00,0x00,0x00,0x00,0x40,0x00,
 0xe0,0xee,0xee,0xee,0xee,0xee,0xee,0xee,0x6e,0x00,0x51,0x55,0x55,0x55,0x55,
 0x55,0x55,0x55,0x55,0x01,0x00,0x00,0x00,0x00,0x00,0x00,0x00,0x00,0x00,0x00,
 0x44,0x44,0x44,0x44,0x44,0x44,0x44,0x44,0x44,0x00,0x00,0x00,0x00,0x00,0x00,
 0x00,0x00,0x00,0x00,0x00,0x11,0x11,0x11,0x11,0x11,0x11,0x11,0x11,0x11,0x01};
