#define noname_width 73
#define noname_height 94
static char noname_bits[] = {
 0x00,0x00,0x00,0x00,0x0c,0x00,0x00,0x00,0x00,0x00,0x00,0x00,0x00,0x00,0x1e,
 0x00,0x00,0x00,0x00,0x00,0x00,0x00,0x00,0x00,0x1e,0x00,0x00,0x00,0x00,0x00,
 0x00,0x00,0x00,0x00,0x0e,0x00,0x00,0x00,0x00,0x00,0x00,0x00,0x00,0x00,0x04,
 0x00,0x00,0x00,0x00,0x00,0x00,0x00,0x00,0x00,0x04,0x00,0x00,0x00,0x00,0x00,
 0x00,0x00,0x00,0x00,0x04,0x00,0x00,0x00,0x00,0x00,0x00,0x00,0x00,0x00,0x04,
 0x00,0x00,0x00,0x00,0x00,0x00,0x00,0x00,0x00,0x04,0x00,0x00,0x00,0x00,0x00,
 0x00,0x00,0x00,0x00,0x04,0x00,0x00,0x00,0x00,0x00,0x00,0x00,0x00,0x00,0x04,
 0x00,0x00,0x00,0x00,0x00,0x00,0x00,0x00,0x00,0x04,0x00,0x00,0x00,0x00,0x00,
 0x55,0x55,0x55,0x55,0x55,0x55,0x55,0x55,0x55,0x01,0x9a,0xbf,0xbb,0xbf,0xbf,
 0xbf,0xbb,0xbf,0xbb,0x01,0x55,0x55,0x55,0x55,0x55,0x51,0x55,0x55,0x55,0x01,
 0xec,0xee,0xee,0xce,0xce,0xa2,0xee,0xee,0xee,0x00,0x55,0x55,0x55,0x15,0x14,
 0x14,0x54,0x55,0x55,0x01,0x9a,0xbb,0xbb,0xbb,0xbf,0xbb,0xbb,0xbb,0xbb,0x01,
 0x55,0x55,0x55,0x55,0x55,0x55,0x55,0x55,0x55,0x01,0x03,0x02,0x02,0x02,0x06,
 0x02,0x02,0x02,0x82,0x00,0x55,0x55,0x55,0x55,0x5f,0x55,0x55,0x55,0x55,0x01,
 0x01,0x56,0x00,0x00,0x0e,0x00,0x00,0x00,0x80,0x01,0x55,0x5f,0x45,0x44,0x4c,
 0x44,0x44,0x44,0x44,0x01,0x01,0x00,0x00,0x00,0x04,0x00,0x00,0x00,0x80,0x00,
 0x55,0x55,0x55,0x55,0x55,0x55,0x55,0x55,0x55,0x01,0x01,0x00,0x00,0x00,0x00,
 0x00,0x00,0x00,0x80,0x01,0x45,0x55,0x55,0x55,0x55,0x55,0x55,0x55,0x55,0x01,
 0x21,0x02,0x08,0x02,0x00,0x02,0x00,0x02,0x88,0x00,0x75,0x55,0x5f,0x55,0x55,
 0x55,0x55,0x55,0x55,0x01,0x01,0x00,0x00,0x00,0x00,0x00,0x00,0x00,0x88,0x01,
 0x45,0x55,0x55,0x55,0x55,0x55,0x55,0x55,0x55,0x01,0xe1,0xee,0xee,0xee,0xee,
 0xee,0xee,0xee,0x8e,0x00,0x55,0x55,0x55,0x55,0x55,0x55,0x55,0x55,0x55,0x01,
 0x01,0x00,0x00,0x00,0x00,0x00,0x00,0x00,0x80,0x01,0x45,0x55,0x55,0x55,0x55,
 0x55,0x55,0x55,0x55,0x01,0x03,0x02,0x03,0x12,0x02,0x02,0x02,0x02,0x8a,0x00,
 0x45,0x5d,0x55,0x5d,0x55,0x55,0x55,0x55,0x55,0x01,0x01,0x00,0x00,0x00,0x00,
 0x00,0x00,0x00,0x88,0x01,0x45,0x55,0x55,0x55,0x55,0x55,0x55,0x55,0x55,0x01,
 0xe1,0xee,0xee,0xee,0xee,0xee,0xee,0xee,0x8e,0x00,0x55,0x55,0x55,0x55,0x55,
 0x55,0x55,0x55,0x55,0x01,0x01,0x00,0x00,0x00,0x00,0x00,0x00,0x00,0x80,0x01,
 0x45,0x55,0x55,0x55,0x55,0x55,0x55,0x55,0x55,0x01,0x01,0x02,0x01,0x02,0x00,
 0x02,0x00,0x02,0x88,0x00,0xd5,0x75,0x77,0x55,0x55,0x55,0x55,0x55,0x55,0x01,
 0x01,0x45,0x0d,0x02,0x00,0x00,0x00,0x00,0x88,0x01,0x45,0x55,0x55,0x55,0x55,
 0x55,0x55,0x55,0x55,0x01,0xe1,0xee,0xee,0xee,0xee,0xee,0xee,0xee,0x8e,0x00,
 0x55,0x55,0x55,0x55,0x55,0x55,0x55,0x55,0x55,0x01,0x01,0x00,0x00,0x00,0x00,
 0x00,0x00,0x00,0x80,0x01,0x45,0x55,0x55,0x55,0x55,0x55,0x55,0x55,0x55,0x01,
 0x03,0x02,0x02,0x02,0x02,0x02,0x02,0x02,0x8a,0x00,0xc5,0x75,0x5d,0x77,0x55,
 0x55,0x55,0x55,0x55,0x01,0x01,0x01,0x00,0x90,0x00,0x00,0x00,0x00,0x88,0x01,
 0x45,0x55,0x55,0x55,0x55,0x55,0x55,0x55,0x55,0x01,0x01,0x00,0x00,0x00,0x00,
 0x00,0x00,0x00,0x88,0x00,0x55,0x55,0x55,0x55,0x55,0x55,0x55,0x55,0x55,0x01,
 0x01,0x00,0x00,0x00,0x00,0x00,0x00,0x00,0x80,0x01,0x45,0x44,0x44,0x44,0x44,
 0x44,0x44,0x44,0x54,0x01,0x01,0x02,0x00,0x02,0x00,0x02,0x00,0x02,0x88,0x00,
 0x55,0x55,0x55,0x55,0x55,0x55,0x55,0x55,0x55,0x01,0x01,0x48,0x00,0x00,0x00,
 0x00,0x00,0x00,0x88,0x01,0x45,0x55,0x55,0x55,0x55,0x55,0x55,0x55,0x55,0x01,
 0x01,0x00,0x00,0x00,0x00,0x00,0x00,0x00,0x88,0x00,0x55,0x55,0x55,0x55,0x55,
 0x55,0x55,0x55,0x55,0x01,0x01,0x00,0x00,0x00,0x00,0x00,0x00,0x00,0x80,0x01,
 0x55,0x55,0x55,0x55,0x55,0x55,0x55,0x55,0x55,0x01,0xef,0xee,0xee,0xee,0xee,
 0xee,0xee,0xee,0xae,0x00,0x55,0x55,0x55,0x55,0x55,0x55,0x55,0x55,0x55,0x01,
 0x01,0x00,0x00,0x00,0x00,0x00,0x00,0x00,0x80,0x01,0x55,0x55,0x55,0x55,0x55,
 0x55,0x55,0x55,0x55,0x01,0x01,0x00,0x00,0x00,0x00,0x00,0x00,0x00,0x80,0x00,
 0x55,0x55,0x55,0x55,0x55,0x55,0x55,0x55,0x55,0x01,0x01,0x00,0x00,0x00,0x00,
 0x00,0x00,0x00,0x80,0x01,0x55,0x55,0x55,0x55,0x55,0x55,0x55,0x55,0x55,0x01,
 0x01,0x02,0x00,0x02,0x00,0x02,0x00,0x02,0x80,0x00,0x55,0x55,0x55,0x55,0x55,
 0x55,0x55,0x55,0x55,0x01,0x01,0x00,0x00,0x00,0x00,0x08,0x00,0x00,0x80,0x01,
 0x45,0xfd,0x55,0x55,0xff,0x55,0x55,0x7f,0x55,0x01,0x01,0x44,0x00,0x00,0x05,
 0x08,0xc0,0x31,0x80,0x00,0x55,0xd5,0x55,0x55,0x55,0x55,0x55,0x55,0x55,0x01,
 0x01,0x10,0x00,0x00,0x04,0x08,0x00,0x04,0x80,0x01,0x55,0x5d,0x55,0x55,0x5d,
 0x55,0x55,0x57,0x55,0x01,0x03,0x3a,0x02,0x02,0x0e,0x02,0x02,0x0e,0x82,0x00,
 0x55,0x7d,0x55,0x55,0x5f,0x55,0x55,0x4f,0x55,0x01,0x01,0x10,0x00,0x00,0x04,
 0x00,0x00,0x04,0x80,0x01,0x55,0x55,0x55,0x55,0x55,0x55,0x55,0x55,0x55,0x01,
 0xee,0xfe,0xee,0xee,0xee,0xee,0xee,0xee,0xee,0x00,0x00,0x10,0x00,0x00,0x04,
 0x00,0x00,0x04,0x00,0x00,0x00,0x10,0x00,0x00,0x04,0x00,0x00,0x04,0x00,0x00,
 0x00,0x10,0x00,0x00,0x04,0x00,0x00,0x04,0x00,0x00,0x00,0x10,0x00,0x00,0x04,
 0x00,0x00,0x04,0x00,0x00,0x00,0x10,0x00,0x00,0x04,0x00,0x00,0x04,0x00,0x00,
 0x00,0x10,0x00,0x00,0x04,0x00,0x00,0x04,0x00,0x00};
