#define noname_width 139
#define noname_height 86
static char noname_bits[] = {
 0x00,0xc0,0x01,0x0e,0x00,0x00,0x00,0x00,0x38,0x00,0x00,0x38,0x00,0xe0,0x00,
 0x9c,0x03,0x00,0x00,0x80,0x00,0x00,0x00,0x00,0x00,0x00,0x10,0x00,0x00,0x10,
 0x00,0x40,0x00,0x08,0x01,0x00,0x00,0xc0,0x01,0x0e,0x00,0x00,0x00,0x00,0x38,
 0x00,0x00,0x38,0x00,0xe0,0x00,0x9c,0x03,0x00,0x00,0x00,0x00,0x00,0x00,0x00,
 0x00,0x00,0x00,0x00,0x00,0x00,0x00,0x00,0x00,0x00,0x00,0x00,0x00,0x80,0x00,
 0x04,0x00,0x00,0x00,0x00,0x10,0x00,0x00,0x10,0x00,0x40,0x00,0x08,0x01,0x00,
 0x00,0x80,0x00,0x04,0x00,0x00,0x00,0x00,0x10,0x00,0x00,0x10,0x00,0x40,0x00,
 0x08,0x01,0x00,0x00,0x80,0x00,0x04,0x00,0x00,0x00,0x00,0x10,0x00,0x00,0x10,
 0x00,0x40,0x00,0x08,0x01,0x00,0x00,0x80,0x00,0x04,0x00,0x00,0x00,0x00,0x10,
 0x00,0x00,0x10,0x00,0x40,0x00,0x08,0x01,0x00,0x00,0x80,0x00,0x04,0x00,0x00,
 0x00,0x00,0x10,0x00,0x00,0x10,0x00,0x40,0x00,0x08,0x01,0x00,0xdf,0xff,0xff,
 0xff,0xff,0xff,0xff,0xff,0xff,0xff,0xff,0xff,0xff,0xff,0xff,0xff,0xff,0x07,
 0xae,0xae,0xae,0xae,0xae,0xae,0xae,0xae,0xbe,0xae,0xae,0xbe,0xae,0xee,0xae,
 0xae,0xaf,0x06,0xd7,0xff,0xff,0xff,0xff,0xff,0x7f,0x3f,0x7a,0x40,0xff,0xff,
 0xff,0xff,0xff,0xff,0xf5,0x07,0xaa,0xaa,0xaa,0xae,0xaa,0xaa,0xaa,0x80,0x98,
 0xaa,0xaa,0xba,0xaa,0xea,0xaa,0xaa,0xab,0x02,0xdf,0xff,0xfd,0xff,0xff,0xff,
 0xff,0xff,0xff,0xff,0xff,0xff,0xff,0xff,0xff,0xff,0xff,0x07,0x88,0x88,0x89,
 0x8c,0x88,0x88,0x88,0x88,0x98,0x88,0x88,0x98,0x88,0xc8,0x88,0x08,0x8b,0x06,
 0x01,0x80,0x00,0x04,0x00,0x00,0x00,0x00,0x10,0x00,0x00,0x10,0x00,0x40,0x00,
 0x08,0x01,0x04,0xa2,0x2e,0xb2,0x66,0x22,0x22,0x22,0x22,0x32,0x22,0x22,0x32,
 0x22,0x62,0x22,0xba,0x26,0x02,0x89,0x06,0x56,0x54,0x46,0x3b,0x01,0x00,0x10,
 0x00,0x00,0x10,0x00,0x40,0x00,0x88,0x77,0x04,0x88,0x88,0x88,0x8c,0x88,0x88,
 0x88,0x88,0x98,0x88,0x88,0x98,0x88,0xc8,0x88,0x88,0x88,0x06,0x01,0x00,0x00,
 0x04,0x00,0x00,0x00,0x00,0x10,0x00,0x00,0x10,0x00,0x40,0x00,0x08,0x00,0x04,
 0xaa,0xaa,0xaa,0xae,0xaa,0xaa,0xaa,0xaa,0xba,0xaa,0xaa,0xba,0xaa,0xca,0xaa,
 0xbe,0xaa,0x02,0x01,0x00,0x00,0x0c,0x00,0x00,0x00,0x00,0x18,0x00,0x00,0x10,
 0x00,0xc0,0x00,0x18,0x00,0x04,0x88,0x88,0xaa,0xae,0x88,0x88,0x88,0xa8,0xba,
 0x88,0x88,0x98,0x88,0x88,0x88,0x88,0x88,0x06,0x01,0x00,0x02,0x00,0x00,0x00,
 0x00,0x04,0x00,0x00,0x00,0x00,0x00,0x00,0x00,0x00,0x00,0x04,0x22,0x22,0x22,
 0x22,0x2a,0x22,0x26,0xaa,0x22,0x22,0xa2,0x23,0x22,0x22,0x22,0xe2,0x22,0x02,
 0x31,0x38,0x02,0x00,0x78,0x1b,0xa4,0x6c,0x00,0x00,0x80,0x43,0x02,0xb0,0x05,
 0xc0,0x05,0x04,0x88,0x88,0x8a,0x88,0x88,0x88,0x88,0x8c,0x88,0x88,0x88,0x88,
 0x88,0x88,0x88,0x88,0x88,0x06,0x01,0x00,0x00,0x00,0x00,0x00,0x00,0x00,0x00,
 0x00,0x40,0x5d,0x0d,0x5d,0x1d,0x58,0x5d,0x04,0x22,0x22,0x22,0x22,0x22,0x22,
 0x22,0x22,0x22,0x22,0x22,0x22,0x22,0x22,0x22,0x22,0x22,0x02,0x55,0x55,0x55,
 0x55,0x55,0x55,0x55,0x55,0x55,0x55,0x55,0x55,0x55,0x55,0x55,0x55,0x55,0x05,
 0x88,0x88,0x88,0x88,0x88,0x88,0x88,0x88,0x88,0x88,0x88,0x88,0x88,0x88,0x88,
 0x88,0x88,0x06,0x01,0x00,0x00,0x00,0x00,0x00,0x00,0x00,0x00,0x00,0x00,0x00,
 0x00,0x00,0x00,0x00,0x00,0x04,0x22,0x22,0x22,0x22,0x22,0x22,0x22,0x22,0x22,
 0x22,0x22,0x22,0x22,0x22,0x22,0x22,0x22,0x02,0x01,0x00,0x80,0x6d,0x07,0x00,
 0xb0,0x00,0x00,0x80,0x04,0x00,0x00,0xdb,0x00,0x00,0x00,0x04,0x88,0x88,0x88,
 0x89,0x88,0x88,0xe8,0x8b,0x88,0x88,0x8a,0x88,0x88,0x8a,0x88,0x88,0x88,0x06,
 0x01,0x00,0x00,0x00,0x00,0x00,0x00,0x00,0x00,0x00,0x00,0x00,0x00,0x00,0x00,
 0x00,0x00,0x04,0x22,0x2a,0x22,0x2a,0x22,0x2a,0x22,0x2a,0x22,0x2a,0x22,0x2a,
 0x22,0x2a,0x22,0x2a,0x22,0x02,0x01,0x00,0x55,0x55,0x55,0x55,0x55,0x55,0x55,
 0x55,0x55,0x55,0x55,0x55,0x55,0x01,0x00,0x04,0x88,0x88,0xaa,0xaa,0xaa,0xa8,
 0xaa,0xaa,0xaa,0xaa,0xaa,0xaa,0xaa,0xaa,0xaa,0x88,0x88,0x06,0x01,0x00,0x00,
 0x00,0x00,0x04,0x00,0x00,0x10,0x00,0x00,0x00,0x00,0x00,0x00,0x04,0x00,0x04,
 0x22,0xb2,0x22,0x22,0x22,0xb2,0x22,0x22,0x22,0x23,0x22,0x02,0x23,0x22,0x22,
 0x2a,0x22,0x02,0x01,0x10,0x00,0x00,0x00,0x04,0x00,0x00,0x10,0x01,0x00,0x00,
 0x00,0x00,0x00,0x14,0x00,0x04,0x88,0x88,0x88,0x88,0x88,0x88,0x88,0x88,0x88,
 0x88,0x88,0x88,0x88,0x88,0x88,0x88,0x88,0x06,0x01,0x00,0x00,0x00,0x00,0x04,
 0x00,0x00,0x10,0x00,0x00,0x00,0x00,0x00,0x00,0x04,0x00,0x04,0x22,0xa2,0x22,
 0x22,0x22,0x22,0x22,0x22,0x22,0x22,0x22,0x22,0x22,0x22,0x22,0x2a,0x22,0x02,
 0x01,0x00,0x00,0x00,0x00,0x04,0x00,0x00,0x10,0x00,0x00,0x00,0x00,0x00,0x00,
 0x04,0x00,0x04,0x88,0x88,0x88,0x88,0x88,0x88,0x88,0x88,0x88,0x88,0x88,0x88,
 0x88,0x88,0x88,0x88,0x88,0x06,0x01,0x00,0x00,0x00,0x00,0x84,0x00,0x00,0x10,
 0x01,0x00,0x00,0x00,0x00,0x00,0x04,0x00,0x04,0x22,0xb2,0x2e,0x22,0x22,0xb2,
 0x22,0x22,0x62,0x22,0x22,0x02,0x26,0x22,0x22,0x2a,0x22,0x02,0x01,0x00,0x00,
 0x00,0x00,0x04,0x00,0x00,0x10,0x00,0x00,0x00,0x00,0x00,0x00,0x04,0x00,0x04,
 0x88,0x88,0x88,0x08,0x88,0x08,0x88,0x08,0x88,0x08,0x88,0x08,0x88,0x08,0x88,
 0x88,0x88,0x06,0x01,0x00,0x55,0x5d,0x55,0x5d,0x55,0x5d,0x55,0x5d,0x55,0x1d,
 0x55,0x5d,0x55,0x04,0x00,0x04,0x22,0xaa,0x22,0x2a,0x22,0x2a,0x22,0x2a,0x22,
 0x2a,0x22,0x0a,0x22,0x2a,0x22,0x2a,0x22,0x02,0x01,0x10,0x24,0x00,0x00,0x04,
 0x00,0x00,0x50,0x01,0x00,0x00,0x00,0x00,0x00,0x04,0x00,0x04,0x88,0x88,0x88,
 0x88,0x88,0x98,0x88,0x88,0x88,0x89,0x88,0x88,0x88,0x88,0x88,0x88,0x88,0x06,
 0x01,0x00,0x00,0x00,0x00,0x04,0x00,0x00,0x10,0x00,0x00,0x00,0x00,0x00,0x00,
 0x04,0x00,0x04,0x22,0xa2,0x22,0x22,0x22,0x22,0x22,0x22,0x22,0x22,0x22,0x02,
 0x22,0x22,0x22,0x2a,0x22,0x02,0x01,0x00,0x00,0x00,0x00,0x00,0x00,0x00,0x00,
 0x00,0x00,0x00,0x00,0x00,0x00,0x04,0x00,0x04,0x88,0x88,0xaa,0xaa,0xaa,0xa8,
 0xaa,0xaa,0xaa,0xaa,0xaa,0xaa,0xaa,0xaa,0xaa,0x88,0x88,0x06,0x01,0x00,0x00,
 0x00,0x00,0x04,0x00,0x00,0x10,0x00,0x00,0x00,0x00,0x00,0x00,0x04,0x00,0x04,
 0x22,0xa2,0x22,0x22,0x22,0x22,0x22,0x22,0x22,0x22,0x22,0x02,0x22,0x22,0x22,
 0x2a,0x22,0x02,0x01,0x00,0x00,0x00,0x00,0x04,0x00,0x80,0x10,0x00,0x00,0x00,
 0x01,0x00,0x00,0x04,0x00,0x04,0x88,0x88,0x88,0x88,0x88,0x88,0x88,0xc8,0x88,
 0x88,0x88,0x88,0x88,0x88,0x88,0x88,0x88,0x06,0x01,0x00,0x00,0x00,0x00,0x04,
 0x00,0xc0,0x11,0x00,0x00,0x00,0x00,0x00,0x00,0x04,0x00,0x04,0x22,0xa2,0x22,
 0x22,0x22,0x22,0x22,0xa2,0x22,0x22,0x22,0x22,0x22,0x22,0x22,0x2a,0x22,0x02,
 0x01,0x00,0x00,0x00,0x00,0x04,0x00,0x80,0x10,0x00,0x00,0x00,0x00,0x00,0x00,
 0x04,0x00,0x04,0x88,0x88,0x88,0x88,0x88,0x88,0x88,0x88,0x88,0x88,0x88,0x88,
 0x88,0x88,0x88,0x88,0x88,0x06,0x01,0x10,0x24,0x00,0x00,0x94,0x00,0x80,0x50,
 0x00,0x00,0x00,0x04,0x00,0x00,0x04,0x00,0x04,0x22,0xba,0x2e,0x2a,0x22,0xba,
 0x22,0xaa,0x62,0x2b,0x22,0x0a,0x27,0x2a,0x22,0x2a,0x22,0x02,0x01,0x00,0x00,
 0x00,0x00,0x04,0x00,0x80,0x10,0x00,0x00,0x00,0x00,0x00,0x00,0x04,0x00,0x04,
 0x88,0x88,0x88,0x88,0x88,0x88,0x88,0x88,0x88,0x88,0x88,0x88,0x88,0x88,0x88,
 0x88,0x88,0x06,0x01,0x00,0x55,0x55,0x55,0x55,0x55,0xd5,0x55,0x55,0x55,0x15,
 0x55,0x55,0x55,0x04,0x00,0x04,0x22,0xa2,0x22,0x22,0x22,0x22,0x22,0xa2,0x22,
 0x22,0x22,0x02,0x22,0x22,0x22,0x2a,0x22,0x02,0x01,0x00,0x00,0x00,0x00,0x94,
 0x00,0x80,0x50,0x01,0x00,0x00,0x01,0x00,0x00,0x04,0x00,0x04,0x88,0x88,0x88,
 0x88,0x88,0x88,0x88,0x88,0x88,0x89,0x88,0x88,0x88,0x88,0x88,0x88,0x88,0x06,
 0x01,0x00,0x00,0x00,0x00,0x04,0x00,0x80,0x10,0x00,0x00,0x00,0x00,0x00,0x00,
 0x04,0x00,0x04,0x22,0xa2,0x22,0x22,0x22,0x22,0x22,0xa2,0x22,0x22,0x22,0x02,
 0x22,0x22,0x22,0x2a,0x22,0x02,0x01,0x00,0x00,0x00,0x00,0x00,0x00,0x80,0x00,
 0x00,0x00,0x00,0x00,0x00,0x00,0x04,0x00,0x04,0x88,0x88,0x88,0x88,0x88,0x88,
 0x88,0x88,0x88,0x88,0x88,0x88,0x88,0x88,0x88,0x88,0x88,0x06,0x01,0x00,0x00,
 0x00,0x00,0x00,0x00,0x80,0x00,0x00,0x00,0x00,0x00,0x00,0x00,0x04,0x00,0x04,
 0x22,0x22,0x00,0x00,0x00,0x00,0x00,0x80,0x00,0x00,0x00,0x00,0x00,0x00,0x00,
 0x22,0x22,0x02,0x01,0x00,0x00,0x00,0x00,0x00,0x00,0x80,0x00,0x00,0x00,0x00,
 0x00,0x00,0x00,0x00,0x00,0x04,0x88,0x88,0x88,0x88,0x88,0x88,0x88,0x88,0x88,
 0x88,0x88,0x88,0x88,0x88,0x88,0x88,0x88,0x06,0x01,0x00,0x00,0x00,0x00,0x00,
 0x00,0x80,0x00,0x00,0x00,0x00,0x00,0x00,0x00,0x00,0x00,0x04,0x22,0x2a,0x22,
 0x2a,0x22,0x2a,0x22,0xaa,0x22,0x2a,0x22,0x2a,0x22,0x2a,0x22,0x2a,0x22,0x02,
 0x81,0x01,0x01,0x00,0x00,0x00,0x00,0x80,0x00,0x00,0x00,0x00,0x00,0x00,0x00,
 0x60,0x00,0x04};
