#define noname_width 103
#define noname_height 99
static char noname_bits[] = {
 0x11,0x11,0x11,0x11,0x11,0x11,0x11,0x11,0x11,0x11,0x11,0x11,0x11,0x00,0x00,
 0x00,0x00,0x00,0x00,0x00,0x00,0x00,0x00,0x00,0x00,0x00,0x44,0x44,0x44,0x44,
 0x44,0x44,0x44,0x44,0x44,0x44,0x44,0x44,0x44,0x80,0xaa,0xaa,0xaa,0xaa,0xaa,
 0xaa,0xaa,0xaa,0xaa,0xaa,0xaa,0x0a,0x11,0x55,0x55,0x55,0x55,0x55,0x55,0x55,
 0x55,0x55,0x55,0x55,0x15,0x80,0x8a,0x8a,0x8a,0x8a,0x8a,0x8a,0x8a,0x8a,0x8a,
 0x8a,0x8a,0x0a,0x54,0x55,0x55,0x55,0x55,0x55,0x55,0x55,0x55,0x55,0x55,0x55,
 0x55,0x80,0x02,0x00,0x00,0x00,0x00,0x00,0x00,0x00,0x00,0x00,0x00,0x0a,0x11,
 0x01,0x00,0x00,0x00,0x00,0x00,0x00,0x00,0x00,0x00,0x00,0x14,0x80,0x00,0x00,
 0x00,0x00,0x00,0x00,0x00,0x00,0x00,0x00,0x00,0x0a,0x44,0x01,0x00,0x00,0x00,
 0x00,0x00,0x00,0x00,0x00,0x00,0x40,0x45,0x80,0x02,0x00,0x00,0x00,0x00,0x00,
 0x00,0x00,0x00,0x00,0x80,0x0a,0x11,0x01,0x00,0x00,0x00,0x00,0x00,0x00,0x00,
 0x00,0x00,0x40,0x15,0x80,0x02,0x82,0x80,0x08,0x8a,0x82,0x00,0x08,0x82,0x82,
 0x88,0x0a,0x44,0x01,0x45,0x51,0x10,0x04,0x41,0x51,0x14,0x45,0x41,0x50,0x45,
 0x80,0x02,0x82,0xa0,0x28,0x8a,0xa2,0x20,0x08,0x82,0xa2,0xa8,0x0a,0x11,0x01,
 0x10,0x04,0x45,0x51,0x14,0x04,0x41,0x10,0x14,0x45,0x15,0x80,0x02,0x28,0x0a,
 0x80,0x20,0x08,0x8a,0xa0,0x28,0x08,0x82,0x08,0x44,0x01,0x10,0x04,0x45,0x51,
 0x14,0x04,0x41,0x10,0x14,0x45,0x45,0x80,0x02,0xaa,0xaa,0xaa,0xaa,0xaa,0xaa,
 0xaa,0xaa,0xaa,0xaa,0x0a,0x11,0x01,0x55,0x55,0x55,0x55,0x55,0x55,0x55,0x55,
 0x55,0x55,0x15,0x80,0x02,0x8a,0x8a,0x8a,0x8a,0x8a,0x8a,0x8a,0x8a,0x8a,0x8a,
 0x0a,0x54,0x01,0x10,0x00,0x00,0x00,0x00,0x00,0x00,0x00,0x00,0x45,0x55,0x80,
 0x02,0x28,0x00,0x00,0x00,0x00,0x00,0x00,0x00,0x00,0x82,0x0a,0x11,0x01,0x10,
 0x00,0x00,0x00,0x00,0x00,0x00,0x00,0x00,0x45,0x15,0x80,0x00,0x2a,0x00,0x00,
 0x00,0x00,0x00,0x00,0x00,0x00,0xa8,0x0a,0x44,0x01,0x15,0x00,0x00,0x00,0x00,
 0x00,0x00,0x00,0x00,0x55,0x45,0x80,0x02,0x2a,0x00,0x00,0x00,0x00,0x00,0x00,
 0x00,0x00,0xaa,0x0a,0x11,0x01,0x50,0x55,0x55,0x55,0x55,0x55,0x55,0x55,0x55,
 0x45,0x15,0x80,0x02,0x88,0x8a,0x8a,0x8a,0x8a,0x8a,0x8a,0x8a,0x8a,0x82,0x0a,
 0x44,0x01,0x50,0x55,0x55,0x55,0x55,0x55,0x55,0x55,0x55,0x45,0x45,0x80,0x02,
 0xa8,0xaa,0xaa,0xaa,0xaa,0xaa,0xaa,0xaa,0xaa,0x82,0x0a,0x11,0x01,0x15,0x04,
 0x45,0x51,0x14,0x04,0x41,0x45,0x41,0x55,0x15,0x80,0x02,0x28,0x0a,0x80,0x20,
 0x08,0x8a,0xa0,0x82,0xa0,0xaa,0x08,0x44,0x01,0x15,0x04,0x45,0x51,0x14,0x04,
 0x41,0x45,0x41,0x55,0x45,0x80,0x02,0xa8,0x00,0x2a,0xa0,0x02,0x2a,0xa0,0x00,
 0x00,0x82,0x0a,0x11,0x01,0x50,0x01,0x15,0x50,0x01,0x54,0x40,0x00,0x00,0x45,
 0x15,0x80,0x02,0x88,0x00,0x0a,0x80,0x02,0x0a,0x80,0x00,0x00,0x82,0x0a,0x54,
 0x01,0x15,0x00,0x05,0x50,0x00,0x04,0x40,0x05,0x00,0x55,0x55,0x80,0x02,0x2a,
 0x00,0x02,0x20,0x00,0x0a,0xa0,0x02,0x00,0xaa,0x0a,0x11,0x01,0x15,0x00,0x05,
 0x50,0x00,0x04,0x40,0x05,0x00,0x55,0x15,0x80,0x00,0xa8,0xa8,0xaa,0xa8,0xaa,
 0xa8,0xaa,0xa8,0xaa,0x80,0x0a,0x44,0x01,0x50,0x55,0x55,0x55,0x55,0x55,0x55,
 0x55,0x55,0x45,0x45,0x80,0x02,0xa8,0xaa,0xaa,0xaa,0xaa,0xaa,0xaa,0xaa,0xaa,
 0x82,0x0a,0x11,0x01,0x15,0x04,0x45,0x51,0x14,0x04,0x41,0x45,0x41,0x55,0x15,
 0x80,0x02,0x0a,0x0a,0x82,0x00,0x08,0x8a,0x82,0x82,0x82,0x8a,0x0a,0x44,0x01,
 0x15,0x04,0x45,0x51,0x14,0x04,0x41,0x45,0x41,0x55,0x45,0x80,0x02,0xa8,0x00,
 0x2a,0xa0,0x02,0x2a,0xa0,0x00,0x00,0x82,0x0a,0x11,0x01,0x50,0x01,0x15,0x50,
 0x01,0x54,0x40,0x00,0x00,0x45,0x15,0x80,0x02,0xa8,0x00,0x28,0xa0,0x00,0x2a,
 0xa0,0x00,0x00,0x82,0x08,0x44,0x01,0x15,0x00,0x05,0x50,0x00,0x04,0x40,0x05,
 0x00,0x55,0x45,0x80,0x02,0x2a,0x00,0x02,0x20,0x00,0x0a,0xa0,0x02,0x00,0xaa,
 0x0a,0x11,0x01,0x15,0x00,0x05,0x50,0x00,0x04,0x40,0x05,0x00,0x55,0x15,0x80,
 0x02,0x88,0x8a,0x8a,0x8a,0x8a,0x8a,0x8a,0x8a,0x8a,0x82,0x0a,0x54,0x01,0x50,
 0x55,0x55,0x55,0x55,0x55,0x55,0x55,0x55,0x45,0x55,0x80,0x02,0xa8,0xaa,0xaa,
 0xaa,0xaa,0xaa,0xaa,0xaa,0xaa,0x82,0x0a,0x11,0x01,0x50,0x55,0x55,0x55,0x55,
 0x55,0x55,0x55,0x55,0x45,0x15,0x80,0x00,0x2a,0x08,0x82,0x20,0x08,0x88,0xa2,
 0x80,0xa2,0xa8,0x0a,0x44,0x01,0x15,0x04,0x45,0x51,0x14,0x04,0x41,0x45,0x41,
 0x55,0x45,0x80,0x02,0x2a,0x0a,0x82,0x20,0x08,0x8a,0xa2,0x82,0xa2,0xaa,0x0a,
 0x11,0x01,0x50,0x01,0x15,0x50,0x01,0x54,0x40,0x00,0x00,0x45,0x15,0x80,0x02,
 0x88,0x00,0x0a,0x80,0x02,0x0a,0x80,0x00,0x00,0x82,0x0a,0x44,0x01,0x50,0x01,
 0x15,0x50,0x01,0x54,0x40,0x00,0x00,0x45,0x45,0x80,0x02,0x2a,0x00,0x02,0x20,
 0x00,0x0a,0xa0,0x02,0x00,0xaa,0x0a,0x11,0x01,0x15,0x00,0x05,0x50,0x00,0x04,
 0x40,0x05,0x00,0x55,0x15,0x80,0x02,0x28,0x00,0x00,0x20,0x00,0x0a,0xa0,0x02,
 0x00,0xaa,0x08,0x44,0x01,0x50,0x55,0x55,0x55,0x55,0x55,0x55,0x55,0x55,0x45,
 0x45,0x80,0x02,0xa8,0xaa,0xaa,0xaa,0xaa,0xaa,0xaa,0xaa,0xaa,0x82,0x0a,0x11,
 0x01,0x50,0x55,0x55,0x55,0x55,0x55,0x55,0x55,0x55,0x45,0x15,0x80,0x02,0x0a,
 0x0a,0x82,0x00,0x08,0x8a,0x82,0x82,0x82,0x8a,0x0a,0x54,0x01,0x15,0x04,0x45,
 0x51,0x14,0x04,0x41,0x45,0x41,0x55,0x55,0x80,0x02,0x2a,0x0a,0x82,0x20,0x08,
 0x8a,0xa2,0x82,0xa2,0xaa,0x0a,0x11,0x01,0x50,0x01,0x15,0x50,0x01,0x54,0x40,
 0x00,0x00,0x45,0x15,0x80,0x00,0xa8,0x00,0x2a,0xa0,0x02,0x28,0xa0,0x00,0x00,
 0x80,0x0a,0x44,0x01,0x50,0x01,0x15,0x50,0x01,0x54,0x40,0x00,0x00,0x45,0x45,
 0x80,0x02,0x2a,0x00,0x02,0x20,0x00,0x0a,0xa0,0x02,0x00,0xaa,0x0a,0x11,0x01,
 0x15,0x00,0x05,0x50,0x00,0x04,0x40,0x05,0x00,0x55,0x15,0x80,0x02,0x0a,0x00,
 0x02,0x00,0x00,0x0a,0x80,0x02,0x00,0x8a,0x0a,0x44,0x01,0x50,0x01,0x15,0x50,
 0x01,0x54,0x40,0x00,0x00,0x45,0x45,0x80,0x02,0xa8,0x00,0x2a,0xa0,0x02,0x2a,
 0xa0,0x00,0x00,0x82,0x0a,0x11,0x01,0x50,0x01,0x15,0x50,0x01,0x54,0x40,0x00,
 0x00,0x45,0x15,0x80,0x02,0xa8,0x00,0x28,0xa0,0x00,0x2a,0xa0,0x00,0x00,0x82,
 0x08,0x44,0x01,0x55,0x55,0x55,0x55,0x55,0x55,0x55,0x55,0x55,0x55,0x45,0x80,
 0x02,0xaa,0xaa,0xaa,0xaa,0xaa,0xaa,0xaa,0xaa,0xaa,0xaa,0x0a,0x11,0x01,0x55,
 0x55,0x55,0x55,0x55,0x55,0x55,0x55,0x55,0x55,0x15,0x80,0x02,0x08,0x0a,0x82,
 0x00,0x08,0x8a,0x82,0x08,0x08,0x82,0x0a,0x54,0x01,0x10,0x04,0x45,0x51,0x14,
 0x04,0x41,0x10,0x14,0x45,0x55,0x80,0x02,0x28,0x0a,0x82,0x20,0x08,0x8a,0xa2,
 0x28,0x08,0x82,0x0a,0x11,0x01,0x45,0x51,0x10,0x04,0x41,0x51,0x14,0x45,0x41,
 0x50,0x15,0x80,0x00,0x82,0xa0,0x28,0x88,0xa2,0x20,0x08,0x80,0xa2,0xa8,0x0a,
 0x44,0x01,0x45,0x51,0x10,0x04,0x41,0x51,0x14,0x45,0x41,0x50,0x45,0x80,0xa2,
 0xaa,0xaa,0xaa,0xaa,0xaa,0xaa,0xaa,0xaa,0xaa,0xaa,0x0a,0x11,0x41,0x55,0x55,
 0x55,0x55,0x55,0x55,0x55,0x55,0x55,0x55,0x15,0x80,0x82,0x8a,0x8a,0x8a,0x8a,
 0x8a,0x8a,0x8a,0x8a,0x8a,0x8a,0x0a,0x44,0x55,0x55,0x55,0x55,0x55,0x55,0x55,
 0x55,0x55,0x55,0x55,0x45,0x80,0xaa,0xaa,0xaa,0xaa,0xaa,0xaa,0xaa,0xaa,0xaa,
 0xaa,0xaa,0x0a,0x11,0x55,0x55,0x55,0x55,0x55,0x55,0x55,0x55,0x55,0x55,0x55,
 0x15,0x00,0x00,0x00,0x00,0x00,0x00,0x00,0x00,0x00,0x00,0x00,0x00,0x00,0x44,
 0x44,0x44,0x44,0x44,0x44,0x44,0x44,0x44,0x44,0x44,0x44,0x44};
