#define noname_width 165
#define noname_height 92
static char noname_bits[] = {
 0x60,0xc0,0x01,0x1c,0x00,0x0c,0x00,0x00,0x00,0x00,0x00,0x00,0x00,0x00,0x00,
 0x00,0x00,0x00,0x00,0x00,0x00,0x60,0xc1,0x02,0x3c,0x00,0x2c,0x00,0x00,0x00,
 0x00,0x00,0x00,0x00,0x00,0x00,0x00,0x00,0x00,0x00,0x00,0x00,0xe0,0xc0,0x01,
 0x1c,0x00,0x14,0x00,0x00,0x00,0x00,0x00,0x00,0x00,0x00,0x00,0x00,0x00,0x00,
 0x00,0x00,0x00,0x00,0x00,0x00,0x00,0x00,0x00,0x00,0x00,0x00,0x00,0x00,0x00,
 0x00,0x00,0x00,0x00,0x00,0x00,0x00,0x00,0x00,0x40,0x80,0x00,0x08,0x00,0x10,
 0x00,0x00,0x00,0x00,0x00,0x00,0x00,0x00,0x00,0x00,0x00,0x00,0x00,0x00,0x00,
 0x40,0x80,0x00,0x08,0x00,0x10,0x00,0x00,0x00,0x00,0x00,0x00,0x00,0x00,0x00,
 0x00,0x00,0x00,0x00,0x00,0x00,0x40,0x80,0x00,0x08,0x00,0x10,0x00,0x00,0x00,
 0x00,0x00,0x00,0x00,0x00,0x00,0x00,0x00,0x00,0x00,0x00,0x00,0x40,0x80,0x00,
 0x08,0x00,0x10,0x00,0x00,0x00,0x00,0x00,0x00,0x00,0x00,0x00,0x00,0x00,0x00,
 0x00,0x00,0x00,0x40,0x80,0x00,0x08,0x00,0x10,0x00,0x00,0x00,0x00,0x00,0x00,
 0x00,0x00,0x00,0x00,0x00,0x00,0x00,0x00,0x00,0xee,0xee,0xee,0xee,0xee,0xfe,
 0xee,0xee,0xee,0xee,0xee,0xee,0xee,0xee,0xee,0xee,0xee,0xee,0xee,0xee,0x0e,
 0xff,0xff,0xff,0xff,0xff,0xff,0xff,0xff,0xff,0xff,0xff,0xff,0xff,0xff,0xff,
 0xff,0xff,0xff,0xff,0x7f,0x1f,0xea,0xaa,0xaa,0xaa,0xaa,0xba,0xaa,0xaa,0xaa,
 0x82,0x8a,0xaa,0xaa,0xaa,0xaa,0xaa,0xaa,0xaa,0xaa,0xaa,0x0a,0xff,0xff,0xff,
 0xff,0xff,0xff,0xff,0xff,0xff,0x47,0x45,0xff,0xff,0xff,0xff,0xff,0xff,0xff,
 0xff,0x7f,0x1f,0xee,0xae,0xae,0xae,0xae,0xbe,0xae,0xae,0xae,0xae,0xae,0xae,
 0xae,0xae,0xae,0xae,0xae,0xae,0xae,0xae,0x0e,0xe0,0xc1,0x01,0x1c,0x00,0x10,
 0x00,0x00,0x00,0x00,0x00,0x00,0x00,0x00,0x00,0x00,0x00,0x00,0x00,0x00,0x00,
 0xea,0xea,0xab,0xba,0xaa,0xba,0xaa,0xaa,0xaa,0xaa,0xaa,0xaa,0xaa,0xaa,0xaa,
 0xaa,0xaa,0xaa,0xaa,0xaa,0x0a,0xc1,0x80,0x00,0x08,0x00,0x10,0x00,0x00,0x00,
 0x00,0x00,0x00,0x00,0x00,0x00,0x00,0x00,0x00,0x00,0x00,0x10,0xe8,0x2a,0x28,
 0xa2,0xaa,0xba,0xaa,0xaa,0xaa,0xaa,0xaa,0xaa,0xaa,0xaa,0xaa,0xaa,0xaa,0xaa,
 0xaa,0xaa,0x0a,0x41,0x01,0x00,0x00,0x00,0x10,0x00,0x00,0x00,0x00,0x00,0x00,
 0x00,0x00,0x00,0x00,0x00,0x00,0x00,0x00,0x18,0xaa,0xaa,0xaa,0xaa,0xaa,0xba,
 0xaa,0xaa,0xaa,0xaa,0xaa,0xaa,0xaa,0xaa,0xaa,0xaa,0xaa,0xaa,0xaa,0xaa,0x0a,
 0x01,0x00,0x00,0x00,0x00,0x10,0x00,0x00,0x00,0x00,0x00,0x00,0x00,0x00,0x00,
 0x00,0x00,0x00,0x00,0x00,0x10,0xa8,0xaa,0xaa,0xaa,0xaa,0xba,0xaa,0xaa,0xaa,
 0xaa,0xaa,0xaa,0xaa,0xaa,0xaa,0xaa,0xaa,0xaa,0xaa,0xaa,0x0a,0x5d,0x5d,0x5d,
 0x5d,0x5d,0x7d,0x5d,0x5d,0x5d,0x5d,0x5d,0x5d,0x5d,0x5d,0x5d,0x5d,0x5d,0x5d,
 0x5d,0x5d,0x1d,0x22,0x22,0x22,0x22,0x22,0x3a,0x22,0x22,0x22,0x22,0x22,0x22,
 0x22,0x22,0x22,0x22,0x22,0x22,0x22,0x22,0x0a,0x01,0x00,0x00,0x00,0x00,0x18,
 0x00,0x00,0x00,0x00,0x00,0x00,0x00,0x00,0x00,0x00,0x00,0x00,0x00,0x00,0x10,
 0x8a,0x88,0x88,0x88,0x88,0x88,0x88,0x88,0x88,0x88,0x88,0x88,0x88,0x88,0x88,
 0x88,0x88,0x88,0x88,0x88,0x08,0x01,0x00,0x00,0x00,0x06,0xeb,0x80,0x03,0x00,
 0x00,0x00,0x00,0x00,0x00,0x00,0x00,0x00,0x00,0x00,0x00,0x10,0x22,0x22,0x6b,
 0xaa,0x36,0x6f,0xa2,0x22,0x22,0x22,0x22,0x22,0x22,0x22,0x22,0x22,0x22,0x22,
 0x22,0x22,0x0a,0x01,0x00,0x00,0x08,0x00,0x00,0x00,0x00,0x00,0x00,0x00,0x00,
 0x00,0x00,0x00,0x00,0x00,0x00,0x00,0x00,0x10,0x8a,0x88,0x88,0x88,0x88,0x88,
 0x88,0x88,0x88,0x88,0x88,0x88,0x88,0x88,0x88,0x88,0x88,0x88,0x88,0x88,0x08,
 0x01,0x00,0x00,0x00,0x00,0x00,0x00,0x00,0x00,0x00,0x00,0x00,0x00,0x00,0x00,
 0x00,0x00,0x00,0x00,0x00,0x10,0x22,0x2a,0x22,0x2a,0x22,0x2a,0x22,0x2a,0x22,
 0x2a,0x22,0x2a,0x22,0x2a,0x22,0x2a,0x22,0x2a,0x22,0x2a,0x0a,0x01,0x00,0x00,
 0x00,0x00,0x00,0x00,0x00,0x00,0x00,0x00,0x00,0x00,0x00,0x00,0x00,0x00,0x00,
 0x00,0x00,0x10,0x8a,0x88,0x88,0x88,0x88,0x88,0x88,0x88,0x88,0x88,0x88,0x88,
 0x88,0x88,0x88,0x88,0x88,0x88,0x88,0x88,0x08,0x01,0x00,0x00,0x00,0x00,0x00,
 0x00,0x00,0x00,0x00,0x00,0x00,0x00,0x00,0x00,0x00,0x00,0x00,0x00,0x00,0x10,
 0x22,0x22,0x22,0x22,0x22,0x22,0x22,0x22,0x22,0x22,0x22,0x22,0x22,0x22,0x22,
 0x22,0x22,0x22,0x22,0x22,0x0a,0x01,0x00,0x00,0x00,0x00,0x00,0x00,0x00,0x00,
 0x00,0x00,0x10,0x01,0x00,0x00,0x00,0x00,0x00,0x00,0x00,0x10,0x8a,0x8a,0x88,
 0x8a,0x88,0x88,0x88,0x88,0x88,0x88,0x88,0x88,0x89,0x88,0x88,0x88,0x08,0x88,
 0x88,0x88,0x08,0x01,0x05,0x00,0x00,0xa0,0x00,0x00,0x00,0x00,0x00,0x02,0x90,
 0x01,0x00,0x00,0x00,0x00,0xf4,0x00,0x00,0x18,0x22,0x22,0x22,0x22,0x22,0x22,
 0x22,0x22,0x22,0x22,0xa2,0x22,0x22,0x22,0x22,0x22,0x22,0x7a,0xaa,0x22,0x0a,
 0x01,0x00,0x00,0x00,0x00,0x00,0x00,0x00,0x00,0x00,0x00,0x10,0x00,0x00,0x00,
 0x00,0x00,0x00,0x00,0x00,0x10,0x8a,0x88,0x88,0x8a,0x88,0x88,0x88,0x88,0x88,
 0x88,0x88,0x88,0x88,0x88,0x88,0x88,0x88,0x88,0x88,0x88,0x08,0x01,0x00,0x00,
 0x00,0x00,0x00,0x00,0x00,0x00,0x00,0x00,0x00,0x00,0x00,0x00,0x00,0x00,0x00,
 0x00,0x00,0x10,0x22,0x22,0x22,0x22,0x22,0x22,0x22,0x22,0x22,0x22,0x22,0x22,
 0x22,0x22,0x22,0x22,0x22,0x22,0x22,0x22,0x0a,0x01,0x00,0x00,0x00,0x00,0x00,
 0x00,0x00,0x00,0x00,0x00,0x00,0x00,0x00,0x00,0x00,0x00,0x00,0x00,0x00,0x10,
 0x8a,0x88,0x88,0x88,0x88,0x88,0x88,0x88,0x88,0x88,0x88,0x88,0x88,0x88,0x88,
 0x88,0x88,0x88,0x88,0x88,0x08,0x01,0x00,0x00,0x00,0x00,0x00,0x00,0x00,0x00,
 0x00,0x00,0x00,0x00,0x00,0x00,0x00,0x00,0x00,0x00,0x04,0x10,0x22,0x2a,0x22,
 0x28,0x22,0x2a,0x22,0x2a,0x22,0x2a,0x22,0x2a,0x22,0x2a,0x22,0x2a,0x22,0x2a,
 0xa2,0x2a,0x0a,0x01,0x05,0x00,0x00,0x20,0x0a,0x00,0x00,0x00,0x00,0x00,0x50,
 0x00,0x00,0x00,0x00,0x00,0x00,0x00,0x04,0x10,0x8a,0x8a,0x88,0x88,0xa8,0x8c,
 0x88,0x88,0x88,0x88,0x8b,0xc8,0x88,0x88,0x88,0x88,0x88,0xd8,0x88,0x88,0x08,
 0x01,0x85,0x80,0x00,0xa0,0x08,0x00,0x00,0x00,0x00,0x03,0x50,0x00,0x00,0x00,
 0x00,0x00,0x50,0x00,0x04,0x10,0x22,0x20,0x22,0x20,0x22,0x3a,0x22,0x22,0x22,
 0x22,0x22,0xe2,0x22,0x22,0x22,0x22,0x22,0x22,0xa2,0x22,0x0a,0x01,0x00,0x00,
 0x00,0x00,0x00,0x00,0x00,0x00,0x00,0x00,0x10,0x00,0x00,0x00,0x00,0x00,0x00,
 0x00,0x04,0x10,0x8a,0x88,0x88,0x88,0x88,0x88,0x88,0x88,0x88,0x88,0x88,0x88,
 0x88,0x88,0x88,0x88,0x88,0x88,0x88,0x88,0x08,0x01,0x00,0x00,0x00,0x00,0x00,
 0x00,0x00,0x00,0x00,0x00,0x00,0x00,0x00,0x00,0x00,0x00,0x00,0x00,0x04,0x18,
 0x22,0x22,0x22,0x22,0x22,0x22,0x22,0x22,0x22,0x22,0x22,0x22,0x22,0x22,0x22,
 0x22,0x22,0x22,0x22,0x22,0x0a,0x01,0x00,0x00,0x00,0x00,0x00,0x00,0x00,0x00,
 0x00,0x00,0x00,0x00,0x00,0x00,0x00,0x00,0x00,0x00,0x07,0x10,0x8a,0x88,0x88,
 0x88,0x88,0x88,0x88,0x88,0x88,0x88,0x88,0x88,0x88,0x88,0x88,0x88,0x88,0x88,
 0x88,0x8f,0x08,0x01,0x00,0x00,0x00,0x50,0x55,0x55,0x55,0x55,0x01,0x00,0x50,
 0x55,0x55,0x55,0x55,0x05,0x00,0x00,0x02,0x10,0x22,0x22,0x22,0x22,0x22,0x22,
 0x22,0x22,0x22,0x22,0x22,0x22,0x22,0x22,0x22,0x22,0x22,0x22,0x22,0x26,0x0a,
 0x01,0x81,0x00,0x00,0x00,0xc2,0x04,0x00,0x00,0x00,0x00,0x10,0x00,0x00,0x00,
 0x00,0x00,0x00,0x00,0x04,0x10,0x8a,0x8a,0x88,0x8a,0x88,0xea,0x88,0x88,0x88,
 0x88,0x8a,0x88,0x88,0x88,0x88,0x88,0x88,0x88,0x88,0x8c,0x08,0x01,0x01,0x00,
 0x00,0x00,0x00,0x00,0x00,0x00,0x00,0x00,0x10,0x00,0x00,0x00,0x00,0x00,0x00,
 0x00,0x04,0x10,0x22,0x2a,0x22,0x2a,0x22,0x2a,0x22,0x2a,0x22,0x2a,0x22,0x2a,
 0x22,0x2a,0x22,0x2a,0x22,0x2a,0x22,0x2a,0x0a,0x01,0x00,0x40,0x01,0x00,0x00,
 0x00,0x00,0x00,0x40,0x55,0x11,0x00,0x00,0x00,0x00,0x00,0x00,0x00,0x08,0x10,
 0x8a,0x88,0x88,0x88,0x88,0x88,0x88,0x88,0x88,0x88,0x88,0x88,0x88,0x88,0x88,
 0x88,0x88,0x88,0x88,0x88,0x08,0x01,0x00,0x00,0x00,0x00,0x00,0x00,0x00,0x00,
 0x00,0x00,0x00,0x00,0x00,0x00,0x00,0x00,0x00,0x00,0x08,0x10,0x22,0x22,0x22,
 0x22,0x22,0x22,0x22,0x22,0x22,0x22,0x22,0x22,0x22,0x22,0x22,0x22,0x22,0x22,
 0x22,0x32,0x0a,0x01,0x00,0x00,0x00,0x00,0x00,0x00,0x00,0x00,0x00,0x00,0x00,
 0x00,0x00,0x00,0x00,0x00,0x00,0x00,0x10,0x10,0x8a,0x88,0x88,0x88,0x88,0x88,
 0x88,0x88,0x88,0x88,0x88,0x88,0x88,0x88,0x88,0x88,0x88,0x88,0x88,0x98,0x08,
 0x01,0x00,0x00,0x00,0x00,0x00,0x00,0x00,0x00,0x00,0x00,0x00,0x00,0x00,0x00,
 0x00,0x00,0x00,0x00,0x10,0x18,0x22,0x22,0x22,0x22,0x22,0x22,0x22,0x22,0x22,
 0x22,0x22,0x22,0x22,0x22,0x22,0x22,0x22,0x22,0x22,0x32,0x0a,0x01,0x00,0x00,
 0x00,0x00,0x00,0x00,0x00,0x00,0x00,0x00,0x00,0x00,0x00,0x00,0x00,0x00,0x00,
 0x00,0x20,0x10,0x8a,0x88,0x88,0x88,0x88,0x88,0x88,0x88,0x88,0x88,0x88,0x88,
 0x88,0x88,0x88,0x88,0x88,0x88,0x88,0xa8,0x08,0x01,0x00,0x00,0x00,0x00,0x00,
 0x00,0x00,0x00,0x00,0x00,0x00,0x00,0x00,0x00,0x00,0x00,0x00,0x00,0x20,0x10,
 0x22,0x22,0x22,0x22,0x22,0x22,0x22,0x22,0x22,0x22,0x22,0x22,0x22,0x22,0x22,
 0x22,0x22,0x22,0x22,0x22,0x0a,0x01,0x00,0x00,0x00,0x00,0x00,0x00,0x00,0x00,
 0x00,0x00,0x00,0x00,0x00,0x00,0x00,0x00,0x00,0x00,0x40,0x10,0x8a,0x88,0x88,
 0x88,0x88,0x8a,0x88,0x88,0x88,0x88,0x88,0x88,0x88,0x88,0x88,0x88,0x88,0x88,
 0x88,0xca,0x08,0x01,0x00,0x00,0x26,0x00,0x00,0x00,0x00,0x00,0xe0,0x80,0x05,
 0x00,0x00,0x00,0x00,0x00,0x2c,0x00,0x40,0x10,0x23,0x2a,0x62,0x2e,0x22,0x2a,
 0x22,0x2a,0x22,0xfa,0xa2,0x2a,0x22,0x2a,0x22,0x22,0x22,0x3e,0x22,0x6a,0x1a,
 0x01,0x00,0x00,0x04,0x00,0x00,0x00,0x00,0x00,0x40,0x00,0x00,0x00,0x00,0x00,
 0x00,0x00,0x00,0x00,0x80,0x10,0x8a,0xa8,0xaa,0xa8,0xaa,0x8a,0x88,0x88,0xa8,
 0xaa,0xaa,0xaa,0x8a,0x88,0x88,0xa8,0xaa,0xae,0xaa,0x8a,0x08,0x01,0x00,0x00,
 0x06,0x00,0x00,0x00,0x00,0x00,0x00,0x06,0x00,0x00,0x00,0x00,0x00,0x00,0x04,
 0x00,0x80,0x10,0x22,0x22,0x22,0x26,0x22,0x22,0x22,0x22,0x22,0x22,0x26,0x22,
 0x22,0x22,0x22,0x22,0x22,0x2e,0x22,0xa2,0x0a,0xff,0xff,0xff,0xff,0xff,0xff,
 0xff,0xff,0xff,0xff,0xff,0xff,0xff,0xff,0xff,0xff,0xff,0xee,0xff,0xff,0x1f,
 0x00,0x00,0x00,0x02,0x00,0x00,0x00,0x00,0x00,0x00,0x04,0x00,0x00,0x00,0x00,
 0x00,0x00,0x04,0x00,0x00,0x01,0x00,0x00,0x00,0x02,0x00,0x00,0x00,0x00,0x00,
 0x00,0x04,0x00,0x00,0x00,0x00,0x00,0x00,0x04,0x00,0x00,0x01,0x00,0x00,0x00,
 0x02,0x00,0x00,0x00,0x00,0x00,0x00,0x04,0x00,0x00,0x00,0x00,0x00,0x00,0x04,
 0x00,0x00,0x01,0x00,0x00,0x00,0x00,0x00,0x00,0x00,0x00,0x00,0x00,0x00,0x00,
 0x00,0x00,0x00,0x00,0x00,0x00,0x00,0x00,0x00,0x00,0x00,0x00,0x07,0x00,0x00,
 0x00,0x00,0x00,0x00,0x07,0x00,0x00,0x00,0x00,0x00,0x00,0x0e,0x00,0x00,0x07,
 0x00,0x00,0x00,0x07,0x00,0x00,0x00,0x00,0x00,0x00,0x0f,0x00,0x00,0x00,0x00,
 0x00,0x00,0x1e,0x00,0x00,0x0f,0x00,0x00,0x00,0x07,0x00,0x00,0x00,0x00,0x00,
 0x00,0x07,0x00,0x00,0x00,0x00,0x00,0x00,0x0e,0x00,0x00,0x07};
