#define noname_width 105
#define noname_height 99
static char noname_bits[] = {
 0x11,0x11,0x11,0x11,0x11,0x11,0x11,0x11,0x11,0x11,0x11,0x11,0x11,0x01,0x00,
 0x00,0x00,0x00,0x00,0x00,0x00,0x00,0x00,0x00,0x00,0x00,0x00,0x00,0x44,0x44,
 0x44,0x44,0x44,0x44,0x44,0x44,0x44,0x44,0x44,0x44,0x44,0x00,0xe0,0xff,0xff,
 0xff,0xff,0xff,0xff,0xff,0xff,0xff,0xff,0xff,0x07,0x00,0x51,0x55,0x55,0x55,
 0x55,0x55,0x55,0x55,0x55,0x55,0x55,0x55,0x15,0x01,0xa0,0xbb,0xbb,0xbb,0xbb,
 0xbb,0xbb,0xbb,0xbb,0xbb,0xbb,0xbb,0x03,0x00,0x54,0x55,0x55,0x55,0x55,0x55,
 0x55,0x55,0x55,0x55,0x55,0x55,0x55,0x00,0xe0,0x00,0x00,0x00,0x00,0x00,0x00,
 0x00,0x00,0x00,0x00,0x00,0x06,0x00,0x51,0x00,0x00,0x00,0x00,0x00,0x00,0x00,
 0x00,0x00,0x00,0x00,0x15,0x01,0xa0,0x00,0x00,0x00,0x00,0x00,0x00,0x00,0x00,
 0x00,0x00,0x00,0x03,0x00,0x44,0x00,0x00,0x00,0x00,0x00,0x00,0x00,0x00,0x00,
 0x00,0x50,0x45,0x00,0xe0,0x00,0x00,0x00,0x00,0x00,0x00,0x00,0x00,0x00,0x00,
 0xf0,0x07,0x00,0x51,0x00,0x00,0x00,0x00,0x00,0x00,0x00,0x00,0x00,0x00,0x50,
 0x15,0x01,0xa0,0x80,0xa1,0x38,0x8a,0x83,0x31,0x18,0x83,0xa3,0x38,0xba,0x03,
 0x00,0x44,0x40,0x41,0x10,0x04,0x41,0x51,0x14,0x05,0x41,0x10,0x54,0x45,0x00,
 0xe0,0xc0,0xe0,0x38,0x8e,0xc2,0x70,0x1c,0x86,0xe2,0x38,0xfe,0x06,0x00,0x51,
 0x00,0x14,0x45,0x55,0x15,0x04,0x41,0x50,0x14,0x45,0x51,0x15,0x01,0xa0,0x00,
 0x1a,0x83,0xbb,0x3b,0x8a,0xa3,0x38,0x18,0x83,0xb1,0x03,0x00,0x44,0x00,0x14,
 0x45,0x55,0x15,0x04,0x41,0x50,0x14,0x45,0x51,0x45,0x00,0xe0,0xc0,0xe1,0x3f,
 0x00,0xc0,0x71,0xfc,0xff,0xff,0x38,0xfe,0x07,0x00,0x51,0x40,0x41,0x15,0x00,
 0x40,0x51,0x54,0x55,0x55,0x10,0x54,0x15,0x01,0xa0,0x80,0xa1,0x3b,0x00,0x80,
 0x31,0xb8,0xbb,0xbb,0x38,0xba,0x03,0x00,0x54,0x00,0x54,0x40,0x55,0x01,0x04,
 0x15,0x00,0x00,0x45,0x51,0x55,0x00,0xe0,0x00,0xfe,0xc0,0xfe,0x02,0x8e,0x1e,
 0x00,0x00,0xc6,0xf0,0x06,0x00,0x51,0x00,0x54,0x40,0x55,0x01,0x04,0x15,0x00,
 0x00,0x45,0x51,0x15,0x01,0xa0,0x80,0x1b,0x38,0x00,0x38,0xb0,0x03,0xbb,0x1b,
 0x38,0xba,0x03,0x00,0x44,0x40,0x15,0x10,0x00,0x14,0x50,0x01,0x55,0x15,0x10,
 0x54,0x45,0x00,0xe0,0xc0,0x1f,0x38,0x00,0x3c,0xf0,0x03,0xff,0x1f,0x38,0xfe,
 0x07,0x00,0x51,0x00,0x14,0x05,0x54,0x40,0x01,0x40,0x00,0x40,0x40,0x51,0x15,
 0x01,0xa0,0x00,0x1a,0x03,0x3a,0x80,0x01,0xa0,0x00,0xa0,0x80,0xb1,0x03,0x00,
 0x44,0x00,0x14,0x05,0x54,0x40,0x01,0x40,0x00,0x40,0x40,0x51,0x45,0x00,0xe0,
 0x00,0x1e,0x06,0x7e,0xc0,0x00,0xe0,0x00,0xe0,0xc0,0xf0,0x06,0x00,0x51,0x40,
 0x15,0x45,0x01,0x41,0x01,0x14,0x50,0x01,0x05,0x54,0x15,0x01,0xa0,0x80,0x1b,
 0x83,0x81,0x83,0x01,0x18,0xb8,0x03,0x03,0xba,0x03,0x00,0x44,0x40,0x15,0x45,
 0x01,0x41,0x01,0x14,0x50,0x01,0x05,0x54,0x45,0x00,0xe0,0x00,0x1e,0x07,0x7e,
 0xc0,0x01,0x1c,0x07,0x1c,0xc7,0xf1,0x07,0x00,0x51,0x00,0x14,0x05,0x54,0x40,
 0x01,0x14,0x05,0x14,0x45,0x51,0x15,0x01,0xa0,0x00,0x1a,0x03,0x3a,0x80,0x01,
 0x18,0x03,0x18,0x83,0xb1,0x03,0x00,0x54,0x40,0x15,0x10,0x00,0x14,0x50,0x14,
 0x50,0x01,0x05,0x54,0x55,0x00,0xe0,0xc0,0x1e,0x38,0x00,0x3c,0x70,0x1c,0xf8,
 0x02,0x06,0xfe,0x06,0x00,0x51,0x40,0x15,0x10,0x00,0x14,0x50,0x14,0x50,0x01,
 0x05,0x54,0x15,0x01,0xa0,0x00,0xa0,0x80,0xbb,0x03,0x30,0xa0,0x00,0xa0,0x80,
 0xb1,0x03,0x00,0x44,0x00,0x40,0x40,0x55,0x01,0x50,0x40,0x00,0x40,0x40,0x51,
 0x45,0x00,0xe0,0x00,0xe0,0xc0,0xff,0x03,0x70,0xe0,0x00,0xe0,0xc0,0xf1,0x07,
 0x00,0x51,0x40,0x41,0x05,0x00,0x00,0x04,0x01,0x55,0x15,0x10,0x54,0x15,0x01,
 0xa0,0x80,0xa1,0x03,0x00,0x00,0x8a,0x03,0xbb,0x1b,0x38,0xba,0x03,0x00,0x44,
 0x40,0x41,0x05,0x00,0x00,0x04,0x01,0x55,0x15,0x10,0x54,0x45,0x00,0xe0,0x00,
 0x1e,0x3e,0xf0,0xfe,0x00,0x1c,0x00,0x00,0xc6,0xf0,0x06,0x00,0x51,0x00,0x14,
 0x15,0x50,0x55,0x01,0x14,0x00,0x00,0x45,0x51,0x15,0x01,0xa0,0x00,0x1a,0x3b,
 0xb0,0xbb,0x01,0x18,0x00,0x00,0x83,0xb1,0x03,0x00,0x44,0x40,0x41,0x10,0x00,
 0x00,0x04,0x40,0x55,0x01,0x15,0x54,0x45,0x00,0xe0,0xc0,0xe1,0x38,0x00,0x00,
 0x0e,0xe0,0xff,0x03,0x3f,0xfe,0x07,0x00,0x51,0x40,0x41,0x10,0x00,0x00,0x04,
 0x40,0x55,0x01,0x15,0x54,0x15,0x01,0xa0,0x00,0x1a,0x03,0x00,0x00,0x30,0xa0,
 0x00,0x00,0xb8,0xb1,0x03,0x00,0x54,0x00,0x14,0x05,0x00,0x00,0x50,0x40,0x00,
 0x00,0x50,0x51,0x55,0x00,0xe0,0x00,0x1e,0x06,0x00,0x00,0x70,0xe0,0x00,0x00,
 0xf8,0xf0,0x06,0x00,0x51,0x00,0x14,0x05,0x00,0x00,0x50,0x40,0x00,0x00,0x50,
 0x51,0x15,0x01,0xa0,0x80,0xa1,0x80,0xbb,0xbb,0x81,0x1b,0xb8,0xbb,0x80,0xbb,
 0x03,0x00,0x44,0x40,0x41,0x40,0x55,0x55,0x01,0x15,0x50,0x55,0x40,0x55,0x45,
 0x00,0xe0,0xc0,0xe1,0xc0,0xff,0xff,0x81,0x1f,0xf8,0xff,0xc0,0xff,0x07,0x00,
 0x51,0x00,0x14,0x10,0x00,0x00,0x04,0x00,0x05,0x00,0x55,0x51,0x15,0x01,0xa0,
 0x00,0x1a,0x38,0x00,0x00,0x0a,0x00,0x03,0x00,0xbb,0xb1,0x03,0x00,0x44,0x00,
 0x14,0x10,0x00,0x00,0x04,0x00,0x05,0x00,0x55,0x51,0x45,0x00,0xe0,0xc0,0x1e,
 0x06,0xfe,0x3e,0x70,0xe0,0x80,0x1e,0xc0,0xfe,0x06,0x00,0x51,0x40,0x15,0x05,
 0x54,0x15,0x50,0x40,0x00,0x15,0x40,0x55,0x15,0x01,0xa0,0x80,0x1b,0x03,0xba,
 0x3b,0x30,0xa0,0x80,0x1b,0x80,0xbb,0x03,0x00,0x44,0x00,0x14,0x45,0x01,0x40,
 0x51,0x40,0x50,0x40,0x40,0x51,0x45,0x00,0xe0,0x00,0x1e,0xc7,0x01,0xc0,0x71,
 0xe0,0x78,0xe0,0xc0,0xf1,0x07,0x00,0x51,0x00,0x14,0x45,0x01,0x40,0x51,0x40,
 0x50,0x40,0x40,0x51,0x15,0x01,0xa0,0x80,0x1b,0x83,0x01,0x80,0x31,0xa0,0x80,
 0x1b,0x80,0xbb,0x03,0x00,0x54,0x40,0x15,0x45,0x01,0x40,0x51,0x40,0x00,0x15,
 0x40,0x55,0x55,0x00,0xe0,0xc0,0x1e,0xc6,0x00,0xc0,0x70,0xe0,0x80,0x1e,0xc0,
 0xfe,0x06,0x00,0x51,0x00,0x14,0x05,0x54,0x15,0x50,0x00,0x05,0x00,0x55,0x51,
 0x15,0x01,0xa0,0x00,0x1a,0x03,0xba,0x3b,0x30,0x00,0x03,0x00,0xbb,0xb1,0x03,
 0x00,0x44,0x00,0x14,0x05,0x54,0x15,0x50,0x00,0x05,0x00,0x55,0x51,0x45,0x00,
 0xe0,0xc0,0x1f,0x38,0x00,0x00,0x0e,0x1c,0xf8,0xff,0xc0,0xff,0x07,0x00,0x51,
 0x40,0x15,0x10,0x00,0x00,0x04,0x14,0x50,0x55,0x40,0x55,0x15,0x01,0xa0,0x80,
 0x1b,0x38,0x00,0x00,0x0a,0x18,0xb8,0xbb,0x80,0xbb,0x03,0x00,0x44,0x00,0x54,
 0x40,0x55,0x55,0x01,0x55,0x00,0x00,0x55,0x51,0x45,0x00,0xe0,0x00,0xfe,0xc0,
 0xfe,0xfe,0x80,0xfe,0x00,0x00,0xfe,0xf0,0x06,0x00,0x51,0x00,0x54,0x40,0x55,
 0x55,0x01,0x55,0x00,0x00,0x55,0x51,0x15,0x01,0xa0,0x00,0xba,0x80,0xbb,0xbb,
 0x81,0xbb,0x00,0x00,0xbb,0xb1,0x03,0x00,0x44,0x40,0x41,0x05,0x00,0x00,0x50,
 0x14,0x55,0x55,0x15,0x54,0x45,0x00,0xe0,0xc0,0xe1,0x07,0x00,0x00,0x70,0x1c,
 0xff,0xff,0x3f,0xfe,0x07,0x00,0x51,0x40,0x41,0x05,0x00,0x00,0x50,0x14,0x55,
 0x55,0x15,0x54,0x15,0x01,0xa0,0x00,0x1a,0xbb,0xbb,0xbb,0x8b,0xa3,0x38,0x18,
 0x83,0xb1,0x03,0x00,0x54,0x00,0x14,0x55,0x55,0x55,0x05,0x41,0x50,0x14,0x45,
 0x51,0x55,0x00,0xe0,0x00,0x1e,0xfe,0xfe,0xfe,0x8e,0xe2,0x78,0x1c,0xc6,0xf0,
 0x06,0x00,0x51,0x40,0x41,0x10,0x04,0x41,0x51,0x14,0x05,0x41,0x10,0x54,0x15,
 0x01,0xa0,0x80,0xa1,0x38,0x8a,0x83,0x31,0x18,0x83,0xa3,0x38,0xba,0x03,0x00,
 0x44,0x40,0x41,0x10,0x04,0x41,0x51,0x14,0x05,0x41,0x10,0x54,0x45,0x00,0xe0,
 0xf8,0xff,0xff,0xff,0xff,0xff,0xff,0xff,0xff,0xff,0xff,0x07,0x00,0x51,0x50,
 0x55,0x55,0x55,0x55,0x55,0x55,0x55,0x55,0x55,0x55,0x15,0x01,0xa0,0xb8,0xbb,
 0xbb,0xbb,0xbb,0xbb,0xbb,0xbb,0xbb,0xbb,0xbb,0x03,0x00,0x44,0x55,0x55,0x55,
 0x55,0x55,0x55,0x55,0x55,0x55,0x55,0x55,0x45,0x00,0xe0,0xfe,0xfe,0xfe,0xfe,
 0xfe,0xfe,0xfe,0xfe,0xfe,0xfe,0xfe,0x06,0x00,0x51,0x55,0x55,0x55,0x55,0x55,
 0x55,0x55,0x55,0x55,0x55,0x55,0x15,0x01,0x00,0x00,0x00,0x00,0x00,0x00,0x00,
 0x00,0x00,0x00,0x00,0x00,0x00,0x00,0x44,0x44,0x44,0x44,0x44,0x44,0x44,0x44,
 0x44,0x44,0x44,0x44,0x44,0x00};
