#define noname_width 273
#define noname_height 99
static char noname_bits[] = {
 0x01,0x01,0x01,0x01,0x01,0x01,0x01,0x01,0x01,0x01,0x01,0x01,0x01,0x01,0x01,
 0x01,0x01,0x01,0x01,0x01,0x01,0x01,0x01,0x01,0x01,0x01,0x01,0x01,0x01,0x01,
 0x01,0x01,0x01,0x01,0x01,0x00,0x00,0x00,0x00,0x00,0x00,0x00,0x00,0x00,0x00,
 0x00,0x00,0x00,0x00,0x00,0x00,0x00,0x00,0x00,0x00,0x00,0x00,0x00,0x00,0x00,
 0x00,0x00,0x00,0x00,0x00,0x00,0x00,0x00,0x80,0x01,0x54,0x55,0x55,0x55,0x55,
 0x55,0x55,0x55,0x55,0x55,0x55,0x55,0x55,0x55,0x55,0x55,0x55,0x55,0x55,0x55,
 0x55,0x55,0x55,0x55,0x55,0x55,0x55,0x55,0x55,0x55,0x55,0x55,0x55,0x55,0x01,
 0x00,0x00,0x00,0x00,0x00,0x00,0x00,0x00,0x00,0x00,0x00,0x00,0x00,0x00,0x00,
 0x00,0x00,0x00,0x00,0x00,0x00,0x00,0x00,0x00,0x00,0x00,0x00,0x00,0x00,0x00,
 0x00,0x00,0x00,0xe0,0x00,0x51,0x55,0x55,0x55,0x55,0x55,0x55,0x55,0x55,0x55,
 0x55,0x55,0x55,0x55,0x55,0x55,0x55,0x55,0x55,0x55,0x55,0x55,0x55,0x55,0x55,
 0x55,0x55,0x55,0x55,0x55,0x55,0x55,0x55,0x55,0x01,0x00,0x00,0x00,0x00,0x00,
 0x00,0x00,0x00,0x00,0x00,0x00,0x00,0x00,0x00,0x00,0x00,0x00,0x00,0x00,0x00,
 0x00,0x00,0x00,0x00,0x00,0x00,0x00,0x00,0x00,0x00,0x00,0x00,0x00,0xa0,0x01,
 0x54,0x55,0x55,0x55,0x55,0x55,0x55,0x55,0x55,0x55,0x55,0x55,0x55,0x55,0x55,
 0x55,0x55,0x55,0x55,0x55,0x55,0x55,0x55,0x55,0x55,0x55,0x55,0x55,0x55,0x55,
 0x55,0x55,0x55,0x55,0x01,0x00,0x02,0x3e,0x02,0x00,0x02,0x3e,0x02,0x00,0x02,
 0xc0,0xc3,0x0f,0x02,0x00,0x02,0x00,0x02,0x00,0x02,0xf8,0x02,0x00,0x02,0x00,
 0x02,0xf8,0xc2,0x03,0x02,0x00,0xc2,0x07,0xe2,0x00,0xd1,0xdf,0x7f,0x55,0x55,
 0x55,0x7d,0x55,0x55,0xff,0x57,0x55,0x5f,0x55,0x55,0x55,0x55,0x55,0x55,0x55,
 0xf5,0x55,0x55,0x55,0x55,0x55,0xf5,0xd5,0x57,0x55,0x55,0x55,0x57,0x55,0x01,
 0xc0,0xdf,0x3f,0x00,0x00,0x00,0x38,0x00,0x00,0xfe,0x03,0x00,0x0e,0x00,0x00,
 0x00,0x00,0x00,0x00,0x00,0xe0,0x00,0x00,0x00,0x00,0x00,0xe0,0x80,0x03,0x00,
 0x00,0x00,0x07,0xa0,0x01,0x54,0xd7,0x7d,0x55,0x55,0x55,0x7d,0x55,0x55,0x5d,
 0x57,0x55,0x5f,0x55,0x55,0x55,0x55,0x55,0x55,0x55,0xf5,0x55,0x55,0x55,0x55,
 0x55,0xf5,0xd5,0x57,0x55,0x55,0x55,0x57,0x55,0x01,0x00,0xc7,0xf9,0x83,0x1f,
 0xfc,0x38,0x0e,0x00,0x1c,0xf8,0x01,0x0e,0xfc,0x01,0xe0,0x3e,0xf8,0xfd,0x7d,
 0xff,0xf8,0xb9,0x0d,0x7e,0x00,0xe0,0x8e,0x7f,0xf0,0xc3,0x1f,0xc7,0xe1,0x00,
 0x51,0xd7,0xfd,0xd7,0x5f,0xfd,0x7d,0x5f,0x55,0x5d,0xfd,0x55,0x5f,0xfd,0x55,
 0xf5,0x7f,0xfd,0xfd,0x7d,0xff,0xfd,0xfd,0x5d,0x7f,0x55,0xf5,0xdf,0x7f,0xf5,
 0xd7,0x5f,0xd7,0x55,0x01,0x00,0xff,0x39,0xee,0x71,0xc7,0x39,0x07,0x00,0xfc,
 0xc0,0x01,0x0e,0x8e,0x03,0xc0,0xe1,0x80,0x73,0x90,0xe3,0x1e,0xf7,0x9f,0xe3,
 0x00,0xe0,0xb9,0xe3,0x1d,0xe7,0x38,0x77,0xa0,0x01,0x54,0xd7,0x7d,0xff,0x75,
 0xd7,0xfd,0x55,0x55,0xdd,0xd5,0x55,0x5f,0xff,0x57,0xd5,0xf5,0xfd,0x77,0xd7,
 0xf7,0xff,0x77,0xd7,0xf7,0x55,0xf5,0xfd,0xf7,0x5d,0xf7,0x7d,0x7f,0x55,0x01,
 0x00,0xc7,0x3b,0xee,0x73,0xc7,0xfb,0x03,0x02,0x9e,0xc2,0x03,0x0e,0xfe,0x03,
 0xc2,0xe3,0xfa,0x73,0x92,0xe3,0xfe,0x77,0x92,0xe3,0x02,0xe2,0xba,0xe3,0x1f,
 0xe7,0x3a,0x3f,0xe2,0x00,0x51,0xd7,0x7d,0xff,0x75,0xd7,0xfd,0x55,0x55,0x5d,
 0xd5,0x55,0x5f,0x5f,0x55,0xd5,0xf5,0xdf,0xf7,0xd7,0xf7,0x5f,0x75,0xd7,0xf7,
 0x55,0xf5,0xfd,0xf7,0x5d,0xf7,0x7d,0x7f,0x55,0x01,0x00,0xc7,0x39,0xee,0x71,
 0xc7,0x39,0x07,0x00,0x1c,0xc0,0x01,0x0e,0x8e,0x03,0xc0,0xe1,0x8e,0xe3,0x8f,
 0xe3,0x1e,0x77,0x92,0xe3,0xe0,0xe0,0xb8,0xe3,0x1d,0xe7,0x38,0x77,0xa0,0x01,
 0x54,0xd7,0x7d,0xff,0x75,0xd7,0x7d,0x57,0x55,0x5d,0xd5,0x55,0x5f,0xdf,0x57,
 0xd5,0xf5,0xdf,0xf7,0xdf,0xf7,0x5f,0x77,0xd7,0xf7,0xf5,0xf5,0xfd,0xf7,0x5d,
 0xf7,0x7d,0x77,0x55,0x01,0xc0,0xdf,0xff,0x83,0x1f,0xfc,0x3e,0x3e,0x00,0x7e,
 0xf8,0xdf,0x7f,0xfc,0x01,0xc0,0x3f,0xf8,0xef,0x0d,0xff,0xf9,0x79,0x12,0x7e,
 0xe0,0xf8,0xfe,0x7f,0xf0,0xc3,0xdf,0xc7,0xe3,0x00,0x51,0x55,0x55,0x55,0x55,
 0x55,0x55,0x55,0x55,0x55,0x55,0x55,0x55,0x55,0x55,0xd5,0x55,0x55,0x55,0x55,
 0x55,0x55,0x55,0x55,0x55,0x55,0x55,0x55,0x55,0x55,0x55,0x55,0x55,0x55,0x01,
 0x00,0x00,0x00,0x00,0x00,0x00,0x00,0x00,0x00,0x00,0x00,0x00,0x00,0x00,0x00,
 0xc0,0x01,0x00,0x00,0x00,0x00,0x00,0x00,0x00,0x00,0x00,0x00,0x00,0x00,0x00,
 0x00,0x00,0x00,0xa0,0x01,0x54,0x55,0x55,0x55,0x55,0x55,0x55,0x55,0x55,0x55,
 0x55,0x55,0x55,0x55,0x55,0xd5,0x55,0x55,0x55,0x55,0x55,0x55,0x55,0x55,0x55,
 0x55,0x55,0x55,0x55,0x55,0x55,0x55,0x55,0x55,0x01,0x00,0x02,0x00,0x02,0x00,
 0x02,0x00,0x02,0x00,0x02,0x00,0x02,0x00,0x02,0x00,0xc2,0x01,0x02,0x00,0x02,
 0x00,0x02,0x00,0x02,0x00,0x02,0x00,0x02,0x00,0x02,0x00,0x02,0x00,0xe2,0x00,
 0x51,0x55,0x55,0x55,0x55,0x55,0x55,0x55,0x55,0x55,0x55,0x55,0x55,0x55,0x55,
 0xf5,0x57,0x55,0x55,0x55,0x55,0x55,0x55,0x55,0x55,0x55,0x55,0x55,0x55,0x55,
 0x55,0x55,0x55,0x55,0x01,0x00,0x00,0x00,0x00,0x00,0x00,0x00,0x00,0x00,0x00,
 0x00,0x00,0x00,0x00,0x00,0x00,0x00,0x00,0x00,0x00,0x00,0x00,0x00,0x00,0x00,
 0x00,0x00,0x00,0x00,0x00,0x00,0x00,0x00,0xa0,0x01,0x54,0x55,0x55,0x55,0x55,
 0x55,0x55,0x55,0x55,0x55,0x55,0x55,0x55,0x55,0x55,0x55,0x55,0x55,0x55,0x55,
 0x55,0x55,0x55,0x55,0x55,0x55,0x55,0x55,0x55,0x55,0x55,0x55,0x55,0x55,0x01,
 0x00,0x00,0x00,0x00,0x00,0x00,0x00,0x00,0x00,0x00,0x00,0x00,0x00,0x00,0x00,
 0x00,0x00,0x00,0x00,0x00,0x00,0x00,0x00,0x00,0x00,0x00,0x00,0x00,0x00,0x00,
 0x00,0x00,0x00,0xe0,0x00,0x51,0x55,0x55,0x55,0x55,0x55,0x55,0x55,0x55,0x55,
 0x55,0x55,0x55,0x55,0x55,0x55,0x55,0x55,0x55,0x55,0x55,0x55,0x55,0x55,0x55,
 0x55,0x55,0x55,0x55,0x55,0x55,0x55,0x55,0x55,0x01,0xb8,0xbb,0xbb,0xbb,0xbb,
 0xbb,0xbb,0xbb,0xbb,0xbb,0xbb,0xbb,0xbb,0xbb,0xbb,0xbb,0xbb,0xbb,0xbb,0xbb,
 0xbb,0xbb,0xbb,0xbb,0xbb,0xbb,0xbb,0xbb,0xbb,0xbb,0xbb,0xbb,0xbb,0xbb,0x01,
 0x44,0x44,0x44,0x44,0x44,0x44,0x44,0x44,0x44,0x44,0x44,0x44,0x44,0x44,0x44,
 0x44,0x44,0x44,0x44,0x44,0x44,0x44,0x44,0x44,0x44,0x44,0x44,0x44,0x44,0x44,
 0x44,0x44,0x44,0x44,0x01,0x00,0x02,0x02,0x02,0x02,0x02,0x02,0x02,0x02,0x02,
 0x02,0x02,0x02,0x02,0x02,0x02,0x02,0x02,0x02,0x02,0x02,0x02,0x02,0x02,0x02,
 0x02,0x02,0x02,0x02,0x02,0x02,0x02,0x02,0xe2,0x00,0x51,0x55,0x55,0x55,0x55,
 0x55,0x55,0x55,0x55,0x55,0x55,0x55,0x55,0x55,0x55,0x55,0x55,0x55,0x55,0x55,
 0x55,0x55,0x55,0x55,0x55,0x55,0x55,0x55,0x55,0x55,0x55,0x55,0x55,0x55,0x01,
 0x00,0x00,0x00,0x00,0x00,0x00,0x00,0x00,0x00,0x00,0x00,0x00,0x00,0x00,0x00,
 0x00,0x00,0x00,0x00,0x00,0x00,0x00,0x00,0x00,0x00,0x00,0x00,0x00,0x00,0x00,
 0x00,0x00,0x00,0xa0,0x01,0x54,0x55,0x55,0x55,0x55,0x55,0x55,0x55,0x55,0x55,
 0x55,0x55,0x55,0x55,0x55,0x55,0x55,0x55,0x55,0x55,0x55,0x55,0x55,0x55,0x55,
 0x55,0x55,0x55,0x55,0x55,0x55,0x55,0x55,0x55,0x01,0x00,0x00,0x00,0x00,0x00,
 0x00,0x00,0x00,0x00,0x00,0x00,0x00,0x00,0x00,0x00,0x00,0x00,0x00,0x00,0x00,
 0x00,0x00,0x00,0x00,0x00,0x00,0x00,0x00,0x00,0x00,0x00,0x00,0x00,0xe0,0x00,
 0x51,0x55,0x55,0x55,0x55,0x55,0x55,0x55,0x55,0x55,0x55,0x55,0x55,0x55,0x55,
 0x55,0x55,0x55,0x55,0x55,0x55,0x55,0x55,0x55,0x55,0x55,0x55,0x55,0x55,0x55,
 0x55,0x55,0x55,0x55,0x01,0x00,0x00,0x00,0x00,0x00,0x00,0x00,0x00,0x00,0x00,
 0x00,0x00,0x00,0x00,0x00,0x00,0x00,0x00,0x00,0x00,0x00,0x00,0x00,0x00,0x00,
 0x00,0x00,0x00,0x00,0x00,0x00,0x00,0x00,0xa0,0x01,0x54,0x55,0x55,0x55,0x55,
 0x55,0x55,0x55,0x55,0x55,0x55,0x55,0x55,0x55,0x55,0x55,0x55,0x55,0x55,0x55,
 0x55,0x55,0x55,0x55,0x55,0x55,0x55,0x55,0x55,0x55,0x55,0x55,0x55,0x55,0x01,
 0x00,0x02,0x00,0x02,0x00,0x02,0x00,0x02,0x00,0x02,0x00,0x02,0x00,0x02,0x00,
 0x02,0x00,0x02,0x00,0x02,0x00,0x02,0x00,0x02,0x00,0x02,0x00,0x02,0x00,0x02,
 0x00,0x02,0x00,0xe2,0x00,0x51,0xf5,0x57,0x55,0x55,0x55,0x55,0x55,0x55,0x55,
 0x55,0x55,0x55,0x55,0x55,0x55,0x55,0x55,0x55,0x55,0x55,0x55,0x55,0x55,0x55,
 0x55,0x55,0x55,0x55,0x55,0x55,0x55,0x55,0x55,0x01,0x00,0xe0,0x07,0x00,0x00,
 0x00,0x00,0x00,0x00,0x00,0x00,0x00,0x00,0x00,0x00,0x00,0x00,0x00,0x00,0x00,
 0x00,0x00,0x00,0x00,0x00,0x00,0x00,0x00,0x00,0x00,0x00,0x00,0x00,0xa0,0x01,
 0x54,0x7d,0x5f,0x55,0x55,0x55,0x55,0x55,0x55,0x55,0x55,0x55,0x55,0x55,0x55,
 0x55,0x55,0x55,0x55,0x55,0x55,0x55,0x55,0x55,0x55,0x55,0x55,0x55,0x55,0x55,
 0x55,0x55,0x55,0x55,0x01,0x00,0x38,0x0e,0x00,0x00,0x00,0x00,0x00,0x00,0x00,
 0x00,0x00,0x00,0x00,0x00,0x00,0x00,0x00,0x00,0x00,0x00,0x00,0x00,0x00,0x00,
 0x00,0x00,0x00,0x00,0x00,0x00,0x00,0x00,0xe0,0x00,0x51,0x7d,0x7f,0x5f,0xfd,
 0xdd,0x57,0x55,0x55,0x55,0x55,0x55,0x55,0x55,0x55,0x55,0x55,0x55,0x55,0x55,
 0x55,0x55,0x55,0x55,0x55,0x55,0x55,0x55,0x55,0x55,0x55,0x55,0x55,0x55,0x01,
 0x00,0x38,0xce,0x71,0x8e,0xfb,0x1e,0x00,0x00,0x00,0x00,0x00,0x00,0x00,0x00,
 0x00,0x00,0x00,0x00,0x00,0x00,0x00,0x00,0x00,0x00,0x00,0x00,0x00,0x00,0x00,
 0x00,0x00,0x00,0xa0,0x01,0x54,0x7d,0xdf,0x75,0xdf,0xff,0x5f,0x55,0x55,0x55,
 0x55,0x55,0x55,0x55,0x55,0x55,0x55,0x55,0x55,0x55,0x55,0x55,0x55,0x55,0x55,
 0x55,0x55,0x55,0x55,0x55,0x55,0x55,0x55,0x55,0x01,0x00,0x3a,0xce,0x73,0xfe,
 0x3b,0x1e,0x02,0x02,0x02,0x02,0x02,0x02,0x02,0x02,0x02,0x02,0x02,0x02,0x02,
 0x02,0x02,0x02,0x02,0x02,0x02,0x02,0x02,0x02,0x02,0x02,0x02,0x02,0xe2,0x00,
 0x51,0x7d,0xdf,0x75,0x5f,0x7d,0x5f,0x55,0x55,0x55,0x55,0x55,0x55,0x55,0x55,
 0x55,0x55,0x55,0x55,0x55,0x55,0x55,0x55,0x55,0x55,0x55,0x55,0x55,0x55,0x55,
 0x55,0x55,0x55,0x55,0x01,0x00,0x38,0xce,0x71,0x0e,0x38,0x1e,0x00,0x00,0x00,
 0x00,0x00,0x00,0x00,0x00,0x00,0x00,0x00,0x00,0x00,0x00,0x00,0x00,0x00,0x00,
 0x00,0x00,0x00,0x00,0x00,0x00,0x00,0x00,0xa0,0x01,0x54,0x7d,0xdf,0x75,0xdf,
 0x7f,0x5f,0x55,0x55,0x55,0x55,0x55,0x55,0x55,0x55,0x55,0x55,0x55,0x55,0x55,
 0x55,0x55,0x55,0x55,0x55,0x55,0x55,0x55,0x55,0x55,0x55,0x55,0x55,0x55,0x01,
 0x00,0xe0,0xc7,0x1f,0xfc,0xfc,0x1e,0x00,0x00,0x00,0x00,0x00,0x00,0x00,0x00,
 0x00,0x00,0x00,0x00,0x00,0x00,0x00,0x00,0x00,0x00,0x00,0x00,0x00,0x00,0x00,
 0x00,0x00,0x00,0xe0,0x00,0x51,0xf5,0xd7,0x5f,0xfd,0xfd,0x5f,0x55,0x55,0x55,
 0x55,0x55,0x55,0x55,0x55,0x55,0x55,0x55,0x55,0x55,0x55,0x55,0x55,0x55,0x55,
 0x55,0x55,0x55,0x55,0x55,0x55,0x55,0x55,0x55,0x01,0x00,0x00,0xc0,0x01,0x00,
 0x00,0x00,0x00,0x00,0x00,0x00,0x00,0x00,0x00,0x00,0x00,0x00,0x00,0x00,0x00,
 0x00,0x00,0x00,0x00,0x00,0x00,0x00,0x00,0x00,0x00,0x00,0x00,0x00,0xa0,0x01,
 0x54,0x55,0xd5,0x55,0x55,0x55,0x55,0x55,0x55,0x55,0x55,0x55,0x55,0x55,0x55,
 0x55,0x55,0x55,0x55,0x55,0x55,0x55,0x55,0x55,0x55,0x55,0x55,0x55,0x55,0x55,
 0x55,0x55,0x55,0x55,0x01,0x00,0x02,0xc0,0x03,0x00,0x02,0x00,0x02,0x00,0x02,
 0x00,0x02,0x00,0x02,0x00,0x02,0x00,0x02,0x00,0x02,0x00,0x02,0x00,0x02,0x00,
 0x02,0x00,0x02,0x00,0x02,0x00,0x02,0x00,0xe2,0x00,0x51,0x55,0xf5,0x57,0x55,
 0x55,0x55,0x55,0x55,0x55,0x55,0x55,0x55,0x55,0x55,0x55,0x55,0x55,0x55,0x55,
 0x55,0x55,0x55,0x55,0x55,0x55,0x55,0x55,0x55,0x55,0x55,0x55,0x55,0x55,0x01,
 0x00,0xfe,0x3f,0x00,0x00,0x00,0x00,0x00,0x00,0x00,0x00,0x00,0x00,0x00,0x00,
 0x00,0x00,0x00,0x00,0x00,0x00,0x00,0x00,0x00,0x00,0x00,0x00,0x00,0x00,0x00,
 0x00,0x00,0x00,0xa0,0x01,0x54,0xff,0x7f,0x55,0x55,0x55,0x55,0x55,0x55,0x55,
 0x55,0x55,0x55,0x55,0x55,0x55,0x55,0x55,0x55,0x55,0x55,0x55,0x55,0x55,0x55,
 0x55,0x55,0x55,0x55,0x55,0x55,0x55,0x55,0x55,0x01,0x00,0x00,0x00,0x00,0x00,
 0x00,0x00,0x00,0x00,0x00,0x00,0x00,0x00,0x00,0x00,0x00,0x00,0x00,0x00,0x00,
 0x00,0x00,0x00,0x00,0x00,0x00,0x00,0x00,0x00,0x00,0x00,0x00,0x00,0xe0,0x00,
 0x51,0x55,0x55,0x55,0x55,0x55,0x55,0x55,0x55,0x55,0x55,0x55,0x55,0x55,0x55,
 0x55,0x55,0x55,0x55,0x55,0x55,0x55,0x55,0x55,0x55,0x55,0x55,0x55,0x55,0x55,
 0x55,0x55,0x55,0x55,0x01,0x00,0x00,0x00,0x00,0x00,0x00,0x00,0x00,0x00,0x00,
 0x00,0x00,0x00,0x00,0x00,0x00,0x00,0x00,0x00,0x00,0x00,0x00,0x00,0x00,0x00,
 0x00,0x00,0x00,0x00,0x00,0x00,0x00,0x00,0xa0,0x01,0x54,0x55,0x55,0x55,0x55,
 0x55,0x55,0x55,0x55,0x55,0x55,0x55,0x55,0x55,0x55,0x55,0x55,0x55,0x55,0x55,
 0x55,0x55,0x55,0x55,0x55,0x55,0x55,0x55,0x55,0x55,0x55,0x55,0x55,0x55,0x01,
 0x00,0x02,0x02,0x02,0x02,0x02,0x02,0x02,0x02,0x02,0x02,0x02,0x02,0x02,0x02,
 0x02,0x02,0x02,0x02,0x02,0x02,0x02,0x02,0x02,0x02,0x02,0x02,0x02,0x02,0x02,
 0x02,0x02,0x02,0xe2,0x00,0x51,0x55,0x55,0x55,0x55,0x55,0x55,0x55,0x55,0x55,
 0x55,0x55,0x55,0x55,0x55,0x55,0x55,0x55,0x55,0x55,0x55,0x55,0x55,0x55,0x55,
 0x55,0x55,0x55,0x55,0x55,0x55,0x55,0x55,0x55,0x01,0x00,0x00,0x00,0x00,0x00,
 0x00,0x00,0x00,0x00,0x00,0x00,0x00,0x00,0x00,0x00,0x00,0x00,0x00,0x00,0x00,
 0x00,0x00,0x00,0x00,0x00,0x00,0x00,0x00,0x00,0x00,0x00,0x00,0x00,0xa0,0x01,
 0x54,0x55,0x55,0x55,0x55,0x55,0x55,0x55,0x55,0x55,0x55,0x55,0x55,0x55,0x55,
 0x55,0x55,0x55,0x55,0x55,0x55,0x55,0x55,0x55,0x55,0x55,0x55,0x55,0x55,0x55,
 0x55,0x55,0x55,0x55,0x01,0x00,0x00,0x00,0x00,0x00,0x00,0x00,0x00,0x00,0x00,
 0x00,0x00,0x00,0x00,0x00,0x00,0x00,0x00,0x00,0x00,0x00,0x00,0x00,0x00,0x00,
 0x00,0x00,0x00,0x00,0x00,0x00,0x00,0x00,0xe0,0x00,0x51,0x55,0x55,0x55,0x55,
 0x55,0x55,0x55,0x55,0x55,0x55,0x55,0x55,0x55,0x55,0x55,0x55,0x55,0x55,0x55,
 0x55,0x55,0x55,0x55,0x55,0x55,0x55,0x55,0x55,0x55,0x55,0x55,0x55,0x55,0x01,
 0x00,0x00,0x00,0x00,0x00,0x00,0x00,0x00,0x00,0x00,0x00,0x00,0x00,0x00,0x00,
 0x00,0x00,0x00,0x00,0x00,0x00,0x00,0x00,0x00,0x00,0x00,0x00,0x00,0x00,0x00,
 0x00,0x00,0x00,0xa0,0x01,0x54,0x55,0x55,0x55,0x55,0x55,0x55,0x55,0x55,0x55,
 0x55,0x55,0x55,0x55,0x55,0x55,0x55,0x55,0x55,0x55,0x55,0x55,0x55,0x55,0x55,
 0x55,0x55,0x55,0x55,0x55,0x55,0x55,0x55,0x55,0x01,0x00,0x02,0x00,0x02,0x00,
 0x02,0x00,0x02,0x00,0x02,0x00,0xfa,0x00,0x02,0x00,0x02,0x00,0x02,0x00,0x02,
 0xc0,0x07,0x00,0x02,0x00,0x02,0x00,0x02,0x00,0x02,0x00,0x02,0x00,0xe2,0x00,
 0x51,0x55,0x55,0x55,0x55,0x55,0x55,0x55,0x55,0x55,0x55,0xfd,0x55,0x55,0x55,
 0x55,0x55,0x55,0x55,0x55,0xd5,0x57,0x55,0x55,0x55,0x55,0x55,0x55,0x55,0x55,
 0x55,0x55,0x55,0x55,0x01,0x00,0xe0,0x07,0x00,0x00,0x00,0x00,0x80,0x9f,0x0f,
 0x00,0xe0,0x00,0xe0,0x01,0x00,0x00,0x78,0x70,0x00,0x00,0x07,0x00,0x00,0x00,
 0x00,0x00,0x00,0x00,0x00,0x00,0x00,0x00,0xa0,0x01,0x54,0x7d,0x5f,0x55,0x55,
 0x55,0x55,0x55,0xdf,0x57,0x55,0xf5,0x55,0xf5,0x55,0x55,0x55,0xf5,0x5d,0x55,
 0x55,0x57,0x55,0x55,0x55,0x55,0x55,0x55,0x55,0x55,0x55,0x55,0x55,0x55,0x01,
 0x00,0x38,0x0e,0x00,0x00,0x00,0x00,0x00,0x8e,0x03,0x00,0xe0,0x00,0xe0,0x01,
 0x00,0x00,0xf0,0x1d,0x00,0x00,0x07,0x00,0x00,0x00,0x00,0x00,0x00,0x00,0x00,
 0x00,0x00,0x00,0xe0,0x00,0x51,0x7d,0x7f,0x5f,0xfd,0xdd,0x57,0x55,0xdf,0xdf,
 0x57,0xff,0xfd,0xf5,0x5f,0x7f,0x55,0xf5,0x5d,0x7f,0xfd,0xd7,0x5f,0x55,0x55,
 0x55,0x55,0x55,0x55,0x55,0x55,0x55,0x55,0x55,0x01,0x00,0x38,0xce,0x71,0x8e,
 0xfb,0x1e,0x00,0x8e,0x73,0xdc,0xe1,0x80,0xe3,0x81,0xe3,0x00,0xf0,0x93,0xe3,
 0x1c,0xe7,0x38,0x00,0x00,0x00,0x00,0x00,0x00,0x00,0x00,0x00,0x00,0xa0,0x01,
 0x54,0x7d,0xdf,0x75,0xdf,0xff,0x5f,0x55,0xdf,0x77,0xdd,0xf5,0xd5,0xf7,0xd5,
 0xf7,0x55,0xf5,0xd7,0xf7,0x5d,0xf7,0x7d,0x55,0x55,0x55,0x55,0x55,0x55,0x55,
 0x55,0x55,0x55,0x55,0x01,0x00,0x3a,0xce,0x73,0xfe,0x3b,0x1e,0x02,0x8e,0x73,
 0xde,0xe3,0xfa,0xe3,0x83,0xff,0x02,0x72,0x92,0xe3,0x1e,0xe7,0x3f,0x02,0x02,
 0x02,0x02,0x02,0x02,0x02,0x02,0x02,0x02,0xe2,0x00,0x51,0x7d,0xdf,0x75,0x5f,
 0x7d,0x5f,0x55,0xdf,0x77,0xdd,0xf5,0xdf,0xf7,0xd5,0x57,0x55,0x75,0xd7,0xf7,
 0x5d,0xf7,0x55,0x55,0x55,0x55,0x55,0x55,0x55,0x55,0x55,0x55,0x55,0x55,0x01,
 0x00,0x38,0xce,0x71,0x0e,0x38,0x1e,0x00,0x8e,0x73,0xdc,0xe1,0x8e,0xe3,0x81,
 0x03,0x00,0x70,0x92,0xe3,0x1c,0xe7,0x00,0x00,0x00,0x00,0x00,0x00,0x00,0x00,
 0x00,0x00,0x00,0xa0,0x01,0x54,0x7d,0xdf,0x75,0xdf,0x7f,0x5f,0x55,0xdf,0x77,
 0xdd,0xf5,0xdf,0xf7,0xd5,0xf7,0x55,0x75,0xd5,0xf7,0x5d,0xf7,0x7d,0x55,0x55,
 0x55,0x55,0x55,0x55,0x55,0x55,0x55,0x55,0x55,0x01,0x00,0x38,0xce,0x71,0x8e,
 0x3b,0x1e,0x00,0x8e,0x73,0xdc,0xe1,0x8e,0xe3,0x91,0xe3,0x00,0x70,0x90,0xe3,
 0x1c,0xe7,0x38,0x00,0x00,0x00,0x00,0x00,0x00,0x00,0x00,0x00,0x00,0xe0,0x00,
 0x51,0xf5,0xd7,0x5f,0xfd,0xfd,0x5f,0x55,0xfd,0xf5,0x57,0xff,0xfd,0xdf,0x5f,
 0x7f,0x55,0x7d,0x75,0x7f,0xfd,0xdf,0x5f,0x55,0x55,0x55,0x55,0x55,0x55,0x55,
 0x55,0x55,0x55,0x55,0x01,0x00,0x00,0xc0,0x01,0x00,0x00,0x00,0x00,0x00,0x70,
 0x00,0x00,0x00,0x00,0x00,0x00,0x00,0x00,0x00,0x00,0x00,0x00,0x00,0x00,0x00,
 0x00,0x00,0x00,0x00,0x00,0x00,0x00,0x00,0xa0,0x01,0x54,0x55,0xd5,0x55,0x55,
 0x55,0x55,0x55,0x55,0x75,0x55,0x55,0x55,0x55,0x55,0x55,0x55,0x55,0x55,0x55,
 0x55,0x55,0x55,0x55,0x55,0x55,0x55,0x55,0x55,0x55,0x55,0x55,0x55,0x55,0x01,
 0x00,0x02,0xc0,0x03,0x00,0x02,0x00,0x02,0x00,0x72,0x00,0x02,0x00,0x02,0x00,
 0x02,0x00,0x02,0x00,0x02,0x00,0x02,0x00,0x02,0x00,0x02,0x00,0x02,0x00,0x02,
 0x00,0x02,0x00,0xe2,0x00,0x51,0x55,0xf5,0x57,0x55,0x55,0x55,0x55,0x55,0xfd,
 0x55,0x55,0x55,0x55,0x55,0x55,0x55,0x55,0x55,0x55,0x55,0x55,0x55,0x55,0x55,
 0x55,0x55,0x55,0x55,0x55,0x55,0x55,0x55,0x55,0x01,0x00,0x00,0xf0,0x03,0x00,
 0x00,0x00,0x00,0x00,0xfc,0x00,0x00,0x00,0x00,0x00,0x00,0x00,0x00,0x00,0x00,
 0x00,0x00,0x00,0x00,0x00,0x00,0x00,0x00,0x00,0x00,0x00,0x00,0x00,0xa0,0x01,
 0x54,0xff,0x7f,0x55,0x55,0x55,0x55,0x55,0x55,0x55,0x55,0x55,0x55,0x55,0x55,
 0x55,0x55,0x55,0x55,0x55,0x55,0x55,0x55,0x55,0x55,0x55,0x55,0x55,0x55,0x55,
 0x55,0x55,0x55,0x55,0x01,0x00,0x00,0x00,0x00,0x00,0x00,0x00,0x00,0x00,0x00,
 0x00,0x00,0x00,0x00,0x00,0x00,0x00,0x00,0x00,0x00,0x00,0x00,0x00,0x00,0x00,
 0x00,0x00,0x00,0x00,0x00,0x00,0x00,0x00,0xe0,0x00,0x51,0x55,0x55,0x55,0x55,
 0x55,0x55,0x55,0x55,0x55,0x55,0x55,0x55,0x55,0x55,0x55,0x55,0x55,0x55,0x55,
 0x55,0x55,0x55,0x55,0x55,0x55,0x55,0x55,0x55,0x55,0x55,0x55,0x55,0x55,0x01,
 0x00,0x00,0x00,0x00,0x00,0x00,0x00,0x00,0x00,0x00,0x00,0x00,0x00,0x00,0x00,
 0x00,0x00,0x00,0x00,0x00,0x00,0x00,0x00,0x00,0x00,0x00,0x00,0x00,0x00,0x00,
 0x00,0x00,0x00,0xa0,0x01,0x54,0x55,0x55,0x55,0x55,0x55,0x55,0x55,0x55,0x55,
 0x55,0x55,0x55,0x55,0x55,0x55,0x55,0x55,0x55,0x55,0x55,0x55,0x55,0x55,0x55,
 0x55,0x55,0x55,0x55,0x55,0x55,0x55,0x55,0x55,0x01,0x00,0x02,0x02,0x02,0x02,
 0x02,0x02,0x02,0x02,0x02,0x02,0x02,0x02,0x02,0x02,0x02,0x02,0x02,0x02,0x02,
 0x02,0x02,0x02,0x02,0x02,0x02,0x02,0x02,0x02,0x02,0x02,0x02,0x02,0xe2,0x00,
 0x51,0x55,0x55,0x55,0x55,0x55,0x55,0x55,0x55,0x55,0x55,0x55,0x55,0x55,0x55,
 0x55,0x55,0x55,0x55,0x55,0x55,0x55,0x55,0x55,0x55,0x55,0x55,0x55,0x55,0x55,
 0x55,0x55,0x55,0x55,0x01,0xa8,0xab,0xab,0xab,0xab,0xab,0xab,0xab,0xab,0xab,
 0xab,0xab,0xab,0xab,0xab,0xab,0xab,0xab,0xab,0xab,0xab,0xab,0xab,0xab,0xab,
 0xab,0xab,0xab,0xab,0xab,0xab,0xab,0xab,0xab,0x01,0x54,0x55,0x55,0x55,0x55,
 0x55,0x55,0x55,0x55,0x55,0x55,0x55,0x55,0x55,0x55,0x55,0x55,0x55,0x55,0x55,
 0x55,0x55,0x55,0x55,0x55,0x55,0x55,0x55,0x55,0x55,0x55,0x55,0x55,0x55,0x01};
