#define noname_width 91
#define noname_height 86
static char noname_bits[] = {
 0x00,0x03,0x02,0x04,0x00,0x00,0x00,0x00,0xc8,0x84,0x01,0x00,0x00,0x06,0x0c,
 0x18,0x00,0x00,0x00,0x00,0xb0,0x19,0x03,0x00,0x00,0x07,0x0e,0x1c,0x00,0x00,
 0x00,0x00,0xf8,0x9d,0x02,0x00,0x00,0x01,0x00,0x00,0x00,0x00,0x00,0x00,0x90,
 0x08,0x01,0x00,0x00,0x01,0x02,0x18,0x00,0x00,0x00,0x00,0x90,0x08,0x01,0x00,
 0x00,0x01,0x02,0x10,0x00,0x00,0x00,0x00,0x90,0x08,0x01,0x00,0x00,0x01,0x02,
 0x30,0x00,0x00,0x00,0x00,0x90,0x08,0x01,0x00,0x44,0x45,0x46,0x74,0x44,0x44,
 0x44,0x44,0xd4,0x4c,0x45,0x04,0xaa,0xab,0xaa,0xea,0xaa,0xaa,0xaa,0xaa,0xba,
 0xaa,0xab,0x02,0xff,0xff,0xff,0xff,0x1f,0x3f,0xee,0xff,0xff,0xff,0xbf,0x07,
 0xae,0xaf,0xae,0xee,0x87,0xac,0xac,0xae,0xbe,0xae,0xaf,0x06,0x6f,0xf9,0xff,
 0xff,0xff,0xff,0xff,0xff,0xff,0x7f,0xf9,0x07,0x22,0x23,0x22,0xe2,0x22,0x22,
 0x22,0x22,0xb2,0x2a,0x23,0x02,0x01,0x03,0x02,0x80,0x03,0x00,0x00,0x00,0x90,
 0x08,0x01,0x04,0xd8,0xaa,0x8a,0xfa,0xad,0x88,0x88,0x88,0x98,0xf8,0x88,0x05,
 0x61,0xf0,0x22,0xf7,0xde,0x00,0x00,0x00,0x90,0xc8,0x00,0x04,0x22,0x22,0x22,
 0x22,0x2b,0x22,0x22,0x22,0xb2,0x2a,0x22,0x02,0x01,0x00,0x02,0x00,0x13,0x00,
 0x00,0x00,0x90,0x08,0x00,0x04,0xa8,0xaa,0xab,0xaa,0xbd,0x88,0xaa,0xaa,0xba,
 0xaa,0xaa,0x04,0xf9,0xff,0xff,0x7f,0x36,0x00,0x00,0x00,0x90,0x08,0x00,0x04,
 0xfa,0xbb,0xff,0x7f,0xaa,0x3a,0x26,0x2a,0xb2,0x2a,0x22,0x02,0xf1,0xfc,0xff,
 0x7f,0x0c,0x00,0x00,0x00,0x90,0x08,0x00,0x04,0x88,0x88,0x89,0x88,0x9c,0x88,
 0x8a,0x88,0x98,0x88,0x88,0x04,0x91,0x00,0x01,0x00,0x14,0x00,0x00,0x00,0x90,
 0x08,0x00,0x04,0xf2,0x23,0x23,0x22,0x6a,0x22,0xaa,0xaa,0xba,0xaa,0xaa,0x02,
 0x01,0x00,0x01,0x00,0x78,0x00,0x00,0x00,0x90,0x08,0x00,0x04,0x88,0x88,0x89,
 0x88,0xe8,0x88,0xaa,0x98,0x98,0x88,0x88,0x04,0x49,0x00,0x01,0x00,0x10,0x00,
 0x00,0x00,0x90,0x08,0x00,0x04,0x22,0x22,0x23,0x22,0x32,0x22,0x22,0x22,0xb2,
 0x2a,0x22,0x02,0x01,0x00,0x01,0x00,0x20,0x00,0x00,0x00,0x90,0x08,0x00,0x04,
 0x98,0x8e,0x89,0x88,0xe8,0x88,0xaa,0xaa,0xba,0xaa,0xaa,0x04,0x11,0x04,0x01,
 0x00,0x60,0x00,0x00,0x00,0x90,0x08,0x00,0x04,0x22,0x22,0x23,0x22,0x62,0x32,
 0x22,0x22,0xb2,0x2a,0x22,0x02,0x01,0x00,0x01,0x00,0x40,0x00,0x00,0x00,0x90,
 0x08,0x00,0x04,0x88,0x8e,0x89,0x88,0x88,0x88,0x8a,0x88,0x98,0x88,0x88,0x04,
 0x01,0x00,0x01,0x00,0x00,0x00,0x00,0x00,0xb8,0x08,0x00,0x04,0x22,0xaa,0x22,
 0x2a,0x22,0x2a,0x22,0x2a,0xba,0x2a,0x22,0x02,0x41,0x82,0x01,0x00,0x00,0x00,
 0x00,0x00,0x90,0x08,0x00,0x04,0x88,0x8b,0x89,0x88,0x88,0x88,0x88,0xc8,0x88,
 0x88,0x88,0x04,0x01,0x00,0x00,0x00,0x00,0x00,0x40,0x00,0x80,0x08,0x00,0x04,
 0xfa,0x22,0x22,0x22,0x22,0x22,0x6a,0x2a,0xa2,0x2a,0x22,0x02,0x01,0x00,0x00,
 0x00,0x00,0x00,0x00,0x00,0xc0,0x09,0x00,0x04,0x88,0x88,0x88,0x88,0x88,0x88,
 0x88,0x88,0x88,0x89,0x88,0x04,0x01,0x00,0x00,0x00,0x00,0x00,0x00,0x00,0x80,
 0x08,0x00,0x04,0xba,0x2e,0x22,0x22,0x22,0x22,0x22,0x22,0x22,0x2a,0x22,0x02,
 0x01,0x00,0x00,0x00,0x00,0x08,0xc0,0x00,0x00,0x08,0x00,0x04,0x88,0x88,0x88,
 0x88,0x88,0xe8,0xdf,0x8b,0x88,0x88,0x88,0x04,0xc9,0x00,0x00,0x00,0x00,0x00,
 0x00,0x00,0x00,0x1c,0x00,0x04,0xea,0x22,0x22,0x22,0x22,0x22,0x22,0x22,0x22,
 0x2a,0x22,0x02,0x01,0x00,0x00,0x00,0x00,0x00,0x00,0x00,0x00,0x08,0x00,0x04,
 0x88,0x88,0x88,0x88,0x88,0x88,0x88,0x88,0x88,0x88,0x88,0x04,0x31,0x0e,0x00,
 0x00,0x00,0x00,0x0f,0x05,0x5f,0x00,0x00,0x04,0x22,0x2a,0x22,0x2a,0x22,0x2a,
 0xaf,0x2e,0x22,0x2a,0x22,0x02,0x01,0x00,0x00,0x00,0x00,0x00,0x00,0x00,0x00,
 0x00,0x00,0x04,0xa8,0x8a,0x88,0x88,0x88,0x88,0x88,0x88,0x88,0x88,0x88,0x04,
 0x01,0x01,0x00,0x00,0x00,0x00,0x00,0x00,0x00,0x00,0x00,0x04,0x22,0x22,0x22,
 0x22,0x22,0x22,0x22,0x22,0x22,0x22,0x22,0x02,0x01,0x00,0x00,0x00,0x00,0x00,
 0x00,0x00,0x00,0x00,0x00,0x04,0x88,0x88,0x88,0x88,0x88,0x88,0x88,0x88,0x88,
 0x88,0x88,0x04,0x01,0x00,0x00,0x00,0x00,0x00,0x00,0x08,0x00,0x00,0x00,0x04,
 0x22,0x22,0x22,0x22,0x02,0x72,0x2b,0xaa,0xf2,0x73,0x22,0x02,0x01,0x00,0x00,
 0x00,0x10,0x00,0x00,0xc0,0x11,0x00,0x00,0x04,0x88,0x88,0x88,0x88,0xb8,0xaa,
 0xaa,0xca,0x88,0x88,0x88,0x04,0x01,0x00,0x00,0x00,0x08,0x00,0x00,0x40,0x00,
 0x00,0x00,0x04,0x22,0x22,0x22,0x22,0x0a,0x00,0x00,0x20,0x22,0x22,0x22,0x02,
 0x01,0x00,0x00,0x00,0x04,0x00,0x00,0x20,0x00,0x00,0x00,0x04,0x88,0x88,0x88,
 0x88,0x8c,0xfb,0xce,0x18,0xfa,0x8a,0x88,0x04,0x01,0x00,0x00,0x00,0x02,0x00,
 0x00,0x98,0x01,0x04,0x00,0x04,0x22,0x2a,0x22,0x2a,0x22,0x2a,0x22,0xea,0x22,
 0x2a,0x22,0x02,0x01,0x00,0x00,0x00,0x01,0x00,0x00,0x48,0x01,0x00,0x00,0x04,
 0x88,0x88,0x88,0x88,0x89,0x88,0x88,0xcc,0x88,0x88,0x88,0x04,0x01,0x00,0x00,
 0x80,0x00,0x00,0x00,0x44,0x00,0x00,0x00,0x04,0x22,0x22,0x22,0xa2,0x22,0x22,
 0x22,0x22,0x22,0x22,0x22,0x02,0x01,0x00,0x00,0x40,0x00,0x02,0x00,0x23,0x20,
 0x00,0x00,0x04,0x88,0x88,0x88,0xc8,0x88,0x8a,0x8a,0xbd,0xc8,0x8a,0x88,0x04,
 0x01,0x00,0x00,0x20,0x10,0x00,0x08,0x21,0x04,0x01,0x00,0x04,0x22,0x22,0x22,
 0x22,0xba,0xaa,0xaa,0xba,0xae,0x2a,0x22,0x02,0x01,0x00,0x00,0x10,0x30,0x00,
 0x84,0x10,0x04,0x00,0x00,0x04,0x88,0x88,0x88,0x98,0x88,0x88,0xca,0x98,0x8c,
 0x88,0x88,0x04,0x01,0x00,0x00,0x08,0x08,0x00,0x42,0x08,0x04,0x00,0x00,0x04,
 0x22,0x22,0x22,0x2a,0x26,0x22,0x63,0x2a,0x22,0x22,0x22,0x02,0x01,0x00,0x00,
 0x04,0x04,0x90,0x20,0x0d,0x02,0x00,0x00,0x04,0x88,0x88,0x88,0x8c,0x8a,0x88,
 0xaa,0x8c,0x8a,0x88,0x88,0x04,0x01,0x00,0x00,0x02,0x42,0x5d,0x51,0x5d,0x02,
 0x00,0x00,0x04,0x22,0x2a,0x22,0x2a,0x22,0x2a,0x32,0x2e,0x22,0x2a,0x22,0x02,
 0x01,0x00,0x00,0x01,0x01,0x20,0x08,0x04,0x02,0x00,0x00,0x04};
