#define noname_width 54
#define noname_height 85
static char noname_bits[] = {
 0xff,0xff,0xff,0xff,0xff,0xff,0x01,0xae,0xae,0x2e,0x8c,0xae,0xae,0x00,0xff,
 0xff,0xff,0xff,0xff,0xff,0x01,0x01,0x00,0x00,0x00,0x10,0x00,0x00,0x01,0x08,
 0x00,0x00,0x00,0x00,0x01,0x00,0x00,0x00,0x00,0x30,0x00,0x00,0x01,0xd8,0x6d,
 0xb5,0xb7,0xff,0x3f,0x01,0x00,0x00,0x00,0x80,0x00,0x3c,0x01,0x00,0x00,0x00,
 0x00,0x80,0x13,0x00,0x60,0x00,0x00,0x01,0x60,0x08,0x01,0x00,0x00,0x00,0x2d,
 0x1c,0x05,0x01,0x08,0x00,0x00,0x81,0x03,0x02,0x01,0x08,0x00,0x00,0x60,0x00,
 0x03,0x00,0x08,0x00,0x00,0x1c,0x00,0x01,0x01,0x08,0x00,0x80,0x03,0x80,0x01,
 0x01,0x08,0x08,0x60,0x01,0x60,0x00,0x01,0x08,0x00,0x9e,0x01,0xe0,0x01,0x00,
 0x08,0x80,0x83,0x01,0x20,0x00,0x11,0x08,0x00,0x00,0x00,0x00,0x01,0x05,0x08,
 0x80,0x00,0x00,0x70,0x00,0x11,0x08,0x00,0x00,0x00,0x00,0x01,0x00,0x08,0x00,
 0x00,0x00,0x00,0x00,0x01,0x08,0x08,0x00,0x00,0x00,0x01,0x01,0x08,0x00,0x02,
 0x00,0x00,0x00,0x01,0x08,0x00,0x00,0x40,0x00,0x01,0x00,0x28,0x00,0xc0,0x41,
 0x00,0x00,0x01,0x28,0x00,0xca,0x43,0x00,0x01,0x01,0x09,0x10,0x40,0x00,0x00,
 0x00,0x01,0x49,0x12,0x08,0x00,0x00,0x01,0x00,0x49,0x12,0x02,0x00,0x01,0x00,
 0x01,0x49,0x12,0x08,0x10,0x01,0x01,0x01,0x49,0x12,0x00,0x18,0x01,0x00,0x81,
 0x49,0x12,0x00,0x00,0x00,0x01,0x00,0x49,0x12,0x20,0x00,0x00,0x00,0x01,0x6b,
 0x12,0xd0,0x81,0x03,0x01,0x01,0x00,0x00,0x08,0x00,0x00,0x00,0x01,0x00,0x00,
 0x00,0x00,0x00,0x01,0x00,0x00,0x00,0x00,0x00,0x00,0x00,0x09,0xb9,0x0c,0x20,
 0x82,0x00,0x01,0x01,0x00,0x00,0x00,0x00,0x20,0x00,0x11,0x00,0x00,0x00,0x00,
 0x20,0x01,0x04,0x00,0x00,0x00,0x00,0x00,0x00,0x01,0x00,0x00,0x30,0x80,0x01,
 0x01,0x05,0x08,0x00,0x00,0x00,0x00,0x00,0x01,0x00,0x02,0x20,0xc0,0x01,0x01,
 0x04,0x00,0x00,0x68,0x00,0x01,0x00,0x01,0x00,0x00,0x00,0x00,0x00,0x01,0x11,
 0x08,0x00,0x00,0x00,0x00,0x00,0x05,0x02,0x00,0x00,0x10,0x00,0x01,0x04,0x00,
 0x00,0x01,0x00,0x00,0x00,0x15,0x00,0x00,0x01,0x00,0x00,0x01,0x05,0x00,0x02,
 0x01,0x00,0x00,0x00,0x05,0x00,0x02,0x00,0x00,0x00,0x01,0x04,0x00,0x02,0x00,
 0x00,0x00,0x00,0x01,0x00,0x00,0x00,0x00,0x00,0x01,0x01,0x00,0x00,0x00,0x00,
 0x00,0x00,0x01,0x00,0x00,0x00,0x00,0x00,0x01,0x00,0x14,0x00,0x0b,0x00,0x00,
 0x00,0xff,0xff,0xff,0xff,0xff,0xff,0x01,0x11,0x00,0x00,0x00,0x00,0x00,0x00,
 0x01,0x00,0x00,0x00,0x00,0x00,0x01,0x08,0x00,0x08,0x00,0x00,0x00,0x00,0x05,
 0x00,0x08,0x80,0x20,0x00,0x01,0x0d,0x10,0x00,0x00,0x10,0x00,0x00,0x01,0x10,
 0x00,0x00,0x00,0x00,0x01,0x00,0x00,0x10,0x00,0x00,0x00,0x00,0x01,0x00,0x00,
 0x40,0x00,0x18,0x01,0x01,0x00,0x00,0x00,0x00,0x18,0x00,0x41,0x00,0x00,0x00,
 0x00,0x00,0x01,0x00,0x81,0x02,0x40,0x00,0x08,0x00,0x01,0x00,0x00,0x00,0x20,
 0x00,0x01,0x01,0x00,0x00,0x00,0x00,0x40,0x00,0x01,0x00,0x00,0x00,0x00,0x00,
 0x01,0xaa,0xaa,0xaa,0xaa,0xaa,0xaa,0x00,0x05,0x04,0x04,0x04,0x04,0x04,0x01,
 0xbb,0xaa,0xaa,0xaa,0xaa,0xaa,0x00,0x01,0x00,0x00,0x00,0x00,0x00,0x01,0x8a,
 0xaa,0xaa,0xaa,0xaa,0xaa,0x33,0x55,0x44,0x44,0x44,0x44,0x44,0x2f,0xab,0xaa,
 0xaa,0xaa,0xaa,0xaa,0x02,0x01,0x00,0x00,0x00,0x00,0x00,0x01,0xaa,0xaa,0xaa,
 0xaa,0xaa,0xaa,0x00,0x05,0x14,0x00,0x80,0x24,0x14,0x01,0xab,0xaa,0xaa,0xaa,
 0xaa,0xaa,0x00,0x01,0x00,0x00,0x00,0x00,0x00,0x01};
