#define noname_width 99
#define noname_height 99
static char noname_bits[] = {
 0x44,0x44,0x44,0x44,0x44,0x44,0x44,0x44,0x44,0x44,0x44,0x44,0x04,0x00,0x00,
 0x00,0x00,0x00,0x00,0x00,0x00,0x00,0x00,0x00,0x00,0x00,0x11,0x11,0x11,0x11,
 0x11,0x11,0x11,0x11,0x11,0x11,0x11,0x11,0x01,0x00,0x00,0x00,0x00,0x00,0x00,
 0x00,0x00,0x00,0x00,0x00,0x00,0x00,0x44,0x44,0x44,0x44,0x44,0x44,0x44,0x44,
 0x44,0x44,0x44,0x44,0x04,0x00,0x00,0x00,0x00,0x00,0x00,0x00,0x00,0x00,0x00,
 0x00,0x00,0x00,0x51,0x55,0x55,0x55,0x55,0x55,0x55,0x55,0x55,0x55,0x55,0x15,
 0x01,0x80,0x8a,0x8a,0x8a,0x8a,0x8a,0x8a,0x8a,0x8a,0x8a,0x8a,0x0a,0x00,0x44,
 0x55,0x55,0x55,0x55,0x55,0x55,0x55,0x55,0x55,0x55,0x55,0x04,0x20,0x00,0x00,
 0x00,0x00,0x00,0x00,0x00,0x00,0x00,0x00,0x20,0x00,0x51,0x00,0x00,0x00,0x00,
 0x00,0x00,0x00,0x00,0x00,0x00,0x10,0x01,0xa0,0x00,0x00,0x00,0x00,0x00,0x00,
 0x00,0x00,0x00,0x00,0x28,0x00,0x44,0x00,0x00,0x00,0x00,0x00,0x00,0x00,0x00,
 0x00,0x00,0x55,0x04,0x20,0x00,0x00,0x00,0x00,0x00,0x00,0x00,0x00,0x00,0x00,
 0x22,0x00,0x51,0x40,0x51,0x14,0x45,0x51,0x14,0x41,0x10,0x04,0x41,0x15,0x01,
 0x80,0x80,0x00,0x08,0x82,0x00,0x88,0x82,0x08,0x8a,0x82,0x0a,0x00,0x44,0x40,
 0x51,0x14,0x45,0x51,0x14,0x41,0x10,0x04,0x41,0x55,0x04,0x20,0x00,0x02,0x22,
 0x20,0x02,0x22,0x00,0x02,0x20,0x00,0x22,0x00,0x51,0x00,0x04,0x41,0x10,0x04,
 0x41,0x14,0x45,0x51,0x14,0x15,0x01,0xa0,0x00,0x88,0xa2,0x28,0x8a,0x20,0x08,
 0x80,0x20,0x08,0x2a,0x00,0x44,0x40,0x51,0x14,0x45,0x51,0x14,0x41,0x10,0x04,
 0x41,0x55,0x04,0x20,0x00,0x20,0x00,0x02,0x20,0x00,0x22,0x20,0x02,0x22,0x22,
 0x00,0x51,0x40,0x51,0x14,0x45,0x51,0x14,0x41,0x10,0x04,0x41,0x15,0x01,0x80,
 0x00,0x8a,0x82,0x88,0x8a,0x02,0x08,0x82,0x00,0x08,0x0a,0x00,0x44,0x00,0x04,
 0x41,0x50,0x55,0x41,0x14,0x45,0x51,0x14,0x55,0x04,0x20,0x00,0x02,0x22,0x20,
 0x22,0x22,0x00,0x02,0x20,0x00,0x22,0x00,0x51,0x40,0x51,0x14,0x15,0x50,0x14,
 0x41,0x10,0x04,0x41,0x15,0x01,0xa0,0x80,0x20,0x08,0x28,0x20,0x88,0xa0,0x28,
 0x88,0xa0,0x28,0x00,0x44,0x40,0x51,0x14,0x15,0x50,0x14,0x41,0x10,0x04,0x41,
 0x55,0x04,0x20,0x00,0x02,0x22,0x20,0x20,0x22,0x00,0x02,0x20,0x00,0x22,0x00,
 0x51,0x00,0x04,0x41,0x10,0x50,0x41,0x14,0x45,0x51,0x14,0x15,0x01,0x80,0x00,
 0x8a,0x82,0x08,0x80,0x02,0x08,0x82,0x00,0x08,0x0a,0x00,0x44,0x40,0x51,0x14,
 0x15,0x50,0x54,0x55,0x10,0x04,0x41,0x55,0x04,0x20,0x00,0x20,0x00,0x22,0x20,
 0x20,0x22,0x20,0x02,0x22,0x22,0x00,0x51,0x40,0x51,0x14,0x15,0x50,0x54,0x55,
 0x10,0x04,0x41,0x15,0x01,0xa0,0x00,0x88,0xa2,0x28,0xa0,0x20,0xa0,0x80,0x20,
 0x08,0x2a,0x00,0x44,0x00,0x04,0x41,0x10,0x50,0x41,0x40,0x45,0x51,0x14,0x55,
 0x04,0x20,0x00,0x02,0x22,0x20,0x20,0x22,0x20,0x02,0x20,0x00,0x22,0x00,0x51,
 0x40,0x51,0x14,0x15,0x50,0x55,0x40,0x10,0x04,0x41,0x15,0x01,0x80,0x80,0x00,
 0x08,0x0a,0x80,0x0a,0x80,0x08,0x8a,0x82,0x0a,0x00,0x44,0x40,0x51,0x14,0x15,
 0x50,0x55,0x40,0x10,0x04,0x41,0x55,0x04,0x20,0x00,0x02,0x22,0x20,0x20,0x20,
 0x20,0x02,0x20,0x00,0x22,0x00,0x51,0x00,0x04,0x41,0x10,0x50,0x40,0x40,0x45,
 0x51,0x14,0x15,0x01,0xa0,0x00,0x88,0xa0,0x28,0x20,0x20,0xa0,0x80,0x20,0x08,
 0x28,0x00,0x44,0x40,0x51,0x14,0x15,0x50,0x40,0x40,0x10,0x04,0x41,0x55,0x04,
 0x20,0x00,0x20,0x00,0x22,0x20,0x20,0x20,0x20,0x02,0x22,0x22,0x00,0x51,0x40,
 0x51,0x14,0x15,0x50,0x40,0x40,0x10,0x04,0x41,0x15,0x01,0x80,0x00,0x8a,0x82,
 0x08,0x00,0x00,0x80,0x82,0x00,0x08,0x0a,0x00,0x44,0x00,0x04,0x41,0x10,0x50,
 0x40,0x40,0x45,0x51,0x14,0x55,0x04,0x20,0x00,0x02,0x22,0x20,0x20,0x20,0x20,
 0x02,0x20,0x00,0x22,0x00,0x51,0x40,0x51,0x54,0x15,0x50,0x40,0x40,0x55,0x05,
 0x41,0x15,0x01,0xa0,0x80,0x20,0xa8,0x28,0x20,0x20,0xa0,0xa8,0x8a,0xa0,0x2a,
 0x00,0x44,0x40,0x51,0x54,0x15,0x50,0x40,0x40,0x55,0x05,0x41,0x55,0x04,0x20,
 0x00,0x02,0x02,0x20,0x20,0x20,0x20,0x00,0x20,0x00,0x22,0x00,0x51,0x00,0x04,
 0x15,0x10,0x50,0x40,0x40,0x40,0x51,0x14,0x15,0x01,0x80,0x00,0x8a,0x0a,0x08,
 0x00,0x00,0x80,0x80,0x00,0x08,0x0a,0x00,0x44,0x40,0x51,0x14,0x10,0x50,0x40,
 0x40,0x40,0x05,0x41,0x55,0x04,0x20,0x00,0x20,0x00,0x20,0x20,0x20,0x20,0x00,
 0x02,0x22,0x22,0x00,0x51,0x40,0x51,0x14,0x10,0x50,0x40,0x40,0x40,0x05,0x41,
 0x15,0x01,0xa0,0x00,0x88,0x08,0x28,0x20,0x20,0xa0,0x80,0x20,0x08,0x28,0x00,
 0x44,0x00,0x04,0x15,0x10,0x50,0x40,0x40,0x40,0x51,0x14,0x55,0x04,0x20,0x00,
 0x22,0x02,0x20,0x20,0x20,0x20,0x00,0x22,0x22,0x22,0x00,0x51,0x40,0x55,0x15,
 0x10,0x50,0x40,0x40,0x40,0x55,0x41,0x15,0x01,0x80,0x80,0x8a,0x0a,0x08,0x00,
 0x00,0x80,0x80,0x8a,0x82,0x0a,0x00,0x44,0x00,0x04,0x14,0x10,0x50,0x40,0x40,
 0x40,0x01,0x15,0x55,0x04,0x20,0x00,0x02,0x00,0x20,0x20,0x20,0x20,0x00,0x00,
 0x02,0x22,0x00,0x51,0x00,0x04,0x14,0x10,0x50,0x40,0x40,0x40,0x01,0x15,0x15,
 0x01,0xa0,0x80,0x08,0x08,0x28,0x20,0x20,0xa0,0x80,0x80,0xa0,0x2a,0x00,0x44,
 0x40,0x05,0x14,0x10,0x50,0x40,0x40,0x40,0x01,0x41,0x55,0x04,0x20,0x00,0x02,
 0x00,0x20,0x20,0x20,0x20,0x00,0x00,0x22,0x22,0x00,0x51,0x00,0x04,0x14,0x10,
 0x50,0x40,0x40,0x40,0x01,0x15,0x15,0x01,0x80,0x00,0x0a,0x08,0x08,0x00,0x00,
 0x80,0x80,0x80,0x0a,0x0a,0x00,0x44,0x00,0x04,0x14,0x10,0x50,0x40,0x40,0x40,
 0x01,0x15,0x55,0x04,0x20,0x00,0x02,0x00,0x20,0x20,0x20,0x20,0x00,0x00,0x22,
 0x22,0x00,0x51,0x40,0x05,0x14,0x10,0x50,0x40,0x40,0x40,0x01,0x41,0x15,0x01,
 0xa0,0x80,0x08,0x08,0x28,0x20,0x20,0xa0,0x80,0x80,0xa0,0x28,0x00,0x44,0x00,
 0x04,0x14,0x10,0x50,0x40,0x40,0x40,0x01,0x15,0x55,0x04,0x20,0x00,0x02,0x00,
 0x20,0x20,0x20,0x20,0x00,0x00,0x02,0x22,0x00,0x51,0x00,0x04,0x14,0x10,0x50,
 0x40,0x40,0x40,0x01,0x15,0x15,0x01,0x80,0x80,0x0a,0x08,0x08,0x00,0x00,0x80,
 0x80,0x80,0x82,0x0a,0x00,0x44,0x40,0x05,0x14,0x10,0x50,0x40,0x40,0x40,0x01,
 0x41,0x55,0x04,0x20,0x00,0x02,0x00,0x20,0x20,0x20,0x20,0x00,0x00,0x22,0x22,
 0x00,0x51,0x00,0x54,0x55,0x55,0x55,0x55,0x55,0x55,0x55,0x15,0x15,0x01,0xa0,
 0x00,0xa8,0xaa,0xa8,0xaa,0xa8,0xaa,0xa8,0xaa,0x08,0x2a,0x00,0x44,0x00,0x54,
 0x55,0x55,0x55,0x55,0x55,0x55,0x55,0x15,0x55,0x04,0x20,0x00,0x20,0x00,0x02,
 0x20,0x00,0x22,0x20,0x02,0x22,0x22,0x00,0x51,0x40,0x51,0x14,0x45,0x51,0x14,
 0x41,0x10,0x04,0x41,0x15,0x01,0x80,0x80,0x00,0x08,0x82,0x00,0x88,0x82,0x08,
 0x8a,0x82,0x0a,0x00,0x44,0x50,0x55,0x55,0x55,0x55,0x55,0x55,0x55,0x55,0x55,
 0x55,0x04,0x20,0x20,0x22,0x22,0x22,0x22,0x22,0x22,0x22,0x22,0x22,0x22,0x00,
 0x51,0x50,0x55,0x55,0x55,0x55,0x55,0x55,0x55,0x55,0x55,0x15,0x01,0xa0,0xa8,
 0xa8,0xa8,0xa8,0xa8,0xa8,0xa8,0xa8,0xa8,0xa8,0x28,0x00,0x44,0x55,0x55,0x55,
 0x55,0x55,0x55,0x55,0x55,0x55,0x55,0x55,0x04,0x20,0x22,0x22,0x22,0x22,0x22,
 0x22,0x22,0x22,0x22,0x22,0x22,0x00,0x11,0x15,0x11,0x15,0x11,0x15,0x11,0x15,
 0x11,0x15,0x11,0x15,0x01,0x00,0x00,0x00,0x00,0x00,0x00,0x00,0x00,0x00,0x00,
 0x00,0x00,0x00,0x44,0x44,0x44,0x44,0x44,0x44,0x44,0x44,0x44,0x44,0x44,0x44,
 0x04,0x00,0x00,0x00,0x00,0x00,0x00,0x00,0x00,0x00,0x00,0x00,0x00,0x00,0x11,
 0x11,0x11,0x11,0x11,0x11,0x11,0x11,0x11,0x11,0x11,0x11,0x01};
