#define noname_width 97
#define noname_height 72
static char noname_bits[] = {
 0x00,0x04,0x02,0x04,0x40,0x00,0x00,0x00,0x00,0x00,0x20,0x00,0x00,0x00,0x0c,
 0x06,0x0c,0xc0,0x00,0x00,0x00,0x00,0x00,0x60,0x00,0x00,0x00,0x06,0x03,0x06,
 0x60,0x00,0x00,0x00,0x00,0x00,0x30,0x00,0x00,0x00,0x04,0x02,0x04,0x40,0x00,
 0x00,0x00,0x00,0x00,0x20,0x00,0x00,0x00,0x04,0x02,0x04,0x40,0x00,0x00,0x00,
 0x00,0x00,0x20,0x00,0x00,0x40,0x44,0x46,0x44,0x44,0x44,0x44,0x44,0x44,0x44,
 0x64,0x00,0x00,0xa0,0xae,0xaa,0xae,0xea,0xaa,0xa8,0xaa,0xaa,0xaa,0xaa,0x02,
 0x00,0xc0,0x74,0xfa,0xf5,0x4b,0xa7,0xcf,0xff,0xff,0xff,0xaf,0x03,0x00,0xe0,
 0xee,0xef,0xe6,0xee,0xee,0xee,0xee,0xee,0xee,0xbe,0x02,0x00,0x00,0x06,0x03,
 0x04,0x60,0x00,0x00,0x00,0x00,0x00,0x20,0x00,0x00,0xa0,0xaa,0xaa,0xaa,0xaa,
 0xaa,0xaa,0xaa,0xaa,0xaa,0x8a,0x02,0x00,0x00,0x06,0xcb,0x1a,0x74,0x05,0x00,
 0x00,0x00,0x00,0x58,0x00,0x00,0xa0,0xaa,0xaa,0xaa,0xaa,0xaa,0xaa,0xaa,0xaa,
 0xaa,0xea,0x02,0x00,0x00,0x04,0x04,0x04,0x04,0x04,0x04,0x04,0x04,0x04,0x04,
 0x00,0x00,0xa0,0xaa,0xaa,0xaa,0xaa,0xaa,0xaa,0xaa,0xaa,0xaa,0xaa,0x02,0x00,
 0x01,0x00,0x00,0x00,0x00,0x00,0x00,0x00,0x00,0x00,0x00,0x00,0x00,0xe1,0x88,
 0xa9,0x88,0x88,0x88,0x88,0x88,0x88,0x88,0x88,0x02,0x00,0x7d,0x0a,0x00,0x00,
 0x00,0x00,0x00,0x00,0x00,0x00,0x00,0x00,0x00,0x20,0x22,0x22,0x22,0x22,0x22,
 0x22,0x22,0x22,0x22,0x22,0x02,0x00,0x00,0x00,0x00,0x00,0x00,0x00,0x00,0x00,
 0x00,0x00,0x00,0x00,0x00,0xa0,0x88,0x88,0x88,0x88,0x88,0x88,0x88,0x88,0x88,
 0x88,0x86,0x00,0x00,0x00,0x00,0xca,0x23,0x35,0x6b,0xd1,0xb5,0x89,0x87,0xff,
 0x01,0x20,0x2a,0x22,0x2a,0x22,0x2a,0x22,0x2a,0x32,0x2a,0x26,0xc4,0x00,0x00,
 0x00,0x00,0x00,0x00,0x00,0x00,0x00,0x00,0x00,0x00,0x00,0x00,0xa0,0x88,0x88,
 0x88,0x88,0x88,0x88,0x88,0x88,0x88,0x88,0x02,0x00,0x00,0x00,0x00,0x7c,0x00,
 0x1f,0xe0,0x03,0xf8,0x00,0x00,0x00,0x00,0x20,0x22,0x22,0x02,0x22,0x32,0x82,
 0x21,0x82,0x22,0xa2,0x02,0x00,0x00,0xce,0x02,0x00,0x00,0x1f,0xc0,0x03,0x80,
 0x00,0x00,0x00,0x00,0xa0,0x88,0x88,0x80,0x88,0x8e,0xc8,0x8a,0x80,0x88,0x88,
 0x02,0x00,0x00,0x04,0x00,0x00,0x00,0x00,0x00,0x00,0x00,0x00,0x00,0x00,0x00,
 0x20,0x2e,0x22,0x22,0x22,0x22,0x22,0x22,0x22,0x22,0xa2,0x02,0x00,0x00,0x00,
 0x00,0xde,0x01,0x1b,0x70,0x04,0x34,0x01,0x00,0x00,0x00,0xa0,0x88,0x88,0x9c,
 0x89,0x9e,0xb8,0x88,0xfc,0x88,0x88,0x02,0x00,0x00,0x46,0x00,0x00,0x00,0x00,
 0x00,0x00,0x00,0x00,0x00,0x00,0x00,0x20,0x22,0x22,0x22,0x22,0x22,0x22,0x22,
 0x22,0x22,0x22,0x02,0x00,0x00,0x00,0x00,0x00,0x00,0x00,0x00,0x00,0x00,0x00,
 0x00,0x00,0x00,0xa1,0xbc,0x88,0xec,0x88,0x8e,0xe8,0x8a,0xe8,0x88,0x88,0x02,
 0x00,0xff,0x00,0x00,0x00,0x00,0x16,0x80,0x01,0x80,0x00,0x00,0x00,0x00,0x61,
 0x2a,0x22,0x02,0x22,0x3f,0x82,0x2b,0x82,0x2a,0x22,0x02,0x00,0x00,0x3e,0x00,
 0x78,0x00,0x10,0x00,0x00,0xf8,0x00,0x00,0x00,0x00,0xa0,0x88,0x88,0x88,0x88,
 0x88,0x88,0x88,0x88,0x88,0x88,0x02,0x00,0x00,0x00,0x00,0x00,0x00,0x00,0x00,
 0x00,0x00,0x00,0x00,0x00,0x00,0x20,0x22,0x22,0x22,0x22,0x22,0x22,0x22,0x22,
 0x22,0xa2,0x02,0x00,0x00,0x5a,0x00,0x18,0x00,0x14,0x80,0x01,0xa0,0x00,0x00,
 0x00,0x00,0xa0,0x88,0x88,0x88,0x88,0x88,0x88,0x88,0x88,0x88,0x88,0x02,0x00,
 0x00,0x3e,0x00,0x00,0x00,0x00,0x00,0x00,0x00,0x00,0x00,0x00,0x00,0x20,0x22,
 0x22,0x22,0x22,0x22,0x22,0x22,0x22,0x22,0xa2,0x02,0x00,0x00,0x00,0x00,0x00,
 0x00,0x00,0x00,0x00,0x00,0x00,0x00,0x00,0x00,0xa0,0xff,0x8f,0xe8,0x88,0x80,
 0x08,0x88,0xe8,0x88,0x88,0x02,0x00,0x00,0xff,0x0f,0x78,0x00,0x10,0x00,0x00,
 0xf8,0x00,0x00,0x00,0x00,0x20,0xff,0x2f,0x3a,0x22,0x30,0x02,0x20,0xba,0x22,
 0xa2,0x02,0x00,0x00,0x00,0x00,0x00,0x00,0x00,0x00,0x00,0x00,0x00,0x00,0x00,
 0x00,0xa0,0x88,0x88,0x88,0x88,0x88,0x88,0x88,0x88,0x88,0x88,0x02,0x00,0x00,
 0x00,0x00,0x00,0x00,0x00,0x00,0x00,0x00,0x00,0x00,0x80,0x00,0x20,0x2a,0x22,
 0x6a,0xa2,0x2b,0xa2,0x2b,0xf6,0xab,0xa3,0xc2,0x01,0x00,0x00,0x00,0x00,0x00,
 0x00,0x00,0x00,0x00,0xc0,0xff,0xff,0x00,0xa0,0x88,0x88,0x88,0x88,0x88,0x88,
 0x88,0x88,0x88,0x89,0x02,0x00,0x00,0x00,0x00,0x00,0x00,0x00,0x00,0x00,0x00,
 0x00,0x00,0x00,0x00,0x20,0x22,0x22,0x02,0x22,0x20,0x02,0x20,0x2a,0x22,0xa2,
 0x02,0x00,0x00,0x00,0x00,0x10,0x00,0x13,0x40,0x01,0x38,0x00,0x00,0x00,0x00,
 0xa0,0x88,0x88,0xa0,0x88,0x82,0x08,0x8a,0x08,0x88,0x88,0x02,0x00,0x00,0x00,
 0x00,0x40,0x00,0x11,0x40,0x01,0x18,0x00,0x00,0x00,0x00,0x20,0x22,0x22,0x2a,
 0x22,0x2a,0x82,0x22,0x2a,0x22,0xa2,0x02,0x00,0x00,0x00,0x00,0x00,0x00,0x00,
 0x00,0x00,0x00,0x00,0x00,0x00,0x00,0xa0,0x88,0x88,0xa8,0x88,0x8a,0x88,0x89,
 0xa8,0x88,0x88,0x02,0x00,0x00,0x00,0x00,0x00,0x00,0x06,0x80,0x01,0x20,0x00,
 0x00,0x00,0x00,0x20,0x22,0x22,0x22,0x22,0x22,0x22,0x22,0x22,0x22,0xa2,0x02,
 0x00,0x00,0x00,0x00,0x00,0x00,0x00,0x00,0x00,0x00,0x00,0x00,0x00,0x00,0xa0,
 0x88,0x88,0x88,0x88,0x88,0x88,0x88,0x88,0x88,0x88,0x02,0x00,0x00,0x00,0x00,
 0x00,0x00,0x00,0x00,0x00,0x80,0x00,0x00,0x00,0x00,0x20,0x2a,0x22,0x2a,0x22,
 0x28,0x02,0x28,0x82,0x2a,0xa2,0x02,0x00,0x00,0x00,0x00,0x60,0x00,0x1c,0x00,
 0x01,0x08,0x00,0x00,0x00,0x00};
