#define noname_width 125
#define noname_height 99
static char noname_bits[] = {
 0x11,0x11,0x11,0x11,0x11,0x11,0x11,0x11,0x11,0x11,0x11,0x11,0x11,0x11,0x11,
 0x11,0x00,0x00,0x00,0x00,0x00,0x00,0x00,0x00,0x00,0x00,0x00,0x00,0x00,0x00,
 0x00,0x00,0x44,0x44,0x44,0x44,0x44,0x44,0x44,0x44,0x44,0x44,0x44,0x44,0x44,
 0x44,0x44,0x04,0x00,0x00,0x00,0x00,0x00,0x00,0x00,0x00,0x00,0x00,0x00,0x00,
 0x00,0x00,0x00,0x00,0x11,0x11,0x11,0x11,0x11,0x11,0x11,0x11,0x11,0x11,0x11,
 0x11,0x11,0x11,0x11,0x11,0x00,0x00,0x00,0x00,0x00,0x00,0x00,0x00,0x00,0x00,
 0x00,0x00,0x00,0x00,0x00,0x00,0x44,0x44,0x44,0x44,0x44,0x44,0x44,0x44,0x44,
 0x44,0x44,0x44,0x44,0x44,0x44,0x04,0x80,0xff,0xff,0xff,0xff,0xff,0xff,0xff,
 0xff,0xff,0xff,0xff,0xff,0xff,0x3f,0x00,0x91,0xfd,0xfd,0xfd,0xfd,0xfd,0xfd,
 0xfd,0xfd,0xfd,0xfd,0xfd,0xfd,0xfd,0x3d,0x11,0x80,0xff,0xff,0xff,0xff,0xff,
 0xff,0xff,0xff,0xff,0xff,0xff,0xff,0xff,0x3f,0x00,0x44,0x77,0x77,0x77,0x77,
 0x77,0x77,0x77,0x77,0x77,0x77,0x77,0x77,0x77,0x77,0x04,0x80,0x07,0x00,0x00,
 0x00,0x00,0x00,0x00,0x00,0x00,0x00,0x00,0x00,0x00,0x38,0x00,0x91,0x05,0x00,
 0x00,0x00,0x00,0x00,0x00,0x00,0x00,0x00,0x00,0x00,0x00,0x18,0x11,0x80,0x07,
 0x00,0x00,0x00,0x00,0x00,0x00,0x00,0x00,0x00,0x00,0x00,0x00,0x38,0x00,0x44,
 0x07,0x00,0x00,0x00,0x00,0x00,0x00,0x00,0x00,0x00,0x00,0x00,0x00,0x70,0x04,
 0x80,0x07,0x00,0x00,0x00,0x00,0x00,0x00,0x00,0x00,0x00,0x00,0x00,0x80,0x3f,
 0x00,0x91,0x05,0x00,0x00,0x00,0x00,0x00,0x00,0x00,0x00,0x00,0x00,0x00,0x80,
 0x3d,0x11,0x80,0x07,0x00,0x00,0x00,0x00,0x00,0x00,0x00,0x00,0x00,0x00,0x00,
 0x80,0x3f,0x00,0x44,0x07,0x34,0x34,0x16,0x06,0x07,0x07,0x47,0x43,0x61,0x61,
 0x70,0x70,0x77,0x04,0x80,0x07,0x3c,0x3c,0x1e,0x0e,0x0f,0x87,0xc7,0xc3,0xe1,
 0xe1,0xf0,0xf8,0x3f,0x00,0x91,0x05,0x1c,0x1c,0x1c,0x0c,0x0d,0x85,0xc5,0xc1,
 0xc1,0xc1,0xd0,0xd8,0x1d,0x11,0x80,0x07,0x3c,0x3c,0x1e,0x0e,0x0f,0x87,0xc7,
 0xc3,0xe1,0xe1,0xf0,0xf8,0x3f,0x00,0x44,0x07,0x40,0x43,0x61,0x71,0x70,0x70,
 0x30,0x34,0x16,0x16,0x07,0x07,0x77,0x04,0x80,0x07,0xc0,0xc3,0xe1,0xf1,0xf0,
 0x78,0x38,0x3c,0x1e,0x1e,0x0f,0x87,0x3f,0x00,0x91,0x05,0xc0,0xc1,0xe1,0xf1,
 0xf0,0x78,0x38,0x3c,0x1c,0x1c,0x0d,0x85,0x3d,0x11,0x80,0x07,0xc0,0xc3,0xe1,
 0xf1,0xf0,0x78,0x38,0x3c,0x1e,0x1e,0x0f,0x87,0x3f,0x00,0x44,0x07,0x34,0x34,
 0x16,0x06,0x07,0x07,0x47,0x43,0x61,0x61,0x70,0x70,0x77,0x04,0x80,0x07,0x3c,
 0x3c,0x1e,0x0e,0x0f,0x87,0xc7,0xc3,0xe1,0xe1,0xf0,0xf8,0x3f,0x00,0x91,0x05,
 0x1c,0x1c,0x1c,0x0c,0x0d,0x85,0xc5,0xc1,0xc1,0xc1,0xd0,0xd8,0x1d,0x11,0x80,
 0x07,0x3c,0x3c,0x1e,0x0e,0x0f,0x87,0xc7,0xc3,0xe1,0xe1,0xf0,0xf8,0x3f,0x00,
 0x44,0x07,0x00,0x00,0x00,0x70,0x70,0x70,0x30,0x34,0x16,0x00,0x00,0x00,0x77,
 0x04,0x80,0x07,0x00,0x00,0x00,0xf0,0xf0,0x78,0x38,0x3c,0x1e,0x00,0x00,0x80,
 0x3f,0x00,0x91,0x05,0x00,0x00,0x00,0xf0,0xf0,0x78,0x38,0x3c,0x1c,0x00,0x00,
 0x80,0x3d,0x11,0x80,0x07,0x00,0x00,0x00,0x00,0x0f,0x87,0xc7,0xc3,0x01,0x00,
 0x00,0x80,0x3f,0x00,0x44,0x07,0x00,0x00,0x00,0x00,0x07,0x07,0x47,0x43,0x01,
 0x00,0x00,0x00,0x77,0x04,0x80,0x07,0x00,0x00,0x00,0x00,0x0f,0x87,0xc7,0xc3,
 0x01,0x00,0x00,0x80,0x3f,0x00,0x91,0x05,0x00,0x00,0x00,0x00,0x0d,0x85,0xc5,
 0xc1,0x01,0x00,0x00,0x80,0x1d,0x11,0x80,0x07,0xc0,0xc3,0xe1,0x01,0x00,0x00,
 0x00,0x00,0x00,0x1e,0x0f,0x87,0x3f,0x00,0x44,0x07,0x40,0x43,0x61,0x01,0x00,
 0x00,0x00,0x00,0x00,0x16,0x07,0x07,0x77,0x04,0x80,0x07,0xc0,0xc3,0xe1,0x01,
 0x00,0x00,0x00,0x00,0x00,0x1e,0x0f,0x87,0x3f,0x00,0x91,0x05,0xc0,0xc1,0xe1,
 0x01,0x00,0x00,0x00,0x00,0x00,0x1c,0x0d,0x85,0x3d,0x11,0x80,0x07,0x3c,0x3c,
 0x1e,0x0e,0x00,0x00,0x00,0x00,0xe0,0xe1,0xf0,0xf8,0x3f,0x00,0x44,0x07,0x34,
 0x34,0x16,0x06,0x00,0x00,0x00,0x00,0x60,0x61,0x70,0x70,0x77,0x04,0x80,0x07,
 0x3c,0x3c,0x1e,0x0e,0x00,0x00,0x00,0x00,0xe0,0xe1,0xf0,0xf8,0x3f,0x00,0x91,
 0x05,0xc0,0xc1,0xc1,0xd1,0xd0,0x58,0x18,0x1c,0x1c,0x1c,0x0d,0x85,0x1d,0x11,
 0x80,0x07,0xc0,0xc3,0xe1,0xf1,0xf0,0x78,0x38,0x3c,0x1e,0x1e,0x0f,0x87,0x3f,
 0x00,0x44,0x07,0x40,0x43,0x61,0x71,0x70,0x70,0x30,0x34,0x16,0x16,0x07,0x07,
 0x77,0x04,0x80,0x07,0xc0,0xc3,0xe1,0xf1,0xf0,0x78,0x38,0x3c,0x1e,0x1e,0x0f,
 0x87,0x3f,0x00,0x91,0x05,0x3c,0x3c,0x1c,0x0c,0x0d,0x85,0xc5,0xc1,0xe1,0xe1,
 0xf0,0xf8,0x3d,0x11,0x80,0x07,0x3c,0x3c,0x1e,0x0e,0x0f,0x87,0xc7,0xc3,0xe1,
 0xe1,0xf0,0xf8,0x3f,0x00,0x44,0x07,0x34,0x34,0x16,0x06,0x07,0x07,0x47,0x43,
 0x61,0x61,0x70,0x70,0x77,0x04,0x80,0x07,0x3c,0x3c,0x1e,0x0e,0x0f,0x87,0xc7,
 0xc3,0xe1,0xe1,0xf0,0xf8,0x3f,0x00,0x91,0x05,0xc0,0xc1,0xc1,0xd1,0xd0,0x58,
 0x18,0x1c,0x1c,0x1c,0x0d,0x85,0x1d,0x11,0x80,0x07,0xc0,0xc3,0xe1,0xf1,0xf0,
 0x78,0x38,0x3c,0x1e,0x1e,0x0f,0x87,0x3f,0x00,0x44,0x07,0x40,0x43,0x61,0x71,
 0x70,0x70,0x30,0x34,0x16,0x16,0x07,0x07,0x77,0x04,0x80,0x07,0x3c,0x3c,0x1e,
 0x0e,0x0f,0x87,0xc7,0xc3,0xe1,0xe1,0xf0,0xf8,0x3f,0x00,0x91,0x05,0x3c,0x3c,
 0x1c,0x0c,0x0d,0x85,0xc5,0xc1,0xe1,0xe1,0xf0,0xf8,0x3d,0x11,0x80,0x07,0x3c,
 0x3c,0x1e,0x0e,0x0f,0x87,0xc7,0xc3,0xe1,0xe1,0xf0,0xf8,0x3f,0x00,0x44,0x07,
 0x34,0x34,0x16,0x06,0x07,0x07,0x47,0x43,0x61,0x61,0x70,0x70,0x77,0x04,0x80,
 0x07,0xc0,0xc3,0xe1,0xf1,0xf0,0x78,0x38,0x3c,0x1e,0x1e,0x0f,0x87,0x3f,0x00,
 0x91,0x05,0xc0,0xc1,0xc1,0xd1,0xd0,0x58,0x18,0x1c,0x1c,0x1c,0x0d,0x85,0x1d,
 0x11,0x80,0x07,0xc0,0xc3,0xe1,0xf1,0xf0,0x78,0x38,0x3c,0x1e,0x1e,0x0f,0x87,
 0x3f,0x00,0x44,0x07,0x40,0x43,0x61,0x71,0x70,0x70,0x30,0x34,0x16,0x16,0x07,
 0x07,0x77,0x04,0x80,0x07,0x3c,0x3c,0x1e,0x0e,0x0f,0x87,0xc7,0xc3,0xe1,0xe1,
 0xf0,0xf8,0x3f,0x00,0x91,0x05,0x3c,0x3c,0x1c,0x0c,0x0d,0x85,0xc5,0xc1,0xe1,
 0xe1,0xf0,0xf8,0x3d,0x11,0x80,0x07,0x3c,0x3c,0x1e,0x0e,0x0f,0x87,0xc7,0xc3,
 0xe1,0xe1,0xf0,0xf8,0x3f,0x00,0x44,0x07,0x34,0x34,0x16,0x06,0x07,0x07,0x47,
 0x43,0x61,0x61,0x70,0x70,0x77,0x04,0x80,0x07,0xc0,0xc3,0xe1,0xf1,0xf0,0x78,
 0x38,0x3c,0x1e,0x1e,0x0f,0x87,0x3f,0x00,0x91,0x05,0xc0,0xc1,0xc1,0xd1,0xd0,
 0x58,0x18,0x1c,0x1c,0x1c,0x0d,0x85,0x1d,0x11,0x80,0x07,0xc0,0xc3,0xe1,0xf1,
 0xf0,0x78,0x38,0x3c,0x1e,0x1e,0x0f,0x87,0x3f,0x00,0x44,0x07,0x34,0x34,0x16,
 0x06,0x07,0x07,0x47,0x43,0x61,0x61,0x70,0x70,0x77,0x04,0x80,0x07,0x3c,0x3c,
 0x1e,0x0e,0x0f,0x87,0xc7,0xc3,0xe1,0xe1,0xf0,0xf8,0x3f,0x00,0x91,0x05,0x3c,
 0x3c,0x1c,0x0c,0x0d,0x85,0xc5,0xc1,0xe1,0xe1,0xf0,0xf8,0x3d,0x11,0x80,0x07,
 0x3c,0x3c,0x1e,0x0e,0x0f,0x87,0xc7,0xc3,0xe1,0xe1,0xf0,0xf8,0x3f,0x00,0x44,
 0x07,0x40,0x43,0x61,0x71,0x70,0x70,0x30,0x34,0x16,0x16,0x07,0x07,0x77,0x04,
 0x80,0x07,0xc0,0xc3,0xe1,0xf1,0xf0,0x78,0x38,0x3c,0x1e,0x1e,0x0f,0x87,0x3f,
 0x00,0x91,0x05,0xc0,0xc1,0xc1,0xd1,0xd0,0x58,0x18,0x1c,0x1c,0x1c,0x0d,0x85,
 0x1d,0x11,0x80,0x07,0xc0,0xc3,0xe1,0xf1,0xf0,0x78,0x38,0x3c,0x1e,0x1e,0x0f,
 0x87,0x3f,0x00,0x44,0x07,0x34,0x34,0x16,0x06,0x07,0x07,0x47,0x43,0x61,0x61,
 0x70,0x70,0x77,0x04,0x80,0x07,0x3c,0x3c,0x1e,0x0e,0x0f,0x87,0xc7,0xc3,0xe1,
 0xe1,0xf0,0xf8,0x3f,0x00,0x91,0x05,0x3c,0x3c,0x1c,0x0c,0x0d,0x85,0xc5,0xc1,
 0xe1,0xe1,0xf0,0xf8,0x3d,0x11,0x80,0x07,0xc0,0xc3,0xe1,0xf1,0xf0,0x78,0x38,
 0x3c,0x1e,0x1e,0x0f,0x87,0x3f,0x00,0x44,0x07,0x40,0x43,0x61,0x71,0x70,0x70,
 0x30,0x34,0x16,0x16,0x07,0x07,0x77,0x04,0x80,0x07,0xc0,0xc3,0xe1,0xf1,0xf0,
 0x78,0x38,0x3c,0x1e,0x1e,0x0f,0x87,0x3f,0x00,0x91,0x05,0xc0,0xc1,0xc1,0xd1,
 0xd0,0x58,0x18,0x1c,0x1c,0x1c,0x0d,0x85,0x1d,0x11,0x80,0x87,0xff,0xff,0xff,
 0xff,0xff,0xff,0xff,0xff,0xff,0xff,0xff,0xff,0x3f,0x00,0x44,0x07,0x77,0x77,
 0x77,0x77,0x77,0x77,0x77,0x77,0x77,0x77,0x77,0x77,0x77,0x04,0x80,0x87,0xff,
 0xff,0xff,0xff,0xff,0xff,0xff,0xff,0xff,0xff,0xff,0xff,0x3f,0x00,0x91,0x85,
 0xfd,0xfd,0xfd,0xfd,0xfd,0xfd,0xfd,0xfd,0xfd,0xfd,0xfd,0xfd,0x3d,0x11,0x80,
 0xff,0xff,0xff,0xff,0xff,0xff,0xff,0xff,0xff,0xff,0xff,0xff,0xff,0x3f,0x00,
 0x44,0x77,0x77,0x77,0x77,0x77,0x77,0x77,0x77,0x77,0x77,0x77,0x77,0x77,0x77,
 0x04,0x80,0xff,0xff,0xff,0xff,0xff,0xff,0xff,0xff,0xff,0xff,0xff,0xff,0xff,
 0x3f,0x00,0x11,0x11,0x11,0x11,0x11,0x11,0x11,0x11,0x11,0x11,0x11,0x11,0x11,
 0x11,0x11,0x11,0x00,0x00,0x00,0x00,0x00,0x00,0x00,0x00,0x00,0x00,0x00,0x00,
 0x00,0x00,0x00,0x00,0x44,0x44,0x44,0x44,0x44,0x44,0x44,0x44,0x44,0x44,0x44,
 0x44,0x44,0x44,0x44,0x04,0x00,0x00,0x00,0x00,0x00,0x00,0x00,0x00,0x00,0x00,
 0x00,0x00,0x00,0x00,0x00,0x00,0x11,0x11,0x11,0x11,0x11,0x11,0x11,0x11,0x11,
 0x11,0x11,0x11,0x11,0x11,0x11,0x11,0x00,0x00,0x00,0x00,0x00,0x00,0x00,0x00,
 0x00,0x00,0x00,0x00,0x00,0x00,0x00,0x00,0x44,0x44,0x44,0x44,0x44,0x44,0x44,
 0x44,0x44,0x44,0x44,0x44,0x44,0x44,0x44,0x04};
