#define noname_width 101
#define noname_height 99
static char noname_bits[] = {
 0x44,0x44,0x44,0x44,0x44,0x44,0x44,0x44,0x44,0x44,0x44,0x44,0x04,0x00,0x00,
 0x00,0x00,0x00,0x00,0x00,0x00,0x00,0x00,0x00,0x00,0x00,0x11,0x00,0x54,0x55,
 0x55,0x55,0x55,0x55,0x55,0x55,0x55,0x55,0x11,0x00,0x00,0x00,0x00,0x00,0x00,
 0x00,0x00,0x00,0x00,0x00,0x00,0x00,0x04,0x00,0x54,0x55,0x55,0x55,0x55,0x55,
 0x55,0x55,0x55,0x55,0x05,0x00,0x00,0x00,0x00,0x00,0x00,0x00,0x00,0x00,0x00,
 0x00,0x00,0x00,0x11,0x00,0x00,0x00,0x00,0x00,0x00,0x00,0x00,0x00,0x00,0x40,
 0x11,0x00,0x00,0x00,0x00,0x00,0x00,0x00,0x00,0x00,0x00,0x00,0x00,0x00,0x04,
 0x00,0x00,0x00,0x00,0x00,0x00,0x00,0x00,0x00,0x00,0x50,0x05,0x00,0x00,0x00,
 0x00,0x00,0x00,0x00,0x00,0x00,0x00,0x00,0x20,0x00,0x11,0x00,0x00,0x14,0x41,
 0x04,0x51,0x04,0x51,0x04,0x51,0x54,0x11,0x00,0x00,0x00,0x00,0x00,0x00,0x00,
 0x00,0x00,0x00,0x00,0x00,0x00,0x04,0x00,0x00,0x14,0x41,0x04,0x51,0x04,0x51,
 0x04,0x51,0x54,0x05,0x00,0x00,0x00,0x20,0x00,0x22,0x00,0x22,0x00,0x20,0x02,
 0x22,0x00,0x11,0x00,0x00,0x40,0x14,0x51,0x04,0x51,0x04,0x51,0x04,0x55,0x11,
 0x00,0x08,0x00,0x00,0x00,0x08,0x00,0x08,0x00,0x08,0x00,0x08,0x00,0x44,0x15,
 0x00,0x00,0x41,0x04,0x51,0x04,0x51,0x04,0x51,0x54,0x05,0x20,0x02,0x00,0x00,
 0x22,0x00,0x22,0x00,0x22,0x02,0x20,0x22,0x00,0x51,0x54,0x00,0x00,0x14,0x51,
 0x04,0x51,0x04,0x51,0x04,0x55,0x11,0x00,0x00,0x00,0x00,0x00,0x00,0x00,0x00,
 0x00,0x00,0x00,0x00,0x00,0x44,0x54,0x00,0x00,0x14,0x51,0x04,0x51,0x04,0x51,
 0x04,0x55,0x05,0x20,0x20,0x00,0x00,0x20,0x00,0x22,0x20,0x22,0x02,0x20,0x22,
 0x00,0x51,0x40,0x00,0x00,0x40,0x04,0x51,0x50,0x51,0x04,0x51,0x54,0x11,0x00,
 0x00,0x00,0x00,0x08,0x00,0x08,0x00,0x08,0x00,0x08,0x00,0x00,0x44,0x40,0x01,
 0x00,0x14,0x51,0x04,0x50,0x04,0x51,0x04,0x55,0x05,0x20,0x20,0x02,0x00,0x00,
 0x22,0x00,0x20,0x00,0x20,0x02,0x22,0x00,0x51,0x00,0x15,0x00,0x40,0x04,0x01,
 0x50,0x51,0x04,0x01,0x50,0x11,0x00,0x00,0x00,0x00,0x00,0x00,0x00,0x00,0x00,
 0x00,0x00,0x00,0x00,0x44,0x40,0x54,0x00,0x40,0x55,0x00,0x50,0x04,0x51,0x00,
 0x55,0x05,0x20,0x20,0x20,0x00,0x20,0x22,0x00,0x20,0x00,0x20,0x00,0x22,0x00,
 0x51,0x40,0x54,0x00,0x40,0x55,0x00,0x50,0x04,0x51,0x00,0x55,0x11,0x00,0x00,
 0x00,0x00,0x00,0x00,0x00,0x00,0x00,0x08,0x00,0x08,0x00,0x44,0x00,0x41,0x00,
 0x00,0x00,0x01,0x50,0x51,0x04,0x50,0x55,0x05,0x20,0x00,0x22,0x00,0x00,0x00,
 0x02,0x20,0x22,0x02,0x20,0x22,0x00,0x51,0x40,0x54,0x00,0x00,0x00,0x04,0x50,
 0x04,0x01,0x54,0x55,0x11,0x00,0x00,0x00,0x00,0x00,0x00,0x00,0x00,0x00,0x00,
 0x00,0x00,0x00,0x44,0x00,0x41,0x01,0x00,0x00,0x00,0x50,0x01,0x00,0x55,0x54,
 0x05,0x20,0x00,0x22,0x02,0x00,0x00,0x00,0x20,0x02,0x00,0x22,0x22,0x00,0x51,
 0x00,0x41,0x01,0x00,0x00,0x00,0x50,0x01,0x00,0x55,0x54,0x11,0x00,0x00,0x08,
 0x00,0x00,0x00,0x00,0x00,0x00,0x00,0x08,0x00,0x00,0x44,0x40,0x14,0x55,0x01,
 0x00,0x50,0x51,0x00,0x50,0x05,0x55,0x05,0x20,0x20,0x00,0x22,0x02,0x00,0x20,
 0x22,0x00,0x20,0x02,0x22,0x00,0x51,0x00,0x41,0x14,0x01,0x00,0x00,0x54,0x00,
 0x54,0x51,0x54,0x11,0x00,0x00,0x00,0x00,0x00,0x00,0x00,0x00,0x00,0x00,0x00,
 0x00,0x00,0x44,0x40,0x14,0x41,0x54,0x00,0x00,0x50,0x00,0x55,0x04,0x55,0x05,
 0x20,0x20,0x00,0x22,0x20,0x00,0x00,0x20,0x00,0x22,0x02,0x22,0x00,0x51,0x40,
 0x14,0x41,0x54,0x00,0x00,0x50,0x00,0x55,0x04,0x55,0x11,0x00,0x00,0x00,0x08,
 0x00,0x00,0x00,0x00,0x00,0x08,0x00,0x08,0x00,0x44,0x00,0x41,0x14,0x00,0x01,
 0x00,0x00,0x51,0x05,0x51,0x54,0x05,0x20,0x00,0x22,0x00,0x00,0x02,0x00,0x00,
 0x22,0x02,0x20,0x22,0x00,0x51,0x40,0x14,0x01,0x00,0x04,0x00,0x00,0x55,0x51,
 0x04,0x55,0x11,0x00,0x00,0x00,0x00,0x00,0x00,0x00,0x00,0x00,0x00,0x00,0x00,
 0x00,0x44,0x00,0x41,0x00,0x00,0x55,0x00,0x00,0x55,0x04,0x51,0x54,0x05,0x20,
 0x00,0x22,0x00,0x00,0x22,0x00,0x00,0x22,0x02,0x20,0x22,0x00,0x51,0x00,0x41,
 0x00,0x00,0x55,0x00,0x00,0x55,0x04,0x51,0x54,0x11,0x00,0x00,0x08,0x00,0x00,
 0x00,0x00,0x00,0x08,0x00,0x08,0x00,0x00,0x44,0x40,0x14,0x00,0x40,0x55,0x01,
 0x00,0x04,0x51,0x04,0x55,0x05,0x20,0x00,0x02,0x00,0x22,0x20,0x00,0x00,0x20,
 0x02,0x20,0x22,0x00,0x51,0x00,0x01,0x00,0x55,0x54,0x00,0x00,0x50,0x04,0x51,
 0x54,0x11,0x00,0x00,0x00,0x00,0x00,0x00,0x00,0x00,0x00,0x00,0x00,0x00,0x00,
 0x44,0x40,0x00,0x54,0x15,0x51,0x04,0x00,0x00,0x51,0x04,0x55,0x05,0x20,0x20,
 0x00,0x20,0x02,0x22,0x00,0x00,0x00,0x20,0x02,0x22,0x00,0x51,0x40,0x00,0x54,
 0x15,0x51,0x04,0x00,0x00,0x51,0x04,0x55,0x11,0x00,0x08,0x00,0x08,0x00,0x08,
 0x00,0x00,0x00,0x08,0x00,0x08,0x00,0x44,0x14,0x40,0x55,0x41,0x54,0x50,0x00,
 0x00,0x04,0x51,0x54,0x05,0x20,0x02,0x22,0x22,0x00,0x22,0x20,0x02,0x00,0x20,
 0x02,0x22,0x00,0x51,0x01,0x55,0x41,0x14,0x51,0x54,0x01,0x00,0x50,0x04,0x55,
 0x11,0x00,0x00,0x00,0x00,0x00,0x00,0x00,0x00,0x00,0x00,0x00,0x00,0x00,0x44,
 0x55,0x55,0x14,0x41,0x54,0x55,0x01,0x00,0x00,0x50,0x54,0x05,0x20,0x22,0x22,
 0x00,0x22,0x20,0x22,0x02,0x00,0x00,0x20,0x22,0x00,0x51,0x55,0x55,0x14,0x41,
 0x54,0x55,0x01,0x00,0x00,0x50,0x54,0x11,0x00,0x00,0x08,0x00,0x08,0x00,0x08,
 0x00,0x00,0x00,0x00,0x00,0x00,0x44,0x55,0x14,0x41,0x14,0x51,0x05,0x05,0x00,
 0x00,0x00,0x55,0x05,0x20,0x00,0x22,0x00,0x22,0x20,0x22,0x20,0x00,0x00,0x00,
 0x22,0x00,0x51,0x00,0x41,0x14,0x41,0x54,0x51,0x54,0x00,0x00,0x00,0x54,0x11,
 0x00,0x00,0x00,0x00,0x00,0x00,0x00,0x00,0x00,0x00,0x00,0x00,0x00,0x44,0x40,
 0x14,0x41,0x14,0x51,0x04,0x51,0x55,0x00,0x00,0x50,0x05,0x20,0x20,0x00,0x22,
 0x00,0x22,0x00,0x22,0x22,0x00,0x00,0x20,0x00,0x51,0x00,0x41,0x14,0x41,0x04,
 0x51,0x04,0x51,0x01,0x00,0x40,0x11,0x00,0x00,0x00,0x08,0x00,0x08,0x00,0x08,
 0x00,0x00,0x00,0x00,0x00,0x44,0x00,0x41,0x14,0x41,0x04,0x51,0x04,0x51,0x01,
 0x00,0x40,0x05,0x20,0x20,0x00,0x22,0x00,0x22,0x00,0x22,0x00,0x02,0x00,0x00,
 0x00,0x51,0x40,0x14,0x41,0x14,0x51,0x04,0x51,0x04,0x05,0x00,0x00,0x10,0x00,
 0x00,0x00,0x00,0x00,0x00,0x00,0x00,0x00,0x00,0x00,0x00,0x00,0x44,0x00,0x41,
 0x14,0x41,0x04,0x51,0x04,0x51,0x54,0x00,0x00,0x04,0x20,0x00,0x22,0x00,0x22,
 0x00,0x22,0x00,0x22,0x22,0x00,0x00,0x00,0x51,0x40,0x55,0x55,0x55,0x55,0x55,
 0x55,0x55,0x55,0x01,0x00,0x10,0x00,0x00,0x08,0x00,0x08,0x00,0x08,0x00,0x08,
 0x00,0x00,0x00,0x00,0x44,0x40,0x55,0x55,0x55,0x55,0x55,0x55,0x55,0x55,0x01,
 0x00,0x04,0x20,0x20,0x22,0x22,0x22,0x22,0x22,0x22,0x22,0x22,0x02,0x00,0x00,
 0x51,0x54,0x55,0x55,0x55,0x55,0x55,0x55,0x55,0x55,0x05,0x00,0x10,0x00,0x00,
 0x00,0x00,0x00,0x00,0x00,0x00,0x00,0x00,0x00,0x00,0x00,0x44,0x55,0x55,0x55,
 0x55,0x55,0x55,0x55,0x55,0x55,0x55,0x00,0x04,0x20,0x22,0x22,0x22,0x22,0x22,
 0x22,0x22,0x22,0x22,0x22,0x00,0x00,0x11,0x11,0x11,0x11,0x11,0x11,0x11,0x11,
 0x11,0x11,0x11,0x11,0x11,0x00,0x00,0x00,0x00,0x00,0x00,0x00,0x00,0x00,0x00,
 0x00,0x00,0x00,0x44,0x44,0x44,0x44,0x44,0x44,0x44,0x44,0x44,0x44,0x44,0x44,
 0x04,0x00,0x00,0x00,0x00,0x00,0x00,0x00,0x00,0x00,0x00,0x00,0x00,0x00,0x11,
 0x11,0x11,0x11,0x11,0x11,0x11,0x11,0x11,0x11,0x11,0x11,0x11};
