#define noname_width 73
#define noname_height 99
static char noname_bits[] = {
 0x44,0x44,0x44,0x44,0x44,0x44,0x44,0x44,0x44,0x00,0x00,0x00,0x00,0x00,0x00,
 0x00,0x00,0x00,0x00,0x00,0x11,0x11,0x11,0x11,0x11,0x11,0x11,0x11,0x11,0x01,
 0x00,0x00,0x00,0x00,0x00,0x00,0x00,0x00,0x00,0x00,0x44,0x44,0x44,0x44,0x44,
 0x44,0x44,0x44,0x44,0x00,0xec,0xee,0xee,0xee,0xee,0xee,0xee,0xee,0x0e,0x00,
 0x55,0x55,0x55,0x55,0x55,0x55,0x55,0x55,0x15,0x01,0x08,0x00,0x00,0x00,0x00,
 0x00,0x00,0x00,0x08,0x00,0x14,0x00,0x00,0x00,0x00,0x00,0x00,0x00,0x50,0x00,
 0x0c,0x00,0x00,0x00,0x00,0x00,0x00,0x00,0x08,0x00,0x15,0x00,0x00,0x00,0x00,
 0x00,0x00,0x00,0x10,0x01,0x18,0x00,0x00,0x00,0x00,0x00,0x00,0x00,0x18,0x00,
 0x14,0x00,0x00,0x00,0x00,0x00,0x00,0x00,0x50,0x00,0x0c,0x00,0x00,0x00,0x00,
 0x00,0x00,0x00,0x08,0x00,0x15,0x00,0x00,0x00,0x00,0x00,0x00,0x00,0x10,0x01,
 0x08,0x00,0x00,0x00,0x00,0x00,0x00,0x00,0x08,0x00,0x14,0x00,0x00,0x00,0x00,
 0x00,0x00,0x00,0x50,0x00,0x0c,0xe0,0xe8,0xe2,0x2e,0x0e,0xe2,0x00,0x08,0x00,
 0x15,0x50,0x51,0x51,0x15,0x15,0x51,0x01,0x10,0x01,0x18,0x00,0x00,0x00,0x00,
 0x00,0x00,0x00,0x18,0x00,0x14,0x00,0x00,0x00,0x00,0x00,0x00,0x00,0x50,0x00,
 0x0c,0xee,0xe8,0x8e,0x2e,0xee,0xe2,0x06,0x08,0x00,0x15,0x54,0x51,0x05,0x15,
 0x55,0x51,0x05,0x10,0x01,0x08,0xaa,0xa9,0x8b,0x2b,0xab,0xa3,0x03,0x08,0x00,
 0x14,0x00,0x00,0x00,0x00,0x00,0x00,0x00,0x50,0x00,0x0c,0x00,0x00,0x00,0x00,
 0x00,0x00,0x00,0x08,0x00,0x15,0x54,0x11,0x05,0x55,0x10,0x05,0x00,0x10,0x01,
 0x18,0xba,0x18,0x8b,0xba,0x18,0x0a,0x00,0x18,0x00,0x14,0x54,0x11,0x05,0x55,
 0x10,0x05,0x00,0x50,0x00,0x0c,0x00,0x00,0x00,0x00,0x00,0x00,0x00,0x08,0x00,
 0x15,0x00,0x00,0x00,0x00,0x00,0x00,0x00,0x10,0x01,0x08,0x8a,0x03,0xab,0xa1,
 0xa0,0x2b,0x02,0x08,0x00,0x14,0x44,0x05,0x55,0x51,0x40,0x55,0x04,0x50,0x00,
 0x0c,0x00,0x00,0x00,0x00,0x00,0x00,0x00,0x08,0x00,0x15,0x00,0x00,0x00,0x00,
 0x00,0x00,0x00,0x10,0x01,0x18,0x00,0x00,0x00,0x00,0x00,0x00,0x00,0x18,0x00,
 0x14,0x14,0x44,0x55,0x10,0x50,0x05,0x04,0x50,0x00,0x0c,0x2e,0xe6,0x6e,0x20,
 0xe8,0x0e,0x06,0x08,0x00,0x15,0x00,0x00,0x00,0x00,0x00,0x00,0x00,0x10,0x01,
 0x08,0x00,0x00,0x00,0x00,0x00,0x00,0x00,0x08,0x00,0x14,0x14,0x54,0x05,0x00,
 0x00,0x00,0x00,0x50,0x00,0x0c,0x2e,0xee,0x0e,0x00,0x00,0x00,0x00,0x08,0x00,
 0x15,0x14,0x54,0x05,0x00,0x00,0x00,0x00,0x10,0x01,0x18,0x00,0x18,0x38,0x00,
 0x00,0x00,0x00,0x18,0x00,0x14,0x00,0x10,0x54,0x00,0x00,0x00,0x00,0x50,0x00,
 0x0c,0x00,0x08,0xe0,0x00,0x00,0x00,0x00,0x08,0x00,0x15,0x00,0x10,0x50,0x01,
 0x00,0x00,0x00,0x10,0x01,0x08,0x00,0x08,0xa0,0x01,0x00,0x00,0x00,0x08,0x00,
 0x14,0x00,0x50,0x01,0x05,0x00,0x00,0x00,0x50,0x00,0x0c,0x00,0xe8,0x82,0x0e,
 0x00,0x00,0x00,0x08,0x00,0x15,0x00,0x40,0x05,0x14,0x00,0x00,0x00,0x10,0x01,
 0x18,0x00,0xa0,0x0a,0x3a,0x00,0x00,0x00,0x18,0x00,0x14,0x00,0x00,0x55,0x50,
 0x00,0x00,0x00,0x50,0x00,0x0c,0x00,0x00,0x6e,0xe0,0x00,0x00,0x00,0x08,0x00,
 0x15,0x00,0x00,0x55,0x50,0x00,0x00,0x00,0x10,0x01,0x08,0x00,0x00,0xa8,0x81,
 0x03,0x00,0x00,0x08,0x00,0x14,0x00,0x00,0x54,0x41,0x05,0x00,0x00,0x50,0x00,
 0x0c,0x00,0x00,0xe0,0x0e,0x0e,0x00,0x00,0x08,0x00,0x15,0x00,0x00,0x50,0x05,
 0x15,0x00,0x00,0x10,0x01,0x18,0x00,0x00,0x80,0x3a,0xb8,0x00,0x00,0x18,0x00,
 0x14,0x00,0x00,0x00,0x15,0x50,0x00,0x00,0x50,0x00,0x0c,0x00,0x00,0x80,0x2e,
 0xe8,0x00,0x00,0x08,0x00,0x15,0x00,0x00,0x00,0x54,0x40,0x01,0x00,0x10,0x01,
 0x08,0x00,0x00,0x00,0xaa,0xa0,0x03,0x00,0x08,0x00,0x14,0x00,0x00,0x00,0x50,
 0x05,0x05,0x00,0x50,0x00,0x0c,0x00,0x00,0x00,0xe0,0x06,0x0e,0x00,0x08,0x00,
 0x15,0x00,0x00,0x00,0x50,0x05,0x05,0x00,0x10,0x01,0x18,0x00,0x00,0x00,0x80,
 0x1a,0x38,0x00,0x18,0x00,0x14,0x00,0x00,0x00,0x40,0x15,0x54,0x00,0x50,0x00,
 0x0c,0x00,0x00,0x00,0x00,0xee,0xe0,0x00,0x08,0x00,0x15,0x00,0x00,0x00,0x00,
 0x55,0x50,0x01,0x10,0x01,0x08,0x00,0x00,0x00,0x00,0xa8,0x83,0x03,0x08,0x00,
 0x14,0x00,0x00,0x00,0x00,0x50,0x01,0x05,0x50,0x00,0x0c,0x00,0x00,0x00,0x00,
 0xe8,0x82,0x06,0x08,0x00,0x15,0x00,0x00,0x00,0x00,0x40,0x05,0x14,0x10,0x01,
 0x18,0x00,0x00,0x00,0x00,0xa0,0x0a,0x3a,0x18,0x00,0x14,0x00,0x00,0x00,0x00,
 0x00,0x55,0x54,0x50,0x00,0x0c,0x00,0x00,0x00,0x00,0x00,0x6e,0xee,0x08,0x00,
 0x15,0x00,0x00,0x00,0x00,0x00,0x55,0x54,0x10,0x01,0x08,0x00,0x00,0x00,0x00,
 0x00,0xa8,0x81,0x0b,0x00,0x14,0x00,0x00,0x00,0x00,0x00,0x54,0x41,0x55,0x00,
 0x0c,0x00,0x00,0x00,0x00,0x00,0xe0,0xe8,0x08,0x00,0x15,0x00,0x00,0x00,0x00,
 0x00,0x50,0x51,0x10,0x01,0x18,0x00,0x00,0x00,0x00,0x00,0x80,0x3a,0x18,0x00,
 0x14,0x00,0x00,0x00,0x00,0x00,0x00,0x15,0x50,0x00,0x0c,0x00,0x00,0x00,0x00,
 0x00,0x80,0x2e,0x08,0x00,0x15,0x00,0x00,0x00,0x00,0x00,0x00,0x04,0x10,0x01,
 0x08,0x00,0x00,0x00,0x00,0x00,0x00,0x02,0x08,0x00,0x14,0x00,0x00,0x00,0x00,
 0x00,0x00,0x00,0x50,0x00,0x0c,0x00,0x00,0x00,0x00,0x00,0x00,0x00,0x08,0x00,
 0x15,0x00,0x00,0x00,0x00,0x00,0x00,0x00,0x10,0x01,0x18,0x00,0x00,0x00,0x00,
 0x00,0x00,0x00,0x18,0x00,0x14,0x00,0x00,0x00,0x00,0x00,0x00,0x00,0x50,0x00,
 0xec,0xee,0xee,0xee,0xee,0xee,0xee,0xee,0x0e,0x00,0x55,0x55,0x55,0x55,0x55,
 0x55,0x55,0x55,0x15,0x01,0x00,0x00,0x00,0x00,0x00,0x00,0x00,0x00,0x00,0x00,
 0x44,0x44,0x44,0x44,0x44,0x44,0x44,0x44,0x44,0x00,0x00,0x00,0x00,0x00,0x00,
 0x00,0x00,0x00,0x00,0x00,0x11,0x11,0x11,0x11,0x11,0x11,0x11,0x11,0x11,0x01};
