#define noname_width 101
#define noname_height 99
static char noname_bits[] = {
 0x11,0x11,0x11,0x11,0x11,0x11,0x11,0x11,0x11,0x11,0x11,0x11,0x11,0x00,0x00,
 0x00,0x00,0x00,0x00,0x00,0x00,0x00,0x00,0x00,0x00,0x00,0x45,0x44,0x45,0x44,
 0x45,0x44,0x45,0x44,0x45,0x44,0x45,0x44,0x05,0x00,0x00,0x00,0x00,0x00,0x00,
 0x00,0x00,0x00,0x00,0x00,0x00,0x00,0x11,0x11,0x11,0x11,0x11,0x11,0x11,0x11,
 0x11,0x11,0x11,0x11,0x11,0x00,0x00,0x00,0x00,0x00,0x00,0x00,0x00,0x00,0x00,
 0x00,0x00,0x00,0x44,0x55,0x55,0x55,0x55,0x55,0x55,0x55,0x55,0x55,0x55,0x55,
 0x04,0xe0,0xee,0xee,0xee,0xee,0xee,0xee,0xee,0xee,0xee,0xee,0xee,0x00,0x51,
 0x55,0x55,0x55,0x55,0x55,0x55,0x55,0x55,0x55,0x55,0x55,0x11,0xa0,0x00,0x00,
 0x00,0x00,0x00,0x00,0x00,0x00,0x00,0x00,0xa0,0x00,0x44,0x00,0x00,0x00,0x00,
 0x00,0x00,0x00,0x00,0x00,0x00,0x40,0x04,0xe0,0x00,0x00,0x00,0x00,0x00,0x00,
 0x00,0x00,0x00,0x00,0xe0,0x00,0x51,0x00,0x00,0x00,0x00,0x00,0x00,0x00,0x00,
 0x00,0x00,0x40,0x11,0xa0,0x00,0x00,0x00,0x00,0x00,0x00,0x00,0x00,0x00,0x00,
 0xb8,0x00,0x44,0x00,0x00,0x00,0x00,0x00,0x00,0x00,0x00,0x00,0x00,0x54,0x04,
 0xe0,0x00,0x00,0x00,0x00,0x00,0x00,0x00,0x00,0x00,0x00,0xec,0x00,0x51,0x00,
 0x41,0x10,0x04,0x41,0x10,0x04,0x41,0x10,0x04,0x55,0x11,0xa0,0x80,0xa3,0x38,
 0x8a,0xa3,0x38,0x8a,0xa3,0x38,0x8a,0xbb,0x00,0x45,0x00,0x41,0x10,0x04,0x41,
 0x10,0x04,0x41,0x10,0x04,0x55,0x05,0xe0,0x00,0x08,0xc6,0x60,0x0c,0xc2,0x60,
 0x08,0xc6,0xe0,0xee,0x00,0x51,0x00,0x14,0x45,0x51,0x14,0x45,0x51,0x14,0x45,
 0x51,0x55,0x11,0xa0,0x00,0x18,0x83,0x31,0x18,0x83,0x31,0x18,0x83,0xb1,0xbb,
 0x00,0x44,0x00,0x41,0x10,0x04,0x41,0x10,0x04,0x41,0x10,0x04,0x55,0x04,0xe0,
 0x80,0xe2,0x28,0x8e,0xe2,0x28,0x8e,0xe2,0x28,0x8e,0xee,0x00,0x51,0x00,0x41,
 0x10,0x04,0x41,0x10,0x04,0x41,0x10,0x04,0x55,0x11,0xa0,0x00,0x18,0x83,0x31,
 0x18,0x03,0x3a,0x18,0x83,0x01,0xb8,0x00,0x44,0x00,0x14,0x45,0x51,0x14,0x05,
 0x54,0x14,0x45,0x01,0x54,0x04,0xe0,0x00,0x0c,0xc2,0x60,0x08,0x06,0x6a,0x0c,
 0xc2,0x00,0xe8,0x00,0x51,0x00,0x41,0x10,0x04,0x41,0x00,0x04,0x41,0x10,0x00,
 0x55,0x11,0xa0,0x80,0xa3,0x38,0x8a,0xa3,0x00,0x8a,0xa3,0x38,0x80,0xbb,0x00,
 0x44,0x00,0x41,0x10,0x04,0x41,0x00,0x04,0x41,0x10,0x00,0x55,0x04,0xe0,0x00,
 0x0c,0xc6,0x60,0x0c,0x00,0x6e,0x0c,0x06,0xe0,0xee,0x00,0x51,0x00,0x14,0x45,
 0x51,0x14,0x00,0x54,0x14,0x05,0x50,0x55,0x11,0xa0,0x00,0x18,0x83,0x31,0x18,
 0x00,0x3a,0x18,0x03,0xb0,0xbb,0x00,0x45,0x00,0x41,0x10,0x04,0x01,0x00,0x04,
 0x41,0x00,0x54,0x55,0x05,0xe0,0x80,0xe2,0x28,0x8a,0x02,0x00,0x8e,0xe2,0x00,
 0xea,0xee,0x00,0x51,0x00,0x41,0x10,0x04,0x01,0x00,0x04,0x41,0x00,0x54,0x55,
 0x11,0xa0,0x00,0x18,0x83,0x31,0x00,0x00,0x3a,0x00,0x80,0xbb,0xbb,0x00,0x44,
 0x00,0x14,0x45,0x51,0x00,0x00,0x54,0x00,0x40,0x55,0x55,0x04,0xe0,0x00,0x0c,
 0xc6,0x60,0x00,0x00,0x6e,0x00,0xc0,0xee,0xee,0x00,0x51,0x00,0x41,0x10,0x04,
 0x00,0x00,0x04,0x00,0x50,0x05,0x55,0x11,0xa0,0x80,0xa3,0x38,0x0a,0x00,0x00,
 0x0a,0x00,0xb8,0x8b,0xbb,0x00,0x44,0x00,0x41,0x10,0x04,0x00,0x00,0x04,0x00,
 0x50,0x05,0x55,0x04,0xe0,0x00,0x0c,0xc2,0x00,0x00,0x00,0x00,0x00,0xea,0xe0,
 0xea,0x00,0x51,0x00,0x14,0x45,0x01,0x00,0x00,0x00,0x00,0x55,0x51,0x55,0x11,
 0xa0,0x00,0x18,0x83,0x01,0x00,0x00,0x00,0x00,0xbb,0xb1,0xbb,0x00,0x44,0x00,
 0x41,0x10,0x00,0x00,0x00,0x00,0x40,0x15,0x04,0x55,0x04,0xe0,0x80,0xe2,0x28,
 0x00,0x00,0x00,0x00,0xe0,0x2e,0x8e,0xee,0x00,0x51,0x00,0x41,0x10,0x00,0x00,
 0x00,0x00,0x40,0x15,0x04,0x55,0x11,0xa0,0x00,0x18,0x03,0x00,0x00,0x00,0x00,
 0xb8,0x83,0xb1,0xbb,0x00,0x45,0x00,0x14,0x05,0x00,0x00,0x00,0x00,0x54,0x45,
 0x51,0x55,0x05,0xe0,0x00,0x08,0x06,0x00,0x00,0x00,0x00,0xe8,0xc6,0xe0,0xee,
 0x00,0x51,0x00,0x41,0x00,0x00,0x15,0x00,0x00,0x55,0x10,0x04,0x55,0x11,0xa0,
 0x80,0xa3,0x00,0x80,0x1b,0x00,0x80,0xbb,0x38,0x8a,0xbb,0x00,0x44,0x00,0x41,
 0x00,0x00,0x15,0x00,0x00,0x55,0x10,0x04,0x55,0x04,0xe0,0x00,0x0c,0x00,0xe0,
 0x0e,0x00,0xe0,0x0e,0xc6,0xe0,0xee,0x00,0x51,0x00,0x14,0x00,0x50,0x15,0x00,
 0x50,0x15,0x45,0x51,0x55,0x11,0xa0,0x00,0x18,0x00,0xb0,0x1b,0x00,0xb0,0x1b,
 0x83,0xb1,0xbb,0x00,0x44,0x00,0x01,0x40,0x55,0x15,0x00,0x54,0x41,0x10,0x04,
 0x55,0x04,0xe0,0x80,0x02,0xc0,0xee,0x0a,0x00,0xea,0xe2,0x28,0x8e,0xea,0x00,
 0x51,0x00,0x01,0x40,0x55,0x15,0x00,0x54,0x41,0x10,0x04,0x55,0x11,0xa0,0x38,
 0x00,0xbb,0x3b,0x18,0x80,0x3b,0x18,0x83,0xb1,0xbb,0x00,0x44,0x50,0x00,0x55,
 0x55,0x14,0x40,0x55,0x14,0x45,0x51,0x55,0x04,0xe0,0x68,0x00,0xee,0x6e,0x0c,
 0xc0,0x6e,0x0c,0xc6,0xe0,0xee,0x00,0x51,0x05,0x54,0x15,0x04,0x15,0x50,0x05,
 0x41,0x10,0x04,0x55,0x11,0xa0,0x03,0xb8,0x3b,0x8a,0x1b,0xb8,0x8b,0xa3,0x38,
 0x8a,0xbb,0x00,0x45,0x05,0x54,0x15,0x04,0x15,0x50,0x05,0x41,0x10,0x04,0x55,
 0x05,0xe0,0xee,0xea,0xc6,0x60,0x0c,0xea,0x60,0x08,0xc6,0xe0,0xee,0x00,0x51,
 0x55,0x55,0x45,0x51,0x14,0x55,0x51,0x14,0x45,0x51,0x55,0x11,0xa0,0xbb,0xbb,
 0x83,0x31,0x18,0xbb,0x31,0x18,0x83,0xb1,0xbb,0x00,0x44,0x55,0x41,0x10,0x04,
 0x55,0x15,0x04,0x41,0x10,0x04,0x55,0x04,0xe0,0xee,0xe2,0x28,0x8e,0xee,0x2e,
 0x8e,0xe2,0x28,0x8e,0xee,0x00,0x51,0x55,0x41,0x10,0x04,0x55,0x15,0x04,0x41,
 0x10,0x04,0x55,0x11,0xa0,0x00,0x18,0x83,0x31,0xb8,0x83,0x31,0x18,0x83,0xb1,
 0xbb,0x00,0x44,0x00,0x14,0x45,0x51,0x54,0x45,0x51,0x14,0x45,0x51,0x55,0x04,
 0xe0,0x00,0x0c,0xc2,0x60,0xe8,0xc6,0x60,0x0c,0xc2,0xe0,0xea,0x00,0x51,0x00,
 0x41,0x10,0x04,0x55,0x10,0x04,0x41,0x10,0x04,0x55,0x11,0xa0,0x80,0xa3,0x38,
 0x8a,0xbb,0x38,0x8a,0xa3,0x38,0x8a,0xbb,0x00,0x44,0x00,0x41,0x10,0x04,0x55,
 0x10,0x04,0x41,0x10,0x04,0x55,0x04,0xe0,0x00,0x0c,0xc6,0x60,0x0c,0xc6,0x60,
 0x0c,0xc6,0xe0,0xee,0x00,0x51,0x00,0x14,0x45,0x51,0x14,0x45,0x51,0x14,0x45,
 0x51,0x55,0x11,0xa0,0x00,0x18,0x83,0x31,0x18,0x83,0x31,0x18,0x83,0xb1,0xbb,
 0x00,0x45,0x00,0x41,0x10,0x04,0x41,0x10,0x04,0x41,0x10,0x04,0x55,0x05,0xe0,
 0x80,0xe2,0x28,0x8a,0xe2,0x28,0x8e,0xe2,0x28,0x8a,0xee,0x00,0x51,0x00,0x41,
 0x10,0x04,0x41,0x10,0x04,0x41,0x10,0x04,0x55,0x11,0xa0,0x00,0x18,0x83,0x31,
 0x18,0x83,0x31,0x18,0x83,0xb1,0xbb,0x00,0x44,0x00,0x14,0x45,0x51,0x14,0x45,
 0x51,0x14,0x45,0x51,0x55,0x04,0xe0,0x00,0x0c,0xc6,0x60,0x0c,0xc6,0x60,0x0c,
 0xc6,0xe0,0xee,0x00,0x51,0x00,0x55,0x55,0x55,0x55,0x55,0x55,0x55,0x55,0x55,
 0x55,0x11,0xa0,0x80,0xbb,0xbb,0xbb,0xbb,0xbb,0xbb,0xbb,0xbb,0xbb,0xbb,0x00,
 0x44,0x00,0x55,0x55,0x55,0x55,0x55,0x55,0x55,0x55,0x55,0x55,0x04,0xe0,0xe8,
 0xee,0xea,0xee,0xea,0xee,0xea,0xee,0xea,0xee,0xea,0x00,0x51,0x50,0x55,0x55,
 0x55,0x55,0x55,0x55,0x55,0x55,0x55,0x55,0x11,0xa0,0xb8,0xbb,0xbb,0xbb,0xbb,
 0xbb,0xbb,0xbb,0xbb,0xbb,0xbb,0x00,0x44,0x55,0x55,0x55,0x55,0x55,0x55,0x55,
 0x55,0x55,0x55,0x55,0x04,0xe0,0xee,0xee,0xee,0xee,0xee,0xee,0xee,0xee,0xee,
 0xee,0xee,0x00,0x51,0x55,0x55,0x55,0x55,0x55,0x55,0x55,0x55,0x55,0x55,0x55,
 0x11,0x00,0x00,0x00,0x00,0x00,0x00,0x00,0x00,0x00,0x00,0x00,0x00,0x00,0x45,
 0x44,0x45,0x44,0x45,0x44,0x45,0x44,0x45,0x44,0x45,0x44,0x05};
