#define noname_width 121
#define noname_height 99
static char noname_bits[] = {
 0x44,0x44,0x44,0x44,0x44,0x44,0x44,0x44,0x44,0x44,0x44,0x44,0x44,0x44,0x44,
 0x00,0x00,0x00,0x00,0x00,0x00,0x00,0x00,0x00,0x00,0x00,0x00,0x00,0x00,0x00,
 0x00,0x00,0x11,0x11,0x11,0x11,0x11,0x11,0x11,0x11,0x11,0x11,0x11,0x11,0x11,
 0x11,0x11,0x01,0x00,0x00,0x00,0x00,0x00,0x00,0x00,0x00,0x00,0x00,0x00,0x00,
 0x00,0x00,0x00,0x00,0x44,0x44,0x44,0x44,0x44,0x44,0x44,0x44,0x44,0x44,0x44,
 0x44,0x44,0x44,0x44,0x00,0x00,0x00,0x00,0x00,0x00,0x00,0x00,0x00,0x00,0x00,
 0x00,0x00,0x00,0x00,0x00,0x00,0x11,0x11,0x11,0x11,0x11,0x11,0x11,0x11,0x11,
 0x11,0x11,0x11,0x11,0x11,0x11,0x01,0x80,0xbb,0xbb,0xbb,0xbb,0xbb,0xbb,0xbb,
 0xbb,0xbb,0xbb,0xbb,0xbb,0xbb,0x3b,0x00,0x44,0x55,0x55,0x55,0x55,0x55,0x55,
 0x55,0x55,0x55,0x55,0x55,0x55,0x55,0x55,0x00,0x80,0xae,0xae,0xae,0xae,0xae,
 0xae,0xae,0xae,0xae,0xae,0xae,0xae,0xae,0x2e,0x00,0x11,0x55,0x55,0x55,0x55,
 0x55,0x55,0x55,0x55,0x55,0x55,0x55,0x55,0x55,0x15,0x01,0x80,0x03,0x00,0x00,
 0x00,0x00,0x00,0x00,0x00,0x00,0x00,0x00,0x00,0x00,0x38,0x00,0x44,0x05,0x00,
 0x00,0x00,0x00,0x00,0x00,0x00,0x00,0x00,0x00,0x00,0x00,0x50,0x00,0x80,0x06,
 0x00,0x00,0x00,0x00,0x00,0x00,0x00,0x00,0x00,0x00,0x00,0x00,0x28,0x00,0x11,
 0x05,0x00,0x00,0x00,0x00,0x00,0x00,0x00,0x00,0x00,0x00,0x00,0x00,0x10,0x01,
 0x80,0x83,0xbb,0xbb,0xbb,0x01,0x00,0x00,0x00,0x00,0x00,0x00,0x00,0x80,0x3b,
 0x00,0x44,0x05,0x55,0x55,0x55,0x01,0x00,0x00,0x00,0x00,0x00,0x00,0x00,0x00,
 0x55,0x00,0x80,0x86,0xae,0xae,0xae,0x00,0x00,0x00,0x00,0x00,0x00,0x00,0x00,
 0x80,0x2e,0x00,0x11,0x05,0x55,0x55,0x15,0x04,0x05,0x05,0x41,0x41,0x41,0x51,
 0x50,0x50,0x15,0x01,0x80,0x83,0xbb,0xbb,0x1b,0x0a,0x8b,0x83,0x83,0x83,0xa1,
 0xb1,0xb0,0xb8,0x3b,0x00,0x44,0x05,0x55,0x55,0x15,0x04,0x05,0x05,0x41,0x41,
 0x41,0x51,0x50,0x50,0x55,0x00,0x80,0x82,0xee,0xea,0x0e,0x0a,0x8e,0x82,0xc2,
 0xc2,0xe0,0xe0,0xe0,0xe8,0x2e,0x00,0x11,0x05,0x55,0x55,0x41,0x51,0x50,0x50,
 0x14,0x14,0x14,0x04,0x05,0x05,0x15,0x01,0x80,0x83,0xbb,0xbb,0xa1,0xb1,0x30,
 0x38,0x38,0x38,0x1a,0x0a,0x0b,0x83,0x3b,0x00,0x44,0x05,0x55,0x55,0x41,0x51,
 0x50,0x50,0x14,0x14,0x14,0x04,0x05,0x05,0x55,0x00,0x80,0x86,0xae,0xae,0xa0,
 0xa0,0x20,0x28,0x2c,0x2c,0x0e,0x0e,0x0e,0x86,0x2e,0x00,0x11,0x05,0x55,0x55,
 0x15,0x04,0x05,0x05,0x41,0x41,0x41,0x51,0x50,0x50,0x15,0x01,0x80,0x83,0xbb,
 0xbb,0x1b,0x0a,0x8b,0x83,0x83,0x83,0xa1,0xb1,0xb0,0xb8,0x3b,0x00,0x44,0x05,
 0x55,0x55,0x15,0x04,0x05,0x05,0x41,0x41,0x41,0x51,0x50,0x50,0x55,0x00,0x80,
 0x86,0xea,0xee,0x0a,0x0e,0x8a,0x86,0xc2,0xc2,0xe0,0xe0,0xe0,0xe8,0x2a,0x00,
 0x11,0x05,0x55,0x55,0x55,0x51,0x50,0x50,0x14,0x14,0x14,0x00,0x00,0x00,0x15,
 0x01,0x80,0x83,0xbb,0xbb,0xbb,0xb1,0x30,0x38,0x38,0x38,0x1a,0x00,0x00,0x80,
 0x3b,0x00,0x44,0x05,0x55,0x55,0x55,0x51,0x50,0x50,0x14,0x14,0x14,0x00,0x00,
 0x00,0x55,0x00,0x80,0x86,0x2e,0xac,0xae,0x0e,0x8e,0x86,0x82,0x82,0x00,0x00,
 0x00,0x80,0x2e,0x00,0x11,0x05,0x15,0x54,0x55,0x05,0x05,0x05,0x41,0x41,0x01,
 0x00,0x00,0x00,0x15,0x01,0x80,0x83,0x3b,0xb8,0xbb,0x0b,0x8b,0x83,0x83,0x83,
 0x01,0x00,0x00,0x80,0x3b,0x00,0x44,0x05,0x15,0x54,0x55,0x05,0x05,0x05,0x41,
 0x41,0x01,0x00,0x00,0x00,0x55,0x00,0x80,0x82,0xc2,0xe2,0xee,0xea,0x60,0x00,
 0x00,0x00,0x00,0x0a,0x0e,0x82,0x2e,0x00,0x11,0x05,0x41,0x41,0x55,0x55,0x50,
 0x00,0x00,0x00,0x00,0x04,0x05,0x05,0x15,0x01,0x80,0x83,0x83,0xa3,0xbb,0xbb,
 0x30,0x00,0x00,0x00,0x00,0x0a,0x0b,0x83,0x3b,0x00,0x44,0x05,0x41,0x41,0x55,
 0x55,0x50,0x00,0x00,0x00,0x00,0x04,0x05,0x05,0x55,0x00,0x80,0x06,0x2c,0x0c,
 0xae,0xae,0x0e,0x00,0x00,0x00,0xa0,0xa0,0xa0,0xa8,0x2e,0x00,0x11,0x05,0x14,
 0x14,0x54,0x55,0x05,0x00,0x00,0x00,0x40,0x51,0x50,0x50,0x15,0x01,0x80,0x03,
 0x38,0x18,0xba,0xbb,0x0b,0x00,0x00,0x00,0xa0,0xb1,0xb0,0xb8,0x3b,0x00,0x44,
 0x05,0x40,0x41,0x41,0x55,0x55,0x50,0x14,0x14,0x14,0x04,0x05,0x05,0x55,0x00,
 0x80,0x06,0xc0,0xe2,0xe0,0xee,0x6a,0x68,0x28,0x2c,0x0a,0x0e,0x0a,0x86,0x2a,
 0x00,0x11,0x05,0x40,0x41,0x41,0x55,0x55,0x50,0x14,0x14,0x14,0x04,0x05,0x05,
 0x15,0x01,0x80,0x03,0x80,0xa3,0xa1,0xbb,0x3b,0x38,0x38,0x38,0x1a,0x0a,0x0b,
 0x83,0x3b,0x00,0x44,0x05,0x14,0x14,0x14,0x54,0x55,0x05,0x41,0x41,0x41,0x51,
 0x50,0x50,0x55,0x00,0x80,0x06,0x2c,0x0c,0x0e,0xae,0xae,0x86,0x82,0x82,0xa0,
 0xa0,0xa0,0xa8,0x2e,0x00,0x11,0x05,0x14,0x14,0x14,0x54,0x55,0x05,0x41,0x41,
 0x41,0x51,0x50,0x50,0x15,0x01,0x80,0x03,0x38,0x18,0x1a,0xba,0xbb,0x83,0x83,
 0x83,0xa1,0xb1,0xb0,0xb8,0x3b,0x00,0x44,0x05,0x40,0x41,0x41,0x51,0x55,0x50,
 0x14,0x14,0x14,0x04,0x05,0x05,0x55,0x00,0x80,0x02,0xc0,0xe2,0xe0,0xe0,0x6e,
 0x68,0x2c,0x28,0x0e,0x0a,0x0e,0x82,0x2e,0x00,0x11,0x05,0x40,0x41,0x41,0x51,
 0x55,0x50,0x14,0x14,0x14,0x04,0x05,0x05,0x15,0x01,0x80,0x03,0x38,0x18,0x1a,
 0x0a,0x8b,0x83,0x83,0x83,0xa1,0xb1,0xb0,0xb8,0x3b,0x00,0x44,0x05,0x14,0x14,
 0x14,0x04,0x05,0x05,0x41,0x41,0x41,0x51,0x50,0x50,0x55,0x00,0x80,0x06,0x2c,
 0x0c,0x0e,0x0e,0x8e,0x86,0x82,0x82,0xa0,0xa0,0xa0,0xa8,0x2e,0x00,0x11,0x05,
 0x14,0x14,0x14,0x04,0x05,0x05,0x41,0x41,0x41,0x51,0x50,0x50,0x15,0x01,0x80,
 0x03,0x80,0xa3,0xa1,0xb1,0x30,0x38,0x38,0x38,0x1a,0x0a,0x0b,0x83,0x3b,0x00,
 0x44,0x05,0x40,0x41,0x41,0x51,0x50,0x50,0x14,0x14,0x14,0x04,0x05,0x05,0x55,
 0x00,0x80,0x06,0xc0,0xe2,0xe0,0xe0,0x60,0x68,0x28,0x2c,0x0a,0x0e,0x0a,0x86,
 0x2a,0x00,0x11,0x05,0x40,0x41,0x41,0x51,0x50,0x50,0x14,0x14,0x14,0x04,0x05,
 0x05,0x15,0x01,0x80,0x03,0x38,0x18,0x1a,0x0a,0x8b,0x83,0x83,0x83,0xa1,0xb1,
 0xb0,0xb8,0x3b,0x00,0x44,0x05,0x14,0x14,0x14,0x04,0x05,0x05,0x41,0x41,0x41,
 0x51,0x50,0x50,0x55,0x00,0x80,0x06,0x2c,0x0c,0x0e,0x0e,0x8e,0x86,0x82,0x82,
 0xa0,0xa0,0xa0,0xa8,0x2e,0x00,0x11,0x05,0x14,0x14,0x14,0x04,0x05,0x05,0x41,
 0x41,0x41,0x51,0x50,0x50,0x15,0x01,0x80,0x03,0x80,0xa3,0xa1,0xbb,0x3b,0x38,
 0xb8,0xbb,0x1b,0x0a,0x0b,0x83,0x3b,0x00,0x44,0x05,0x40,0x41,0x41,0x55,0x55,
 0x50,0x54,0x55,0x15,0x04,0x05,0x05,0x55,0x00,0x80,0x02,0xc0,0xe2,0xe0,0xea,
 0x6e,0x68,0xec,0xea,0x0e,0x0a,0x0e,0x82,0x2e,0x00,0x11,0x05,0x14,0x14,0x14,
 0x54,0x05,0x05,0x41,0x55,0x41,0x51,0x50,0x50,0x15,0x01,0x80,0x03,0x38,0x18,
 0x1a,0xba,0x8b,0x83,0x83,0xbb,0xa1,0xb1,0xb0,0xb8,0x3b,0x00,0x44,0x05,0x14,
 0x14,0x14,0x54,0x05,0x05,0x41,0x55,0x41,0x51,0x50,0x50,0x55,0x00,0x80,0x06,
 0x2c,0x0c,0x0e,0xae,0x8e,0x86,0x82,0xae,0xa0,0xa0,0xa0,0xa8,0x2e,0x00,0x11,
 0x05,0x40,0x41,0x41,0x55,0x55,0x50,0x54,0x55,0x15,0x04,0x05,0x05,0x15,0x01,
 0x80,0x03,0x80,0xa3,0xa1,0xbb,0x3b,0x38,0xb8,0xbb,0x1b,0x0a,0x0b,0x83,0x3b,
 0x00,0x44,0x05,0x40,0x41,0x41,0x55,0x55,0x50,0x54,0x55,0x15,0x04,0x05,0x05,
 0x55,0x00,0x80,0x06,0xc0,0xe2,0xe0,0xee,0x6a,0x68,0xe8,0xee,0x0a,0x0e,0x0a,
 0x86,0x2a,0x00,0x11,0x05,0x14,0x14,0x14,0x04,0x05,0x05,0x41,0x41,0x41,0x51,
 0x50,0x50,0x15,0x01,0x80,0x03,0x38,0x18,0x1a,0x0a,0x8b,0x83,0x83,0x83,0xa1,
 0xb1,0xb0,0xb8,0x3b,0x00,0x44,0x05,0x14,0x14,0x14,0x04,0x05,0x05,0x41,0x41,
 0x41,0x51,0x50,0x50,0x55,0x00,0x80,0x06,0x80,0xa2,0xa0,0xa0,0x20,0x28,0x2c,
 0x2c,0x0e,0x0e,0x0e,0x86,0x2e,0x00,0x11,0x05,0x40,0x41,0x41,0x51,0x50,0x50,
 0x14,0x14,0x14,0x04,0x05,0x05,0x15,0x01,0x80,0x03,0x80,0xa3,0xa1,0xb1,0x30,
 0x38,0x38,0x38,0x1a,0x0a,0x0b,0x83,0x3b,0x00,0x44,0x05,0x40,0x41,0x41,0x51,
 0x50,0x50,0x14,0x14,0x14,0x04,0x05,0x05,0x55,0x00,0x80,0x82,0xee,0xea,0xee,
 0xea,0xee,0xea,0xee,0xea,0xee,0xea,0xee,0xea,0x2e,0x00,0x11,0x05,0x55,0x55,
 0x55,0x55,0x55,0x55,0x55,0x55,0x55,0x55,0x55,0x55,0x15,0x01,0x80,0x83,0xbb,
 0xbb,0xbb,0xbb,0xbb,0xbb,0xbb,0xbb,0xbb,0xbb,0xbb,0xbb,0x3b,0x00,0x44,0x05,
 0x55,0x55,0x55,0x55,0x55,0x55,0x55,0x55,0x55,0x55,0x55,0x55,0x55,0x00,0x80,
 0xae,0xae,0xae,0xae,0xae,0xae,0xae,0xae,0xae,0xae,0xae,0xae,0xae,0x2e,0x00,
 0x11,0x55,0x55,0x55,0x55,0x55,0x55,0x55,0x55,0x55,0x55,0x55,0x55,0x55,0x15,
 0x01,0x80,0xbb,0xbb,0xbb,0xbb,0xbb,0xbb,0xbb,0xbb,0xbb,0xbb,0xbb,0xbb,0xbb,
 0x3b,0x00,0x44,0x44,0x44,0x44,0x44,0x44,0x44,0x44,0x44,0x44,0x44,0x44,0x44,
 0x44,0x44,0x00,0x00,0x00,0x00,0x00,0x00,0x00,0x00,0x00,0x00,0x00,0x00,0x00,
 0x00,0x00,0x00,0x00,0x11,0x11,0x11,0x11,0x11,0x11,0x11,0x11,0x11,0x11,0x11,
 0x11,0x11,0x11,0x11,0x01,0x00,0x00,0x00,0x00,0x00,0x00,0x00,0x00,0x00,0x00,
 0x00,0x00,0x00,0x00,0x00,0x00,0x44,0x44,0x44,0x44,0x44,0x44,0x44,0x44,0x44,
 0x44,0x44,0x44,0x44,0x44,0x44,0x00,0x00,0x00,0x00,0x00,0x00,0x00,0x00,0x00,
 0x00,0x00,0x00,0x00,0x00,0x00,0x00,0x00,0x11,0x11,0x11,0x11,0x11,0x11,0x11,
 0x11,0x11,0x11,0x11,0x11,0x11,0x11,0x11,0x01};
