#define noname_width 99
#define noname_height 74
static char noname_bits[] = {
 0xff,0xff,0xff,0xff,0xff,0xff,0xff,0xff,0xff,0xff,0xff,0xff,0x07,0x01,0x00,
 0x00,0x00,0x00,0x00,0x00,0x00,0x00,0x00,0x00,0x00,0x04,0x01,0x00,0x00,0x00,
 0x00,0x00,0x00,0x00,0x00,0x00,0x00,0x00,0x04,0x01,0x00,0x00,0x00,0x00,0x00,
 0x00,0x00,0x00,0x00,0x00,0x00,0x04,0x01,0x00,0x00,0x00,0x00,0x00,0x00,0x00,
 0x00,0x00,0x00,0x00,0x04,0x01,0x00,0x00,0x00,0x00,0x00,0x00,0x00,0x00,0x00,
 0x00,0x00,0x04,0x01,0x00,0x00,0x00,0x00,0x00,0x00,0x00,0x00,0x00,0x00,0x00,
 0x04,0x01,0x00,0x00,0x00,0x00,0x00,0x00,0x00,0x00,0x00,0x00,0x00,0x04,0x01,
 0x00,0x00,0x00,0x00,0x00,0x00,0x00,0x00,0x00,0x00,0x00,0x04,0x01,0x00,0x00,
 0x00,0x00,0x00,0x00,0x00,0x00,0x00,0x00,0x00,0x04,0x01,0x00,0x00,0x00,0x00,
 0x00,0x00,0x00,0x00,0x00,0x00,0x00,0x04,0x01,0x00,0x00,0x00,0xc0,0xff,0xff,
 0xff,0xff,0xff,0xff,0xff,0x07,0x01,0x00,0x00,0x00,0xfe,0xff,0xff,0xff,0xff,
 0xff,0xff,0xff,0x07,0x01,0x00,0x00,0xe0,0xff,0xff,0xff,0xff,0xff,0xff,0xff,
 0xff,0x07,0x01,0x00,0x00,0xf0,0x3f,0xe0,0x7f,0x00,0x00,0x00,0x00,0x00,0x04,
 0x01,0x00,0x00,0xfc,0x01,0x00,0xfc,0x01,0x00,0x00,0x00,0x00,0x04,0x01,0x00,
 0x00,0x1e,0x00,0x00,0xc0,0x03,0x00,0x00,0x00,0x00,0x04,0x01,0x00,0x80,0x0f,
 0x00,0x00,0xf0,0x0f,0x00,0x00,0x00,0x0c,0x04,0x01,0x00,0xc0,0x03,0x00,0x80,
 0xff,0x3f,0x00,0x00,0x00,0x06,0x04,0x01,0x00,0xf0,0x01,0x00,0xfc,0x0f,0xfe,
 0x07,0x00,0x00,0x06,0x04,0x01,0x00,0x78,0x00,0x00,0x7f,0x00,0xf0,0x0f,0x00,
 0x00,0x06,0x04,0x01,0x00,0x3c,0x00,0x80,0x03,0x00,0xe0,0x39,0x00,0x00,0x06,
 0x04,0x01,0x00,0x1c,0x00,0xe0,0x00,0x00,0xc0,0x63,0x00,0x00,0x06,0x04,0x01,
 0x00,0x0e,0x00,0x30,0x00,0x00,0x80,0xc3,0x01,0x00,0x06,0x04,0x01,0x00,0x07,
 0x00,0x1c,0x00,0x00,0x00,0x07,0x03,0x00,0x06,0x04,0x01,0x00,0x07,0x00,0x06,
 0x00,0x00,0x00,0x0f,0x0e,0x00,0x06,0x04,0x01,0x80,0x03,0x80,0x03,0x00,0x00,
 0x00,0x0e,0x18,0x00,0x06,0x04,0x01,0xc0,0x01,0xc0,0x00,0x00,0x00,0x00,0x1c,
 0x70,0x00,0x06,0x04,0x01,0xe0,0x01,0x60,0x00,0x00,0x00,0x00,0x38,0x40,0x00,
 0x06,0x04,0x01,0xe0,0x00,0x20,0x00,0x00,0x00,0x00,0x38,0xc0,0x00,0x06,0x04,
 0x01,0x70,0x00,0x10,0x00,0x00,0x00,0x00,0x70,0x80,0x01,0x06,0x04,0x01,0x70,
 0x00,0x18,0x00,0x00,0x00,0x00,0x70,0x00,0x01,0x06,0x04,0x01,0x70,0x00,0x0c,
 0x00,0x00,0x00,0x00,0xf0,0x00,0x03,0x03,0x04,0x01,0x38,0x00,0x00,0x00,0x00,
 0x00,0x00,0xe0,0x00,0x06,0x03,0x04,0x01,0x38,0x00,0x00,0x00,0x00,0x00,0x00,
 0xe0,0x01,0x04,0x03,0x04,0x01,0x38,0xe0,0x03,0x00,0x00,0x00,0x00,0xe0,0x01,
 0x0c,0x03,0x04,0x01,0x38,0xf0,0x8f,0xff,0xfc,0x83,0x03,0xe3,0x01,0x18,0x03,
 0x04,0x01,0x38,0x38,0x98,0x03,0x1c,0x8f,0x07,0xe3,0x01,0x10,0x03,0x04,0x01,
 0x1c,0x1e,0x90,0x03,0x1c,0x8e,0x0f,0xc3,0x03,0x30,0x03,0x04,0x01,0x1c,0x0e,
 0x80,0x03,0x1c,0x8c,0x0e,0xc3,0x03,0x70,0x03,0x04,0x01,0x1c,0x0e,0x80,0x03,
 0x1c,0x9e,0x1e,0xc3,0x03,0x60,0x03,0x04,0x01,0x1c,0x0e,0x80,0x03,0x1c,0x8e,
 0x3c,0xc3,0x07,0x60,0x03,0x04,0x01,0x1e,0x0f,0x80,0x3f,0x1c,0x8f,0x3c,0xc3,
 0x07,0x60,0x03,0x04,0x01,0x1c,0x0f,0x80,0x3f,0xfc,0x83,0x78,0xc3,0x07,0x60,
 0x03,0x04,0x01,0x1c,0x0e,0x80,0x03,0xdc,0x81,0x70,0xc3,0x0f,0xc0,0x03,0x04,
 0x01,0x1c,0x0e,0x80,0x03,0x9c,0x83,0xf0,0xc3,0x0f,0xc0,0x03,0x04,0x01,0x1c,
 0x0e,0x80,0x03,0x9c,0x87,0xe0,0xc3,0x0f,0xc0,0x01,0x04,0x01,0x1c,0x1e,0xb0,
 0x03,0x1c,0x87,0xc0,0xc3,0x0f,0xc0,0x01,0x04,0x01,0x38,0x38,0x98,0x03,0x1c,
 0x8e,0xc0,0xe3,0x1e,0xc0,0x01,0x04,0x01,0x3c,0xf0,0x8f,0xff,0x1c,0x9e,0x80,
 0xe3,0x1c,0x80,0x01,0x04,0x01,0x3c,0x00,0x03,0x00,0x00,0x00,0x00,0xe0,0x1c,
 0x80,0x01,0x04,0x01,0x38,0x00,0x00,0x00,0x00,0x00,0x00,0xe0,0x3c,0x80,0x01,
 0x04,0x01,0x78,0x30,0x00,0x00,0x00,0x00,0x00,0xe0,0x38,0x80,0x01,0x04,0x01,
 0x78,0x30,0x00,0x00,0x00,0x00,0x00,0x70,0x38,0x80,0x01,0x04,0x01,0x78,0x30,
 0x00,0x00,0x00,0x00,0x00,0x70,0x38,0xc0,0x00,0x04,0x01,0x78,0x30,0x00,0x00,
 0x00,0x00,0x00,0x70,0x70,0xc0,0x00,0x04,0x01,0xf0,0x70,0x00,0x00,0x00,0x00,
 0x00,0x38,0x70,0xc0,0x00,0x04,0x01,0xf0,0x61,0x00,0x00,0x00,0x00,0x00,0x1c,
 0x70,0xc0,0x00,0x04,0x01,0xf0,0x63,0x00,0x00,0x00,0x00,0x00,0x1c,0xf0,0xc0,
 0x00,0x04,0x01,0xf0,0x63,0x00,0x00,0x00,0x00,0x00,0x0e,0xe0,0x60,0x00,0x04,
 0x01,0x70,0x67,0x00,0x00,0x00,0x00,0x00,0x07,0xe0,0x60,0x00,0x04,0x01,0xf0,
 0xef,0x00,0x00,0x00,0x00,0x00,0x07,0xe0,0x61,0x00,0x04,0x01,0xe0,0xce,0x00,
 0x00,0x00,0x00,0x80,0x03,0xc0,0x61,0x00,0x04,0x01,0xe0,0xdc,0x00,0x00,0x00,
 0x00,0xc0,0x01,0xc0,0x61,0x00,0x04,0x01,0xe0,0xfc,0x00,0x00,0x00,0x00,0xe0,
 0x01,0xc0,0x31,0x00,0x04,0x01,0xe0,0xf8,0x00,0x00,0x00,0x00,0xf8,0x00,0xc0,
 0x33,0x00,0x04,0x01,0xe0,0xe1,0x01,0x00,0x00,0x00,0x7c,0x00,0x80,0x1b,0x00,
 0x04,0x01,0xc0,0xc1,0x07,0x00,0x00,0x00,0x3f,0x00,0x80,0x0b,0x00,0x04,0x01,
 0xc0,0x01,0x0f,0x00,0x00,0x80,0x1f,0x00,0x80,0x0f,0x00,0x04,0x01,0xc0,0x01,
 0x3e,0x00,0x00,0xe0,0x0f,0x00,0x00,0x07,0x00,0x04,0x01,0xc0,0x01,0xfc,0x07,
 0x00,0xff,0x07,0x00,0x00,0x07,0x00,0x04,0x01,0xc0,0x01,0xf8,0xff,0xf8,0xff,
 0x07,0x00,0x00,0x0f,0x00,0x04,0x01,0x80,0x03,0xd0,0xff,0xff,0xdf,0x03,0x00,
 0x80,0x0f,0x00,0x04,0x01,0x80,0x03,0x30,0xf8,0xff,0xe1,0x01,0x00,0x80,0x0e,
 0x00,0x04};
