#define noname_width 73
#define noname_height 99
static char noname_bits[] = {
 0x44,0x44,0x44,0x44,0x44,0x44,0x44,0x44,0x44,0x00,0x00,0x00,0x00,0x00,0x00,
 0x00,0x00,0x00,0x00,0x00,0x11,0x11,0x11,0x11,0x11,0x11,0x11,0x11,0x11,0x01,
 0x00,0x00,0x00,0x00,0x00,0x00,0x00,0x00,0x00,0x00,0x44,0x44,0x44,0x44,0x44,
 0x44,0x44,0x44,0x44,0x00,0xa0,0xae,0xae,0xae,0xae,0xae,0xae,0xae,0x2e,0x00,
 0x51,0x55,0x55,0x55,0x55,0x55,0x55,0x55,0x55,0x01,0x20,0x00,0x00,0x00,0x00,
 0x00,0x00,0x00,0x20,0x00,0x44,0x00,0x00,0x00,0x00,0x00,0x00,0x00,0x40,0x00,
 0x60,0x00,0x00,0x00,0x00,0x00,0x00,0x00,0x60,0x00,0x51,0x00,0x00,0x00,0x00,
 0x00,0x00,0x00,0x40,0x01,0x20,0x00,0x00,0x00,0x00,0x00,0x00,0x00,0x20,0x00,
 0x44,0x00,0x00,0x00,0x00,0x00,0x00,0x00,0x40,0x00,0x20,0x00,0x00,0x00,0x00,
 0x00,0x00,0x00,0x20,0x00,0x51,0x00,0x00,0x00,0x00,0x00,0x00,0x00,0x40,0x01,
 0x20,0x00,0x00,0x00,0x00,0x00,0x00,0x00,0x20,0x00,0x44,0x00,0x00,0x00,0x00,
 0x00,0x00,0x00,0x40,0x00,0x60,0x00,0x00,0x00,0x00,0x00,0x00,0x00,0x60,0x00,
 0x51,0x00,0x00,0x00,0x00,0x00,0x00,0x00,0x40,0x01,0x20,0x00,0x00,0x00,0x00,
 0x00,0x00,0x00,0x20,0x00,0x44,0x00,0x00,0x00,0x00,0x00,0x00,0x00,0x40,0x00,
 0x20,0x00,0x00,0x00,0x00,0x00,0x00,0x00,0x20,0x00,0x51,0x00,0x00,0x00,0x00,
 0x00,0x00,0x00,0x40,0x01,0x20,0x00,0x00,0x00,0x00,0x00,0x00,0x00,0x20,0x00,
 0x44,0x40,0x55,0x05,0x00,0x40,0x55,0x05,0x40,0x00,0x60,0xc0,0xea,0x0e,0x00,
 0xe0,0xea,0x06,0x60,0x00,0x51,0x40,0x55,0x55,0x00,0x50,0x55,0x05,0x40,0x01,
 0x20,0x80,0xaa,0x2a,0x00,0xa8,0xaa,0x02,0x20,0x00,0x44,0x40,0x55,0x55,0x00,
 0x50,0x55,0x05,0x40,0x00,0x20,0x80,0xae,0xae,0x00,0xae,0xae,0x06,0x20,0x00,
 0x51,0x40,0x55,0x55,0x01,0x55,0x55,0x05,0x40,0x01,0x20,0x80,0xaa,0xaa,0x8a,
 0xaa,0xaa,0x02,0x20,0x00,0x44,0x40,0x55,0x55,0x45,0x55,0x55,0x05,0x40,0x00,
 0x60,0xc0,0xee,0xea,0xee,0xea,0xee,0x02,0x60,0x00,0x51,0x40,0x55,0x55,0x55,
 0x55,0x55,0x05,0x40,0x01,0x20,0x80,0xaa,0xaa,0xaa,0xaa,0xaa,0x02,0x20,0x00,
 0x44,0x40,0x55,0x05,0x55,0x45,0x55,0x05,0x40,0x00,0x20,0x80,0xae,0x8e,0xae,
 0xa6,0xae,0x06,0x20,0x00,0x51,0x40,0x55,0x05,0x54,0x40,0x55,0x05,0x40,0x01,
 0x20,0x80,0xaa,0x0a,0xaa,0xa0,0xaa,0x02,0x20,0x00,0x44,0x40,0x55,0x05,0x10,
 0x40,0x55,0x05,0x40,0x00,0x60,0xc0,0xea,0x0e,0x20,0xe0,0xea,0x06,0x60,0x00,
 0x51,0x40,0x55,0x05,0x10,0x40,0x55,0x05,0x40,0x01,0x20,0x80,0xaa,0x0a,0x00,
 0xa0,0xaa,0x02,0x20,0x00,0x44,0x40,0x55,0x05,0x00,0x40,0x55,0x05,0x40,0x00,
 0x20,0x80,0xae,0x0e,0x00,0xa0,0xae,0x06,0x20,0x00,0x51,0x40,0x55,0x05,0x00,
 0x40,0x55,0x05,0x40,0x01,0x20,0x80,0xaa,0x0a,0x00,0xa0,0xaa,0x02,0x20,0x00,
 0x44,0x40,0x55,0x05,0x00,0x40,0x55,0x05,0x40,0x00,0x60,0xc0,0xee,0x0a,0x00,
 0xe0,0xee,0x02,0x60,0x00,0x51,0x40,0x55,0x05,0x00,0x40,0x55,0x05,0x40,0x01,
 0x20,0x80,0xaa,0x0a,0x00,0xa0,0xaa,0x02,0x20,0x00,0x44,0x40,0x55,0x05,0x00,
 0x40,0x55,0x05,0x40,0x00,0x20,0x80,0xae,0x0e,0x00,0xa0,0xae,0x06,0x20,0x00,
 0x51,0x40,0x55,0x05,0x00,0x40,0x55,0x05,0x40,0x01,0x20,0x80,0xaa,0x0a,0x00,
 0xa0,0xaa,0x02,0x20,0x00,0x44,0x40,0x55,0x05,0x00,0x40,0x55,0x05,0x40,0x00,
 0x60,0xc0,0xea,0x0e,0x00,0xe0,0xea,0x06,0x60,0x00,0x51,0x40,0x55,0x05,0x00,
 0x40,0x55,0x05,0x40,0x01,0x20,0x80,0xaa,0x0a,0x00,0xa0,0xaa,0x02,0x20,0x00,
 0x44,0x40,0x55,0x05,0x00,0x40,0x55,0x05,0x40,0x00,0x20,0x80,0xae,0x0e,0x00,
 0xa0,0xae,0x06,0x20,0x00,0x51,0x40,0x55,0x05,0x00,0x40,0x55,0x05,0x40,0x01,
 0x20,0x80,0xaa,0x0a,0x00,0xa0,0xaa,0x02,0x20,0x00,0x44,0x40,0x55,0x05,0x00,
 0x40,0x55,0x05,0x40,0x00,0x60,0xc0,0xee,0x0a,0x00,0xe0,0xee,0x02,0x60,0x00,
 0x51,0x40,0x55,0x05,0x00,0x40,0x55,0x05,0x40,0x01,0x20,0x80,0xaa,0x0a,0x00,
 0xa0,0xaa,0x02,0x20,0x00,0x44,0x40,0x55,0x05,0x00,0x40,0x55,0x05,0x40,0x00,
 0x20,0x80,0xae,0x0e,0x00,0xa0,0xae,0x06,0x20,0x00,0x51,0x40,0x55,0x05,0x00,
 0x40,0x55,0x05,0x40,0x01,0x20,0x80,0xaa,0x0a,0x00,0xa0,0xaa,0x02,0x20,0x00,
 0x44,0x40,0x55,0x05,0x00,0x40,0x55,0x05,0x40,0x00,0x60,0xc0,0xea,0x0e,0x00,
 0xe0,0xea,0x06,0x60,0x00,0x51,0x40,0x55,0x05,0x00,0x40,0x55,0x05,0x40,0x01,
 0x20,0x80,0xaa,0x0a,0x00,0xa0,0xaa,0x02,0x20,0x00,0x44,0x40,0x55,0x05,0x00,
 0x40,0x55,0x05,0x40,0x00,0x20,0x80,0xae,0x0e,0x00,0xa0,0xae,0x06,0x20,0x00,
 0x51,0x40,0x55,0x05,0x00,0x40,0x55,0x05,0x40,0x01,0x20,0x00,0x00,0x00,0x00,
 0x00,0x00,0x00,0x20,0x00,0x44,0x00,0x00,0x00,0x00,0x00,0x00,0x00,0x40,0x00,
 0x60,0x00,0x00,0x00,0x00,0x00,0x00,0x00,0x60,0x00,0x51,0x00,0x00,0x00,0x00,
 0x00,0x00,0x00,0x40,0x01,0x20,0x00,0x00,0x00,0x00,0x00,0x00,0x00,0x20,0x00,
 0x44,0x00,0x00,0x00,0x00,0x00,0x00,0x00,0x40,0x00,0x20,0x00,0x00,0x00,0x00,
 0x00,0x00,0x00,0x20,0x00,0x51,0x00,0x00,0x00,0x00,0x00,0x00,0x00,0x40,0x01,
 0x20,0x00,0x00,0x00,0x00,0x00,0x00,0x00,0x20,0x00,0x44,0x00,0x00,0x00,0x00,
 0x00,0x00,0x00,0x40,0x00,0x60,0x00,0x00,0x00,0x00,0x00,0x00,0x00,0x60,0x00,
 0x51,0x00,0x00,0x00,0x00,0x00,0x00,0x00,0x40,0x01,0x20,0x00,0x00,0x00,0x00,
 0x00,0x00,0x00,0x20,0x00,0x44,0x00,0x00,0x00,0x00,0x00,0x00,0x00,0x40,0x00,
 0xa0,0xae,0xae,0xae,0xae,0xae,0xae,0xae,0x2e,0x00,0x51,0x55,0x55,0x55,0x55,
 0x55,0x55,0x55,0x55,0x01,0x00,0x00,0x00,0x00,0x00,0x00,0x00,0x00,0x00,0x00,
 0x44,0x44,0x44,0x44,0x44,0x44,0x44,0x44,0x44,0x00,0x00,0x00,0x00,0x00,0x00,
 0x00,0x00,0x00,0x00,0x00,0x11,0x11,0x11,0x11,0x11,0x11,0x11,0x11,0x11,0x01};
