#define noname_width 99
#define noname_height 99
static char noname_bits[] = {
 0x44,0x44,0x44,0x44,0x44,0x44,0x44,0x44,0x44,0x44,0x44,0x44,0x04,0x00,0x00,
 0x00,0x00,0x00,0x00,0x00,0x00,0x00,0x00,0x00,0x00,0x00,0x11,0x11,0x11,0x11,
 0x11,0x11,0x11,0x11,0x11,0x11,0x11,0x11,0x01,0x00,0x00,0x00,0x00,0x00,0x00,
 0x00,0x00,0x00,0x00,0x00,0x00,0x00,0x44,0x44,0x44,0x44,0x44,0x44,0x44,0x44,
 0x44,0x44,0x44,0x44,0x04,0x00,0x00,0x00,0x00,0x00,0x00,0x00,0x00,0x00,0x00,
 0x00,0x00,0x00,0x51,0x55,0x55,0x55,0x55,0x55,0x55,0x55,0x55,0x55,0x55,0x15,
 0x01,0xa0,0xab,0xab,0xab,0xab,0xab,0xab,0xab,0xab,0xab,0xab,0x2b,0x00,0x44,
 0x55,0x55,0x55,0x55,0x55,0x55,0x55,0x55,0x55,0x55,0x55,0x04,0xe0,0x00,0x00,
 0x00,0x00,0x00,0x00,0x00,0x00,0x00,0x00,0x28,0x00,0x51,0x00,0x00,0x00,0x00,
 0x00,0x00,0x00,0x00,0x00,0x00,0x10,0x01,0xa0,0x00,0x00,0x00,0x00,0x00,0x00,
 0x00,0x00,0x00,0x00,0x3a,0x00,0x44,0x00,0x00,0x00,0x00,0x00,0x00,0x00,0x00,
 0x00,0x00,0x55,0x04,0xe0,0x00,0x00,0x00,0x00,0x00,0x00,0x00,0x00,0x00,0x00,
 0x2e,0x00,0x51,0x40,0x51,0x14,0x45,0x51,0x14,0x41,0x10,0x04,0x41,0x15,0x01,
 0xa0,0x80,0x21,0x08,0x83,0x21,0x88,0xa3,0x28,0x8a,0xa3,0x2b,0x00,0x44,0x40,
 0x51,0x14,0x45,0x51,0x14,0x41,0x10,0x04,0x41,0x55,0x04,0xe0,0x00,0x8e,0xe2,
 0x28,0x8e,0x62,0x0c,0xc6,0x60,0xec,0x2e,0x00,0x51,0x00,0x04,0x41,0x10,0x04,
 0x41,0x14,0x45,0x51,0x54,0x15,0x01,0xa0,0x00,0x8a,0xa3,0x38,0x8a,0x22,0x18,
 0x82,0x31,0xb8,0x3b,0x00,0x44,0x40,0x51,0x14,0x45,0x51,0x14,0x41,0x10,0x04,
 0x41,0x55,0x04,0xe0,0xc0,0x60,0x0c,0xc6,0x60,0x8c,0xe2,0x28,0x8e,0xe2,0x2e,
 0x00,0x51,0x40,0x51,0x14,0x45,0x51,0x14,0x41,0x10,0x04,0x41,0x15,0x01,0xa0,
 0x00,0x8a,0xa3,0x28,0x8a,0x83,0x0b,0x83,0x21,0x00,0x2b,0x00,0x44,0x00,0x04,
 0x41,0x10,0x04,0x01,0x15,0x45,0x51,0x00,0x55,0x04,0xe0,0x00,0x8e,0xe2,0x28,
 0x8e,0x82,0x0e,0xc6,0x60,0x00,0x2e,0x00,0x51,0x40,0x51,0x14,0x45,0x51,0x00,
 0x41,0x10,0x04,0x40,0x15,0x01,0xa0,0x80,0x31,0x18,0x83,0x30,0x80,0xa2,0x38,
 0x0a,0xa0,0x3a,0x00,0x44,0x40,0x51,0x14,0x45,0x51,0x00,0x41,0x10,0x04,0x40,
 0x55,0x04,0xe0,0x00,0x8e,0xe2,0x28,0x0e,0x80,0x0e,0xc6,0x00,0xec,0x2e,0x00,
 0x51,0x00,0x04,0x41,0x10,0x04,0x00,0x15,0x45,0x01,0x54,0x15,0x01,0xa0,0x00,
 0x8a,0xa3,0x28,0x0a,0x80,0x0b,0x83,0x01,0xa8,0x2b,0x00,0x44,0x40,0x51,0x14,
 0x45,0x01,0x00,0x41,0x10,0x00,0x55,0x55,0x04,0xe0,0xc0,0x60,0x0c,0xc6,0x00,
 0x80,0xe2,0x28,0x80,0xee,0x2e,0x00,0x51,0x40,0x51,0x14,0x45,0x01,0x00,0x41,
 0x10,0x00,0x55,0x15,0x01,0xa0,0x00,0x8a,0xa3,0x38,0x00,0x80,0x1b,0x00,0xb0,
 0xba,0x3b,0x00,0x44,0x00,0x04,0x41,0x10,0x00,0x00,0x15,0x00,0x50,0x55,0x55,
 0x04,0xe0,0x00,0x8e,0xe2,0x28,0x00,0x80,0x0e,0x00,0xe0,0xee,0x2e,0x00,0x51,
 0x40,0x51,0x14,0x05,0x00,0x00,0x01,0x00,0x54,0x41,0x15,0x01,0xa0,0x80,0x21,
 0x08,0x03,0x00,0x80,0x03,0x00,0xaa,0xa3,0x2b,0x00,0x44,0x40,0x51,0x14,0x05,
 0x00,0x00,0x01,0x00,0x54,0x41,0x55,0x04,0xe0,0x00,0x8e,0xe2,0x00,0x00,0x00,
 0x00,0xc0,0x6e,0xec,0x2e,0x00,0x51,0x00,0x04,0x41,0x00,0x00,0x00,0x00,0x40,
 0x55,0x54,0x15,0x01,0xa0,0x00,0x8a,0xa2,0x00,0x00,0x00,0x00,0x80,0x3a,0xb8,
 0x3a,0x00,0x44,0x40,0x51,0x14,0x00,0x00,0x00,0x00,0x50,0x05,0x41,0x55,0x04,
 0xe0,0xc0,0x60,0x0c,0x00,0x00,0x00,0x00,0xe8,0x8e,0xe2,0x2e,0x00,0x51,0x40,
 0x51,0x14,0x00,0x00,0x00,0x00,0x50,0x05,0x41,0x15,0x01,0xa0,0x00,0x8a,0x03,
 0x00,0x00,0x00,0x00,0xab,0x21,0xa8,0x2b,0x00,0x44,0x00,0x04,0x01,0x00,0x00,
 0x00,0x00,0x55,0x51,0x54,0x55,0x04,0xe0,0x00,0x8e,0x02,0x00,0x00,0x00,0x00,
 0xee,0x60,0xec,0x2e,0x00,0x51,0x40,0x51,0x00,0x40,0x05,0x00,0x40,0x15,0x04,
 0x41,0x15,0x01,0xa0,0x80,0x30,0x00,0x80,0x0b,0x00,0xa0,0x3a,0x8a,0xa2,0x3b,
 0x00,0x44,0x40,0x51,0x00,0x40,0x05,0x00,0x40,0x15,0x04,0x41,0x55,0x04,0xe0,
 0x00,0x0e,0x00,0xe8,0x0e,0x00,0xec,0xc6,0x60,0xec,0x2e,0x00,0x51,0x00,0x04,
 0x00,0x50,0x05,0x00,0x54,0x45,0x51,0x54,0x15,0x01,0xa0,0x00,0x0a,0x00,0xa8,
 0x0b,0x00,0xa8,0x83,0x21,0xa8,0x2b,0x00,0x44,0x40,0x01,0x40,0x55,0x05,0x00,
 0x55,0x10,0x04,0x41,0x55,0x04,0xe0,0xc0,0x00,0xe0,0xee,0x0e,0x80,0xee,0x28,
 0x8e,0xe2,0x2e,0x00,0x51,0x40,0x01,0x40,0x55,0x05,0x00,0x55,0x10,0x04,0x41,
 0x15,0x01,0xa0,0x38,0x80,0xba,0x3b,0x0a,0xa0,0x1a,0x83,0x30,0xb8,0x3a,0x00,
 0x44,0x10,0x00,0x55,0x15,0x04,0x40,0x15,0x45,0x51,0x54,0x55,0x04,0xe0,0x06,
 0xee,0x0e,0xc6,0x0e,0xec,0xe2,0x28,0x8e,0xe2,0x2e,0x00,0x51,0x05,0x54,0x15,
 0x45,0x05,0x54,0x41,0x10,0x04,0x41,0x15,0x01,0xa0,0x03,0xaa,0x0b,0x83,0x0b,
 0xa8,0xa3,0x28,0x8a,0xa3,0x2b,0x00,0x44,0x55,0x55,0x41,0x10,0x04,0x55,0x14,
 0x45,0x51,0x54,0x55,0x04,0xe0,0xee,0xee,0xe2,0x28,0x8e,0x6e,0x0c,0xc6,0x60,
 0xec,0x2e,0x00,0x51,0x55,0x55,0x41,0x10,0x04,0x55,0x14,0x45,0x51,0x54,0x15,
 0x01,0xa0,0xbb,0x30,0x18,0x82,0xbb,0x9a,0xa3,0x38,0x8a,0xa2,0x3b,0x00,0x44,
 0x55,0x51,0x14,0x45,0x55,0x15,0x41,0x10,0x04,0x41,0x55,0x04,0xe0,0xee,0x60,
 0x0c,0xc6,0xee,0x8e,0xe2,0x28,0x8e,0xe2,0x2e,0x00,0x51,0x00,0x04,0x41,0x10,
 0x54,0x41,0x14,0x45,0x51,0x54,0x15,0x01,0xa0,0x00,0x8a,0xa3,0x28,0xaa,0x23,
 0x08,0x83,0x21,0xa8,0x2b,0x00,0x44,0x00,0x04,0x41,0x10,0x54,0x41,0x14,0x45,
 0x51,0x54,0x55,0x04,0xe0,0xc0,0x60,0x0c,0xc6,0x6e,0x8c,0xe2,0x28,0x8e,0xe2,
 0x2e,0x00,0x51,0x40,0x51,0x14,0x45,0x55,0x14,0x41,0x10,0x04,0x41,0x15,0x01,
 0xa0,0x80,0x31,0x18,0x83,0x3a,0x98,0xa2,0x38,0x8a,0xa3,0x3a,0x00,0x44,0x00,
 0x04,0x41,0x10,0x04,0x41,0x14,0x45,0x51,0x54,0x55,0x04,0xe0,0x00,0x8e,0xe2,
 0x28,0x8e,0x62,0x0c,0xc6,0x60,0xec,0x2e,0x00,0x51,0x00,0x04,0x41,0x10,0x04,
 0x41,0x14,0x45,0x51,0x54,0x15,0x01,0xa0,0x80,0x21,0x08,0x83,0x21,0x88,0xa3,
 0x28,0x8a,0xa3,0x2b,0x00,0x44,0x40,0x51,0x14,0x45,0x51,0x14,0x41,0x10,0x04,
 0x41,0x55,0x04,0xe0,0xc0,0x60,0x0c,0xc6,0x60,0x8c,0xe2,0x28,0x8e,0xe2,0x2e,
 0x00,0x51,0x00,0x04,0x41,0x10,0x04,0x41,0x14,0x45,0x51,0x54,0x15,0x01,0xa0,
 0x00,0x8a,0xa3,0x38,0x8a,0x22,0x18,0x82,0x31,0xb8,0x3b,0x00,0x44,0x00,0x04,
 0x41,0x10,0x04,0x41,0x14,0x45,0x51,0x54,0x55,0x04,0xe0,0xc0,0xee,0xee,0xee,
 0xee,0xee,0xee,0xee,0xee,0xee,0x2e,0x00,0x51,0x40,0x55,0x55,0x55,0x55,0x55,
 0x55,0x55,0x55,0x55,0x15,0x01,0xa0,0x80,0xab,0xab,0xab,0xab,0xab,0xab,0xab,
 0xab,0xab,0x2b,0x00,0x44,0x50,0x55,0x55,0x55,0x55,0x55,0x55,0x55,0x55,0x55,
 0x55,0x04,0xe0,0xe8,0xee,0xee,0xee,0xee,0xee,0xee,0xee,0xee,0xee,0x2e,0x00,
 0x51,0x50,0x55,0x55,0x55,0x55,0x55,0x55,0x55,0x55,0x55,0x15,0x01,0xa0,0xba,
 0xbb,0xba,0xbb,0xba,0xbb,0xba,0xbb,0xba,0xbb,0x3a,0x00,0x44,0x55,0x55,0x55,
 0x55,0x55,0x55,0x55,0x55,0x55,0x55,0x55,0x04,0xe0,0xee,0xee,0xee,0xee,0xee,
 0xee,0xee,0xee,0xee,0xee,0x2e,0x00,0x11,0x15,0x11,0x15,0x11,0x15,0x11,0x15,
 0x11,0x15,0x11,0x15,0x01,0x00,0x00,0x00,0x00,0x00,0x00,0x00,0x00,0x00,0x00,
 0x00,0x00,0x00,0x44,0x44,0x44,0x44,0x44,0x44,0x44,0x44,0x44,0x44,0x44,0x44,
 0x04,0x00,0x00,0x00,0x00,0x00,0x00,0x00,0x00,0x00,0x00,0x00,0x00,0x00,0x11,
 0x11,0x11,0x11,0x11,0x11,0x11,0x11,0x11,0x11,0x11,0x11,0x01};
