#define noname_width 79
#define noname_height 99
static char noname_bits[] = {
 0x44,0x44,0x44,0x44,0x44,0x44,0x44,0x44,0x44,0x44,0x00,0x00,0x00,0x00,0x00,
 0x00,0x00,0x00,0x00,0x00,0x11,0x11,0x11,0x11,0x11,0x11,0x11,0x11,0x11,0x11,
 0xb0,0xbb,0xbb,0xbb,0xbb,0xbb,0xbb,0xbb,0xbb,0x03,0x54,0x55,0x55,0x55,0x55,
 0x55,0x55,0x55,0x55,0x45,0x60,0x00,0x00,0x00,0x00,0x00,0x00,0x00,0x00,0x02,
 0x51,0x00,0x00,0x00,0x00,0x00,0x00,0x00,0x00,0x11,0x30,0x00,0x00,0x00,0x00,
 0x00,0x00,0x00,0x00,0x03,0x54,0x00,0x00,0x00,0x00,0x00,0x00,0x00,0x00,0x45,
 0x60,0x00,0x00,0x00,0x00,0x00,0x00,0x00,0x00,0x02,0x51,0x00,0x00,0x00,0x00,
 0x00,0x00,0x00,0x00,0x11,0x30,0x00,0x00,0x00,0x00,0x00,0x00,0x00,0x00,0x03,
 0x54,0x00,0x00,0x00,0x00,0x00,0x00,0x00,0x00,0x45,0x60,0x00,0x00,0x00,0x00,
 0x00,0x00,0x00,0x00,0x02,0x51,0x00,0x00,0x00,0x00,0x00,0x00,0x00,0x00,0x11,
 0x30,0x80,0x83,0x1b,0xbb,0xb3,0x31,0x3a,0x00,0x03,0x54,0x40,0x45,0x15,0x55,
 0x51,0x11,0x14,0x00,0x45,0x20,0xc0,0x86,0x0e,0xae,0xe2,0x20,0x2e,0x00,0x02,
 0x51,0x00,0x00,0x00,0x00,0x00,0x00,0x00,0x00,0x11,0x30,0x00,0x00,0x00,0x00,
 0x00,0x00,0x00,0x00,0x03,0x54,0x50,0x45,0x55,0x54,0x51,0x15,0x54,0x00,0x45,
 0x60,0xe0,0xc2,0xea,0xe8,0xe2,0x2a,0xea,0x00,0x02,0x51,0x50,0x45,0x55,0x54,
 0x51,0x15,0x54,0x00,0x11,0x30,0x00,0x00,0x00,0x00,0x00,0x00,0x00,0x00,0x03,
 0x54,0x00,0x00,0x00,0x00,0x00,0x00,0x00,0x00,0x45,0x60,0xa0,0xc6,0xa8,0xec,
 0x8e,0xe0,0x00,0x00,0x02,0x51,0x50,0x45,0x50,0x54,0x05,0x51,0x01,0x00,0x11,
 0x30,0xb0,0x83,0xb8,0xb8,0x8b,0xb1,0x01,0x00,0x03,0x54,0x00,0x00,0x00,0x00,
 0x00,0x00,0x00,0x00,0x45,0x60,0x00,0x00,0x00,0x00,0x00,0x00,0x00,0x00,0x02,
 0x51,0x10,0x54,0x50,0x54,0x05,0x51,0x15,0x00,0x11,0x30,0x30,0xba,0xb8,0xb8,
 0x8b,0xb1,0x3b,0x00,0x03,0x54,0x10,0x54,0x50,0x54,0x05,0x51,0x15,0x00,0x45,
 0x20,0x00,0x00,0x00,0x00,0x00,0x00,0x00,0x00,0x02,0x51,0x00,0x00,0x00,0x00,
 0x00,0x00,0x00,0x00,0x11,0x30,0xb0,0x03,0xb8,0xb8,0x0b,0x3a,0xb8,0x00,0x03,
 0x54,0x50,0x05,0x50,0x54,0x05,0x14,0x50,0x00,0x45,0x60,0xe0,0x02,0xe8,0xe8,
 0x0a,0x2a,0xe8,0x00,0x02,0x51,0x00,0x00,0x00,0x00,0x00,0x00,0x00,0x00,0x11,
 0x30,0x00,0x00,0x00,0x00,0x00,0x00,0x00,0x00,0x03,0x54,0x50,0x15,0x40,0x15,
 0x54,0x41,0x15,0x00,0x45,0x60,0xa0,0x2e,0xa0,0x0e,0xac,0xc0,0x2e,0x00,0x02,
 0x51,0x50,0x15,0x40,0x15,0x54,0x41,0x15,0x00,0x11,0x30,0x00,0x00,0x00,0x00,
 0x00,0x00,0x00,0x00,0x03,0x54,0x00,0x00,0x00,0x00,0x00,0x00,0x00,0x00,0x45,
 0x60,0x00,0xea,0xe0,0xea,0x0a,0x2a,0xe8,0x00,0x02,0x51,0x00,0x54,0x40,0x55,
 0x05,0x14,0x50,0x00,0x11,0x30,0x00,0xba,0xa0,0xbb,0x0b,0x3a,0xb8,0x00,0x03,
 0x54,0x00,0x00,0x00,0x00,0x00,0x00,0x00,0x00,0x45,0x20,0x00,0x00,0x00,0x00,
 0x00,0x00,0x00,0x00,0x02,0x51,0x50,0x05,0x50,0x00,0x55,0x01,0x54,0x00,0x11,
 0x30,0xb0,0x03,0xb8,0x80,0xbb,0x01,0xba,0x00,0x03,0x54,0x50,0x05,0x50,0x00,
 0x55,0x01,0x54,0x00,0x45,0x60,0x00,0x00,0x00,0x00,0x00,0x00,0x00,0x00,0x02,
 0x51,0x00,0x00,0x00,0x00,0x00,0x00,0x00,0x00,0x11,0x30,0xb0,0xb9,0xbb,0x38,
 0xb0,0x3b,0x3a,0x00,0x03,0x54,0x50,0x51,0x55,0x54,0x50,0x15,0x14,0x00,0x45,
 0x60,0xa0,0xe8,0xae,0x6c,0xa0,0x2e,0x2e,0x00,0x02,0x51,0x00,0x00,0x00,0x00,
 0x00,0x00,0x00,0x00,0x11,0x30,0x00,0x00,0x00,0x00,0x00,0x00,0x00,0x00,0x03,
 0x54,0x00,0x00,0x00,0x00,0x00,0x00,0x00,0x00,0x45,0x60,0x00,0x00,0x00,0x00,
 0x00,0x00,0x00,0x00,0x02,0x51,0x00,0x00,0x00,0x00,0x00,0x00,0x00,0x00,0x11,
 0x30,0x00,0x00,0x00,0x00,0x00,0x00,0x00,0x00,0x03,0x54,0x00,0x00,0x00,0x00,
 0x00,0x00,0x00,0x00,0x45,0x20,0x00,0x00,0xe8,0x00,0x00,0x00,0xe8,0x00,0x02,
 0x51,0x00,0x00,0x50,0x00,0x00,0x00,0x50,0x00,0x11,0x30,0x00,0x00,0xb8,0x00,
 0x00,0x00,0xb8,0x00,0x03,0x54,0x00,0x00,0x05,0x01,0x00,0x00,0x04,0x05,0x45,
 0x60,0x00,0x00,0x02,0x02,0x00,0x00,0x02,0x02,0x02,0x51,0x00,0x40,0x00,0x01,
 0x00,0x40,0x01,0x05,0x11,0x30,0x00,0x80,0x00,0x03,0x00,0x80,0x01,0x03,0x03,
 0x54,0x00,0x40,0x00,0x01,0x00,0x40,0x01,0x05,0x45,0x60,0x00,0xee,0x00,0x82,
 0x2e,0x20,0x00,0x06,0x02,0x51,0x00,0x54,0x00,0x01,0x55,0x10,0x00,0x05,0x11,
 0x30,0x80,0x01,0xa3,0x23,0x80,0x0b,0x80,0x03,0x03,0x54,0x40,0x01,0x45,0x41,
 0x00,0x05,0x40,0x05,0x45,0x60,0xc0,0x00,0xe2,0x62,0x80,0x0a,0xc0,0x02,0x02,
 0x51,0x10,0x00,0x10,0x14,0x00,0x04,0x00,0x00,0x11,0x30,0x30,0x00,0x18,0x18,
 0x00,0x0a,0x00,0x00,0x03,0x54,0x10,0x00,0x10,0x14,0x00,0x04,0x00,0x00,0x45,
 0x20,0x20,0x00,0x08,0x0c,0x00,0x0e,0x00,0x00,0x02,0x51,0x10,0x00,0x10,0x14,
 0x00,0x04,0x00,0x00,0x11,0x30,0x30,0x00,0x18,0x18,0x00,0x0a,0x00,0x00,0x03,
 0x54,0x10,0x00,0x10,0x14,0x00,0x04,0x00,0x00,0x45,0x60,0xc0,0x00,0x02,0x60,
 0x80,0x00,0x00,0x00,0x02,0x51,0x40,0x01,0x05,0x40,0x00,0x01,0x00,0x00,0x11,
 0x30,0x80,0x01,0x03,0x20,0x80,0x01,0x00,0x00,0x03,0x54,0x00,0x54,0x00,0x00,
 0x55,0x00,0x00,0x00,0x45,0x60,0x00,0xee,0x00,0x80,0x2e,0x00,0x00,0x00,0x02,
 0x51,0x00,0x00,0x00,0x00,0x00,0x00,0x00,0x00,0x11,0x30,0x00,0x00,0x00,0x00,
 0x00,0x00,0x00,0x00,0x03,0x54,0x00,0x00,0x00,0x00,0x00,0x00,0x00,0x00,0x45,
 0x60,0x00,0x00,0x00,0x00,0x00,0x00,0x00,0x00,0x02,0x51,0x00,0x00,0x00,0x00,
 0x00,0x00,0x00,0x00,0x11,0xb0,0xbb,0xbb,0xbb,0xbb,0xbb,0xbb,0xbb,0xbb,0x03,
 0x54,0x55,0x55,0x55,0x55,0x55,0x55,0x55,0x55,0x45,0xa0,0xee,0xae,0xee,0xae,
 0xee,0xae,0xee,0xae,0x02,0x11,0x11,0x11,0x11,0x11,0x11,0x11,0x11,0x11,0x11};
