#define noname_width 73
#define noname_height 99
static char noname_bits[] = {
 0x44,0x44,0x44,0x44,0x44,0x44,0x44,0x44,0x44,0x00,0xee,0xae,0xee,0xae,0xee,
 0xae,0xee,0xae,0x0e,0x00,0x55,0x55,0x55,0x55,0x55,0x55,0x55,0x55,0x15,0x01,
 0xba,0xbb,0xbb,0xbb,0xbb,0xbb,0xbb,0xbb,0x1b,0x00,0x04,0x00,0x00,0x00,0x00,
 0x00,0x00,0x00,0x50,0x00,0x0a,0x00,0x00,0x00,0x00,0x00,0x00,0x00,0x08,0x00,
 0x05,0x00,0x00,0x00,0x00,0x00,0x00,0x00,0x10,0x01,0x0a,0x00,0x00,0x00,0x00,
 0x00,0x00,0x00,0x18,0x00,0x04,0x00,0x00,0x00,0x00,0x00,0x00,0x00,0x50,0x00,
 0x0e,0x00,0x00,0x00,0x00,0x00,0x00,0x00,0x08,0x00,0x05,0x00,0x00,0x00,0x00,
 0x00,0x00,0x00,0x10,0x01,0x0a,0x00,0x00,0x00,0x00,0x00,0x00,0x00,0x18,0x00,
 0x04,0x00,0x00,0x00,0x00,0x00,0x00,0x00,0x50,0x01,0x0a,0x00,0x00,0x00,0x00,
 0x00,0x00,0x00,0x08,0x00,0x05,0x40,0x14,0x10,0x40,0x40,0x50,0x04,0x10,0x01,
 0x0a,0xa0,0x18,0x30,0x80,0xa0,0x30,0x0a,0x18,0x00,0x04,0x40,0x15,0x14,0x50,
 0x50,0x55,0x05,0x50,0x00,0x0e,0xa0,0x0e,0x2c,0xe8,0xa8,0xee,0x0e,0x08,0x00,
 0x05,0x00,0x00,0x00,0x00,0x00,0x00,0x00,0x10,0x01,0x0a,0x00,0x00,0x00,0x00,
 0x00,0x00,0x00,0x18,0x00,0x04,0x00,0x00,0x00,0x00,0x00,0x00,0x00,0x50,0x00,
 0x0a,0x00,0x62,0xe8,0xea,0xea,0x60,0x00,0x08,0x00,0x05,0x00,0x41,0x54,0x55,
 0x55,0x50,0x00,0x10,0x01,0x0a,0xa0,0x83,0xbb,0xbb,0xbb,0xb3,0x0b,0x18,0x00,
 0x04,0x40,0x01,0x55,0x55,0x55,0x51,0x05,0x50,0x00,0x0e,0xe0,0x82,0xee,0xae,
 0xee,0xa2,0x0e,0x08,0x00,0x05,0x00,0x40,0x55,0x55,0x55,0x05,0x00,0x10,0x01,
 0x0a,0x00,0xa0,0xbb,0xbb,0xbb,0x0b,0x00,0x18,0x00,0x04,0x00,0x54,0x55,0x55,
 0x55,0x55,0x00,0x50,0x01,0x0a,0x00,0xe8,0xea,0xea,0xea,0x6a,0x00,0x08,0x00,
 0x05,0x00,0x54,0x55,0x55,0x55,0x55,0x00,0x10,0x01,0x0a,0x00,0xbb,0xbb,0xbb,
 0xbb,0xbb,0x01,0x18,0x00,0x04,0x00,0x55,0x55,0x55,0x55,0x55,0x01,0x50,0x00,
 0x0e,0x00,0xee,0xae,0xee,0xae,0xee,0x00,0x08,0x00,0x05,0x00,0x55,0x55,0x55,
 0x55,0x55,0x01,0x10,0x01,0x0a,0x00,0xbb,0xbb,0xbb,0xbb,0xbb,0x01,0x18,0x00,
 0x04,0x00,0x55,0x15,0x00,0x50,0x55,0x01,0x50,0x00,0x0a,0x00,0xea,0x2a,0x00,
 0xe8,0xea,0x00,0x08,0x00,0x05,0x00,0x55,0x15,0x00,0x50,0x55,0x01,0x10,0x01,
 0x0a,0x00,0xbb,0x3b,0x00,0xb8,0xbb,0x01,0x18,0x00,0x04,0x00,0x55,0x15,0x00,
 0x50,0x55,0x01,0x50,0x00,0x0e,0x00,0xae,0x2e,0x00,0xe8,0xae,0x00,0x08,0x00,
 0x05,0x00,0x55,0x15,0x00,0x50,0x55,0x01,0x10,0x01,0x0a,0x00,0x00,0x00,0x00,
 0xbb,0xbb,0x01,0x18,0x00,0x04,0x00,0x00,0x00,0x00,0x55,0x55,0x01,0x50,0x01,
 0x0a,0x00,0x00,0x00,0xea,0xea,0x6a,0x00,0x08,0x00,0x05,0x00,0x00,0x00,0x54,
 0x55,0x55,0x00,0x10,0x01,0x0a,0x00,0x00,0x00,0xba,0xbb,0x3b,0x00,0x18,0x00,
 0x04,0x00,0x00,0x40,0x55,0x55,0x05,0x00,0x50,0x00,0x0e,0x00,0x00,0x80,0xee,
 0xae,0x0e,0x00,0x08,0x00,0x05,0x00,0x00,0x40,0x55,0x55,0x01,0x00,0x10,0x01,
 0x0a,0x00,0x00,0x80,0xbb,0xbb,0x03,0x00,0x18,0x00,0x04,0x00,0x00,0x40,0x55,
 0x55,0x01,0x00,0x50,0x00,0x0a,0x00,0x00,0xc0,0xea,0x0a,0x00,0x00,0x08,0x00,
 0x05,0x00,0x00,0x40,0x55,0x15,0x00,0x00,0x10,0x01,0x0a,0x00,0x00,0x80,0xbb,
 0x03,0x00,0x00,0x18,0x00,0x04,0x00,0x00,0x40,0x55,0x05,0x00,0x00,0x50,0x00,
 0x0e,0x00,0x00,0xc0,0xae,0x06,0x00,0x00,0x08,0x00,0x05,0x00,0x00,0x40,0x55,
 0x05,0x00,0x00,0x10,0x01,0x0a,0x00,0x00,0x80,0xbb,0x03,0x00,0x00,0x18,0x00,
 0x04,0x00,0x00,0x40,0x55,0x05,0x00,0x00,0x50,0x01,0x0a,0x00,0x00,0xc0,0xea,
 0x02,0x00,0x00,0x08,0x00,0x05,0x00,0x00,0x40,0x55,0x05,0x00,0x00,0x10,0x01,
 0x0a,0x00,0x00,0x80,0xbb,0x03,0x00,0x00,0x18,0x00,0x04,0x00,0x00,0x40,0x55,
 0x05,0x00,0x00,0x50,0x00,0x0e,0x00,0x00,0x00,0x00,0x00,0x00,0x00,0x08,0x00,
 0x05,0x00,0x00,0x00,0x00,0x00,0x00,0x00,0x10,0x01,0x0a,0xa0,0x20,0x80,0xbb,
 0xa3,0x08,0x0a,0x18,0x00,0x04,0x40,0x40,0x40,0x55,0x45,0x04,0x04,0x50,0x00,
 0x0a,0xe0,0x60,0xc0,0xea,0xe2,0x08,0x0a,0x08,0x00,0x05,0x40,0x55,0x40,0x55,
 0x45,0x54,0x05,0x10,0x01,0x0a,0xa0,0x3b,0x80,0xbb,0xa3,0xb8,0x0b,0x18,0x00,
 0x04,0x00,0x00,0x40,0x55,0x05,0x00,0x00,0x50,0x00,0x0e,0x00,0x00,0xc0,0xae,
 0x06,0x00,0x00,0x08,0x00,0x05,0x00,0x00,0x40,0x55,0x05,0x00,0x00,0x10,0x01,
 0x0a,0x00,0x03,0x88,0xbb,0xa3,0x00,0x0a,0x18,0x00,0x04,0x00,0x01,0x44,0x55,
 0x45,0x00,0x04,0x50,0x01,0x0a,0xe0,0x8a,0xca,0xea,0xe2,0x0a,0x0a,0x08,0x00,
 0x05,0x40,0x15,0x45,0x55,0x45,0x05,0x04,0x10,0x01,0x0a,0x00,0x00,0x00,0x00,
 0x00,0x00,0x00,0x18,0x00,0x04,0x00,0x00,0x00,0x00,0x00,0x00,0x00,0x50,0x00,
 0x0e,0x00,0x00,0x00,0x00,0x00,0x00,0x00,0x08,0x00,0x05,0x00,0x00,0x00,0x00,
 0x00,0x00,0x00,0x10,0x01,0x0a,0x00,0x00,0x00,0x00,0x00,0x00,0x00,0x18,0x00,
 0x04,0x00,0x00,0x00,0x00,0x00,0x00,0x00,0x50,0x00,0x0a,0x00,0x00,0x00,0x00,
 0x00,0x00,0x00,0x08,0x00,0x05,0x00,0x00,0x00,0x00,0x00,0x00,0x00,0x10,0x01,
 0x0a,0x00,0x00,0x00,0x00,0x00,0x00,0x00,0x18,0x00,0x04,0x00,0x00,0x00,0x00,
 0x00,0x00,0x00,0x50,0x00,0x0e,0x00,0x00,0x00,0x00,0x00,0x00,0x00,0x08,0x00,
 0x05,0x00,0x00,0x00,0x00,0x00,0x00,0x00,0x10,0x01,0x0a,0x00,0x00,0x00,0x00,
 0x00,0x00,0x00,0x18,0x00,0x54,0x55,0x55,0x55,0x55,0x55,0x55,0x55,0x55,0x01,
 0xea,0xea,0xea,0xea,0xea,0xea,0xea,0xea,0x0a,0x00,0x11,0x11,0x11,0x11,0x11,
 0x11,0x11,0x11,0x11,0x01,0x00,0x00,0x00,0x00,0x00,0x00,0x00,0x00,0x00,0x00,
 0x44,0x44,0x44,0x44,0x44,0x44,0x44,0x44,0x44,0x00,0x00,0x00,0x00,0x00,0x00,
 0x00,0x00,0x00,0x00,0x00,0x11,0x11,0x11,0x11,0x11,0x11,0x11,0x11,0x11,0x01};
