#define noname_width 101
#define noname_height 99
static char noname_bits[] = {
 0x11,0x11,0x11,0x11,0x11,0x11,0x11,0x11,0x11,0x11,0x11,0x11,0x11,0x00,0x00,
 0x00,0x00,0x00,0x00,0x00,0x00,0x00,0x00,0x00,0x00,0x00,0x45,0x44,0x45,0x44,
 0x45,0x44,0x45,0x44,0x45,0x44,0x45,0x44,0x05,0x00,0x00,0x00,0x00,0x00,0x00,
 0x00,0x00,0x00,0x00,0x00,0x00,0x00,0x11,0x11,0x11,0x11,0x11,0x11,0x11,0x11,
 0x11,0x11,0x11,0x11,0x11,0x00,0x00,0x00,0x00,0x00,0x00,0x00,0x00,0x00,0x00,
 0x00,0x00,0x00,0x44,0x55,0x55,0x55,0x55,0x55,0x55,0x55,0x55,0x55,0x55,0x55,
 0x04,0xe0,0xff,0xff,0xff,0xff,0xff,0xff,0xff,0xff,0xff,0xff,0xff,0x00,0x51,
 0x55,0x55,0x55,0x55,0x55,0x55,0x55,0x55,0x55,0x55,0x55,0x11,0xa0,0x00,0x00,
 0x00,0x00,0x00,0x00,0x00,0x00,0x00,0x00,0xa0,0x00,0x44,0x00,0x00,0x00,0x00,
 0x00,0x00,0x00,0x00,0x00,0x00,0x40,0x04,0xe0,0x00,0x00,0x00,0x00,0x00,0x00,
 0x00,0x00,0x00,0x00,0xe0,0x00,0x51,0x00,0x00,0x00,0x00,0x00,0x00,0x00,0x00,
 0x00,0x00,0x40,0x11,0xa0,0x00,0x00,0x00,0x00,0x00,0x00,0x00,0x00,0x00,0x00,
 0xb8,0x00,0x44,0x00,0x00,0x00,0x00,0x00,0x00,0x00,0x00,0x00,0x00,0x54,0x04,
 0xe0,0x00,0x00,0x00,0x00,0x00,0x00,0x00,0x00,0x00,0x00,0xfc,0x00,0x51,0x00,
 0x41,0x10,0x04,0x41,0x10,0x04,0x41,0x10,0x04,0x55,0x11,0xa0,0x80,0xa3,0x38,
 0x8a,0xa3,0x38,0x8a,0xa3,0x38,0x8a,0xbb,0x00,0x45,0x00,0x41,0x10,0x04,0x41,
 0x10,0x04,0x41,0x10,0x04,0x55,0x05,0xe0,0x00,0x0c,0xc7,0x61,0x1c,0xc7,0x71,
 0x0c,0xc7,0x61,0xfc,0x00,0x51,0x00,0x14,0x45,0x51,0x14,0x45,0x51,0x14,0x45,
 0x51,0x54,0x11,0xa0,0x00,0x18,0x83,0x31,0x18,0x83,0x31,0x18,0x83,0x31,0xb8,
 0x00,0x44,0x00,0x41,0x10,0x04,0x41,0x55,0x55,0x55,0x10,0x04,0x55,0x04,0xe0,
 0x80,0xe3,0x38,0x8e,0xe3,0xff,0xff,0xff,0x38,0x8e,0xff,0x00,0x51,0x00,0x41,
 0x10,0x04,0x41,0x55,0x55,0x55,0x10,0x04,0x55,0x11,0xa0,0x00,0x18,0x83,0x31,
 0x18,0x00,0x00,0xa0,0x83,0x31,0xb8,0x00,0x44,0x00,0x14,0x45,0x51,0x14,0x00,
 0x00,0x40,0x45,0x51,0x54,0x04,0xe0,0x00,0x1c,0xc7,0x71,0x0c,0x00,0x00,0xe0,
 0xc7,0x71,0xec,0x00,0x51,0x00,0x41,0x10,0x04,0x01,0x00,0x50,0x01,0x10,0x04,
 0x55,0x11,0xa0,0x80,0xa3,0x38,0x8a,0x03,0x00,0xb0,0x03,0x38,0x8a,0xbb,0x00,
 0x44,0x00,0x41,0x10,0x04,0x01,0x00,0x50,0x01,0x10,0x04,0x55,0x04,0xe0,0x00,
 0x1c,0xc7,0x71,0xfc,0x3f,0x8e,0xff,0xf8,0x71,0xfc,0x00,0x51,0x00,0x14,0x45,
 0x51,0x54,0x15,0x04,0x55,0x50,0x51,0x54,0x11,0xa0,0x00,0x18,0x83,0x31,0xb8,
 0x3b,0x8a,0xbb,0xb8,0x31,0xb8,0x00,0x45,0x00,0x41,0x10,0x54,0x41,0x10,0x04,
 0x40,0x50,0x05,0x55,0x05,0xe0,0x80,0xe3,0x38,0xee,0xe3,0x28,0x0e,0xe0,0xf8,
 0x8f,0xff,0x00,0x51,0x00,0x41,0x10,0x54,0x41,0x10,0x04,0x40,0x50,0x05,0x55,
 0x11,0xa0,0x00,0x18,0x83,0x81,0xbb,0x3b,0x3a,0xb8,0x80,0x31,0xb8,0x00,0x44,
 0x00,0x14,0x45,0x01,0x55,0x15,0x54,0x54,0x40,0x51,0x54,0x04,0xe0,0x00,0x1c,
 0xc7,0x81,0xff,0x3f,0x7e,0xfc,0xc0,0x71,0xfc,0x00,0x51,0x00,0x41,0x10,0x04,
 0x41,0x10,0x50,0x15,0x50,0x05,0x55,0x11,0xa0,0x80,0xa3,0x38,0x8a,0xa3,0x38,
 0xb0,0x1b,0xb8,0x8b,0xbb,0x00,0x44,0x00,0x41,0x10,0x04,0x41,0x10,0x50,0x15,
 0x50,0x05,0x55,0x04,0xe0,0x00,0x1c,0xc7,0x01,0xec,0x07,0x00,0x00,0xef,0x71,
 0xec,0x00,0x51,0x00,0x14,0x45,0x01,0x54,0x05,0x00,0x00,0x55,0x51,0x54,0x11,
 0xa0,0x00,0x18,0x83,0x01,0xb8,0x03,0x00,0x00,0xbb,0x31,0xb8,0x00,0x44,0x00,
 0x41,0x10,0x00,0x00,0x00,0x00,0x40,0x15,0x04,0x55,0x04,0xe0,0x80,0xe3,0x38,
 0x00,0x00,0x00,0x00,0xe0,0x3f,0x8e,0xff,0x00,0x51,0x00,0x41,0x10,0x00,0x00,
 0x00,0x00,0x40,0x15,0x04,0x55,0x11,0xa0,0x00,0x18,0x83,0x01,0x00,0x00,0x00,
 0xb8,0x83,0x31,0xb8,0x00,0x45,0x00,0x14,0x45,0x01,0x00,0x00,0x00,0x54,0x45,
 0x51,0x54,0x05,0xe0,0x00,0x0c,0xc7,0x01,0x00,0x00,0x00,0xec,0xc7,0x61,0xfc,
 0x00,0x51,0x00,0x41,0x10,0x00,0x55,0x00,0x00,0x55,0x10,0x04,0x55,0x11,0xa0,
 0x80,0xa3,0x38,0x80,0xbb,0x00,0x80,0xbb,0x38,0x8a,0xbb,0x00,0x44,0x00,0x41,
 0x10,0x00,0x55,0x00,0x00,0x55,0x10,0x04,0x55,0x04,0xe0,0x00,0x1c,0xc7,0xf1,
 0xff,0x00,0xf0,0x1f,0xc7,0x71,0xfc,0x00,0x51,0x00,0x14,0x45,0x51,0x55,0x00,
 0x50,0x15,0x45,0x51,0x54,0x11,0xa0,0x00,0x18,0x83,0xb1,0xbb,0x00,0xb0,0x1b,
 0x83,0x31,0xb8,0x00,0x44,0x00,0x41,0x10,0x50,0x55,0x00,0x50,0x41,0x10,0x04,
 0x55,0x04,0xe0,0x80,0xe3,0x28,0xf0,0xef,0x00,0xe0,0xe3,0x28,0x8e,0xef,0x00,
 0x51,0x00,0x41,0x10,0x50,0x55,0x00,0x50,0x41,0x10,0x04,0x55,0x11,0xa0,0x00,
 0x18,0x83,0x01,0x00,0xbb,0x31,0x18,0x83,0x31,0xb8,0x00,0x44,0x00,0x14,0x45,
 0x01,0x00,0x55,0x51,0x14,0x45,0x51,0x54,0x04,0xe0,0x00,0x1c,0xc7,0x01,0x00,
 0xff,0x71,0x1c,0xc7,0x71,0xfc,0x00,0x51,0x00,0x41,0x10,0x00,0x00,0x45,0x51,
 0x41,0x10,0x04,0x55,0x11,0xa0,0x80,0xa3,0x38,0x00,0x00,0x83,0xb1,0xa3,0x38,
 0x8a,0xbb,0x00,0x45,0x00,0x41,0x10,0x00,0x00,0x45,0x51,0x41,0x10,0x04,0x55,
 0x05,0xe0,0x00,0x0c,0xc7,0x0f,0xe0,0xe8,0x71,0x0c,0xc7,0x61,0xfc,0x00,0x51,
 0x00,0x14,0x45,0x05,0x40,0x50,0x51,0x14,0x45,0x51,0x54,0x11,0xa0,0x00,0x18,
 0x83,0x0b,0xa0,0xb8,0x31,0x18,0x83,0x31,0xb8,0x00,0x44,0x00,0x41,0x10,0x04,
 0x40,0x45,0x51,0x41,0x10,0x04,0x55,0x04,0xe0,0x80,0xe3,0x38,0x0e,0xe0,0xc7,
 0xf1,0xe3,0x38,0x8e,0xff,0x00,0x51,0x00,0x41,0x10,0x04,0x40,0x45,0x51,0x41,
 0x10,0x04,0x55,0x11,0xa0,0x00,0x18,0x83,0xb1,0x03,0x3b,0x30,0x18,0x83,0x31,
 0xb8,0x00,0x44,0x00,0x14,0x45,0x51,0x01,0x15,0x50,0x14,0x45,0x51,0x54,0x04,
 0xe0,0x00,0x1c,0xc7,0xf1,0x03,0x3f,0x60,0x1c,0xc7,0x71,0xec,0x00,0x51,0x00,
 0x41,0x10,0x04,0x01,0x00,0x54,0x41,0x10,0x04,0x55,0x11,0xa0,0x80,0xa3,0x38,
 0x8a,0x03,0x00,0xba,0xa3,0x38,0x8a,0xbb,0x00,0x44,0x00,0x41,0x10,0x04,0x01,
 0x00,0x54,0x41,0x10,0x04,0x55,0x04,0xe0,0x00,0x1c,0xc7,0x71,0xfc,0xff,0x7f,
 0x1c,0xc7,0x71,0xfc,0x00,0x51,0x00,0x14,0x45,0x51,0x54,0x55,0x55,0x14,0x45,
 0x51,0x54,0x11,0xa0,0x00,0x18,0x83,0x31,0xb8,0xbb,0x3b,0x18,0x83,0x31,0xb8,
 0x00,0x45,0x00,0x41,0x10,0x04,0x41,0x10,0x04,0x41,0x10,0x04,0x55,0x05,0xe0,
 0x80,0xe3,0x38,0x8e,0xe3,0x28,0x8e,0xe3,0x38,0x8e,0xff,0x00,0x51,0x00,0x41,
 0x10,0x04,0x41,0x10,0x04,0x41,0x10,0x04,0x55,0x11,0xa0,0x00,0x18,0x83,0x31,
 0x18,0x83,0x31,0x18,0x83,0x31,0xb8,0x00,0x44,0x00,0x14,0x45,0x51,0x14,0x45,
 0x51,0x14,0x45,0x51,0x54,0x04,0xe0,0x00,0x1c,0xc7,0x71,0x1c,0xc7,0x71,0x1c,
 0xc7,0x71,0xfc,0x00,0x51,0x00,0x41,0x10,0x04,0x41,0x10,0x04,0x41,0x10,0x04,
 0x55,0x11,0xa0,0x80,0xa3,0x38,0x8a,0xa3,0x38,0x8a,0xa3,0x38,0x8a,0xbb,0x00,
 0x44,0x00,0x41,0x10,0x04,0x41,0x10,0x04,0x41,0x10,0x04,0x55,0x04,0xe0,0xe8,
 0xff,0xef,0xff,0xef,0xff,0xef,0xff,0xef,0xff,0xef,0x00,0x51,0x50,0x55,0x55,
 0x55,0x55,0x55,0x55,0x55,0x55,0x55,0x55,0x11,0xa0,0xb8,0xbb,0xbb,0xbb,0xbb,
 0xbb,0xbb,0xbb,0xbb,0xbb,0xbb,0x00,0x44,0x55,0x55,0x55,0x55,0x55,0x55,0x55,
 0x55,0x55,0x55,0x55,0x04,0xe0,0xff,0xff,0xff,0xff,0xff,0xff,0xff,0xff,0xff,
 0xff,0xff,0x00,0x51,0x55,0x55,0x55,0x55,0x55,0x55,0x55,0x55,0x55,0x55,0x55,
 0x11,0x00,0x00,0x00,0x00,0x00,0x00,0x00,0x00,0x00,0x00,0x00,0x00,0x00,0x45,
 0x44,0x45,0x44,0x45,0x44,0x45,0x44,0x45,0x44,0x45,0x44,0x05};
