#define noname_width 75
#define noname_height 99
static char noname_bits[] = {
 0x44,0x44,0x44,0x44,0x44,0x44,0x44,0x44,0x44,0x04,0x00,0x00,0x00,0x00,0x00,
 0x00,0x00,0x00,0x00,0x00,0x11,0x11,0x11,0x11,0x11,0x11,0x11,0x11,0x11,0x01,
 0x00,0x00,0x00,0x00,0x00,0x00,0x00,0x00,0x00,0x00,0x44,0x44,0x44,0x44,0x44,
 0x44,0x44,0x44,0x44,0x04,0xa8,0xae,0xae,0xae,0xae,0xae,0xae,0xae,0x2e,0x00,
 0x51,0x55,0x55,0x55,0x55,0x55,0x55,0x55,0x15,0x05,0x28,0x00,0x00,0x00,0x00,
 0x00,0x00,0x00,0x20,0x00,0x14,0x00,0x00,0x00,0x00,0x00,0x00,0x00,0x50,0x04,
 0x28,0x00,0x00,0x00,0x00,0x00,0x00,0x00,0x20,0x00,0x11,0x00,0x00,0x00,0x00,
 0x00,0x00,0x00,0x10,0x01,0x28,0x00,0x00,0x00,0x00,0x00,0x00,0x00,0x20,0x00,
 0x14,0x00,0x00,0x00,0x00,0x00,0x00,0x00,0x50,0x04,0x28,0x00,0x00,0x00,0x00,
 0x00,0x00,0x00,0x20,0x00,0x11,0x00,0x00,0x00,0x00,0x00,0x00,0x00,0x10,0x01,
 0x28,0x00,0x00,0x00,0x00,0x00,0x00,0x00,0x20,0x00,0x14,0x00,0x00,0x00,0x00,
 0x00,0x00,0x00,0x50,0x04,0x28,0x00,0x00,0x00,0x00,0x00,0x00,0x00,0x20,0x00,
 0x11,0x00,0x00,0x00,0x00,0x00,0x00,0x00,0x10,0x01,0x28,0x00,0xa8,0x00,0x00,
 0x00,0x00,0x00,0x20,0x00,0x14,0x00,0x54,0x01,0x00,0x00,0x00,0x00,0x50,0x04,
 0x28,0x00,0x20,0x2e,0x00,0x00,0x00,0x00,0x20,0x00,0x11,0x00,0x50,0x14,0x00,
 0x00,0x00,0x00,0x10,0x05,0x28,0x00,0x20,0x2a,0x00,0x00,0x00,0x00,0x20,0x00,
 0x14,0x00,0x50,0x50,0x00,0x00,0x00,0x00,0x50,0x04,0x28,0x00,0x60,0xe8,0x00,
 0x00,0x00,0x00,0x20,0x00,0x11,0x00,0x50,0x44,0x01,0x00,0x00,0x00,0x10,0x01,
 0x28,0x00,0x20,0x82,0x02,0x00,0x00,0x00,0x20,0x00,0x14,0x00,0x50,0x44,0x01,
 0x00,0x00,0x00,0x50,0x04,0x28,0x00,0x80,0x28,0x0c,0x00,0x00,0x00,0x20,0x00,
 0x11,0x00,0x00,0x11,0x14,0x00,0x00,0x00,0x10,0x01,0x28,0x00,0x80,0x80,0x22,
 0x00,0xa8,0x00,0x20,0x00,0x14,0x00,0x00,0x41,0x41,0x00,0x50,0x00,0x50,0x04,
 0x28,0x00,0x80,0x02,0x82,0x02,0xe6,0x00,0x20,0x00,0x11,0x00,0x00,0x05,0x01,
 0x01,0x44,0x00,0x10,0x01,0x28,0x00,0x80,0x02,0x82,0x02,0xa2,0x00,0x20,0x00,
 0x14,0x00,0x00,0x14,0x15,0x41,0x45,0x01,0x50,0x04,0x28,0x00,0x00,0x2e,0x8e,
 0x82,0xa6,0x02,0x20,0x00,0x11,0x00,0x05,0x10,0x14,0x15,0x00,0x01,0x10,0x05,
 0x28,0x80,0x0a,0x28,0x88,0x2a,0x00,0x02,0x20,0x00,0x14,0x00,0x51,0x40,0x14,
 0x04,0x10,0x01,0x50,0x04,0x28,0x80,0x62,0xc0,0x08,0x0c,0x08,0x02,0x20,0x00,
 0x11,0x00,0x51,0x40,0x14,0x04,0x10,0x01,0x10,0x01,0x28,0x80,0xa2,0xaa,0x20,
 0x00,0x08,0x02,0x20,0x00,0x14,0x00,0x51,0x55,0x40,0x00,0x10,0x01,0x50,0x04,
 0x28,0x80,0x0e,0x00,0xa0,0x02,0x06,0x02,0x20,0x00,0x11,0x00,0x05,0x00,0x40,
 0x01,0x04,0x01,0x10,0x01,0x28,0x80,0x0a,0x00,0xa0,0x02,0x02,0x02,0x20,0x00,
 0x14,0x00,0x04,0x05,0x00,0x51,0x41,0x01,0x50,0x04,0x28,0x00,0x8c,0x02,0x80,
 0xe2,0xe0,0x02,0x20,0x00,0x11,0x00,0x54,0x50,0x15,0x05,0x40,0x00,0x10,0x01,
 0x28,0x00,0x28,0xa8,0x8a,0x0a,0xa0,0x00,0x20,0x00,0x14,0x00,0x50,0x01,0x54,
 0x01,0x50,0x00,0x50,0x04,0x28,0x00,0xa0,0x00,0xac,0x02,0xa8,0x00,0x20,0x00,
 0x11,0x00,0x50,0x01,0x54,0x01,0x50,0x00,0x10,0x05,0x28,0x00,0x80,0x02,0x00,
 0x08,0x08,0x00,0x20,0x00,0x14,0x00,0x00,0x05,0x00,0x04,0x10,0x00,0x50,0x04,
 0x28,0x00,0x00,0x2e,0x00,0x0c,0x0a,0x00,0x20,0x00,0x11,0x00,0x00,0x14,0x00,
 0x04,0x14,0x00,0x10,0x01,0x28,0x00,0x00,0xa8,0x0a,0x80,0x02,0x00,0x20,0x00,
 0x14,0x00,0x00,0x50,0x15,0x40,0x05,0x00,0x50,0x04,0x28,0x00,0x00,0xa8,0x0e,
 0x80,0x06,0x00,0x20,0x00,0x11,0x00,0x00,0x00,0x54,0x55,0x01,0x00,0x10,0x01,
 0x28,0x00,0x00,0x00,0xa8,0xaa,0x00,0x00,0x20,0x00,0x14,0x00,0x00,0x00,0x00,
 0x14,0x00,0x00,0x50,0x04,0x28,0x00,0x00,0x00,0x00,0x28,0x00,0x00,0x20,0x00,
 0x11,0x00,0x00,0x00,0x00,0x14,0x00,0x00,0x10,0x01,0x28,0x00,0x00,0x00,0x00,
 0xa0,0x00,0x00,0x20,0x00,0x14,0x00,0x00,0x00,0x00,0x50,0x01,0x00,0x50,0x04,
 0x28,0x00,0x00,0x00,0x00,0x80,0x00,0x00,0x20,0x00,0x11,0x00,0x00,0x00,0x00,
 0x40,0x01,0x00,0x10,0x05,0x28,0x00,0x00,0x00,0x00,0x80,0x00,0x00,0x20,0x00,
 0x14,0x00,0x00,0x00,0x00,0x40,0x01,0x00,0x50,0x04,0x28,0x00,0x00,0x00,0x00,
 0xc0,0x00,0x00,0x20,0x00,0x11,0x00,0x00,0x00,0x00,0x40,0x01,0x00,0x10,0x01,
 0x28,0x00,0x00,0x00,0x00,0x80,0x00,0x00,0x20,0x00,0x14,0x00,0x00,0x00,0x00,
 0x50,0x01,0x00,0x50,0x04,0x28,0x00,0x00,0x00,0x00,0xa0,0x00,0x00,0x20,0x00,
 0x11,0x00,0x00,0x00,0x00,0x50,0x01,0x00,0x10,0x01,0x28,0x00,0x00,0x00,0x00,
 0x28,0x00,0x00,0x20,0x00,0x14,0x00,0x00,0x00,0x00,0x14,0x00,0x00,0x50,0x04,
 0x28,0x00,0x00,0x00,0x00,0x08,0x00,0x00,0x20,0x00,0x11,0x00,0x00,0x00,0x00,
 0x04,0x00,0x00,0x10,0x01,0x28,0x00,0x00,0x00,0x00,0x00,0x00,0x00,0x20,0x00,
 0x14,0x00,0x00,0x00,0x00,0x00,0x00,0x00,0x50,0x04,0x28,0x00,0x00,0x00,0x00,
 0x00,0x00,0x00,0x20,0x00,0x11,0x00,0x00,0x00,0x00,0x00,0x00,0x00,0x10,0x05,
 0x28,0x00,0x00,0x00,0x00,0x00,0x00,0x00,0x20,0x00,0x14,0x00,0x00,0x00,0x00,
 0x00,0x00,0x00,0x50,0x04,0x28,0x00,0x00,0x00,0x00,0x00,0x00,0x00,0x20,0x00,
 0x11,0x00,0x00,0x00,0x00,0x00,0x00,0x00,0x10,0x01,0x28,0x00,0x00,0x00,0x00,
 0x00,0x00,0x00,0x20,0x00,0x14,0x00,0x00,0x00,0x00,0x00,0x00,0x00,0x50,0x04,
 0xa8,0xae,0xae,0xae,0xae,0xae,0xae,0xae,0x2e,0x00,0x51,0x55,0x55,0x55,0x55,
 0x55,0x55,0x55,0x15,0x01,0x00,0x00,0x00,0x00,0x00,0x00,0x00,0x00,0x00,0x00,
 0x44,0x44,0x44,0x44,0x44,0x44,0x44,0x44,0x44,0x04,0x00,0x00,0x00,0x00,0x00,
 0x00,0x00,0x00,0x00,0x00,0x11,0x11,0x11,0x11,0x11,0x11,0x11,0x11,0x11,0x01};
