#define noname_width 101
#define noname_height 99
static char noname_bits[] = {
 0x11,0x11,0x11,0x11,0x11,0x11,0x11,0x11,0x11,0x11,0x11,0x11,0x11,0x00,0x00,
 0x00,0x00,0x00,0x00,0x00,0x00,0x00,0x00,0x00,0x00,0x00,0x45,0x44,0x45,0x44,
 0x45,0x44,0x45,0x44,0x45,0x44,0x45,0x44,0x05,0x00,0x00,0x00,0x00,0x00,0x00,
 0x00,0x00,0x00,0x00,0x00,0x00,0x00,0x11,0x11,0x11,0x11,0x11,0x11,0x11,0x11,
 0x11,0x11,0x11,0x11,0x11,0x00,0x00,0x00,0x00,0x00,0x00,0x00,0x00,0x00,0x00,
 0x00,0x00,0x00,0x44,0x55,0x55,0x55,0x55,0x55,0x55,0x55,0x55,0x55,0x55,0x55,
 0x04,0xa0,0xee,0xae,0xee,0xae,0xee,0xae,0xee,0xae,0xee,0xae,0xee,0x00,0x51,
 0x55,0x55,0x55,0x55,0x55,0x55,0x55,0x55,0x55,0x55,0x55,0x11,0xa0,0x00,0x00,
 0x00,0x00,0x00,0x00,0x00,0x00,0x00,0x00,0xa0,0x00,0x44,0x00,0x00,0x00,0x00,
 0x00,0x00,0x00,0x00,0x00,0x00,0x40,0x04,0xe0,0x00,0x00,0x00,0x00,0x00,0x00,
 0x00,0x00,0x00,0x00,0xe0,0x00,0x51,0x00,0x00,0x00,0x00,0x00,0x00,0x00,0x00,
 0x00,0x00,0x40,0x11,0xa0,0x00,0x00,0x00,0x00,0x00,0x00,0x00,0x00,0x00,0x00,
 0xa0,0x00,0x44,0x00,0x00,0x00,0x00,0x00,0x00,0x00,0x00,0x00,0x00,0x40,0x04,
 0xe0,0x00,0x00,0x00,0x00,0x00,0x00,0x00,0x00,0x00,0x00,0xa0,0x00,0x51,0x00,
 0x54,0x55,0x55,0x15,0x00,0x50,0x55,0x55,0x55,0x40,0x11,0xa0,0x00,0xb8,0xbb,
 0xbb,0x1b,0x00,0xb0,0xbb,0xbb,0x3b,0xa0,0x00,0x45,0x00,0x54,0x55,0x55,0x15,
 0x00,0x50,0x55,0x55,0x55,0x40,0x05,0xe0,0x80,0xea,0xea,0xea,0x0a,0x00,0xea,
 0xea,0xea,0x6a,0xe0,0x00,0x51,0x00,0x55,0x55,0x55,0x15,0x00,0x54,0x55,0x55,
 0x55,0x40,0x11,0xa0,0x80,0xbb,0xbb,0xbb,0x1b,0x00,0xba,0xbb,0xbb,0x3b,0xa0,
 0x00,0x44,0x50,0x55,0x55,0x55,0x14,0x40,0x55,0x55,0x55,0x51,0x40,0x04,0xa0,
 0xe8,0xae,0xee,0x2e,0x0c,0x80,0xee,0xae,0xee,0x20,0xe0,0x00,0x51,0x50,0x55,
 0x55,0x55,0x14,0x40,0x55,0x55,0x55,0x51,0x40,0x11,0xa0,0x38,0xa0,0x00,0x30,
 0x18,0x80,0x81,0x03,0x80,0x31,0xa0,0x00,0x44,0x50,0x40,0x00,0x50,0x14,0x40,
 0x01,0x01,0x40,0x51,0x40,0x04,0xe0,0x68,0xe0,0x00,0x60,0x08,0xc0,0x80,0x02,
 0xc0,0x60,0xe0,0x00,0x51,0x50,0x00,0x00,0x50,0x00,0x40,0x01,0x00,0x40,0x01,
 0x40,0x11,0xa0,0x38,0x00,0x00,0x30,0x00,0x80,0x01,0x00,0x80,0x01,0xa0,0x00,
 0x44,0x50,0x00,0x00,0x50,0x00,0x40,0x01,0x00,0x40,0x01,0x40,0x04,0xe0,0x28,
 0x00,0x00,0x60,0x00,0xc0,0x00,0x00,0x80,0x00,0xa0,0x00,0x51,0x50,0x00,0x00,
 0x50,0x00,0x40,0x01,0x00,0x40,0x01,0x40,0x11,0xa0,0x38,0x00,0x00,0x30,0x00,
 0x80,0x01,0x00,0x80,0x01,0xa0,0x00,0x45,0x00,0x00,0x00,0x00,0x00,0x00,0x00,
 0x00,0x00,0x00,0x40,0x05,0xe0,0x00,0x00,0x00,0x00,0x00,0x00,0x00,0x00,0x00,
 0x00,0xe0,0x00,0x51,0x00,0x00,0x00,0x00,0x00,0x00,0x00,0x00,0x00,0x00,0x40,
 0x11,0xa0,0x00,0x00,0x00,0x00,0x00,0x00,0x00,0x00,0x00,0x00,0xa0,0x00,0x44,
 0x00,0x00,0x00,0x00,0x00,0x00,0x00,0x00,0x00,0x00,0x40,0x04,0xa0,0x00,0x00,
 0x00,0x00,0x00,0x00,0x00,0x00,0x00,0x00,0xe0,0x00,0x51,0x00,0x00,0x00,0x00,
 0x00,0x00,0x00,0x00,0x00,0x00,0x40,0x11,0xa0,0x00,0x00,0x00,0x00,0x00,0x00,
 0x00,0x00,0x00,0x00,0xa0,0x00,0x44,0x00,0x00,0x00,0x00,0x00,0x00,0x00,0x00,
 0x00,0x00,0x40,0x04,0xe0,0x00,0xe8,0xea,0xea,0x0a,0x00,0xe0,0xea,0xea,0x6a,
 0xe0,0x00,0x51,0x00,0x54,0x55,0x55,0x15,0x00,0x50,0x55,0x55,0x55,0x40,0x11,
 0xa0,0x00,0xb8,0xbb,0xbb,0x1b,0x00,0xb0,0xbb,0xbb,0x3b,0xa0,0x00,0x44,0x00,
 0x55,0x55,0x55,0x15,0x00,0x54,0x55,0x55,0x55,0x40,0x04,0xe0,0x80,0xee,0xae,
 0xee,0x0e,0x00,0xae,0xee,0xae,0x6e,0xa0,0x00,0x51,0x00,0x55,0x55,0x55,0x15,
 0x00,0x54,0x55,0x55,0x55,0x40,0x11,0xa0,0xb8,0xbb,0xbb,0x3b,0x18,0x80,0xbb,
 0xbb,0xbb,0x31,0xa0,0x00,0x45,0x50,0x55,0x55,0x55,0x14,0x40,0x55,0x55,0x55,
 0x51,0x40,0x05,0xe0,0xe8,0xea,0xea,0x6a,0x08,0xc0,0xea,0xea,0xea,0x60,0xe0,
 0x00,0x51,0x50,0x40,0x00,0x50,0x14,0x40,0x01,0x01,0x40,0x51,0x40,0x11,0xa0,
 0x38,0xa0,0x00,0x30,0x18,0x80,0x81,0x03,0x80,0x31,0xa0,0x00,0x44,0x50,0x40,
 0x00,0x50,0x14,0x40,0x01,0x01,0x40,0x51,0x40,0x04,0xa0,0x68,0x00,0x00,0x20,
 0x00,0x80,0x00,0x00,0xc0,0x00,0xe0,0x00,0x51,0x50,0x00,0x00,0x50,0x00,0x40,
 0x01,0x00,0x40,0x01,0x40,0x11,0xa0,0x38,0x00,0x00,0x30,0x00,0x80,0x01,0x00,
 0x80,0x01,0xa0,0x00,0x44,0x50,0x00,0x00,0x50,0x00,0x40,0x01,0x00,0x40,0x01,
 0x40,0x04,0xe0,0x68,0x00,0x00,0x60,0x00,0xc0,0x00,0x00,0xc0,0x00,0xe0,0x00,
 0x51,0x50,0x00,0x00,0x50,0x00,0x40,0x01,0x00,0x40,0x01,0x40,0x11,0xa0,0x00,
 0x00,0x00,0x00,0x00,0x00,0x00,0x00,0x00,0x00,0xa0,0x00,0x44,0x00,0x00,0x00,
 0x00,0x00,0x00,0x00,0x00,0x00,0x00,0x40,0x04,0xe0,0x00,0x00,0x00,0x00,0x00,
 0x00,0x00,0x00,0x00,0x00,0xa0,0x00,0x51,0x00,0x00,0x00,0x00,0x00,0x00,0x00,
 0x00,0x00,0x00,0x40,0x11,0xa0,0x00,0x00,0x00,0x00,0x00,0x00,0x00,0x00,0x00,
 0x00,0xa0,0x00,0x45,0x00,0x00,0x00,0x00,0x00,0x00,0x00,0x00,0x00,0x00,0x40,
 0x05,0xe0,0x00,0x00,0x00,0x00,0x00,0x00,0x00,0x00,0x00,0x00,0xe0,0x00,0x51,
 0x00,0x00,0x00,0x00,0x00,0x00,0x00,0x00,0x00,0x00,0x40,0x11,0xa0,0x00,0x00,
 0x00,0x00,0x00,0x00,0x00,0x00,0x00,0x00,0xa0,0x00,0x44,0x00,0x00,0x00,0x00,
 0x00,0x00,0x00,0x00,0x00,0x00,0x40,0x04,0xa0,0x00,0x00,0x00,0x00,0x00,0x00,
 0x00,0x00,0x00,0x00,0xe0,0x00,0x51,0x00,0x00,0x00,0x00,0x00,0x00,0x00,0x00,
 0x00,0x00,0x40,0x11,0xa0,0x00,0xb8,0xbb,0xbb,0x1b,0x00,0xb0,0xbb,0xbb,0x3b,
 0xa0,0x00,0x44,0x00,0x54,0x55,0x55,0x15,0x00,0x50,0x55,0x55,0x55,0x40,0x04,
 0xe0,0x00,0xe8,0xea,0xea,0x0a,0x00,0xe0,0xea,0xea,0x6a,0xe0,0x00,0x51,0x00,
 0x55,0x55,0x55,0x15,0x00,0x54,0x55,0x55,0x55,0x40,0x11,0xa0,0x80,0xbb,0xbb,
 0xbb,0x1b,0x00,0xba,0xbb,0xbb,0x3b,0xa0,0x00,0x44,0x00,0x55,0x55,0x55,0x15,
 0x00,0x54,0x55,0x55,0x55,0x40,0x04,0xe0,0xa8,0xee,0xae,0x6e,0x0c,0xc0,0xae,
 0xee,0xae,0x60,0xa0,0x00,0x51,0x50,0x55,0x55,0x55,0x14,0x40,0x55,0x55,0x55,
 0x51,0x40,0x11,0xa0,0xb8,0xbb,0xbb,0x3b,0x18,0x80,0xbb,0xbb,0xbb,0x31,0xa0,
 0x00,0x45,0x50,0x40,0x00,0x50,0x14,0x40,0x01,0x01,0x40,0x51,0x40,0x05,0xe0,
 0x68,0xe0,0x00,0x60,0x08,0xc0,0x80,0x02,0xc0,0x60,0xe0,0x00,0x51,0x50,0x40,
 0x00,0x50,0x14,0x40,0x01,0x01,0x40,0x51,0x40,0x11,0xa0,0x38,0x00,0x00,0x30,
 0x00,0x80,0x01,0x00,0x80,0x01,0xa0,0x00,0x44,0x50,0x00,0x00,0x50,0x00,0x40,
 0x01,0x00,0x40,0x01,0x40,0x04,0xa0,0x68,0x00,0x00,0x20,0x00,0x80,0x00,0x00,
 0xc0,0x00,0xe0,0x00,0x51,0x50,0x00,0x00,0x50,0x00,0x40,0x01,0x00,0x40,0x01,
 0x40,0x11,0xa0,0x38,0x00,0x00,0x30,0x00,0x80,0x01,0x00,0x80,0x01,0xa0,0x00,
 0x44,0x50,0x00,0x00,0x50,0x00,0x40,0x01,0x00,0x40,0x01,0x40,0x04,0xe0,0x00,
 0x00,0x00,0x00,0x00,0x00,0x00,0x00,0x00,0x00,0xe0,0x00,0x51,0x00,0x00,0x00,
 0x00,0x00,0x00,0x00,0x00,0x00,0x00,0x40,0x11,0xa0,0x00,0x00,0x00,0x00,0x00,
 0x00,0x00,0x00,0x00,0x00,0xa0,0x00,0x44,0x55,0x55,0x55,0x55,0x55,0x55,0x55,
 0x55,0x55,0x55,0x55,0x04,0xe0,0xae,0xee,0xae,0xee,0xae,0xee,0xae,0xee,0xae,
 0xee,0xae,0x00,0x51,0x55,0x55,0x55,0x55,0x55,0x55,0x55,0x55,0x55,0x55,0x55,
 0x11,0x00,0x00,0x00,0x00,0x00,0x00,0x00,0x00,0x00,0x00,0x00,0x00,0x00,0x45,
 0x44,0x45,0x44,0x45,0x44,0x45,0x44,0x45,0x44,0x45,0x44,0x05};
