#define noname_width 99
#define noname_height 99
static char noname_bits[] = {
 0x44,0x44,0x44,0x44,0x44,0x44,0x44,0x44,0x44,0x44,0x44,0x44,0x04,0x00,0x00,
 0x00,0x00,0x00,0x00,0x00,0x00,0x00,0x00,0x00,0x00,0x00,0x11,0x11,0x11,0x11,
 0x11,0x11,0x11,0x11,0x11,0x11,0x11,0x11,0x01,0x00,0x00,0x00,0x00,0x00,0x00,
 0x00,0x00,0x00,0x00,0x00,0x00,0x00,0x44,0x44,0x44,0x44,0x44,0x44,0x44,0x44,
 0x44,0x44,0x44,0x44,0x04,0x00,0x00,0x00,0x00,0x00,0x00,0x00,0x00,0x00,0x00,
 0x00,0x00,0x00,0x51,0x55,0x55,0x55,0x55,0x55,0x55,0x55,0x55,0x55,0x55,0x15,
 0x01,0xa0,0xab,0xab,0xab,0xab,0xab,0xab,0xab,0xab,0xab,0xab,0x2b,0x00,0x44,
 0x55,0x55,0x55,0x55,0x55,0x55,0x55,0x55,0x55,0x55,0x55,0x04,0xe0,0x00,0x00,
 0x0c,0x00,0x00,0x00,0x00,0x00,0x00,0x00,0x28,0x00,0x51,0x00,0x00,0x14,0x00,
 0x00,0x00,0x00,0x00,0x00,0x00,0x10,0x01,0xa0,0x00,0x00,0xb8,0x00,0x00,0x00,
 0x00,0x00,0x00,0x00,0x38,0x00,0x44,0x00,0x00,0x54,0x00,0x00,0x00,0x00,0x00,
 0x00,0x00,0x50,0x04,0xe0,0x00,0x00,0xec,0x00,0x00,0x00,0x00,0x00,0x00,0x00,
 0x28,0x00,0x51,0x00,0x00,0x55,0x05,0x00,0x00,0x00,0x00,0x00,0x00,0x10,0x01,
 0xa0,0x00,0x80,0xab,0x03,0x00,0x00,0x00,0x00,0x00,0x00,0x28,0x00,0x44,0x00,
 0x00,0x55,0x05,0x00,0x00,0x00,0x00,0x00,0x00,0x50,0x04,0xe0,0x00,0x80,0x02,
 0x2e,0x00,0x00,0x00,0x00,0x00,0x00,0x28,0x00,0x51,0x00,0x00,0x01,0x15,0x00,
 0x00,0x00,0x00,0x00,0x00,0x10,0x01,0xa0,0x00,0x80,0x03,0x3a,0x00,0x00,0x00,
 0x00,0x00,0x00,0x38,0x00,0x44,0x00,0x50,0x14,0x50,0x01,0x00,0x00,0x00,0x00,
 0x00,0x50,0x04,0xe0,0x00,0x60,0x0c,0xe8,0x00,0x00,0x00,0x00,0x00,0x00,0x28,
 0x00,0x51,0x00,0x50,0x14,0x50,0x01,0x00,0x00,0x00,0x00,0x00,0x10,0x01,0xa0,
 0x00,0x2a,0x00,0x80,0x2b,0x00,0x00,0x00,0x00,0x00,0x28,0x00,0x44,0x00,0x54,
 0x00,0x40,0x55,0x00,0x00,0x00,0x00,0x00,0x50,0x04,0xe0,0x00,0x6e,0x00,0xc0,
 0x6e,0x00,0x00,0x00,0x00,0x00,0x28,0x00,0x51,0x40,0x05,0x00,0x50,0x55,0x15,
 0x00,0x55,0x55,0x15,0x10,0x01,0xa0,0x80,0x0b,0x00,0xb8,0xba,0x1b,0x00,0xbb,
 0xba,0x1b,0x38,0x00,0x44,0x40,0x05,0x00,0x50,0x55,0x15,0x00,0x55,0x55,0x15,
 0x50,0x04,0xe0,0xc0,0x00,0x0c,0x2e,0xe0,0xee,0xee,0xee,0x00,0x0c,0x28,0x00,
 0x51,0x40,0x01,0x14,0x15,0x50,0x55,0x55,0x55,0x01,0x14,0x10,0x01,0xa0,0x80,
 0x01,0x08,0x2b,0xa0,0xab,0xab,0xab,0x01,0x08,0x28,0x00,0x44,0x50,0x01,0x55,
 0x05,0x54,0x40,0x01,0x50,0x01,0x54,0x50,0x04,0xe0,0xe8,0x80,0xee,0x06,0x6e,
 0xe0,0x02,0xe8,0x00,0xec,0x28,0x00,0x51,0x50,0x01,0x55,0x05,0x54,0x40,0x01,
 0x50,0x01,0x54,0x10,0x01,0xa0,0xb8,0x30,0xa0,0x80,0x3b,0xa0,0x03,0xba,0x81,
 0xba,0x3b,0x00,0x44,0x50,0x51,0x40,0x40,0x55,0x40,0x01,0x55,0x01,0x55,0x55,
 0x04,0xe0,0xe8,0x60,0xe0,0xc0,0x6e,0xe0,0x02,0xee,0x80,0xee,0x2e,0x00,0x51,
 0x40,0x05,0x40,0x45,0x05,0x54,0x00,0x15,0x50,0x41,0x15,0x01,0xa0,0x80,0x0b,
 0xa0,0x83,0x0b,0x28,0x00,0x2b,0xa0,0xa3,0x2b,0x00,0x44,0x40,0x05,0x40,0x45,
 0x05,0x54,0x00,0x15,0x50,0x41,0x55,0x04,0xe0,0x00,0x00,0x00,0xee,0x0e,0x6c,
 0xe0,0x2e,0x60,0xe0,0x28,0x00,0x51,0x00,0x00,0x00,0x55,0x05,0x54,0x40,0x15,
 0x50,0x40,0x10,0x01,0xa0,0x00,0x00,0x00,0xbb,0x0a,0x38,0xa0,0x3b,0x30,0xa0,
 0x38,0x00,0x44,0x00,0x00,0x00,0x50,0x05,0x54,0x40,0x05,0x54,0x14,0x55,0x04,
 0xe0,0x00,0x00,0x00,0xe8,0x0e,0x6c,0xe0,0x06,0x6e,0x0c,0x2e,0x00,0x51,0x00,
 0x00,0x00,0x50,0x05,0x54,0x40,0x05,0x54,0x14,0x15,0x01,0xa0,0x00,0x00,0x00,
 0xa8,0xa1,0x0b,0xa0,0xab,0x2b,0x08,0x28,0x00,0x44,0x00,0x00,0x00,0x50,0x51,
 0x15,0x40,0x55,0x55,0x14,0x50,0x04,0xe0,0x00,0x00,0x00,0xe8,0xe0,0x0e,0xe0,
 0xee,0x6e,0x0c,0x28,0x00,0x51,0x00,0x00,0x00,0x50,0x05,0x55,0x54,0x45,0x01,
 0x14,0x15,0x01,0xa0,0x00,0x00,0x00,0xb8,0x8b,0x3a,0xb8,0x82,0x01,0x18,0x3b,
 0x00,0x44,0x00,0x00,0x00,0x50,0x05,0x55,0x54,0x45,0x01,0x14,0x55,0x04,0xe0,
 0x00,0x00,0x00,0xe8,0x60,0xe0,0xee,0xc0,0x8e,0x02,0x2e,0x00,0x51,0x00,0x00,
 0x00,0x50,0x51,0x40,0x55,0x40,0x05,0x01,0x15,0x01,0xa0,0x00,0x00,0x00,0xa8,
 0x21,0xa0,0xab,0x80,0x8b,0x03,0x2b,0x00,0x44,0x00,0x00,0x00,0x45,0x05,0x00,
 0x00,0x00,0x04,0x01,0x55,0x04,0xe0,0x00,0x00,0x00,0xc6,0x0e,0x00,0x00,0x00,
 0x8e,0x02,0x2e,0x00,0x51,0x00,0x00,0x00,0x45,0x05,0x00,0x00,0x00,0x04,0x01,
 0x15,0x01,0xa0,0x00,0x00,0x00,0xbb,0x00,0x00,0x00,0x00,0x8a,0x03,0x38,0x00,
 0x44,0x00,0x00,0x00,0x55,0x01,0x00,0x00,0x00,0x04,0x01,0x50,0x04,0xe0,0x00,
 0x00,0x00,0xee,0x00,0x00,0x00,0x00,0x8e,0x02,0x28,0x00,0x51,0x00,0x00,0x00,
 0x55,0x01,0x00,0x00,0x00,0x04,0x01,0x10,0x01,0xa0,0x00,0x00,0x00,0xab,0x01,
 0x00,0x00,0x00,0x8a,0x03,0x28,0x00,0x44,0x00,0x00,0x00,0x15,0x00,0x00,0x00,
 0x00,0x54,0x00,0x50,0x04,0xe0,0x00,0x00,0x00,0x2e,0x00,0x00,0x00,0x00,0x6e,
 0x00,0x28,0x00,0x51,0x00,0x00,0x00,0x15,0x00,0x00,0x00,0x00,0x54,0x00,0x10,
 0x01,0xa0,0x00,0x00,0xa0,0x3a,0x00,0x00,0x00,0x80,0x3b,0x00,0x38,0x00,0x44,
 0x00,0x00,0x40,0x15,0x00,0x00,0x00,0x40,0x55,0x00,0x50,0x04,0xe0,0x00,0x00,
 0xe0,0x2e,0x00,0x00,0x00,0xc0,0x6e,0x00,0x28,0x00,0x51,0x00,0x00,0x00,0x00,
 0x00,0x00,0x00,0x00,0x00,0x00,0x10,0x01,0xa0,0x00,0x00,0x00,0x00,0x00,0x00,
 0x00,0x00,0x00,0x00,0x28,0x00,0x44,0x00,0x00,0x00,0x00,0x00,0x00,0x00,0x00,
 0x00,0x00,0x50,0x04,0xe0,0x00,0xe0,0xee,0xee,0xee,0xee,0xee,0xee,0xee,0xee,
 0x28,0x00,0x51,0x00,0x50,0x55,0x55,0x55,0x55,0x55,0x55,0x55,0x55,0x10,0x01,
 0xa0,0x00,0xb0,0xba,0xbb,0xba,0xbb,0xba,0xbb,0xba,0xbb,0x38,0x00,0x44,0x00,
 0x54,0x00,0x00,0x00,0x00,0x00,0x00,0x00,0x55,0x50,0x04,0xe0,0x00,0x6e,0x00,
 0x00,0x00,0x00,0x00,0x00,0x80,0xee,0x28,0x00,0x51,0x00,0x54,0x00,0x00,0x00,
 0x00,0x00,0x00,0x00,0x55,0x10,0x01,0xa0,0x80,0xab,0xab,0xab,0xab,0xab,0xab,
 0xab,0xab,0xa3,0x28,0x00,0x44,0x40,0x55,0x55,0x55,0x55,0x55,0x55,0x55,0x55,
 0x41,0x50,0x04,0xe0,0xc0,0xee,0xee,0xee,0xee,0xee,0xee,0xee,0xee,0xe2,0x28,
 0x00,0x51,0x40,0x05,0x01,0x00,0x00,0x00,0x00,0x00,0x50,0x41,0x10,0x01,0xa0,
 0x80,0x8a,0x03,0x00,0x00,0x00,0x00,0x00,0xb0,0xa2,0x38,0x00,0x44,0x40,0x05,
 0x01,0x00,0x00,0x00,0x00,0x00,0x50,0x41,0x50,0x04,0xe0,0xc0,0x8e,0x02,0x00,
 0x00,0x00,0x00,0x00,0xe0,0xe2,0x28,0x00,0x51,0x40,0x05,0x01,0x00,0x00,0x00,
 0x00,0x00,0x50,0x41,0x10,0x01,0xa0,0x80,0x8b,0x03,0x00,0x00,0x00,0x00,0x00,
 0xa0,0xa3,0x28,0x00,0x44,0x40,0x05,0x00,0x00,0x00,0x00,0x00,0x00,0x50,0x01,
 0x50,0x04,0xe0,0xc0,0x0e,0x00,0x00,0x00,0x00,0x00,0x00,0xe0,0x02,0x28,0x00,
 0x51,0x40,0x05,0x00,0x00,0x00,0x00,0x00,0x00,0x50,0x01,0x10,0x01,0xa0,0xba,
 0xbb,0xba,0xbb,0xba,0xbb,0xba,0xbb,0xba,0xbb,0x3a,0x00,0x44,0x55,0x55,0x55,
 0x55,0x55,0x55,0x55,0x55,0x55,0x55,0x55,0x04,0xe0,0xee,0xee,0xee,0xee,0xee,
 0xee,0xee,0xee,0xee,0xee,0x2e,0x00,0x11,0x15,0x11,0x15,0x11,0x15,0x11,0x15,
 0x11,0x15,0x11,0x15,0x01,0x00,0x00,0x00,0x00,0x00,0x00,0x00,0x00,0x00,0x00,
 0x00,0x00,0x00,0x44,0x44,0x44,0x44,0x44,0x44,0x44,0x44,0x44,0x44,0x44,0x44,
 0x04,0x00,0x00,0x00,0x00,0x00,0x00,0x00,0x00,0x00,0x00,0x00,0x00,0x00,0x11,
 0x11,0x11,0x11,0x11,0x11,0x11,0x11,0x11,0x11,0x11,0x11,0x01};
