#define noname_width 213
#define noname_height 99
static char noname_bits[] = {
 0x10,0x10,0x10,0x10,0x10,0x10,0x10,0x10,0x10,0x10,0x10,0x10,0x10,0x10,0x10,
 0x10,0x10,0x10,0x10,0x10,0x10,0x10,0x10,0x10,0x10,0x10,0x10,0x00,0x00,0x00,
 0x00,0x00,0x00,0x00,0x00,0x00,0x00,0x00,0x00,0x00,0x00,0x00,0x00,0x00,0x00,
 0x00,0x00,0x00,0x00,0x00,0x00,0x00,0x00,0x18,0x54,0x55,0x55,0x55,0x55,0x55,
 0x55,0x55,0x55,0x55,0x55,0x55,0x55,0x55,0x55,0x55,0x55,0x55,0x55,0x55,0x55,
 0x55,0x55,0x55,0x55,0x55,0x15,0x00,0x00,0x00,0x00,0x00,0x00,0x00,0x00,0x00,
 0x00,0x00,0x00,0x00,0x00,0x00,0x00,0x00,0x00,0x00,0x00,0x00,0x00,0x00,0x00,
 0x00,0x00,0x0c,0x55,0x55,0x55,0x55,0x55,0x55,0x55,0x55,0x55,0x55,0x55,0x55,
 0x55,0x55,0x55,0x55,0x55,0x55,0x55,0x55,0x55,0x55,0x55,0x55,0x55,0x55,0x15,
 0x00,0x00,0x00,0x00,0x00,0x00,0x00,0x00,0x00,0x00,0x00,0x00,0x00,0x00,0x00,
 0x00,0x00,0x00,0x00,0x00,0x00,0x00,0x00,0x00,0x00,0x00,0x18,0x54,0x55,0x55,
 0x55,0x55,0x55,0x55,0x55,0x55,0x55,0x55,0x55,0x55,0x55,0x55,0x55,0x55,0x55,
 0x55,0x55,0x55,0x55,0x55,0x55,0x55,0x55,0x15,0x20,0x00,0xf8,0x00,0x20,0xe0,
 0x20,0x00,0x20,0x00,0x20,0x00,0x20,0x00,0x20,0x00,0x20,0x00,0x20,0x00,0x7e,
 0x00,0x20,0x00,0x70,0x00,0x0c,0x55,0xfd,0xf7,0x55,0x55,0x55,0x55,0x55,0x55,
 0xfd,0x5f,0x55,0x5d,0x55,0x55,0x55,0x55,0x55,0x57,0x75,0x75,0x55,0x55,0x55,
 0x7f,0x55,0x15,0x00,0xf8,0xe3,0x00,0x00,0x00,0x00,0x00,0x00,0xfc,0x0f,0x00,
 0x1c,0x00,0x00,0x00,0x00,0x00,0x06,0x30,0x70,0x00,0x00,0x00,0x7e,0x00,0x18,
 0x54,0x5d,0xf7,0x55,0x55,0x55,0x55,0x55,0x55,0x75,0x5d,0x55,0x5d,0x55,0x55,
 0x55,0x55,0x55,0x57,0x7d,0x75,0x55,0x55,0x55,0x75,0x55,0x15,0x00,0x1c,0xe7,
 0x0e,0x7e,0xfc,0x38,0x1f,0x00,0x70,0x70,0x1f,0xff,0xb9,0xff,0xf3,0x00,0x00,
 0x07,0x3c,0x70,0x3c,0xff,0x3e,0x70,0x00,0x0c,0x55,0x5d,0xf7,0x5f,0x7f,0xfd,
 0x7d,0x5f,0x55,0x75,0x75,0x5f,0xff,0xfd,0xff,0xf7,0x55,0x55,0x57,0x7d,0x75,
 0x7d,0xff,0x7f,0x75,0x55,0x15,0x00,0x1c,0xe0,0x39,0xc0,0xe1,0xe0,0x3b,0x00,
 0xf0,0xe3,0x3b,0x1c,0xf0,0xcd,0x71,0x00,0xc0,0x01,0x0e,0x70,0x38,0xdc,0x77,
 0x70,0x00,0x18,0x54,0x5d,0xf5,0x7d,0xff,0xf5,0xf5,0x7d,0x55,0x75,0xf7,0x7d,
 0x5d,0x75,0xd5,0x55,0x55,0xd5,0x55,0x5f,0x75,0x7d,0xdd,0x75,0x75,0x55,0x15,
 0x20,0x3c,0xe0,0x38,0xfe,0xe1,0xe0,0x38,0x20,0x70,0xe2,0x38,0x3c,0x70,0xe0,
 0x31,0x20,0xe0,0x21,0x2e,0x70,0x38,0xfc,0x71,0x70,0x20,0x0c,0x54,0x5d,0xf7,
 0xfd,0xd7,0xf5,0xf5,0x7d,0x55,0x75,0xf5,0x7d,0x5d,0x75,0xd5,0x5f,0x55,0xf5,
 0xd5,0x57,0x75,0x7d,0xdd,0x75,0x75,0x55,0x15,0x00,0x1c,0xe7,0xb8,0xc3,0xe1,
 0xe0,0x38,0x00,0x70,0xec,0x38,0x1c,0x71,0x80,0x0f,0x00,0xe0,0x80,0x03,0x70,
 0x38,0xdc,0x71,0x70,0x00,0x18,0x54,0x5d,0xf7,0xfd,0xd7,0xf5,0xf5,0x7d,0x55,
 0x75,0xfd,0x7d,0x5d,0x75,0xd5,0x5f,0x55,0xf5,0xd5,0x57,0x75,0x7d,0xdd,0x75,
 0x75,0x55,0x15,0x00,0xf8,0xfb,0x3e,0xfe,0xff,0xff,0x3b,0x00,0xfc,0xff,0x3b,
 0xf8,0xf8,0x03,0x0e,0x00,0x38,0xc0,0x01,0xfe,0xe3,0xfb,0x77,0xfe,0x03,0x0c,
 0x55,0x55,0x55,0x55,0x55,0x55,0x55,0x55,0x55,0x55,0x55,0x55,0x55,0x55,0xd5,
 0x57,0x55,0x7d,0xd5,0x55,0x55,0x55,0x55,0x55,0x55,0x55,0x15,0x00,0x00,0x00,
 0x00,0x00,0x00,0x00,0x00,0x00,0x00,0x00,0x00,0x00,0x00,0x80,0x03,0x00,0x38,
 0xc0,0x01,0x00,0x00,0x00,0x00,0x00,0x00,0x18,0x54,0x55,0x55,0x55,0x55,0x55,
 0x55,0x55,0x55,0x55,0x55,0x55,0x55,0x55,0xd5,0x57,0x55,0x5d,0x55,0x55,0x55,
 0x55,0x55,0x55,0x55,0x55,0x15,0x20,0x00,0x20,0x00,0x20,0x00,0x20,0x00,0x20,
 0x00,0x20,0x00,0x20,0x00,0xa0,0x03,0x20,0x18,0x60,0x00,0x20,0x00,0x20,0x00,
 0x20,0x00,0x0c,0x55,0x55,0x55,0x55,0x55,0x55,0x55,0x55,0x55,0x55,0x55,0x55,
 0x55,0x55,0xd5,0x5f,0x55,0x55,0x55,0x55,0x55,0x55,0x55,0x55,0x55,0x55,0x15,
 0x00,0x00,0x00,0x00,0x00,0x00,0x00,0x00,0x00,0x00,0x00,0x00,0x00,0x00,0x00,
 0x00,0x00,0x00,0x00,0x00,0x00,0x00,0x00,0x00,0x00,0x00,0x18,0x54,0x55,0x55,
 0x55,0x55,0x55,0x55,0x55,0x55,0x55,0x55,0x55,0x55,0x55,0x55,0x55,0x55,0x55,
 0x55,0x55,0x55,0x55,0x55,0x55,0x55,0x55,0x15,0x00,0x00,0x00,0x00,0x00,0x00,
 0x00,0x00,0x00,0x00,0x00,0x00,0x00,0x00,0x00,0x00,0x00,0x00,0x00,0x00,0x00,
 0x00,0x00,0x00,0x00,0x00,0x0c,0x55,0x55,0x55,0x55,0x55,0x55,0x55,0x55,0x55,
 0x55,0x55,0x55,0x55,0x55,0x55,0x55,0x55,0x55,0x55,0x55,0x55,0x55,0x55,0x55,
 0x55,0x55,0x15,0xb8,0xbb,0xbb,0xbb,0xbb,0xbb,0xbb,0xbb,0xbb,0xbb,0xbb,0xbb,
 0xbb,0xbb,0xbb,0xbb,0xbb,0xbb,0xbb,0xbb,0xbb,0xbb,0xbb,0xbb,0xbb,0xbb,0x1b,
 0x44,0x44,0x44,0x44,0x44,0x44,0x44,0x44,0x44,0x44,0x44,0x44,0x44,0x44,0x44,
 0x44,0x44,0x44,0x44,0x44,0x44,0x44,0x44,0x44,0x44,0x44,0x14,0x20,0x20,0x20,
 0x20,0x20,0x20,0x20,0x20,0x20,0x20,0x20,0x20,0x20,0x20,0x20,0x20,0x20,0x20,
 0x20,0x20,0x20,0x20,0x20,0x20,0x20,0x20,0x0c,0x54,0x55,0x55,0x55,0x55,0x55,
 0x55,0x55,0x55,0x55,0x55,0x55,0x55,0x55,0x55,0x55,0x55,0x55,0x55,0x55,0x55,
 0x55,0x55,0x55,0x55,0x55,0x15,0x00,0x00,0x00,0x00,0x00,0x00,0x00,0x00,0x00,
 0x00,0x00,0x00,0x00,0x00,0x00,0x00,0x00,0x00,0x00,0x00,0x00,0x00,0x00,0x00,
 0x00,0x00,0x18,0x54,0x55,0x55,0x55,0x55,0x55,0x55,0x55,0x55,0x55,0x55,0x55,
 0x55,0x55,0x55,0x55,0x55,0x55,0x55,0x55,0x55,0x55,0x55,0x55,0x55,0x55,0x15,
 0x00,0x00,0x00,0x00,0x00,0x00,0x00,0x00,0x00,0x00,0x00,0x00,0x00,0x00,0x00,
 0x00,0x00,0x00,0x00,0x00,0x00,0x00,0x00,0x00,0x00,0x00,0x0c,0x55,0x55,0x55,
 0x55,0x55,0x55,0x55,0x55,0x55,0x55,0x55,0x55,0x55,0x55,0x55,0x55,0x55,0x55,
 0x55,0x55,0x55,0x55,0x55,0x55,0x55,0x55,0x15,0x00,0x00,0x00,0x00,0x00,0x00,
 0x00,0x00,0x00,0x00,0x00,0x00,0x00,0x00,0x00,0x00,0x00,0x00,0x00,0x00,0x00,
 0x00,0x00,0x00,0x00,0x00,0x18,0x54,0x55,0x55,0x55,0x55,0x55,0x55,0x55,0x55,
 0x55,0x55,0x55,0x55,0x55,0x55,0x55,0x55,0x55,0x55,0x55,0x55,0x55,0x55,0x55,
 0x55,0x55,0x15,0x20,0x00,0x20,0x07,0x20,0x00,0x20,0x00,0x20,0x00,0x20,0x00,
 0x20,0x00,0x20,0x00,0x20,0x00,0x20,0x00,0x20,0x00,0x20,0x00,0x20,0x00,0x0c,
 0x55,0x7f,0x55,0x55,0x55,0x75,0x55,0x55,0x55,0x55,0x55,0x55,0x55,0x55,0x55,
 0x55,0x55,0x55,0x55,0x55,0x55,0x55,0x55,0x55,0x55,0x55,0x15,0x00,0x3f,0x00,
 0x00,0x00,0x70,0x00,0x00,0x00,0x00,0x00,0x00,0x00,0x00,0x00,0x00,0x00,0x00,
 0x00,0x00,0x00,0x00,0x00,0x00,0x00,0x00,0x18,0x54,0x5d,0x55,0x55,0x55,0x75,
 0x55,0x55,0x55,0x55,0x55,0x55,0x55,0x55,0x55,0x55,0x55,0x55,0x55,0x55,0x55,
 0x55,0x55,0x55,0x55,0x55,0x15,0x00,0x1c,0x00,0x00,0x00,0x70,0x00,0x00,0x00,
 0x00,0x00,0x00,0x00,0x00,0x00,0x00,0x00,0x00,0x00,0x00,0x00,0x00,0x00,0x00,
 0x00,0x00,0x0c,0x55,0x5d,0xf5,0x57,0xff,0xfd,0x57,0x55,0x55,0x55,0x55,0x55,
 0x55,0x55,0x55,0x55,0x55,0x55,0x55,0x55,0x55,0x55,0x55,0x55,0x55,0x55,0x15,
 0x00,0x1c,0x00,0x87,0x8f,0x71,0x00,0x00,0x00,0x00,0x00,0x00,0x00,0x00,0x00,
 0x00,0x00,0x00,0x00,0x00,0x00,0x00,0x00,0x00,0x00,0x00,0x18,0x54,0x5d,0x55,
 0xd7,0xdf,0x75,0x55,0x55,0x55,0x55,0x55,0x55,0x55,0x55,0x55,0x55,0x55,0x55,
 0x55,0x55,0x55,0x55,0x55,0x55,0x55,0x55,0x15,0x20,0x3c,0x20,0x27,0x7e,0x70,
 0x20,0x20,0x20,0x20,0x20,0x20,0x20,0x20,0x20,0x20,0x20,0x20,0x20,0x20,0x20,
 0x20,0x20,0x20,0x20,0x20,0x0c,0x54,0x5d,0x55,0x57,0xf5,0x75,0x55,0x55,0x55,
 0x55,0x55,0x55,0x55,0x55,0x55,0x55,0x55,0x55,0x55,0x55,0x55,0x55,0x55,0x55,
 0x55,0x55,0x15,0x00,0x1c,0x00,0x07,0xf0,0x71,0x00,0x00,0x00,0x00,0x00,0x00,
 0x00,0x00,0x00,0x00,0x00,0x00,0x00,0x00,0x00,0x00,0x00,0x00,0x00,0x00,0x18,
 0x54,0x5d,0x57,0xd7,0xd7,0x75,0x55,0x55,0x55,0x55,0x55,0x55,0x55,0x55,0x55,
 0x55,0x55,0x55,0x55,0x55,0x55,0x55,0x55,0x55,0x55,0x55,0x15,0x00,0xff,0xe3,
 0x3f,0x7e,0xe0,0x03,0x00,0x00,0x00,0x00,0x00,0x00,0x00,0x00,0x00,0x00,0x00,
 0x00,0x00,0x00,0x00,0x00,0x00,0x00,0x00,0x0c,0x55,0xff,0xf7,0x7f,0x7f,0xf5,
 0x57,0x55,0x55,0x55,0x55,0x55,0x55,0x55,0x55,0x55,0x55,0x55,0x55,0x55,0x55,
 0x55,0x55,0x55,0x55,0x55,0x15,0x00,0x00,0x00,0x00,0x00,0x00,0x00,0x00,0x00,
 0x00,0x00,0x00,0x00,0x00,0x00,0x00,0x00,0x00,0x00,0x00,0x00,0x00,0x00,0x00,
 0x00,0x00,0x18,0x54,0x55,0x55,0x55,0x55,0x55,0x55,0x55,0x55,0x55,0x55,0x55,
 0x55,0x55,0x55,0x55,0x55,0x55,0x55,0x55,0x55,0x55,0x55,0x55,0x55,0x55,0x15,
 0x20,0x00,0x20,0x00,0x20,0x00,0x20,0x00,0x20,0x00,0x20,0x00,0x20,0x00,0x20,
 0x00,0x20,0x00,0x20,0x00,0x20,0x00,0x20,0x00,0x20,0x00,0x0c,0x55,0x55,0x55,
 0x55,0x55,0x55,0x55,0x55,0x55,0x55,0x55,0x55,0x55,0x55,0x55,0x55,0x55,0x55,
 0x55,0x55,0x55,0x55,0x55,0x55,0x55,0x55,0x15,0x00,0xff,0x1f,0x00,0x00,0x00,
 0x00,0x00,0x00,0x00,0x00,0x00,0x00,0x00,0x00,0x00,0x00,0x00,0x00,0x00,0x00,
 0x00,0x00,0x00,0x00,0x00,0x18,0x54,0xff,0x5f,0x55,0x55,0x55,0x55,0x55,0x55,
 0x55,0x55,0x55,0x55,0x55,0x55,0x55,0x55,0x55,0x55,0x55,0x55,0x55,0x55,0x55,
 0x55,0x55,0x15,0x00,0x00,0x00,0x00,0x00,0x00,0x00,0x00,0x00,0x00,0x00,0x00,
 0x00,0x00,0x00,0x00,0x00,0x00,0x00,0x00,0x00,0x00,0x00,0x00,0x00,0x00,0x0c,
 0x55,0x55,0x55,0x55,0x55,0x55,0x55,0x55,0x55,0x55,0x55,0x55,0x55,0x55,0x55,
 0x55,0x55,0x55,0x55,0x55,0x55,0x55,0x55,0x55,0x55,0x55,0x15,0x00,0x00,0x00,
 0x00,0x00,0x00,0x00,0x00,0x00,0x00,0x00,0x00,0x00,0x00,0x00,0x00,0x00,0x00,
 0x00,0x00,0x00,0x00,0x00,0x00,0x00,0x00,0x18,0x54,0x55,0x55,0x55,0x55,0x55,
 0x55,0x55,0x55,0x55,0x55,0x55,0x55,0x55,0x55,0x55,0x55,0x55,0x55,0x55,0x55,
 0x55,0x55,0x55,0x55,0x55,0x15,0x20,0x20,0x20,0x20,0x20,0x20,0x20,0x20,0x20,
 0x20,0x20,0x20,0x20,0x20,0x20,0x20,0x20,0x20,0x20,0x20,0x20,0x20,0x20,0x20,
 0x20,0x20,0x0c,0x54,0x55,0x55,0x55,0x55,0x55,0x55,0x55,0x55,0x55,0x55,0x55,
 0x55,0x55,0x55,0x55,0x55,0x55,0x55,0x55,0x55,0x55,0x55,0x55,0x55,0x55,0x15,
 0x00,0x00,0x00,0x00,0x00,0x00,0x00,0x00,0x00,0x00,0x00,0x00,0x00,0x00,0x00,
 0x00,0x00,0x00,0x00,0x00,0x00,0x00,0x00,0x00,0x00,0x00,0x18,0x54,0x55,0x55,
 0x55,0x55,0x55,0x55,0x55,0x55,0x55,0x55,0x55,0x55,0x55,0x55,0x55,0x55,0x55,
 0x55,0x55,0x55,0x55,0x55,0x55,0x55,0x55,0x15,0x00,0x00,0x00,0x00,0x00,0x00,
 0x00,0x00,0x00,0x00,0x00,0x00,0x00,0x00,0x00,0x00,0x00,0x00,0x00,0x00,0x00,
 0x00,0x00,0x00,0x00,0x00,0x0c,0x55,0x55,0x55,0x55,0x55,0x55,0x55,0x55,0x55,
 0x55,0x55,0x55,0x55,0x55,0x55,0x55,0x55,0x55,0x55,0x55,0x55,0x55,0x55,0x55,
 0x55,0x55,0x15,0x00,0x00,0x00,0x00,0x00,0x00,0x00,0x00,0x00,0x00,0x00,0x00,
 0x00,0x00,0x00,0x00,0x00,0x00,0x00,0x00,0x00,0x00,0x00,0x00,0x00,0x00,0x18,
 0x54,0x55,0x55,0x55,0x55,0x55,0x55,0x55,0x55,0x55,0x55,0x55,0x55,0x55,0x55,
 0x55,0x55,0x55,0x55,0x55,0x55,0x55,0x55,0x55,0x55,0x55,0x15,0x20,0x00,0x20,
 0x80,0x3f,0x00,0x20,0x00,0x20,0x00,0x20,0xc0,0x27,0x00,0x20,0x0e,0x20,0x00,
 0x20,0x00,0x20,0x00,0x20,0x00,0x20,0x00,0x0c,0x55,0x55,0x55,0xd5,0x7f,0x55,
 0x55,0x55,0x55,0x55,0x55,0xd5,0x57,0x55,0x55,0x5f,0x55,0x55,0x55,0x55,0x55,
 0x55,0x55,0x55,0x55,0x55,0x15,0x00,0xff,0x03,0x00,0x3c,0x00,0xc0,0x03,0x00,
 0x00,0x80,0x1f,0x07,0x00,0x00,0x00,0x00,0x00,0xc0,0x7f,0x00,0xe0,0x00,0x00,
 0x00,0x00,0x18,0x54,0x5d,0x57,0x55,0x7d,0x55,0xd5,0x57,0x55,0x55,0xf5,0x7d,
 0x57,0x55,0x55,0x55,0x55,0x55,0xd5,0x57,0x55,0xf5,0x55,0x55,0x55,0x55,0x15,
 0x00,0x1c,0x07,0x00,0x3c,0x00,0xc0,0x03,0x00,0x00,0xe0,0x38,0x07,0x00,0x00,
 0x00,0x00,0x00,0x80,0x43,0x00,0xe0,0x00,0x00,0x00,0x00,0x0c,0x55,0x5d,0xd7,
 0x5f,0x7d,0xf5,0xf7,0x7f,0x7f,0x55,0xf5,0x7d,0xf7,0xf5,0xd7,0xdf,0xff,0x55,
 0xd5,0xd7,0xf7,0xfd,0xdf,0xfd,0xff,0x5f,0x15,0x00,0x1c,0xe7,0x38,0x3c,0x1c,
 0xc7,0x03,0xc7,0x01,0xe0,0x00,0xdf,0x01,0x0e,0x0e,0xdf,0x03,0x80,0x3f,0x9e,
 0xe3,0x00,0x4f,0x8e,0x03,0x18,0x54,0x5d,0xf7,0x7d,0x7d,0x5d,0xd7,0x57,0xd7,
 0x55,0xf5,0x55,0xdf,0x55,0x5f,0x5f,0xdf,0x57,0xd5,0x7f,0xdf,0xf7,0x55,0x5f,
 0xdf,0x57,0x15,0x20,0x3c,0xe7,0x3f,0x3c,0xfc,0xe7,0x23,0xff,0x21,0xe0,0x20,
 0xe7,0xf1,0x2f,0x2e,0xe7,0x23,0xa0,0x33,0xae,0xe3,0x20,0x27,0xae,0x21,0x0c,
 0x54,0x5d,0xf7,0x55,0x7d,0x5d,0xd5,0x57,0x57,0x55,0xf5,0x7d,0xd7,0x7d,0x5f,
 0x5f,0xd7,0x57,0xd5,0x57,0xdf,0xf7,0x55,0x57,0xfd,0x55,0x15,0x00,0x1c,0xe7,
 0x00,0x3c,0x1c,0xc0,0x03,0x07,0x00,0xe0,0x38,0xc7,0x39,0x0e,0x0e,0xc7,0x03,
 0x80,0x03,0x8e,0xe3,0x00,0x07,0xfc,0x01,0x18,0x54,0x5d,0xf7,0x7d,0x7d,0x5d,
 0xd7,0x77,0xd7,0x55,0xf5,0x7d,0xd7,0x7d,0x5f,0x5f,0xd7,0x57,0xd5,0x57,0xdf,
 0xf7,0x5d,0x57,0x7d,0x55,0x15,0x00,0x1c,0xe7,0x38,0x3c,0x1c,0xc7,0x23,0xc7,
 0x01,0xe0,0x38,0xc7,0x39,0x0e,0x0e,0xc7,0x03,0x80,0x43,0x8e,0xe3,0x18,0x07,
 0x7c,0x00,0x0c,0x55,0xff,0xd7,0xdf,0xff,0xf5,0x57,0x5f,0x7f,0x55,0xd5,0xdf,
 0xf7,0xf5,0xff,0xff,0xdf,0x57,0xd5,0xff,0xdf,0xd7,0xd7,0x7f,0x75,0x55,0x15,
 0x00,0x00,0x00,0x00,0x00,0x00,0x00,0x00,0x00,0x00,0x00,0x00,0x00,0x00,0x00,
 0x00,0x00,0x00,0x00,0x00,0x00,0x00,0x00,0x00,0x3c,0x00,0x18,0x54,0x55,0x55,
 0x55,0x55,0x55,0x55,0x55,0x55,0x55,0x55,0x55,0x55,0x55,0x55,0x55,0x55,0x55,
 0x55,0x55,0x55,0x55,0x55,0x55,0x7d,0x55,0x15,0x20,0x00,0x20,0x00,0x20,0x00,
 0x20,0x00,0x20,0x00,0x20,0x00,0x20,0x00,0x20,0x00,0x20,0x00,0x20,0x00,0x20,
 0x00,0x20,0x00,0x3c,0x00,0x0c,0x55,0x55,0x55,0x55,0x55,0x55,0x55,0x55,0x55,
 0x55,0x55,0x55,0x55,0x55,0x55,0x55,0x55,0x55,0x55,0x55,0x55,0x55,0x55,0x55,
 0x7f,0x55,0x15,0x00,0x00,0x00,0x00,0x00,0x00,0x00,0x00,0x00,0x00,0x00,0x00,
 0x00,0x00,0x00,0x00,0x00,0x00,0x00,0x00,0x00,0x00,0x00,0x00,0x7e,0x00,0x18,
 0x54,0xff,0x5f,0x55,0x55,0x55,0x55,0x55,0x55,0x55,0x55,0x55,0x55,0x55,0x55,
 0x55,0x55,0x55,0x55,0x55,0x55,0x55,0x55,0x55,0x55,0x55,0x15,0x00,0x00,0x00,
 0x00,0x00,0x00,0x00,0x00,0x00,0x00,0x00,0x00,0x00,0x00,0x00,0x00,0x00,0x00,
 0x00,0x00,0x00,0x00,0x00,0x00,0x00,0x00,0x0c,0x55,0x55,0x55,0x55,0x55,0x55,
 0x55,0x55,0x55,0x55,0x55,0x55,0x55,0x55,0x55,0x55,0x55,0x55,0x55,0x55,0x55,
 0x55,0x55,0x55,0x55,0x55,0x15,0x00,0x00,0x00,0x00,0x00,0x00,0x00,0x00,0x00,
 0x00,0x00,0x00,0x00,0x00,0x00,0x00,0x00,0x00,0x00,0x00,0x00,0x00,0x00,0x00,
 0x00,0x00,0x18,0x54,0x55,0x55,0x55,0x55,0x55,0x55,0x55,0x55,0x55,0x55,0x55,
 0x55,0x55,0x55,0x55,0x55,0x55,0x55,0x55,0x55,0x55,0x55,0x55,0x55,0x55,0x15,
 0x20,0x20,0x20,0x20,0x20,0x20,0x20,0x20,0x20,0x20,0x20,0x20,0x20,0x20,0x20,
 0x20,0x20,0x20,0x20,0x20,0x20,0x20,0x20,0x20,0x20,0x20,0x0c,0x54,0x55,0x55,
 0x55,0x55,0x55,0x55,0x55,0x55,0x55,0x55,0x55,0x55,0x55,0x55,0x55,0x55,0x55,
 0x55,0x55,0x55,0x55,0x55,0x55,0x55,0x55,0x15,0xba,0xba,0xba,0xba,0xba,0xba,
 0xba,0xba,0xba,0xba,0xba,0xba,0xba,0xba,0xba,0xba,0xba,0xba,0xba,0xba,0xba,
 0xba,0xba,0xba,0xba,0xba,0x1a,0x54,0x55,0x55,0x55,0x55,0x55,0x55,0x55,0x55,
 0x55,0x55,0x55,0x55,0x55,0x55,0x55,0x55,0x55,0x55,0x55,0x55,0x55,0x55,0x55,
 0x55,0x55,0x15};
