#define noname_width 43
#define noname_height 10
static char noname_bits[] = {
 0x01,0x01,0x01,0x01,0x01,0x05,0x00,0x00,0x00,0x00,0x00,0x02,0x55,0x55,0x55,
 0x55,0x55,0x05,0x00,0x00,0x00,0x00,0x00,0x06,0x55,0x55,0x55,0x55,0x55,0x05,
 0x00,0x07,0x18,0x00,0x00,0x02,0x55,0x57,0x5f,0x55,0x55,0x05,0x00,0x06,0x18,
 0x02,0x00,0x06,0xfd,0x77,0x5d,0x55,0x55,0x05,0xe6,0xee,0x18,0x00,0x00,0x02};
