#define noname_width 259
#define noname_height 99
static char noname_bits[] = {
 0x40,0x40,0x40,0x40,0x40,0x40,0x40,0x40,0x40,0x40,0x40,0x40,0x40,0x40,0x40,
 0x40,0x40,0x40,0x40,0x40,0x40,0x40,0x40,0x40,0x40,0x40,0x40,0x40,0x40,0x40,
 0x40,0x40,0x04,0x00,0x00,0x00,0x00,0x00,0x00,0x00,0x00,0x00,0x00,0x00,0x00,
 0x00,0x00,0x00,0x00,0x00,0x00,0x00,0x00,0x00,0x00,0x00,0x00,0x00,0x00,0x00,
 0x00,0x00,0x00,0x00,0x00,0x02,0x55,0x55,0x55,0x55,0x55,0x55,0x55,0x55,0x55,
 0x55,0x55,0x55,0x55,0x55,0x55,0x55,0x55,0x55,0x55,0x55,0x55,0x55,0x55,0x55,
 0x55,0x55,0x55,0x55,0x55,0x55,0x55,0x55,0x05,0x00,0x00,0x00,0x00,0x00,0x00,
 0x00,0x00,0x00,0x00,0x00,0x00,0x00,0x00,0x00,0x00,0x00,0x00,0x00,0x00,0x00,
 0x00,0x00,0x00,0x00,0x00,0x00,0x00,0x00,0x00,0x00,0x00,0x03,0x54,0x55,0x55,
 0x55,0x55,0x55,0x55,0x55,0x55,0x55,0x55,0x55,0x55,0x55,0x55,0x55,0x55,0x55,
 0x55,0x55,0x55,0x55,0x55,0x55,0x55,0x55,0x55,0x55,0x55,0x55,0x55,0x55,0x05,
 0x00,0x00,0x00,0x00,0x00,0x00,0x00,0x00,0x00,0x00,0x00,0x00,0x00,0x00,0x00,
 0x00,0x00,0x00,0x00,0x00,0x00,0x00,0x00,0x00,0x00,0x00,0x00,0x00,0x00,0x00,
 0x00,0x00,0x06,0x55,0x55,0x55,0x55,0x55,0x55,0x55,0x55,0x55,0x55,0x55,0x55,
 0x55,0x55,0x55,0x55,0x55,0x55,0x55,0x55,0x55,0x55,0x55,0x55,0x55,0x55,0x55,
 0x55,0x55,0x55,0x55,0x55,0x05,0x80,0x00,0x80,0x00,0x80,0x00,0x80,0x00,0x80,
 0x00,0x80,0x00,0x80,0x00,0x80,0x00,0x80,0x00,0x80,0x80,0x9f,0xfc,0x80,0x00,
 0x80,0x00,0x80,0x00,0x80,0x00,0x80,0x00,0x03,0x54,0xff,0x7d,0x55,0x55,0x55,
 0x55,0x55,0x55,0x55,0x5f,0x5d,0x55,0xff,0x75,0x55,0x55,0x55,0x55,0xf5,0x7d,
 0xd7,0x55,0x55,0xd5,0xff,0xf5,0xf5,0xf7,0xfd,0x55,0x55,0x05,0x00,0xff,0x38,
 0x00,0x00,0x00,0x00,0x00,0x00,0x00,0x1f,0x1c,0x00,0xfe,0x71,0x00,0x00,0x00,
 0x00,0xe0,0x78,0xc7,0x01,0x00,0x80,0xff,0xe0,0xf1,0xf3,0xfd,0x00,0x00,0x02,
 0xd5,0xf7,0x7d,0x55,0x55,0x55,0x55,0x55,0x55,0x55,0x7d,0x57,0xd5,0xd7,0x75,
 0x55,0x55,0x55,0x55,0xf5,0x7d,0xd7,0x55,0x55,0x55,0xd7,0xd7,0xd5,0x55,0xdf,
 0x57,0x55,0x05,0x80,0x03,0xfe,0xc7,0x8f,0xfb,0xf8,0xc1,0x3f,0x00,0x7c,0x07,
 0x80,0x07,0xfc,0x87,0x1f,0xf7,0xf1,0xe3,0x78,0xc7,0x01,0x00,0x00,0xc7,0xe3,
 0xc6,0x4d,0x8e,0x03,0x00,0x03,0xd4,0x57,0xff,0xd7,0xdf,0xff,0xfd,0xd5,0x7f,
 0x55,0x7d,0x57,0xd5,0x57,0xfd,0xd7,0x5f,0xf7,0xf5,0xf7,0x7d,0xd7,0x55,0x55,
 0x55,0xd7,0xf7,0xd7,0x5d,0xdf,0x57,0x55,0x05,0x80,0x1f,0x38,0x70,0x1c,0x9f,
 0x1c,0xf7,0x31,0x00,0xfc,0x04,0x80,0x3f,0x70,0xe0,0x38,0xbe,0x39,0xee,0x78,
 0xc7,0x01,0x00,0x00,0xc7,0xe3,0xc6,0x4d,0x0e,0x00,0x00,0x06,0x55,0xfd,0x7d,
 0x75,0x5d,0x57,0xfd,0xd7,0x5f,0x55,0xdd,0x55,0x55,0xfd,0x75,0xf5,0x7d,0x5f,
 0xfd,0xff,0x7d,0xd7,0x55,0x55,0x55,0xff,0xf5,0xd7,0x5d,0x5f,0x55,0x55,0x05,
 0x80,0xfc,0xb8,0xf0,0x9c,0x87,0xfc,0xc7,0x8f,0x80,0x9c,0x84,0x80,0xf8,0xf1,
 0xe0,0xb8,0x8e,0xf8,0xef,0xf8,0xc7,0x81,0x80,0x80,0xff,0xe0,0xc7,0xcd,0x8e,
 0x80,0x80,0x03,0x54,0xf5,0x7d,0x75,0x5d,0x57,0x5d,0x55,0x7f,0x55,0xdd,0x55,
 0x55,0xd5,0x75,0xf5,0x7d,0x5f,0x7d,0xf5,0x7d,0xd7,0x55,0x55,0x55,0x57,0x7d,
 0xdf,0x7f,0xdf,0x57,0x55,0x05,0x80,0xe3,0x38,0x76,0x1c,0x07,0x1c,0x77,0x38,
 0x00,0x1c,0x04,0x80,0xc7,0x71,0xe4,0x38,0x0e,0x38,0xee,0x78,0xc7,0xc1,0x01,
 0x00,0x07,0x38,0x8e,0x3f,0x8e,0x03,0x00,0x02,0xd5,0xf7,0x7d,0x77,0x5d,0x57,
 0x5d,0x77,0x7d,0x55,0x5d,0x55,0xd5,0xd7,0x75,0xf5,0x7d,0x5f,0x7d,0xff,0x7d,
 0xd7,0xd5,0x55,0x55,0x57,0x7d,0xdf,0x7f,0xdf,0x57,0x55,0x05,0x80,0x3f,0xf0,
 0xc1,0x8f,0x7f,0xf8,0xc1,0x0f,0x00,0x1f,0x1c,0x80,0x7f,0xe0,0x83,0x1f,0x7f,
 0xf0,0x83,0x1f,0xfc,0xc0,0x01,0x80,0x3f,0x3c,0xbe,0x33,0xfc,0x00,0x00,0x03,
 0x54,0x55,0x55,0x55,0x55,0x55,0x55,0x55,0x55,0x55,0x55,0x55,0x55,0x55,0x55,
 0x55,0x55,0x55,0x55,0x55,0x55,0x55,0x55,0x55,0x55,0x55,0x55,0x55,0x55,0x55,
 0x55,0x55,0x05,0x00,0x00,0x00,0x00,0x00,0x00,0x00,0x00,0x00,0x00,0x00,0x00,
 0x00,0x00,0x00,0x00,0x00,0x00,0x00,0x00,0x00,0x00,0x00,0x00,0x00,0x00,0x00,
 0x00,0x00,0x00,0x00,0x00,0x06,0x55,0x55,0x55,0x55,0x55,0x55,0x55,0x55,0x55,
 0x55,0x55,0xfd,0x7f,0x55,0x55,0x55,0x55,0x55,0x55,0x55,0x55,0x55,0x55,0xf5,
 0x7f,0x55,0x55,0x55,0x55,0x55,0xfd,0x5f,0x05,0x80,0x00,0x80,0x00,0x80,0x00,
 0x80,0x00,0x80,0x00,0x80,0xf8,0xbf,0x00,0x80,0x00,0x80,0x00,0x80,0x00,0x80,
 0x00,0x80,0xf0,0xff,0x00,0x80,0x00,0x80,0x00,0xfc,0x1f,0x03,0x54,0x55,0x55,
 0x55,0x55,0x55,0x55,0x55,0x55,0x55,0x55,0x55,0x55,0x55,0x55,0x55,0x55,0x55,
 0x55,0x55,0x55,0x55,0x55,0x55,0x55,0x55,0x55,0x55,0x55,0x55,0x55,0x55,0x05,
 0x00,0x00,0x00,0x00,0x00,0x00,0x00,0x00,0x00,0x00,0x00,0x00,0x00,0x00,0x00,
 0x00,0x00,0x00,0x00,0x00,0x00,0x00,0x00,0x00,0x00,0x00,0x00,0x00,0x00,0x00,
 0x00,0x00,0x02,0x55,0x55,0x55,0x55,0x55,0x55,0x55,0x55,0x55,0x55,0x55,0x55,
 0x55,0x55,0x55,0x55,0x55,0x55,0x55,0x55,0x55,0x55,0x55,0x55,0x55,0x55,0x55,
 0x55,0x55,0x55,0x55,0x55,0x05,0x00,0x00,0x00,0x00,0x00,0x00,0x00,0x00,0x00,
 0x00,0x00,0x00,0x00,0x00,0x00,0x00,0x00,0x00,0x00,0x00,0x00,0x00,0x00,0x00,
 0x00,0x00,0x00,0x00,0x00,0x00,0x00,0x00,0x03,0x54,0x55,0x55,0x55,0x55,0x55,
 0x55,0x55,0x55,0x55,0x55,0x55,0x55,0x55,0x55,0x55,0x55,0x55,0x55,0x55,0x55,
 0x55,0x55,0x55,0x55,0x55,0x55,0x55,0x55,0x55,0x55,0x55,0x05,0xec,0xee,0xee,
 0xee,0xee,0xee,0xee,0xee,0xee,0xee,0xee,0xee,0xee,0xee,0xee,0xee,0xee,0xee,
 0xee,0xee,0xee,0xee,0xee,0xee,0xee,0xee,0xee,0xee,0xee,0xee,0xee,0xee,0x06,
 0x11,0x11,0x11,0x11,0x11,0x11,0x11,0x11,0x11,0x11,0x11,0x11,0x11,0x11,0x11,
 0x11,0x11,0x11,0x11,0x11,0x11,0x11,0x11,0x11,0x11,0x11,0x11,0x11,0x11,0x11,
 0x11,0x11,0x05,0x80,0x80,0x80,0x80,0x80,0x80,0x80,0x80,0x80,0x80,0x80,0x80,
 0x80,0x80,0x80,0x80,0x80,0x80,0x80,0x80,0x80,0x80,0x80,0x80,0x80,0x80,0x80,
 0x80,0x80,0x80,0x80,0x80,0x03,0x54,0x55,0x55,0x55,0x55,0x55,0x55,0x55,0x55,
 0x55,0x55,0x55,0x55,0x55,0x55,0x55,0x55,0x55,0x55,0x55,0x55,0x55,0x55,0x55,
 0x55,0x55,0x55,0x55,0x55,0x55,0x55,0x55,0x05,0x00,0x00,0x00,0x00,0x00,0x00,
 0x00,0x00,0x00,0x00,0x00,0x00,0x00,0x00,0x00,0x00,0x00,0x00,0x00,0x00,0x00,
 0x00,0x00,0x00,0x00,0x00,0x00,0x00,0x00,0x00,0x00,0x00,0x02,0x55,0x55,0x55,
 0x55,0x55,0x55,0x55,0x55,0x55,0x55,0x55,0x55,0x55,0x55,0x55,0x55,0x55,0x55,
 0x55,0x55,0x55,0x55,0x55,0x55,0x55,0x55,0x55,0x55,0x55,0x55,0x55,0x55,0x05,
 0x00,0x00,0x00,0x00,0x00,0x00,0x00,0x00,0x00,0x00,0x00,0x00,0x00,0x00,0x00,
 0x00,0x00,0x00,0x00,0x00,0x00,0x00,0x00,0x00,0x00,0x00,0x00,0x00,0x00,0x00,
 0x00,0x00,0x03,0x54,0x55,0x55,0x55,0x55,0x55,0x55,0x55,0x55,0x55,0x55,0x55,
 0x55,0x55,0x55,0x55,0x55,0x55,0x55,0x55,0x55,0x55,0x55,0x55,0x55,0x55,0x55,
 0x55,0x55,0x55,0x55,0x55,0x05,0x00,0x00,0x00,0x00,0x00,0x00,0x00,0x00,0x00,
 0x00,0x00,0x00,0x00,0x00,0x00,0x00,0x00,0x00,0x00,0x00,0x00,0x00,0x00,0x00,
 0x00,0x00,0x00,0x00,0x00,0x00,0x00,0x00,0x06,0x55,0x55,0x55,0x55,0x55,0x55,
 0x55,0x55,0x55,0x55,0x55,0x55,0x55,0x55,0x55,0x55,0x55,0x55,0x55,0x55,0x55,
 0x55,0x55,0x55,0x55,0x55,0x55,0x55,0x55,0x55,0x55,0x55,0x05,0x80,0x00,0x80,
 0x07,0x80,0x00,0x80,0x00,0x80,0x00,0x80,0x00,0x80,0x00,0x80,0x00,0x80,0x00,
 0x80,0x00,0x80,0x00,0x80,0x00,0x80,0x00,0x80,0x00,0x80,0x00,0x80,0x00,0x03,
 0x54,0x7f,0x55,0x55,0x55,0x7d,0x55,0x55,0x55,0x55,0x55,0x55,0x55,0x55,0x55,
 0x55,0x55,0x55,0x55,0x55,0x55,0x55,0x55,0x55,0x55,0x55,0x55,0x55,0x55,0x55,
 0x55,0x55,0x05,0x00,0x3f,0x00,0x00,0x00,0x78,0x00,0x00,0x00,0x00,0x00,0x00,
 0x00,0x00,0x00,0x00,0x00,0x00,0x00,0x00,0x00,0x00,0x00,0x00,0x00,0x00,0x00,
 0x00,0x00,0x00,0x00,0x00,0x02,0x55,0x5d,0x55,0x55,0x55,0x7d,0x55,0x55,0x55,
 0x55,0x55,0x55,0x55,0x55,0x55,0x55,0x55,0x55,0x55,0x55,0x55,0x55,0x55,0x55,
 0x55,0x55,0x55,0x55,0x55,0x55,0x55,0x55,0x05,0x00,0x1c,0x00,0x00,0x00,0x78,
 0x00,0x00,0x00,0x00,0x00,0x00,0x00,0x00,0x00,0x00,0x00,0x00,0x00,0x00,0x00,
 0x00,0x00,0x00,0x00,0x00,0x00,0x00,0x00,0x00,0x00,0x00,0x03,0x54,0x5d,0xf5,
 0x57,0xff,0xfd,0x57,0x55,0x55,0x55,0x55,0x55,0x55,0x55,0x55,0x55,0x55,0x55,
 0x55,0x55,0x55,0x55,0x55,0x55,0x55,0x55,0x55,0x55,0x55,0x55,0x55,0x55,0x05,
 0x00,0x1c,0x80,0x87,0x8f,0x78,0x00,0x00,0x00,0x00,0x00,0x00,0x00,0x00,0x00,
 0x00,0x00,0x00,0x00,0x00,0x00,0x00,0x00,0x00,0x00,0x00,0x00,0x00,0x00,0x00,
 0x00,0x00,0x06,0x55,0x5d,0xd5,0xd7,0xdf,0x7d,0x55,0x55,0x55,0x55,0x55,0x55,
 0x55,0x55,0x55,0x55,0x55,0x55,0x55,0x55,0x55,0x55,0x55,0x55,0x55,0x55,0x55,
 0x55,0x55,0x55,0x55,0x55,0x05,0x80,0x9c,0x80,0x87,0xfe,0xf8,0x80,0x80,0x80,
 0x80,0x80,0x80,0x80,0x80,0x80,0x80,0x80,0x80,0x80,0x80,0x80,0x80,0x80,0x80,
 0x80,0x80,0x80,0x80,0x80,0x80,0x80,0x80,0x03,0x54,0x5d,0xd5,0x57,0xf5,0x7d,
 0x55,0x55,0x55,0x55,0x55,0x55,0x55,0x55,0x55,0x55,0x55,0x55,0x55,0x55,0x55,
 0x55,0x55,0x55,0x55,0x55,0x55,0x55,0x55,0x55,0x55,0x55,0x05,0x00,0x1c,0x80,
 0x07,0xf0,0x78,0x00,0x00,0x00,0x00,0x00,0x00,0x00,0x00,0x00,0x00,0x00,0x00,
 0x00,0x00,0x00,0x00,0x00,0x00,0x00,0x00,0x00,0x00,0x00,0x00,0x00,0x00,0x02,
 0x55,0x5d,0xd5,0xd7,0xf7,0x7d,0x55,0x55,0x55,0x55,0x55,0x55,0x55,0x55,0x55,
 0x55,0x55,0x55,0x55,0x55,0x55,0x55,0x55,0x55,0x55,0x55,0x55,0x55,0x55,0x55,
 0x55,0x55,0x05,0x00,0xff,0xf1,0x3f,0x7e,0xe0,0x03,0x00,0x00,0x00,0x00,0x00,
 0x00,0x00,0x00,0x00,0x00,0x00,0x00,0x00,0x00,0x00,0x00,0x00,0x00,0x00,0x00,
 0x00,0x00,0x00,0x00,0x00,0x03,0x54,0xff,0xf5,0x7f,0x7f,0xf5,0x57,0x55,0x55,
 0x55,0x55,0x55,0x55,0x55,0x55,0x55,0x55,0x55,0x55,0x55,0x55,0x55,0x55,0x55,
 0x55,0x55,0x55,0x55,0x55,0x55,0x55,0x55,0x05,0x00,0x00,0x00,0x00,0x00,0x00,
 0x00,0x00,0x00,0x00,0x00,0x00,0x00,0x00,0x00,0x00,0x00,0x00,0x00,0x00,0x00,
 0x00,0x00,0x00,0x00,0x00,0x00,0x00,0x00,0x00,0x00,0x00,0x06,0x55,0x55,0x55,
 0x55,0x55,0x55,0x55,0x55,0x55,0x55,0x55,0x55,0x55,0x55,0x55,0x55,0x55,0x55,
 0x55,0x55,0x55,0x55,0x55,0x55,0x55,0x55,0x55,0x55,0x55,0x55,0x55,0x55,0x05,
 0x80,0x00,0x80,0x00,0x80,0x00,0x80,0x00,0x80,0x00,0x80,0x00,0x80,0x00,0x80,
 0x00,0x80,0x00,0x80,0x00,0x80,0x00,0x80,0x00,0x80,0x00,0x80,0x00,0x80,0x00,
 0x80,0x00,0x03,0x54,0x55,0x55,0x55,0x55,0x55,0x55,0x55,0x55,0x55,0x55,0x55,
 0x55,0x55,0x55,0x55,0x55,0x55,0x55,0x55,0x55,0x55,0x55,0x55,0x55,0x55,0x55,
 0x55,0x55,0x55,0x55,0x55,0x05,0x00,0xff,0x0f,0x00,0x00,0x00,0x00,0x00,0x00,
 0x00,0x00,0x00,0x00,0x00,0x00,0x00,0x00,0x00,0x00,0x00,0x00,0x00,0x00,0x00,
 0x00,0x00,0x00,0x00,0x00,0x00,0x00,0x00,0x02,0x55,0xff,0x5f,0x55,0x55,0x55,
 0x55,0x55,0x55,0x55,0x55,0x55,0x55,0x55,0x55,0x55,0x55,0x55,0x55,0x55,0x55,
 0x55,0x55,0x55,0x55,0x55,0x55,0x55,0x55,0x55,0x55,0x55,0x05,0x00,0x00,0x00,
 0x00,0x00,0x00,0x00,0x00,0x00,0x00,0x00,0x00,0x00,0x00,0x00,0x00,0x00,0x00,
 0x00,0x00,0x00,0x00,0x00,0x00,0x00,0x00,0x00,0x00,0x00,0x00,0x00,0x00,0x03,
 0x54,0x55,0x55,0x55,0x55,0x55,0x55,0x55,0x55,0x55,0x55,0x55,0x55,0x55,0x55,
 0x55,0x55,0x55,0x55,0x55,0x55,0x55,0x55,0x55,0x55,0x55,0x55,0x55,0x55,0x55,
 0x55,0x55,0x05,0x00,0x00,0x00,0x00,0x00,0x00,0x00,0x00,0x00,0x00,0x00,0x00,
 0x00,0x00,0x00,0x00,0x00,0x00,0x00,0x00,0x00,0x00,0x00,0x00,0x00,0x00,0x00,
 0x00,0x00,0x00,0x00,0x00,0x06,0x55,0x55,0x55,0x55,0x55,0x55,0x55,0x55,0x55,
 0x55,0x55,0x55,0x55,0x55,0x55,0x55,0x55,0x55,0x55,0x55,0x55,0x55,0x55,0x55,
 0x55,0x55,0x55,0x55,0x55,0x55,0x55,0x55,0x05,0x80,0x80,0x80,0x80,0x80,0x80,
 0x80,0x80,0x80,0x80,0x80,0x80,0x80,0x80,0x80,0x80,0x80,0x80,0x80,0x80,0x80,
 0x80,0x80,0x80,0x80,0x80,0x80,0x80,0x80,0x80,0x80,0x80,0x03,0x54,0x55,0x55,
 0x55,0x55,0x55,0x55,0x55,0x55,0x55,0x55,0x55,0x55,0x55,0x55,0x55,0x55,0x55,
 0x55,0x55,0x55,0x55,0x55,0x55,0x55,0x55,0x55,0x55,0x55,0x55,0x55,0x55,0x05,
 0x00,0x00,0x00,0x00,0x00,0x00,0x00,0x00,0x00,0x00,0x00,0x00,0x00,0x00,0x00,
 0x00,0x00,0x00,0x00,0x00,0x00,0x00,0x00,0x00,0x00,0x00,0x00,0x00,0x00,0x00,
 0x00,0x00,0x02,0x55,0x55,0x55,0x55,0x55,0x55,0x55,0x55,0x55,0x55,0x55,0x55,
 0x55,0x55,0x55,0x55,0x55,0x55,0x55,0x55,0x55,0x55,0x55,0x55,0x55,0x55,0x55,
 0x55,0x55,0x55,0x55,0x55,0x05,0x00,0x00,0x00,0x00,0x00,0x00,0x00,0x00,0x00,
 0x00,0x00,0x00,0x00,0x00,0x00,0x00,0x00,0x00,0x00,0x00,0x00,0x00,0x00,0x00,
 0x00,0x00,0x00,0x00,0x00,0x00,0x00,0x00,0x03,0x54,0x55,0x55,0x55,0x55,0x55,
 0x55,0x55,0x55,0x55,0x55,0x55,0x55,0x55,0x55,0x55,0x55,0x55,0x55,0x55,0x55,
 0x55,0x55,0x55,0x55,0x55,0x55,0x55,0x55,0x55,0x55,0x55,0x05,0x00,0x00,0x00,
 0x00,0x00,0x00,0x00,0x00,0x00,0x00,0x00,0x00,0x00,0x00,0x00,0x00,0x00,0x00,
 0x00,0x00,0x00,0x00,0x00,0x00,0x00,0x00,0x00,0x00,0x00,0x00,0x00,0x00,0x06,
 0x55,0x55,0x55,0x55,0x55,0x55,0x55,0x55,0x55,0x55,0x55,0x55,0x55,0x55,0x55,
 0x55,0x55,0x55,0x55,0x55,0x55,0x55,0x55,0x55,0x55,0x55,0x55,0x55,0x55,0x55,
 0x55,0x55,0x05,0x80,0x00,0xf8,0x00,0x80,0x00,0x80,0x00,0x80,0x00,0x80,0x00,
 0x80,0x00,0x80,0x00,0x80,0x00,0x80,0x00,0x80,0x00,0x80,0x00,0x80,0x00,0x80,
 0x00,0x80,0x00,0x80,0x00,0x03,0x54,0x55,0x7d,0x55,0x55,0x55,0x55,0x55,0x55,
 0x55,0x55,0x55,0x55,0x55,0x55,0x55,0x55,0x55,0x55,0x55,0x55,0x55,0x55,0x55,
 0x55,0x55,0x55,0x55,0x55,0x55,0x55,0x55,0x05,0x00,0xf8,0x77,0x00,0x00,0x00,
 0x00,0x00,0x00,0x70,0x00,0x00,0x00,0x00,0x00,0x80,0xff,0xf8,0x8f,0x7f,0xff,
 0xe3,0xf7,0x3f,0x00,0x00,0x00,0x00,0x00,0x00,0x00,0x00,0x02,0x55,0x5d,0x77,
 0x55,0x55,0x55,0x55,0x55,0x55,0x75,0x55,0x55,0x55,0x55,0x55,0x55,0xd7,0x7d,
 0xdf,0x75,0x7f,0x7f,0xdf,0x75,0x55,0x55,0x55,0x55,0x55,0x55,0x55,0x55,0x05,
 0x00,0x1c,0x77,0x00,0x00,0x00,0x00,0x00,0x00,0x70,0x00,0x00,0x00,0x00,0x00,
 0x00,0xc7,0x39,0xce,0x71,0x7b,0x3b,0xce,0x71,0x00,0x00,0x00,0x00,0x00,0x00,
 0x00,0x00,0x03,0x54,0x5d,0x75,0x5f,0x7f,0x7f,0x5f,0x55,0xff,0xfd,0xd7,0x5f,
 0xf7,0xf5,0x57,0x55,0xd7,0xdd,0xdf,0x55,0x7d,0x7d,0xdf,0x75,0x55,0x55,0x55,
 0x55,0x55,0x55,0x55,0x55,0x05,0x00,0xfc,0xf0,0xb9,0xe3,0x1c,0x04,0x80,0x8f,
 0x71,0xe0,0x38,0xbe,0x39,0x0e,0x00,0xc7,0xc1,0xc7,0x0f,0x78,0x38,0xce,0x3f,
 0x00,0x00,0x00,0x00,0x00,0x00,0x00,0x00,0x06,0x55,0xfd,0xf5,0xfd,0xf7,0x5d,
 0x55,0xd5,0xdf,0x75,0xf5,0x7d,0xff,0x7d,0x5f,0x55,0xd7,0xd5,0xd7,0x5f,0x7d,
 0x7d,0xdf,0x7f,0x55,0x55,0x55,0x55,0x55,0x55,0x55,0x55,0x05,0x80,0xe0,0xf7,
 0xb8,0xe3,0x9c,0x84,0x80,0xfe,0xf0,0xe0,0xb8,0x8e,0xf8,0x8f,0x80,0xc7,0xf1,
 0x81,0xfe,0xf8,0xb8,0xce,0xb9,0x80,0x80,0x80,0x80,0x80,0x80,0x80,0x80,0x03,
 0x54,0x55,0x77,0xfd,0xf7,0xfd,0x55,0x55,0xf5,0x75,0xf5,0x7d,0x5f,0x7d,0x55,
 0x55,0xd7,0x7d,0x5d,0x75,0x7d,0x7d,0xdf,0x75,0x55,0x55,0x55,0x55,0x55,0x55,
 0x55,0x55,0x05,0x00,0x00,0x77,0xb8,0xe3,0xfc,0x04,0x00,0xf0,0x71,0xe0,0x38,
 0x0e,0x38,0x00,0x00,0xc7,0x79,0x08,0x70,0x78,0x38,0xce,0x71,0x00,0x00,0x00,
 0x00,0x00,0x00,0x00,0x00,0x02,0x55,0x5d,0x77,0xfd,0xf7,0xfd,0x57,0xd5,0xd7,
 0x75,0xf5,0x7d,0x5f,0x7d,0x5f,0x55,0xd7,0x7d,0xdf,0x75,0x7d,0x7d,0xdf,0x75,
 0x55,0x55,0x55,0x55,0x55,0x55,0x55,0x55,0x05,0x00,0x1c,0x77,0xb8,0xe3,0xf8,
 0x03,0x80,0xc7,0x71,0xe4,0x38,0x0e,0x38,0x0e,0x00,0xc7,0x39,0xce,0x71,0x78,
 0x38,0xce,0x71,0x00,0x00,0x00,0x00,0x00,0x00,0x00,0x00,0x03,0x54,0xfd,0x7d,
 0x7f,0x7f,0x7d,0x57,0x55,0x7f,0xf5,0xd7,0x5f,0x7f,0xf5,0x57,0xd5,0xff,0xfd,
 0xdf,0x5f,0xfd,0xf5,0xf7,0xf7,0x55,0x55,0x55,0x55,0x55,0x55,0x55,0x55,0x05,
 0x00,0x00,0x00,0x00,0x00,0x00,0x00,0x00,0x00,0x00,0x00,0x00,0x00,0x00,0x00,
 0x00,0x00,0x00,0x00,0x00,0x00,0x00,0x00,0x00,0x00,0x00,0x00,0x00,0x00,0x00,
 0x00,0x00,0x06,0x55,0x55,0x55,0x55,0x55,0x55,0x55,0x55,0x55,0x55,0x55,0x55,
 0x55,0x55,0x55,0x55,0x55,0x55,0x55,0x55,0x55,0x55,0x55,0x55,0x55,0x55,0x55,
 0x55,0x55,0x55,0x55,0x55,0x05,0x80,0x00,0x80,0x00,0x80,0x00,0x80,0x00,0x80,
 0x00,0x80,0x00,0x80,0x00,0x80,0x00,0x80,0x00,0x80,0x00,0x80,0x00,0x80,0x00,
 0x80,0x00,0x80,0x00,0x80,0x00,0x80,0x00,0x03,0x54,0x55,0x55,0x55,0x55,0x55,
 0x55,0x55,0x55,0x55,0x55,0x55,0x55,0x55,0x55,0x55,0x55,0x55,0x55,0x55,0x55,
 0x55,0x55,0x55,0x55,0x55,0x55,0x55,0x55,0x55,0x55,0x55,0x05,0x00,0x00,0x00,
 0x00,0x00,0x00,0x00,0x00,0x00,0x00,0x00,0x00,0x00,0x00,0x00,0x00,0x00,0x00,
 0x00,0x00,0x00,0x00,0x00,0x00,0x00,0x00,0x00,0x00,0x00,0x00,0x00,0x00,0x02,
 0x55,0xff,0x5f,0x55,0x55,0x55,0x55,0x55,0x55,0x55,0x55,0x55,0x55,0x55,0x55,
 0x55,0x55,0x55,0x55,0x55,0x55,0x55,0x55,0x55,0x55,0x55,0x55,0x55,0x55,0x55,
 0x55,0x55,0x05,0x00,0x00,0x00,0x00,0x00,0x00,0x00,0x00,0x00,0x00,0x00,0x00,
 0x00,0x00,0x00,0x00,0x00,0x00,0x00,0x00,0x00,0x00,0x00,0x00,0x00,0x00,0x00,
 0x00,0x00,0x00,0x00,0x00,0x03,0x54,0x55,0x55,0x55,0x55,0x55,0x55,0x55,0x55,
 0x55,0x55,0x55,0x55,0x55,0x55,0x55,0x55,0x55,0x55,0x55,0x55,0x55,0x55,0x55,
 0x55,0x55,0x55,0x55,0x55,0x55,0x55,0x55,0x05,0x00,0x00,0x00,0x00,0x00,0x00,
 0x00,0x00,0x00,0x00,0x00,0x00,0x00,0x00,0x00,0x00,0x00,0x00,0x00,0x00,0x00,
 0x00,0x00,0x00,0x00,0x00,0x00,0x00,0x00,0x00,0x00,0x00,0x06,0x55,0x55,0x55,
 0x55,0x55,0x55,0x55,0x55,0x55,0x55,0x55,0x55,0x55,0x55,0x55,0x55,0x55,0x55,
 0x55,0x55,0x55,0x55,0x55,0x55,0x55,0x55,0x55,0x55,0x55,0x55,0x55,0x55,0x05,
 0x80,0x80,0x80,0x80,0x80,0x80,0x80,0x80,0x80,0x80,0x80,0x80,0x80,0x80,0x80,
 0x80,0x80,0x80,0x80,0x80,0x80,0x80,0x80,0x80,0x80,0x80,0x80,0x80,0x80,0x80,
 0x80,0x80,0x03,0x54,0x55,0x55,0x55,0x55,0x55,0x55,0x55,0x55,0x55,0x55,0x55,
 0x55,0x55,0x55,0x55,0x55,0x55,0x55,0x55,0x55,0x55,0x55,0x55,0x55,0x55,0x55,
 0x55,0x55,0x55,0x55,0x55,0x05,0xea,0xea,0xea,0xea,0xea,0xea,0xea,0xea,0xea,
 0xea,0xea,0xea,0xea,0xea,0xea,0xea,0xea,0xea,0xea,0xea,0xea,0xea,0xea,0xea,
 0xea,0xea,0xea,0xea,0xea,0xea,0xea,0xea,0x02,0x55,0x55,0x55,0x55,0x55,0x55,
 0x55,0x55,0x55,0x55,0x55,0x55,0x55,0x55,0x55,0x55,0x55,0x55,0x55,0x55,0x55,
 0x55,0x55,0x55,0x55,0x55,0x55,0x55,0x55,0x55,0x55,0x55,0x05};
