#define noname_width 125
#define noname_height 99
static char noname_bits[] = {
 0x11,0x11,0x11,0x11,0x11,0x11,0x11,0x11,0x11,0x11,0x11,0x11,0x11,0x11,0x11,
 0x11,0x00,0x00,0x00,0x00,0x00,0x00,0x00,0x00,0x00,0x00,0x00,0x00,0x00,0x00,
 0x00,0x00,0x44,0x44,0x44,0x44,0x44,0x44,0x44,0x44,0x44,0x44,0x44,0x44,0x44,
 0x44,0x44,0x04,0x00,0x00,0x00,0x00,0x00,0x00,0x00,0x00,0x00,0x00,0x00,0x00,
 0x00,0x00,0x00,0x00,0x11,0x11,0x11,0x11,0x11,0x11,0x11,0x11,0x11,0x11,0x11,
 0x11,0x11,0x11,0x11,0x11,0x00,0x00,0x00,0x00,0x00,0x00,0x00,0x00,0x00,0x00,
 0x00,0x00,0x00,0x00,0x00,0x00,0x44,0x44,0x44,0x44,0x44,0x44,0x44,0x44,0x44,
 0x44,0x44,0x44,0x44,0x44,0x44,0x04,0x80,0xee,0xee,0xee,0xee,0xee,0xee,0xee,
 0xee,0xee,0xee,0xee,0xee,0xee,0x2e,0x00,0x11,0x55,0x55,0x55,0x55,0x55,0x55,
 0x55,0x55,0x55,0x55,0x55,0x55,0x55,0x15,0x11,0x80,0xba,0xba,0xba,0xba,0xba,
 0xba,0xba,0xba,0xba,0xba,0xba,0xba,0xba,0x3a,0x00,0x44,0x55,0x55,0x55,0x55,
 0x55,0x55,0x55,0x55,0x55,0x55,0x55,0x55,0x55,0x55,0x04,0x80,0x06,0x00,0x00,
 0x00,0x00,0x00,0x00,0x00,0x00,0x00,0x00,0x00,0x00,0x28,0x00,0x11,0x05,0x00,
 0x00,0x00,0x00,0x00,0x00,0x00,0x00,0x00,0x00,0x00,0x00,0x10,0x11,0x80,0x03,
 0x00,0x00,0x00,0x00,0x00,0x00,0x00,0x00,0x00,0x00,0x00,0x00,0x28,0x00,0x44,
 0x05,0x00,0x00,0x00,0x00,0x00,0x00,0x00,0x00,0x00,0x00,0x00,0x00,0x50,0x04,
 0x80,0x06,0x00,0x00,0x00,0x00,0x00,0x00,0x00,0x00,0x00,0x00,0x00,0x80,0x2e,
 0x00,0x11,0x05,0x00,0x00,0x00,0x00,0x00,0x00,0x00,0x00,0x00,0x00,0x00,0x00,
 0x15,0x11,0x80,0x02,0x00,0x00,0x00,0x00,0x00,0x00,0x00,0x00,0x00,0x00,0x00,
 0x80,0x3a,0x00,0x44,0x05,0x14,0x14,0x14,0x04,0x05,0x05,0x45,0x41,0x41,0x41,
 0x50,0x50,0x55,0x04,0x80,0x06,0x2c,0x2c,0x0e,0x0e,0x0e,0x86,0xc6,0xc2,0xe0,
 0xe0,0xe0,0xe8,0x2e,0x00,0x11,0x05,0x14,0x14,0x14,0x04,0x05,0x05,0x45,0x41,
 0x41,0x41,0x50,0x50,0x15,0x11,0x80,0x03,0x38,0x28,0x1a,0x0a,0x0b,0x83,0x83,
 0x83,0xa1,0xa1,0xb0,0xa8,0x3b,0x00,0x44,0x05,0x40,0x41,0x41,0x51,0x50,0x50,
 0x10,0x14,0x14,0x14,0x05,0x05,0x55,0x04,0x80,0x06,0xc0,0xc2,0xe0,0xe0,0xe0,
 0x68,0x28,0x2c,0x0e,0x0e,0x0e,0x86,0x2e,0x00,0x11,0x05,0x40,0x41,0x41,0x51,
 0x50,0x50,0x10,0x14,0x14,0x14,0x05,0x05,0x15,0x11,0x80,0x02,0x80,0x82,0xa0,
 0xb0,0xb0,0x38,0x38,0x38,0x1a,0x1a,0x0a,0x82,0x3a,0x00,0x44,0x05,0x14,0x14,
 0x14,0x04,0x05,0x05,0x45,0x41,0x41,0x41,0x50,0x50,0x55,0x04,0x80,0x06,0x2c,
 0x2c,0x0e,0x0e,0x0e,0x86,0xc6,0xc2,0xe0,0xe0,0xe0,0xe8,0x2e,0x00,0x11,0x05,
 0x14,0x14,0x14,0x04,0x05,0x05,0x45,0x41,0x41,0x41,0x50,0x50,0x15,0x11,0x80,
 0x03,0x28,0x38,0x0a,0x0a,0x0b,0x83,0x83,0x83,0xa1,0xa1,0xa0,0xb8,0x2b,0x00,
 0x44,0x05,0x00,0x00,0x00,0x50,0x50,0x50,0x10,0x14,0x14,0x00,0x00,0x00,0x55,
 0x04,0x80,0x06,0x00,0x00,0x00,0xe0,0xe0,0x68,0x28,0x2c,0x0e,0x00,0x00,0x80,
 0x2e,0x00,0x11,0x05,0x00,0x00,0x00,0x50,0x50,0x50,0x10,0x14,0x14,0x00,0x00,
 0x00,0x15,0x11,0x80,0x02,0x00,0x00,0x00,0x00,0x0a,0x82,0x82,0x82,0x00,0x00,
 0x00,0x80,0x3a,0x00,0x44,0x05,0x00,0x00,0x00,0x00,0x05,0x05,0x45,0x41,0x01,
 0x00,0x00,0x00,0x55,0x04,0x80,0x06,0x00,0x00,0x00,0x00,0x0e,0x86,0xc6,0xc2,
 0x00,0x00,0x00,0x80,0x2e,0x00,0x11,0x05,0x00,0x00,0x00,0x00,0x05,0x05,0x45,
 0x41,0x01,0x00,0x00,0x00,0x15,0x11,0x80,0x03,0x80,0x83,0xa1,0x01,0x00,0x00,
 0x00,0x00,0x00,0x0a,0x0b,0x83,0x3b,0x00,0x44,0x05,0x40,0x41,0x41,0x01,0x00,
 0x00,0x00,0x00,0x00,0x14,0x05,0x05,0x55,0x04,0x80,0x06,0xc0,0xc2,0xe0,0x00,
 0x00,0x00,0x00,0x00,0x00,0x0e,0x0e,0x86,0x2e,0x00,0x11,0x05,0x40,0x41,0x41,
 0x01,0x00,0x00,0x00,0x00,0x00,0x14,0x05,0x05,0x15,0x11,0x80,0x02,0x38,0x38,
 0x1a,0x0a,0x00,0x00,0x00,0x00,0xa0,0xa0,0xb0,0xb8,0x3a,0x00,0x44,0x05,0x14,
 0x14,0x14,0x04,0x00,0x00,0x00,0x00,0x40,0x41,0x50,0x50,0x55,0x04,0x80,0x06,
 0x2c,0x2c,0x0e,0x0e,0x00,0x00,0x00,0x00,0xe0,0xe0,0xe0,0xe8,0x2e,0x00,0x11,
 0x05,0x40,0x41,0x41,0x51,0x50,0x50,0x10,0x14,0x14,0x14,0x05,0x05,0x15,0x11,
 0x80,0x03,0x80,0x83,0xa1,0xb1,0xa0,0x38,0x28,0x38,0x0a,0x1a,0x0b,0x83,0x2b,
 0x00,0x44,0x05,0x40,0x41,0x41,0x51,0x50,0x50,0x10,0x14,0x14,0x14,0x05,0x05,
 0x55,0x04,0x80,0x06,0xc0,0xc2,0xe0,0xe0,0xe0,0x68,0x28,0x2c,0x0e,0x0e,0x0e,
 0x86,0x2e,0x00,0x11,0x05,0x14,0x14,0x14,0x04,0x05,0x05,0x45,0x41,0x41,0x41,
 0x50,0x50,0x15,0x11,0x80,0x02,0x38,0x38,0x1a,0x0a,0x0a,0x82,0x82,0x82,0xa0,
 0xa0,0xb0,0xb8,0x3a,0x00,0x44,0x05,0x14,0x14,0x14,0x04,0x05,0x05,0x45,0x41,
 0x41,0x41,0x50,0x50,0x55,0x04,0x80,0x06,0x2c,0x2c,0x0e,0x0e,0x0e,0x86,0xc6,
 0xc2,0xe0,0xe0,0xe0,0xe8,0x2e,0x00,0x11,0x05,0x40,0x41,0x55,0x55,0x55,0x50,
 0x50,0x55,0x55,0x55,0x00,0x05,0x15,0x11,0x80,0x03,0x80,0x83,0xbb,0xab,0xbb,
 0x28,0xb8,0xab,0xbb,0xab,0x00,0x83,0x3b,0x00,0x44,0x05,0x40,0x41,0x55,0x55,
 0x55,0x50,0x50,0x55,0x55,0x55,0x00,0x05,0x55,0x04,0x80,0x06,0x2c,0xec,0xee,
 0xee,0xee,0x00,0xe8,0xee,0xee,0xee,0xe0,0xe8,0x2e,0x00,0x11,0x05,0x14,0x54,
 0x55,0x55,0x55,0x00,0x50,0x55,0x55,0x55,0x50,0x50,0x15,0x11,0x80,0x02,0x38,
 0xb8,0xba,0xba,0xba,0x00,0xb8,0xba,0xba,0xba,0xb0,0xb8,0x3a,0x00,0x44,0x05,
 0x14,0x54,0x55,0x55,0x55,0x00,0x50,0x55,0x55,0x55,0x50,0x50,0x55,0x04,0x80,
 0x06,0xc0,0xc2,0x0e,0xe0,0xee,0x68,0x28,0x2c,0xee,0x0e,0x0e,0x86,0x2e,0x00,
 0x11,0x05,0x40,0x41,0x15,0x50,0x55,0x50,0x10,0x14,0x54,0x15,0x05,0x05,0x15,
 0x11,0x80,0x03,0x80,0x83,0x0b,0xb0,0xab,0x38,0x28,0x38,0xaa,0x1b,0x0b,0x83,
 0x2b,0x00,0x44,0x05,0x40,0x41,0x15,0x50,0x55,0x50,0x10,0x14,0x54,0x15,0x05,
 0x05,0x55,0x04,0x80,0x06,0x2c,0xec,0x0e,0xee,0x0e,0x86,0xc6,0xc2,0xee,0xe0,
 0xe0,0xe8,0x2e,0x00,0x11,0x05,0x14,0x54,0x15,0x54,0x05,0x05,0x45,0x41,0x55,
 0x41,0x50,0x50,0x15,0x11,0x80,0x02,0x38,0xb8,0x1a,0xba,0x0a,0x82,0x82,0x82,
 0xba,0xa0,0xb0,0xb8,0x3a,0x00,0x44,0x05,0x14,0x54,0x15,0x54,0x05,0x05,0x45,
 0x41,0x55,0x41,0x50,0x50,0x55,0x04,0x80,0x06,0xc0,0xc2,0xee,0xee,0xe0,0x68,
 0x28,0xec,0x0e,0x0e,0x0e,0x86,0x2e,0x00,0x11,0x05,0x40,0x41,0x55,0x55,0x50,
 0x50,0x10,0x54,0x15,0x14,0x05,0x05,0x15,0x11,0x80,0x03,0x80,0x83,0xbb,0xab,
 0xb0,0x28,0x38,0xa8,0x1b,0x0a,0x0b,0x83,0x3b,0x00,0x44,0x05,0x14,0x54,0x15,
 0x54,0x05,0x05,0x45,0x55,0x41,0x41,0x50,0x50,0x55,0x04,0x80,0x06,0x2c,0xec,
 0x0e,0xee,0x0e,0x86,0xc6,0xee,0xe0,0xe0,0xe0,0xe8,0x2e,0x00,0x11,0x05,0x14,
 0x54,0x15,0x54,0x05,0x05,0x45,0x55,0x41,0x41,0x50,0x50,0x15,0x11,0x80,0x02,
 0x38,0xb8,0x1a,0xba,0x0a,0x82,0x82,0xba,0xa0,0xa0,0xb0,0xb8,0x3a,0x00,0x44,
 0x05,0x40,0x41,0x15,0x50,0x55,0x50,0x50,0x55,0x55,0x55,0x00,0x05,0x55,0x04,
 0x80,0x06,0xc0,0xc2,0x0e,0xe0,0xee,0x68,0xe8,0xee,0xee,0xee,0x00,0x86,0x2e,
 0x00,0x11,0x05,0x40,0x41,0x15,0x50,0x55,0x50,0x50,0x55,0x55,0x55,0x00,0x05,
 0x15,0x11,0x80,0x03,0x80,0x83,0x0b,0xb0,0xab,0x38,0xa8,0xbb,0xab,0xbb,0x00,
 0x83,0x2b,0x00,0x44,0x05,0x14,0x54,0x15,0x04,0x55,0x05,0x55,0x55,0x55,0x55,
 0x50,0x50,0x55,0x04,0x80,0x06,0x2c,0xec,0x0e,0x0e,0xee,0x86,0xee,0xee,0xee,
 0xee,0xe0,0xe8,0x2e,0x00,0x11,0x05,0x14,0x54,0x15,0x04,0x55,0x05,0x55,0x55,
 0x55,0x55,0x50,0x50,0x15,0x11,0x80,0x02,0x80,0x82,0xa0,0xb0,0xb0,0x38,0x38,
 0x38,0x1a,0x1a,0x0a,0x82,0x3a,0x00,0x44,0x05,0x40,0x41,0x41,0x51,0x50,0x50,
 0x10,0x14,0x14,0x14,0x05,0x05,0x55,0x04,0x80,0x06,0xc0,0xc2,0xe0,0xe0,0xe0,
 0x68,0x28,0x2c,0x0e,0x0e,0x0e,0x86,0x2e,0x00,0x11,0x05,0x40,0x41,0x41,0x51,
 0x50,0x50,0x10,0x14,0x14,0x14,0x05,0x05,0x15,0x11,0x80,0x83,0xbb,0xab,0xbb,
 0xab,0xbb,0xab,0xbb,0xab,0xbb,0xab,0xbb,0xab,0x3b,0x00,0x44,0x05,0x55,0x55,
 0x55,0x55,0x55,0x55,0x55,0x55,0x55,0x55,0x55,0x55,0x55,0x04,0x80,0x86,0xee,
 0xee,0xee,0xee,0xee,0xee,0xee,0xee,0xee,0xee,0xee,0xee,0x2e,0x00,0x11,0x05,
 0x55,0x55,0x55,0x55,0x55,0x55,0x55,0x55,0x55,0x55,0x55,0x55,0x15,0x11,0x80,
 0xba,0xba,0xba,0xba,0xba,0xba,0xba,0xba,0xba,0xba,0xba,0xba,0xba,0x3a,0x00,
 0x44,0x55,0x55,0x55,0x55,0x55,0x55,0x55,0x55,0x55,0x55,0x55,0x55,0x55,0x55,
 0x04,0x80,0xee,0xee,0xee,0xee,0xee,0xee,0xee,0xee,0xee,0xee,0xee,0xee,0xee,
 0x2e,0x00,0x11,0x11,0x11,0x11,0x11,0x11,0x11,0x11,0x11,0x11,0x11,0x11,0x11,
 0x11,0x11,0x11,0x00,0x00,0x00,0x00,0x00,0x00,0x00,0x00,0x00,0x00,0x00,0x00,
 0x00,0x00,0x00,0x00,0x44,0x44,0x44,0x44,0x44,0x44,0x44,0x44,0x44,0x44,0x44,
 0x44,0x44,0x44,0x44,0x04,0x00,0x00,0x00,0x00,0x00,0x00,0x00,0x00,0x00,0x00,
 0x00,0x00,0x00,0x00,0x00,0x00,0x11,0x11,0x11,0x11,0x11,0x11,0x11,0x11,0x11,
 0x11,0x11,0x11,0x11,0x11,0x11,0x11,0x00,0x00,0x00,0x00,0x00,0x00,0x00,0x00,
 0x00,0x00,0x00,0x00,0x00,0x00,0x00,0x00,0x44,0x44,0x44,0x44,0x44,0x44,0x44,
 0x44,0x44,0x44,0x44,0x44,0x44,0x44,0x44,0x04};
