#define noname_width 99
#define noname_height 99
static char noname_bits[] = {
 0x44,0x44,0x44,0x44,0x44,0x44,0x44,0x44,0x44,0x44,0x44,0x44,0x04,0x00,0x00,
 0x00,0x00,0x00,0x00,0x00,0x00,0x00,0x00,0x00,0x00,0x00,0x11,0x51,0x11,0x51,
 0x11,0x51,0x11,0x51,0x11,0x51,0x11,0x51,0x01,0x00,0x00,0x00,0x00,0x00,0x00,
 0x00,0x00,0x00,0x00,0x00,0x00,0x00,0x44,0x44,0x44,0x44,0x44,0x44,0x44,0x44,
 0x44,0x44,0x44,0x44,0x04,0x00,0x00,0x00,0x00,0x00,0x00,0x00,0x00,0x00,0x00,
 0x00,0x00,0x00,0x51,0x00,0x00,0x00,0x55,0x55,0x55,0x55,0x55,0x55,0x55,0x55,
 0x01,0xa0,0x00,0x00,0x00,0xab,0xbb,0xab,0xbb,0xab,0xbb,0xab,0xbb,0x00,0x44,
 0x00,0x00,0x00,0x55,0x55,0x55,0x55,0x55,0x55,0x55,0x55,0x04,0x00,0xe8,0xee,
 0x0e,0x00,0x00,0x00,0x00,0x00,0x00,0x00,0xe0,0x00,0x11,0x50,0x55,0x15,0x00,
 0x00,0x00,0x00,0x00,0x00,0x00,0x40,0x01,0x00,0xb8,0xba,0x1a,0x00,0x00,0x00,
 0x00,0x00,0x00,0x00,0xa0,0x00,0x04,0x50,0x55,0x15,0x00,0x00,0x00,0x00,0x00,
 0x00,0x00,0x40,0x04,0x00,0xee,0xee,0xee,0x00,0x00,0x00,0x80,0x02,0x00,0x00,
 0xe0,0x00,0x11,0x55,0x55,0x55,0x00,0x00,0x00,0x00,0x01,0x00,0x00,0x40,0x01,
 0x00,0xab,0xbb,0xab,0x00,0x00,0x00,0x80,0x03,0x00,0x00,0xa0,0x00,0x04,0x15,
 0x00,0x54,0x00,0x00,0x00,0x50,0x14,0x00,0x00,0x40,0x04,0x00,0x2e,0x00,0xec,
 0x00,0x00,0x00,0x68,0x0c,0x00,0x00,0xe0,0x00,0x11,0x15,0x00,0x54,0x00,0x00,
 0x00,0x50,0x14,0x00,0x00,0x40,0x01,0x00,0x3a,0x00,0xb8,0x00,0x00,0x00,0xba,
 0xba,0x00,0x00,0xa0,0x00,0x04,0x15,0x00,0x54,0x00,0x00,0x00,0x55,0x55,0x00,
 0x00,0x40,0x04,0x00,0x2e,0x00,0xec,0x00,0x00,0x00,0xee,0xee,0x00,0x00,0xe0,
 0x00,0x11,0x55,0x55,0x15,0x00,0x00,0x40,0x50,0x14,0x05,0x00,0x40,0x01,0x00,
 0xbb,0xab,0x1b,0x00,0x00,0xa0,0x38,0x08,0x03,0x00,0xa0,0x00,0x04,0x55,0x55,
 0x15,0x00,0x00,0x40,0x50,0x14,0x05,0x00,0x40,0x04,0x00,0xee,0xee,0x02,0x00,
 0x00,0xec,0xee,0xee,0x2e,0x00,0xe0,0x00,0x11,0x55,0x55,0x01,0x00,0x00,0x54,
 0x55,0x55,0x15,0x00,0x40,0x01,0x00,0xba,0xba,0x02,0x00,0x00,0xb8,0xba,0xba,
 0x3a,0x00,0xa0,0x00,0x04,0x15,0x50,0x01,0x00,0x00,0x55,0x50,0x14,0x55,0x01,
 0x40,0x04,0x00,0x2e,0xe0,0x02,0x00,0x80,0xee,0x68,0x0c,0xee,0x00,0xe0,0x00,
 0x11,0x15,0x50,0x01,0x00,0x00,0x55,0x50,0x14,0x55,0x01,0x40,0x01,0x00,0x2b,
 0xb0,0x0b,0x00,0xa0,0xa3,0xab,0xbb,0x83,0x0b,0xa0,0x00,0x04,0x15,0x50,0x15,
 0x00,0x50,0x41,0x55,0x55,0x45,0x05,0x40,0x04,0x00,0x2e,0xe0,0x0e,0x00,0xe0,
 0xe2,0xee,0xee,0xc6,0x0e,0xe0,0x00,0x11,0x15,0x00,0x55,0x00,0x50,0x54,0x55,
 0x41,0x55,0x05,0x40,0x01,0x00,0x3a,0x80,0xba,0x00,0x30,0xb8,0xba,0xa2,0xba,
 0x0a,0xa0,0x00,0x04,0x15,0x00,0x55,0x00,0x50,0x54,0x55,0x41,0x55,0x05,0x40,
 0x04,0x00,0x2e,0x00,0xec,0x00,0x60,0xe0,0x86,0xee,0x2e,0x0e,0xe0,0x00,0x11,
 0x15,0x00,0x54,0x00,0x50,0x40,0x05,0x55,0x15,0x04,0x40,0x01,0x00,0x3b,0x00,
 0xb8,0x00,0x30,0xa0,0x83,0xab,0x3b,0x0a,0xa0,0x00,0x04,0x00,0x00,0x00,0x00,
 0x04,0x01,0x55,0x15,0x45,0x05,0x40,0x04,0x00,0x00,0x00,0x00,0x00,0x8e,0x02,
 0xee,0x0e,0xc6,0x0e,0xe0,0x00,0x11,0x00,0x00,0x00,0x00,0x04,0x01,0x55,0x15,
 0x45,0x05,0x40,0x01,0xa0,0x00,0x00,0x00,0x80,0x30,0x18,0x38,0xb8,0x38,0x0a,
 0xa0,0x00,0x44,0x00,0x00,0x00,0x40,0x51,0x14,0x50,0x54,0x10,0x04,0x40,0x04,
 0xe0,0x00,0x00,0x00,0xc0,0x60,0x0c,0x68,0xec,0x28,0x0e,0xe0,0x00,0x51,0x00,
 0x00,0x00,0x10,0x00,0x41,0x00,0x15,0x45,0x05,0x40,0x01,0xa0,0x00,0x00,0x00,
 0x38,0x80,0xa3,0x80,0x1b,0x83,0x0b,0xa0,0x00,0x44,0x00,0x00,0x00,0x10,0x00,
 0x41,0x00,0x15,0x45,0x05,0x40,0x04,0xe0,0x00,0x00,0x00,0xe8,0x00,0x0c,0x86,
 0xe2,0x28,0x0e,0xe0,0x00,0x51,0x00,0x00,0x00,0x50,0x01,0x14,0x05,0x41,0x10,
 0x04,0x40,0x01,0xa0,0x00,0x00,0x00,0xb8,0x00,0x18,0x82,0xa2,0x38,0x0a,0xa0,
 0x00,0x04,0x00,0x00,0x00,0x10,0x04,0x40,0x50,0x15,0x45,0x05,0x54,0x04,0x00,
 0x00,0x00,0x00,0x28,0x0e,0xe0,0xe8,0x0e,0xc6,0x0e,0xec,0x00,0x11,0x00,0x00,
 0x00,0x10,0x04,0x40,0x50,0x15,0x45,0x05,0x54,0x01,0x00,0xbb,0xab,0xbb,0x28,
 0x30,0x00,0xbb,0xa3,0x38,0x0a,0xb8,0x00,0x04,0x55,0x55,0x55,0x10,0x50,0x00,
 0x55,0x41,0x10,0x04,0x54,0x04,0x00,0xee,0xee,0xee,0x28,0x60,0x00,0xee,0xe2,
 0x28,0x0e,0xec,0x00,0x11,0x55,0x55,0x55,0x10,0x00,0x41,0x05,0x15,0x45,0x05,
 0x54,0x01,0x00,0xba,0xba,0xba,0x38,0x80,0xa2,0x82,0x1a,0x82,0x0a,0xb8,0x00,
 0x04,0x55,0x55,0x55,0x10,0x00,0x41,0x05,0x15,0x45,0x05,0x54,0x04,0x00,0x00,
 0x80,0xee,0x28,0x00,0xec,0x80,0xe2,0x28,0x0e,0xec,0x00,0x11,0x00,0x00,0x55,
 0x10,0x00,0x54,0x00,0x41,0x10,0x04,0x54,0x01,0x00,0x00,0x80,0xab,0x38,0x00,
 0xb8,0x80,0xa3,0x28,0x0a,0xa8,0x00,0x04,0x00,0x50,0x15,0x10,0x00,0x14,0x50,
 0x15,0x45,0x05,0x54,0x04,0x00,0x00,0xe0,0x0e,0x28,0x00,0x0c,0xe8,0x0e,0xc6,
 0x0e,0xec,0x00,0x11,0x00,0x50,0x15,0x10,0x00,0x14,0x50,0x15,0x45,0x05,0x54,
 0x01,0x00,0x00,0xba,0x02,0x80,0x00,0x18,0xba,0xa2,0x38,0x0a,0xb8,0x00,0x04,
 0x00,0x54,0x01,0x40,0x01,0x14,0x55,0x41,0x10,0x04,0x54,0x04,0x00,0x00,0xee,
 0x02,0xc0,0x00,0x0c,0xee,0xe2,0x28,0x0e,0xec,0x00,0x11,0x40,0x55,0x00,0x00,
 0x04,0x54,0x05,0x15,0x45,0x01,0x54,0x01,0x00,0x80,0x2b,0x00,0x00,0x0a,0xa8,
 0x83,0x0b,0x83,0x01,0xb8,0x00,0x04,0x40,0x55,0x00,0x00,0x04,0x54,0x05,0x15,
 0x45,0x01,0x54,0x04,0x00,0xe8,0x0e,0x00,0x00,0x60,0xec,0x80,0xe2,0x28,0x00,
 0xec,0x00,0x11,0x50,0x05,0x00,0x00,0x50,0x54,0x00,0x41,0x10,0x00,0x54,0x01,
 0x00,0xb8,0x0a,0x00,0x00,0x30,0xb8,0x80,0xa2,0x38,0x00,0xb8,0x00,0x04,0x55,
 0x01,0x00,0x00,0x00,0x55,0x00,0x15,0x05,0x00,0x54,0x04,0x00,0xee,0x00,0x00,
 0x00,0x80,0xee,0x80,0x0e,0x06,0x00,0xec,0x00,0x11,0x55,0x01,0x00,0x00,0x00,
 0x55,0x00,0x15,0x05,0x00,0x54,0x01,0x00,0xab,0xbb,0x0b,0x00,0x00,0x18,0x83,
 0xa3,0x00,0x00,0xa8,0x00,0x04,0x55,0x55,0x15,0x00,0x00,0x14,0x05,0x41,0x00,
 0x00,0x54,0x04,0x00,0xee,0xee,0x0e,0x00,0x00,0x0c,0x86,0xe2,0x00,0x00,0xec,
 0x00,0x11,0x55,0x55,0x55,0x00,0x00,0x00,0x50,0x15,0x00,0x00,0x54,0x01,0x00,
 0xba,0xba,0xba,0x00,0x00,0x00,0xb8,0x1a,0x00,0x00,0xb8,0x00,0x04,0x55,0x55,
 0x55,0x00,0x00,0x00,0x50,0x15,0x00,0x00,0x54,0x04,0x00,0x00,0x00,0x00,0x00,
 0x00,0x00,0x80,0x02,0x00,0x00,0xec,0x00,0x11,0x00,0x00,0x00,0x00,0x00,0x00,
 0x00,0x01,0x00,0x00,0x54,0x01,0x00,0x00,0x00,0x00,0x00,0x00,0x00,0x80,0x03,
 0x00,0x00,0xb8,0x00,0x44,0x00,0x00,0x00,0x00,0x00,0x00,0x00,0x00,0x00,0x00,
 0x54,0x04,0xe0,0x00,0x00,0x00,0x00,0x00,0x00,0x00,0x00,0x00,0x00,0xec,0x00,
 0x51,0x00,0x00,0x00,0x00,0x00,0x00,0x00,0x00,0x00,0x00,0x54,0x01,0xa0,0x00,
 0x00,0x00,0x00,0xb0,0xba,0xba,0xba,0xba,0xba,0xba,0x00,0x44,0x00,0x00,0x00,
 0x00,0x50,0x55,0x55,0x55,0x55,0x55,0x55,0x04,0xe0,0x00,0x00,0x00,0x00,0xe0,
 0xee,0xee,0xee,0xee,0xee,0xee,0x00,0x51,0x55,0x55,0x55,0x55,0x55,0x55,0x55,
 0x55,0x55,0x55,0x55,0x01,0xa0,0xab,0xbb,0xab,0xbb,0xab,0xbb,0xab,0xbb,0xab,
 0xbb,0xab,0x00,0x44,0x55,0x55,0x55,0x55,0x55,0x55,0x55,0x55,0x55,0x55,0x55,
 0x04,0x00,0x00,0x00,0x00,0x00,0x00,0x00,0x00,0x00,0x00,0x00,0x00,0x00,0x11,
 0x51,0x11,0x51,0x11,0x51,0x11,0x51,0x11,0x51,0x11,0x51,0x01};
