#define noname_width 57
#define noname_height 20
static char noname_bits[] = {
 0x44,0x44,0x44,0x44,0x44,0x44,0x44,0x00,0x00,0x00,0x00,0x00,0x00,0x00,0x00,
 0x00,0x55,0x55,0x55,0x55,0x55,0x55,0x55,0x01,0x00,0x00,0x00,0x00,0x00,0x00,
 0x80,0x01,0x55,0x55,0x55,0x55,0x55,0x55,0x55,0x01,0x00,0x00,0x00,0x00,0x00,
 0x00,0xc0,0x00,0x55,0x55,0x55,0x55,0x55,0xd5,0x57,0x01,0xf8,0x03,0xf0,0xf0,
 0x7c,0xfc,0x83,0x01,0x75,0x57,0x75,0x75,0x7d,0xdd,0x57,0x01,0x72,0x06,0x62,
 0x62,0xee,0x8b,0xc3,0x00,0xf5,0x57,0x75,0x75,0xfd,0xdf,0x57,0x01,0x70,0x03,
 0x60,0x60,0xac,0x8f,0x83,0x01,0x75,0x57,0x75,0x75,0xfd,0xdf,0x57,0x01,0x70,
 0x06,0x60,0x60,0x2c,0x8e,0xc3,0x00,0x75,0x57,0x75,0x77,0x7d,0xdd,0x57,0x01,
 0xf8,0x1e,0xf0,0xc7,0x77,0xec,0x8f,0x01,0x55,0x55,0x55,0x55,0x55,0x55,0x55,
 0x01,0x00,0xfa,0x0f,0x02,0x00,0x02,0xc0,0x00,0x55,0x55,0x55,0x55,0x55,0x55,
 0x55,0x01,0x00,0x00,0x00,0x00,0x00,0x00,0x80,0x01};
