#define noname_width 99
#define noname_height 99
static char noname_bits[] = {
 0x44,0x44,0x44,0x44,0x44,0x44,0x44,0x44,0x44,0x44,0x44,0x44,0x04,0x00,0x00,
 0x00,0x00,0x00,0x00,0x00,0x00,0x00,0x00,0x00,0x00,0x00,0x11,0x11,0x11,0x11,
 0x11,0x11,0x11,0x11,0x11,0x11,0x11,0x11,0x01,0x00,0x00,0x00,0x00,0x00,0x00,
 0x00,0x00,0x00,0x00,0x00,0x00,0x00,0x44,0x44,0x44,0x44,0x44,0x44,0x44,0x44,
 0x44,0x44,0x44,0x44,0x04,0x00,0x00,0x00,0x00,0x00,0x00,0x00,0x00,0x00,0x00,
 0x00,0x00,0x00,0x11,0x00,0x00,0x00,0x00,0x00,0x00,0x00,0x00,0x00,0x00,0x00,
 0x01,0x00,0x00,0x00,0x00,0x00,0x00,0x00,0x00,0x00,0x00,0x00,0x00,0x00,0x04,
 0x00,0x00,0x00,0x00,0x00,0x00,0x00,0x00,0x00,0x00,0x40,0x04,0x00,0x00,0xe0,
 0xee,0xee,0x0e,0x00,0x00,0x00,0x00,0x00,0x00,0x00,0x11,0x00,0x50,0x55,0x55,
 0x05,0x00,0x00,0x00,0x00,0x00,0x00,0x01,0x00,0x80,0xbb,0x02,0x00,0xba,0xbb,
 0xba,0xbb,0xba,0xbb,0x00,0x00,0x04,0x40,0x55,0x01,0x00,0x54,0x55,0x55,0x55,
 0x55,0x55,0x40,0x04,0x00,0xc0,0xee,0x02,0x00,0xee,0xee,0xee,0xee,0xee,0xee,
 0x00,0x00,0x11,0x40,0x05,0x00,0x00,0x00,0x55,0x55,0x55,0x55,0x55,0x00,0x01,
 0x00,0x80,0x0b,0x00,0x00,0x80,0xab,0xab,0xab,0xab,0xab,0x00,0x00,0x04,0x40,
 0x05,0x00,0x00,0x00,0x55,0x55,0x55,0x55,0x55,0x40,0x04,0x00,0xe8,0x00,0x00,
 0x00,0x00,0xec,0xee,0xee,0xee,0xee,0x00,0x00,0x11,0x50,0x01,0x00,0x00,0x00,
 0x54,0x55,0x55,0x55,0x55,0x00,0x01,0x00,0xb8,0x00,0x00,0x00,0x00,0xb8,0xbb,
 0xba,0xbb,0xba,0x00,0x00,0x04,0x50,0x01,0x54,0x15,0x00,0x54,0x55,0x55,0x55,
 0x55,0x40,0x04,0x00,0xe8,0x00,0xec,0x2e,0x00,0xec,0xee,0xee,0xee,0xee,0x00,
 0x00,0x11,0x50,0x01,0x54,0x15,0x00,0x54,0x55,0x55,0x55,0x55,0x00,0x01,0x00,
 0x28,0x80,0xab,0xab,0x01,0xa0,0xab,0xab,0xab,0xab,0x00,0x00,0x04,0x10,0x00,
 0x55,0x55,0x01,0x40,0x55,0x55,0x55,0x55,0x40,0x04,0x00,0x28,0x80,0xee,0xee,
 0x00,0xe0,0xee,0xee,0xee,0xee,0x00,0x00,0x11,0x10,0x00,0x55,0x55,0x05,0x40,
 0x55,0x55,0x55,0x55,0x00,0x01,0x00,0x38,0x80,0xba,0xbb,0x0a,0xa0,0xba,0xbb,
 0xba,0xbb,0x00,0x00,0x04,0x10,0x00,0x55,0x55,0x05,0x40,0x55,0x55,0x55,0x55,
 0x40,0x04,0x00,0x28,0x80,0xee,0xee,0x0e,0xe0,0xee,0xee,0xee,0xee,0x00,0x00,
 0x11,0x10,0x00,0x55,0x55,0x05,0x40,0x55,0x55,0x55,0x55,0x00,0x01,0x00,0x28,
 0x80,0xab,0xab,0x0b,0xa0,0xab,0xab,0xab,0xab,0x00,0x00,0x04,0x10,0x00,0x55,
 0x55,0x05,0x40,0x55,0x55,0x55,0x55,0x40,0x04,0x00,0x28,0x80,0xee,0xee,0x0e,
 0xe0,0xee,0xee,0xee,0xee,0x00,0x00,0x11,0x10,0x00,0x55,0x55,0x05,0x40,0x55,
 0x55,0x55,0x55,0x00,0x01,0x00,0x38,0x80,0xbb,0xba,0x01,0xa0,0xbb,0xba,0xbb,
 0xba,0x00,0x00,0x04,0x10,0x00,0x55,0x55,0x01,0x40,0x55,0x55,0x55,0x55,0x40,
 0x04,0x00,0x28,0x80,0xee,0xee,0x00,0xe0,0xee,0xee,0xee,0xee,0x00,0x00,0x11,
 0x50,0x01,0x54,0x15,0x00,0x54,0x55,0x55,0x55,0x55,0x00,0x01,0x00,0xa8,0x01,
 0xa8,0x2b,0x00,0xa8,0xab,0xab,0xab,0xab,0x00,0x00,0x04,0x50,0x01,0x54,0x15,
 0x00,0x54,0x55,0x55,0x55,0x55,0x40,0x04,0x00,0xe8,0x00,0x00,0x00,0x00,0xe0,
 0xee,0xee,0xee,0xee,0x00,0x00,0x11,0x50,0x01,0x00,0x00,0x00,0x40,0x55,0x55,
 0x55,0x55,0x00,0x01,0x00,0xb8,0x01,0x00,0x00,0x00,0xa0,0xba,0xbb,0xba,0xbb,
 0x00,0x00,0x04,0x50,0x05,0x00,0x00,0x00,0x00,0x55,0x55,0x55,0x55,0x40,0x04,
 0x00,0xe8,0x0e,0x00,0x00,0x00,0x80,0xee,0xee,0xee,0xee,0x00,0x00,0x11,0x50,
 0x05,0x00,0x00,0x00,0x00,0x55,0x55,0x55,0x55,0x00,0x01,0x00,0xa8,0xab,0x03,
 0x00,0x0a,0x00,0xa8,0xab,0xab,0xab,0x00,0x00,0x04,0x50,0x55,0x01,0x00,0x04,
 0x00,0x54,0x55,0x55,0x55,0x40,0x04,0x00,0xe8,0xee,0x02,0x00,0x0e,0x00,0xec,
 0xee,0xee,0xee,0x00,0x00,0x11,0x50,0x55,0x55,0x55,0x55,0x00,0x40,0x55,0x55,
 0x55,0x00,0x01,0x00,0xb8,0xba,0xbb,0xba,0x3b,0x00,0xa0,0xba,0xbb,0xba,0x00,
 0x00,0x04,0x50,0x55,0x55,0x55,0x55,0x00,0x40,0x55,0x55,0x55,0x40,0x04,0x00,
 0xe8,0xee,0xee,0xee,0xee,0x02,0x00,0xee,0xee,0xee,0x00,0x00,0x11,0x50,0x55,
 0x55,0x55,0x55,0x01,0x00,0x55,0x55,0x55,0x00,0x01,0x00,0xa8,0xab,0xab,0xab,
 0xab,0x03,0x00,0xab,0xab,0xab,0x00,0x00,0x04,0x50,0x55,0x55,0x55,0x55,0x15,
 0x00,0x50,0x55,0x55,0x40,0x04,0x00,0xe8,0xee,0xee,0xee,0xee,0x0e,0x00,0xe8,
 0xee,0xee,0x00,0x00,0x11,0x50,0x55,0x55,0x55,0x55,0x15,0x00,0x50,0x55,0x55,
 0x00,0x01,0x00,0xb8,0xbb,0xba,0xbb,0xba,0x3b,0x00,0x80,0xba,0xbb,0x00,0x00,
 0x04,0x50,0x55,0x55,0x55,0x55,0x55,0x00,0x40,0x55,0x55,0x40,0x04,0x00,0xe8,
 0xee,0xee,0xee,0xee,0xee,0x02,0x00,0xee,0xee,0x00,0x00,0x11,0x50,0x55,0x55,
 0x55,0x55,0x55,0x01,0x00,0x54,0x55,0x00,0x01,0x00,0xa8,0xab,0xab,0xab,0xab,
 0xab,0x03,0x00,0xaa,0xab,0x00,0x00,0x04,0x50,0x55,0x55,0x55,0x55,0x55,0x01,
 0x00,0x50,0x55,0x40,0x04,0x00,0xe8,0xee,0xee,0xee,0xee,0xee,0x02,0x00,0xe0,
 0xee,0x00,0x00,0x11,0x50,0x55,0x55,0x55,0x55,0x55,0x01,0x00,0x50,0x55,0x00,
 0x01,0x00,0xb8,0xba,0xbb,0xba,0xbb,0x3a,0x00,0x00,0x80,0xba,0x00,0x00,0x04,
 0x50,0x55,0x55,0x55,0x55,0x55,0x00,0x00,0x00,0x55,0x40,0x04,0x00,0xe8,0xee,
 0xee,0xee,0xee,0x6e,0x00,0x00,0x80,0xee,0x00,0x00,0x11,0x50,0x55,0x55,0x55,
 0x55,0x15,0x00,0x00,0x00,0x55,0x00,0x01,0x00,0xa8,0xab,0xab,0xab,0xab,0x0b,
 0x00,0x00,0x80,0xab,0x00,0x00,0x04,0x50,0x55,0x55,0x55,0x55,0x15,0x00,0x00,
 0x00,0x55,0x40,0x04,0x00,0xe8,0xee,0xee,0xee,0x6e,0x00,0x00,0x00,0xe0,0xee,
 0x00,0x00,0x11,0x50,0x55,0x55,0x55,0x55,0x00,0x00,0x00,0x50,0x55,0x00,0x01,
 0x00,0xb8,0xbb,0xba,0xbb,0x3a,0x00,0x00,0x00,0xb0,0xbb,0x00,0x00,0x04,0x50,
 0x55,0x55,0x55,0x05,0x00,0x00,0x00,0x54,0x55,0x40,0x04,0x00,0xe8,0xee,0xee,
 0xee,0x0e,0x00,0x00,0x00,0xee,0xee,0x00,0x00,0x11,0x50,0x55,0x55,0x55,0x05,
 0x00,0x00,0x00,0x54,0x55,0x00,0x01,0x00,0xa8,0xab,0xab,0xab,0x0b,0x20,0x00,
 0x80,0xab,0xab,0x00,0x00,0x04,0x50,0x55,0x55,0x55,0x05,0x40,0x00,0x40,0x55,
 0x55,0x40,0x04,0x00,0xe8,0xee,0xee,0xee,0x0e,0x60,0x00,0xc0,0xee,0xee,0x00,
 0x00,0x11,0x50,0x55,0x55,0x55,0x05,0x54,0x15,0x50,0x55,0x55,0x00,0x01,0x00,
 0xb8,0xba,0xbb,0xba,0x0b,0xb8,0x1b,0xb8,0xbb,0xba,0x00,0x00,0x04,0x50,0x55,
 0x55,0x55,0x05,0x54,0x15,0x50,0x55,0x55,0x40,0x04,0x00,0xe8,0xee,0xee,0xee,
 0x0e,0x6c,0x00,0xee,0xee,0xee,0x00,0x00,0x11,0x50,0x55,0x55,0x55,0x05,0x54,
 0x00,0x55,0x55,0x55,0x00,0x01,0x00,0xa8,0xab,0xab,0xab,0x0b,0x28,0x00,0xab,
 0xab,0xab,0x00,0x00,0x04,0x00,0x00,0x00,0x40,0x55,0x55,0x55,0x55,0x01,0x00,
 0x40,0x04,0x00,0x00,0x00,0x00,0xc0,0xee,0xee,0xee,0xee,0x00,0x00,0x00,0x00,
 0x11,0x00,0x00,0x00,0x40,0x55,0x55,0x55,0x55,0x01,0x00,0x00,0x01,0x00,0x00,
 0x00,0x00,0x00,0x00,0x00,0x00,0x00,0x00,0x00,0x00,0x00,0x04,0x00,0x00,0x00,
 0x00,0x00,0x00,0x00,0x00,0x00,0x00,0x40,0x04,0x00,0x00,0x00,0x00,0x00,0x00,
 0x00,0x00,0x00,0x00,0x00,0x00,0x00,0x11,0x15,0x11,0x15,0x11,0x15,0x11,0x15,
 0x11,0x15,0x11,0x15,0x01,0x00,0x00,0x00,0x00,0x00,0x00,0x00,0x00,0x00,0x00,
 0x00,0x00,0x00,0x44,0x44,0x44,0x44,0x44,0x44,0x44,0x44,0x44,0x44,0x44,0x44,
 0x04,0x00,0x00,0x00,0x00,0x00,0x00,0x00,0x00,0x00,0x00,0x00,0x00,0x00,0x11,
 0x11,0x11,0x11,0x11,0x11,0x11,0x11,0x11,0x11,0x11,0x11,0x01};
