#define noname_width 110
#define noname_height 88
static char noname_bits[] = {
 0x70,0x70,0x70,0x80,0x03,0x00,0x00,0x00,0x00,0x00,0x00,0x00,0xc0,0x01,0x20,
 0x20,0x20,0x00,0x01,0x00,0x00,0x00,0x00,0x00,0x00,0x00,0x80,0x00,0x70,0x70,
 0x70,0x80,0x03,0x00,0x00,0x00,0x00,0x00,0x00,0x00,0xc0,0x01,0x20,0x20,0x20,
 0x00,0x01,0x00,0x00,0x00,0x00,0x00,0x00,0x00,0x80,0x00,0x20,0x20,0x20,0x00,
 0x01,0x00,0x00,0x00,0x00,0x00,0x00,0x00,0x80,0x00,0x20,0x20,0x20,0x00,0x01,
 0x00,0x00,0x00,0x00,0x00,0x00,0x00,0x80,0x00,0x20,0x20,0x20,0x00,0x01,0x00,
 0x00,0x00,0x00,0x00,0x00,0x00,0x80,0x00,0x20,0x20,0x20,0x00,0x01,0x00,0x00,
 0x00,0x00,0x00,0x00,0x00,0x80,0x00,0xee,0xee,0xee,0xee,0xef,0xee,0xee,0xee,
 0xee,0xee,0xee,0xee,0xee,0x2e,0xef,0xff,0xff,0xff,0x3f,0x7f,0x7e,0xc7,0xff,
 0xff,0xff,0xff,0xff,0x35,0xaa,0xaa,0xaa,0xaa,0xab,0x08,0x2a,0x22,0xa8,0xaa,
 0xaa,0xaa,0xaa,0x2a,0xb7,0xb7,0xb7,0xbf,0xfd,0xff,0xff,0xff,0xff,0xff,0xff,
 0xff,0xff,0x3d,0xb8,0xb8,0xb8,0x88,0x89,0x88,0x88,0x88,0x88,0x88,0x88,0x88,
 0xc8,0x28,0x05,0x04,0x24,0x04,0x05,0x04,0x04,0x04,0x04,0x04,0x04,0x04,0x84,
 0x34,0xba,0xaa,0xae,0xaa,0xaa,0xaa,0xaa,0xaa,0xaa,0xaa,0xaa,0xaa,0xaa,0x2b,
 0xc9,0x30,0xe0,0x38,0x03,0x00,0x00,0x00,0x00,0x00,0x00,0x00,0x80,0x31,0xaa,
 0xaa,0xaa,0xaa,0xaa,0xaa,0xaa,0xaa,0xaa,0xaa,0xaa,0xaa,0xaa,0x2a,0x01,0x00,
 0x00,0x00,0x00,0x00,0x00,0x00,0x00,0x00,0x00,0x00,0x00,0x30,0xaa,0xaa,0xaa,
 0xaa,0xaa,0xaa,0xaa,0xaa,0xaa,0xaa,0xaa,0xaa,0xaa,0x2a,0x01,0x00,0x00,0x00,
 0x00,0x00,0x00,0x00,0x00,0x00,0x00,0x00,0x00,0x30,0x8c,0x88,0x89,0x88,0x88,
 0x88,0x88,0x88,0x88,0x88,0x88,0x88,0xe8,0x28,0xc1,0x22,0x01,0x00,0x00,0x00,
 0x00,0x00,0x00,0x00,0x00,0x00,0x60,0x30,0x22,0x2a,0x22,0x2a,0x22,0x2a,0x22,
 0x2a,0x22,0x2a,0x22,0x2a,0x22,0x2a,0x01,0x00,0x00,0x00,0x00,0x00,0x00,0x00,
 0x00,0x00,0x00,0x00,0x00,0x30,0x88,0x88,0x88,0x88,0x88,0x88,0x88,0x88,0x88,
 0x88,0x88,0x88,0x90,0x2a,0x05,0x00,0x00,0x00,0x00,0x00,0x00,0x00,0x00,0x00,
 0x00,0x00,0x18,0x30,0x22,0x22,0x22,0x22,0x22,0x22,0x22,0x22,0x22,0x22,0x22,
 0x22,0x1a,0x2a,0x05,0x00,0x00,0x00,0x00,0x00,0x00,0x00,0x00,0x00,0x00,0x00,
 0x08,0x30,0x88,0x88,0x88,0x88,0x88,0x88,0x88,0x88,0x88,0x88,0x88,0x88,0x88,
 0x2a,0x05,0x00,0x00,0x00,0x00,0x08,0x08,0x12,0x08,0x00,0x00,0x00,0x08,0x30,
 0x22,0x22,0x22,0x22,0x22,0x22,0x22,0x22,0x22,0x22,0x22,0x22,0x2a,0x2a,0x05,
 0x00,0x00,0x00,0x00,0x00,0x00,0x00,0x00,0x00,0x00,0x00,0x08,0x30,0x88,0x88,
 0x88,0x88,0x88,0x88,0x88,0x88,0x88,0x88,0x88,0x88,0x88,0x2a,0x05,0x00,0x00,
 0x00,0x00,0x00,0x00,0x00,0x00,0x00,0x00,0x00,0x08,0x30,0x22,0x22,0x22,0x22,
 0x22,0x22,0x22,0x22,0x22,0x22,0x22,0x22,0x2a,0x2a,0xa5,0x14,0xa5,0x28,0x45,
 0x28,0x42,0x11,0x8a,0x50,0x84,0x02,0x04,0x30,0x88,0x88,0x88,0x88,0x88,0x88,
 0x88,0x88,0x88,0x88,0x88,0x88,0x8c,0x2a,0x05,0x00,0x00,0x00,0x00,0x00,0x00,
 0x00,0x00,0x00,0x00,0x00,0x04,0x38,0x22,0x2a,0x22,0xaa,0x23,0x2a,0x32,0x2a,
 0x22,0x2a,0x22,0x2a,0x26,0x2a,0x05,0x00,0x00,0x00,0x00,0x00,0x00,0x00,0x00,
 0x00,0x00,0x00,0x04,0x30,0x88,0x88,0x88,0x88,0x88,0x88,0x88,0x88,0x88,0x88,
 0x88,0x88,0x8c,0x2a,0x25,0x00,0x30,0x88,0x41,0x04,0x00,0x00,0x00,0x00,0x00,
 0x00,0x04,0x30,0x22,0x22,0x22,0x22,0xe2,0x22,0x22,0x22,0x22,0x22,0x22,0x22,
 0x26,0x2a,0x05,0x04,0x00,0x00,0x01,0x00,0x08,0x00,0x40,0x00,0x00,0x00,0x04,
 0x30,0xa8,0x88,0x8d,0xa8,0xc8,0x88,0xa8,0x98,0x8b,0x88,0x88,0x88,0x8c,0x2a,
 0x05,0x00,0x00,0x00,0x00,0x00,0x00,0x00,0x00,0x00,0x00,0x00,0x02,0x38,0x22,
 0x22,0x22,0x22,0x22,0x22,0x22,0x22,0x22,0x22,0x22,0x22,0x22,0x2a,0x05,0x00,
 0x00,0x00,0x00,0x00,0x00,0x00,0x00,0x00,0x00,0x00,0x02,0x30,0x88,0x88,0x88,
 0x88,0x88,0x88,0x88,0x88,0x88,0x88,0x88,0x88,0x8a,0x2a,0x05,0x00,0x00,0x00,
 0x00,0x00,0x00,0x00,0x00,0x00,0x00,0x00,0x02,0x30,0x22,0x22,0x22,0x22,0x22,
 0x3a,0x22,0x22,0x22,0x22,0x22,0x22,0x22,0x2a,0x01,0x00,0x00,0x00,0x00,0x18,
 0x00,0x00,0x00,0x00,0x00,0x00,0x02,0x30,0xa8,0xaa,0xaa,0xaa,0xaa,0xbe,0xaa,
 0xaa,0xaa,0xaa,0xaa,0xaa,0xaa,0x28,0x01,0x00,0x00,0x00,0x00,0x10,0x00,0x00,
 0x00,0x00,0x00,0x00,0x02,0x30,0xaa,0xaa,0xaa,0xaa,0xaa,0xba,0xaa,0xaa,0xaa,
 0xaa,0xaa,0xaa,0xab,0x2a,0x01,0x00,0x00,0x00,0x00,0x10,0x00,0x00,0x00,0x00,
 0x00,0x00,0x01,0x34,0x88,0x88,0x88,0x88,0x88,0x98,0x88,0x88,0x88,0x88,0x88,
 0x88,0x89,0x2a,0x01,0x00,0x00,0x00,0x00,0x10,0x00,0x00,0x00,0x00,0x08,0x08,
 0x01,0x30,0xee,0x36,0x22,0x22,0x22,0x32,0x22,0x22,0x22,0x22,0xa2,0x22,0x63,
 0x22,0x01,0x00,0x00,0x00,0x00,0x10,0x00,0x00,0x00,0x00,0x04,0x04,0x01,0x30,
 0x88,0x88,0x88,0x88,0x88,0x98,0x88,0x88,0x88,0x88,0x88,0x88,0x89,0x28,0x05,
 0x00,0x00,0x00,0x00,0x10,0x00,0x00,0x00,0x00,0x00,0x03,0x19,0x30,0x22,0x62,
 0x22,0x22,0x22,0x32,0x22,0x22,0x22,0x22,0xa2,0x23,0x3b,0x2a,0x05,0x14,0x00,
 0x00,0x00,0x10,0x00,0x00,0x00,0x00,0x00,0x83,0x18,0x30,0xc8,0x88,0x88,0x88,
 0x88,0x98,0x88,0x88,0x88,0x88,0x88,0x88,0x88,0x2a,0x05,0x00,0x00,0x00,0x00,
 0x10,0x00,0x00,0x00,0x00,0x40,0x80,0x08,0x30,0x22,0xa2,0x22,0x22,0x22,0x32,
 0x22,0x22,0x22,0x22,0x62,0xa2,0x2a,0x2a,0x05,0xc0,0x01,0x00,0x00,0x10,0x00,
 0x00,0x00,0x00,0x20,0x80,0x04,0x30,0x88,0xc8,0x89,0x88,0x88,0x98,0x88,0x88,
 0x88,0x88,0xa8,0x88,0x8c,0x2a,0x05,0x80,0x00,0x00,0x00,0x10,0x00,0x00,0x00,
 0x00,0x10,0x80,0x04,0x38,0x22,0xaa,0x22,0x2a,0x22,0x3a,0x22,0x2a,0x22,0x2a,
 0x32,0xaa,0x26,0x2a,0x05,0x80,0x00,0x00,0x00,0x10,0x00,0x00,0x00,0x00,0x08,
 0x80,0x02,0x30,0x88,0x88,0x88,0x88,0x88,0x98,0x88,0x88,0x88,0x88,0x8c,0xc8,
 0x8a,0x2a,0x05,0x80,0x00,0x00,0x00,0x10,0x00,0x00,0x00,0x00,0x04,0x40,0x02,
 0x30,0x22,0xa2,0x22,0x22,0x22,0x32,0x22,0x22,0x22,0x22,0x22,0x62,0x22,0x2a,
 0x05,0x80,0x00,0x00,0x00,0x10,0x00,0x00,0x00,0x00,0x02,0x40,0x02,0x30,0x88,
 0x88,0x88,0x88,0x88,0x98,0x88,0x88,0x88,0x88,0x89,0xc8,0x89,0x2a,0x05,0x80,
 0x00,0x00,0x00,0x10,0x00,0x00,0x00,0x00,0x01,0x40,0x01,0x38,0x22,0xa2,0x22,
 0x22,0x22,0x32,0x22,0x22,0x22,0xa2,0x22,0x62,0x23,0x2a,0x05,0x80,0x00,0x00,
 0x00,0x10,0x00,0x00,0x00,0x40,0x00,0x40,0x01,0x30,0x88,0x88,0x88,0x88,0x88,
 0x98,0x88,0x88,0x88,0xc8,0x88,0xc8,0x89,0x2a,0x05,0x80,0x00,0x00,0x00,0x10,
 0x00,0x00,0x00,0x20,0x00,0xc0,0x00,0x30,0x22,0xa2,0x22,0x22,0x22,0x32,0x22,
 0x22,0x22,0x22,0x22,0xa2,0x22,0x2a,0x05,0x80,0x00,0x00,0x00,0x10,0x00,0x00,
 0x00,0x10,0x00,0xa0,0x00,0x30,0x88,0x88,0x88,0x88,0x88,0x98,0x88,0x88,0x88,
 0x98,0x88,0xa8,0x88,0x2a,0x05,0x80,0x00,0x00,0x00,0x10,0x00,0x00,0x00,0x08,
 0x00,0x60,0x00,0x30,0x22,0xaa,0x22,0x2a,0x22,0x3a,0x22,0x2a,0x22,0x2e,0x22,
 0x6a,0x22,0x20,0x55,0xd5,0x55,0x55,0x55,0x55,0x55,0x55,0x55,0x55,0x55,0x75,
 0x55,0x10};
