#define noname_width 128
#define noname_height 86
static char noname_bits[] = {
 0x60,0x00,0x00,0x70,0x00,0x00,0x70,0x00,0x00,0x00,0x00,0x00,0x00,0x00,0x06,
 0x00,0x60,0x01,0x00,0xb0,0x00,0x00,0xf0,0x00,0x00,0x00,0x00,0x00,0x00,0x00,
 0x16,0x00,0xe0,0x00,0x00,0x70,0x00,0x00,0x70,0x00,0x00,0x00,0x00,0x00,0x00,
 0x00,0x0a,0x00,0x00,0x00,0x00,0x00,0x00,0x00,0x0c,0x00,0x00,0x00,0x00,0x00,
 0x00,0x00,0x00,0x00,0x40,0x00,0x00,0x08,0x00,0x00,0x02,0x00,0x00,0x00,0x00,
 0x00,0x00,0x00,0x04,0x00,0x40,0x00,0x00,0x08,0x00,0x80,0x01,0x00,0x00,0x00,
 0x00,0x00,0x00,0x00,0x04,0x00,0x40,0x00,0x00,0x04,0x00,0x60,0x00,0x00,0x00,
 0x00,0x00,0x00,0x00,0x00,0x04,0x00,0x40,0x00,0x00,0x02,0x00,0x10,0x00,0x00,
 0x00,0x00,0x00,0x00,0x00,0x00,0x04,0x00,0x40,0x00,0x00,0x01,0x00,0x0c,0x00,
 0x00,0x00,0x00,0x00,0x00,0x00,0x00,0x04,0x00,0xff,0xff,0xff,0xff,0xff,0xff,
 0xff,0xff,0xff,0xff,0xff,0xff,0xff,0xff,0xff,0xff,0xee,0xae,0xae,0xae,0xae,
 0xaf,0xae,0xae,0xae,0xae,0xae,0xae,0xae,0xae,0xae,0xae,0xff,0xff,0xff,0xff,
 0xff,0xff,0x12,0xaf,0xa8,0xeb,0xff,0xff,0xff,0xff,0xff,0xff,0xea,0xaa,0xaa,
 0xaa,0xba,0xaa,0x88,0x2a,0xa0,0x8a,0xaa,0xaa,0xaa,0xaa,0xae,0xaa,0xff,0xff,
 0xff,0xff,0xff,0xff,0xbf,0xff,0xff,0xff,0xff,0xff,0xff,0xff,0xff,0xff,0xe8,
 0xaa,0xba,0xaa,0xaa,0xaa,0xaa,0xaa,0xaa,0xaa,0xaa,0xaa,0xaa,0xaa,0xae,0xaa,
 0x41,0x00,0x08,0x80,0x01,0x00,0x00,0x00,0x00,0x00,0x00,0x00,0x00,0x00,0x04,
 0x80,0xaa,0xaa,0xaa,0xea,0xaa,0xaa,0xaa,0xaa,0xaa,0xaa,0xaa,0xaa,0xaa,0xaa,
 0xae,0xaa,0x51,0xc0,0x0d,0x10,0x00,0x00,0x00,0x00,0x00,0x00,0x00,0x00,0x00,
 0x00,0x04,0x80,0xa8,0xaa,0xaa,0xae,0xaa,0xaa,0xaa,0xaa,0xaa,0xaa,0xaa,0xaa,
 0xaa,0xaa,0xae,0xaa,0x31,0x34,0x00,0x06,0x00,0x04,0x00,0x04,0x00,0x04,0x00,
 0x04,0x00,0x04,0x04,0x84,0xaa,0xaa,0xaa,0xab,0xaa,0xaa,0xaa,0xaa,0xaa,0xaa,
 0xaa,0xaa,0xaa,0xaa,0xa4,0xaa,0x01,0x00,0x50,0x00,0x00,0x00,0x00,0x00,0x00,
 0x00,0x00,0x00,0x00,0x00,0x0e,0x80,0x88,0x88,0xb8,0x88,0x88,0x88,0x88,0x88,
 0x88,0x88,0x88,0x88,0x88,0x88,0x8c,0x88,0x01,0x00,0x38,0x00,0x00,0x00,0x00,
 0x00,0x00,0x00,0x00,0x00,0x00,0x00,0x04,0x80,0x20,0x22,0x22,0x22,0x22,0x22,
 0x22,0x22,0x22,0x22,0x22,0x22,0x22,0xb2,0x7a,0xa2,0xe9,0x97,0x1a,0x3e,0x00,
 0x00,0x00,0x00,0x00,0x00,0x00,0x00,0x00,0x98,0x41,0x81,0xf8,0xde,0xd8,0x9c,
 0x88,0x88,0x88,0x88,0x88,0x88,0x88,0x88,0x88,0x8a,0x88,0x98,0x01,0x00,0x00,
 0x00,0x00,0x00,0x00,0x00,0x00,0x00,0x00,0x00,0x00,0x00,0x00,0x80,0x20,0x22,
 0x22,0x22,0x22,0x22,0x22,0x22,0x22,0x22,0x22,0x22,0x22,0x22,0x22,0xa2,0x01,
 0x00,0x00,0x00,0x00,0x00,0x00,0x00,0x00,0x00,0x00,0x00,0x00,0x00,0x00,0x80,
 0x88,0x88,0x88,0x88,0x88,0x88,0x88,0x88,0x88,0x88,0x88,0x88,0x88,0x88,0x88,
 0x88,0x01,0x26,0x02,0x00,0x80,0x03,0x00,0x00,0x00,0x00,0x00,0x00,0x00,0x00,
 0x00,0x80,0x00,0x32,0x23,0x00,0x22,0x37,0x00,0x00,0x00,0x00,0x00,0x00,0x00,
 0x00,0x20,0xa2,0x01,0x00,0x00,0x00,0x00,0x04,0x00,0x00,0x00,0x00,0x00,0x00,
 0x00,0x00,0x00,0x80,0x88,0x88,0x88,0x88,0x88,0x88,0x88,0x88,0x88,0x88,0x88,
 0x88,0x88,0x88,0x88,0x88,0x01,0x00,0x00,0x00,0x00,0x00,0x00,0x00,0x00,0x00,
 0x00,0x00,0x00,0x00,0x00,0x80,0x20,0x2a,0x23,0x2a,0x02,0x2a,0x22,0xaa,0x22,
 0x2a,0x22,0x2a,0x22,0x2a,0x22,0xaa,0x01,0xc0,0x53,0x00,0xc0,0x01,0x01,0x00,
 0x18,0x00,0x08,0x00,0x00,0x00,0x00,0x80,0x88,0x88,0x88,0x88,0xc8,0x99,0xc9,
 0x88,0x98,0xea,0x98,0xaa,0x88,0x88,0x88,0x88,0x01,0x00,0x00,0x00,0x00,0x00,
 0x00,0x00,0x00,0x00,0x00,0x00,0x00,0x00,0x00,0x80,0x20,0x22,0x22,0x22,0x02,
 0x22,0x22,0xa2,0x22,0x22,0x22,0x22,0x22,0x22,0x22,0xa2,0x01,0x00,0x00,0x00,
 0x00,0x00,0x00,0x00,0x00,0x00,0x00,0x00,0x00,0x00,0x00,0x80,0x88,0x98,0x88,
 0x88,0x88,0x88,0x88,0x88,0x88,0x88,0x88,0x88,0x88,0x88,0x88,0x88,0x01,0x50,
 0x00,0x00,0x00,0x00,0x00,0x00,0x00,0x00,0x00,0x00,0x00,0x00,0x00,0x80,0xa0,
 0x22,0x22,0x22,0x02,0x22,0x22,0xa2,0x22,0x22,0x22,0x22,0x02,0x22,0x22,0xa2,
 0x01,0x00,0x00,0x00,0x00,0x01,0x88,0x00,0x00,0x08,0x10,0x00,0x80,0x00,0x00,
 0x80,0x88,0x88,0x88,0x88,0x88,0xfc,0xbf,0x9e,0x88,0xe8,0xb9,0x8a,0xc8,0xad,
 0x88,0x88,0x01,0x00,0x00,0x00,0x00,0x00,0x00,0x00,0x00,0x00,0x00,0x00,0x00,
 0x00,0x00,0x80,0x20,0x3a,0x22,0x22,0x82,0xaa,0xaa,0xaa,0xaa,0xaa,0xaa,0xaa,
 0x82,0xaa,0x22,0xa2,0x01,0x70,0x25,0x00,0x00,0x00,0x00,0x00,0x00,0x00,0x00,
 0x00,0x00,0x00,0x00,0x80,0x88,0x88,0x88,0x88,0x88,0x88,0x88,0x88,0x88,0x88,
 0x88,0x88,0x88,0x88,0x88,0x88,0x01,0x00,0x00,0x00,0x00,0x00,0x00,0x00,0x00,
 0x00,0x00,0x00,0x00,0x00,0x00,0x80,0x20,0x2a,0x22,0x2a,0x02,0x2a,0x22,0xaa,
 0x22,0x2a,0x22,0x2a,0x02,0x2a,0x22,0xaa,0x01,0x00,0x00,0x00,0x00,0x60,0x2d,
 0x01,0x00,0x22,0xda,0x02,0x80,0x16,0x00,0x80,0x88,0x88,0x88,0x88,0x88,0xe8,
 0xad,0x89,0x88,0xac,0x9b,0x8a,0x88,0x9e,0x88,0x88,0x01,0xb0,0x00,0x00,0x00,
 0x00,0x00,0x00,0x00,0x00,0x00,0x00,0x00,0x00,0x00,0x80,0x20,0x22,0x22,0x22,
 0x22,0x22,0x22,0x22,0x22,0x22,0x22,0x22,0x22,0x22,0x22,0xa2,0x01,0x00,0x00,
 0x00,0x00,0x00,0x00,0x00,0x00,0x00,0x00,0x00,0x00,0x00,0x00,0x80,0x88,0x88,
 0x88,0x88,0x88,0x88,0x88,0x88,0x88,0x88,0x88,0x88,0x88,0x88,0x88,0x88,0x01,
 0x00,0x00,0x00,0x00,0x00,0x00,0x00,0x00,0x00,0x00,0x00,0x00,0x00,0x00,0x80,
 0x20,0x22,0x22,0x22,0x22,0x22,0x22,0x22,0x22,0x22,0x22,0x22,0x22,0x22,0x22,
 0xa2,0x01,0x00,0x00,0x40,0x00,0x00,0x00,0x00,0x00,0x00,0x00,0x00,0x04,0x00,
 0x00,0x80,0x88,0x88,0x88,0x48,0x88,0x88,0x88,0x88,0x88,0x88,0x88,0x88,0x86,
 0x88,0x88,0x88,0x01,0x00,0x00,0xe0,0x00,0x00,0x00,0x00,0x00,0x00,0x00,0x00,
 0x0e,0x00,0x00,0x80,0x20,0x22,0x22,0xe2,0x22,0x22,0x22,0x22,0x22,0x22,0x22,
 0x2a,0x2f,0x22,0x22,0xa2,0x01,0x00,0x00,0x40,0x00,0x00,0x00,0x00,0x00,0x00,
 0x00,0x00,0x04,0x00,0x00,0x80,0xb8,0xa9,0x88,0xc8,0x8d,0x88,0x88,0x88,0xa8,
 0x8c,0x88,0x88,0x8c,0x88,0x88,0x88,0x91,0xe1,0x02,0x40,0xa5,0x04,0x00,0x01,
 0x80,0x6d,0x01,0x09,0x04,0x00,0x00,0x80,0x20,0x2a,0x22,0x6a,0x22,0x2a,0x22,
 0x2a,0x22,0x2a,0x22,0x2a,0x26,0x2a,0x22,0xaa,0x01,0x00,0x00,0x40,0x00,0x10,
 0x00,0x00,0x00,0x80,0x00,0x00,0x04,0x00,0x00,0x80,0x88,0x88,0x88,0xc8,0x88,
 0x90,0x88,0x88,0x88,0x88,0x89,0x88,0x8c,0x88,0x88,0x88,0x01,0x00,0x00,0x40,
 0x00,0x38,0x00,0x00,0x00,0xc0,0x01,0x00,0x04,0x00,0x00,0x80,0x20,0x22,0x22,
 0x62,0x22,0x3a,0x22,0x22,0x22,0xc2,0x23,0x22,0x26,0x22,0x22,0xa2,0x01,0x00,
 0x00,0x40,0x00,0x10,0x00,0x00,0x00,0x80,0x00,0x00,0x04,0x00,0x00,0x80,0x88,
 0x88,0x88,0xc8,0x88,0x98,0x88,0x88,0x88,0x88,0x88,0x88,0x8c,0x88,0x88,0x88,
 0x01,0x00,0x00,0x40,0x00,0x10,0x00,0x00,0x00,0x80,0x00,0x00,0x04,0x00,0x00,
 0x80,0x20,0x22,0x22,0x62,0x22,0x32,0x22,0x22,0x22,0xa2,0x22,0x22,0x26,0x22,
 0x22,0xa2,0x01,0x00,0x00,0x40,0x00,0x10,0x00,0x00,0x00,0x80,0x00,0x00,0x04,
 0x00,0x00,0x80,0xa8,0xaa,0xaa,0xea,0xaa,0xba,0xaa,0xaa,0xaa,0xaa,0xaa,0xaa,
 0xae,0xaa,0xaa,0xaa,0x01,0x00,0x00,0x40,0x00,0x10,0x00,0x00,0x00,0x80,0x00,
 0x00,0x04,0x00,0x00,0x80,0x20,0x22,0x22,0x62,0x22,0x32,0x22,0x22,0x22,0xa2,
 0x22,0x22,0x26,0x22,0x22,0xa2,0x01,0x00,0x00,0x40,0x00,0x10,0x00,0x00,0x00,
 0x80,0x00,0x00,0x04,0x00,0x00,0x80,0x88,0x88,0x88,0xc8,0x88,0x98,0x88,0x88,
 0x88,0x88,0x88,0x88,0x8c,0x88,0x88,0x88,0x01,0x20,0x00,0x40,0x00,0x10,0x00,
 0x20,0x00,0x80,0x00,0x00,0x04,0x00,0x00,0x80,0x20,0x2a,0x22,0x6a,0x22,0x3a,
 0x22,0x3b,0x22,0xaa,0x22,0x2a,0x26,0x2a,0x3a,0xaa,0x01,0x00,0x00,0x40,0x00,
 0x10,0x00,0x00,0x00,0x80,0x00,0x00,0x04,0x00,0x00,0x80};
