#define noname_width 100
#define noname_height 99
static char noname_bits[] = {
 0x00,0xff,0xff,0xff,0xff,0xff,0xff,0xff,0xff,0xff,0xff,0xff,0x0f,0x00,0x01,
 0x00,0x00,0x00,0x00,0x00,0x00,0x00,0x00,0x00,0x00,0x08,0x00,0x01,0x00,0x00,
 0x00,0x00,0x00,0x00,0x00,0x00,0x00,0x00,0x08,0x00,0x01,0x00,0x00,0x00,0x00,
 0x00,0x00,0x00,0x00,0x00,0x00,0x08,0x00,0x01,0x00,0x00,0x00,0x00,0x00,0x00,
 0x00,0x00,0x00,0x00,0x08,0x00,0x01,0x00,0x00,0x00,0x00,0x00,0x00,0x00,0x00,
 0x00,0x00,0x08,0x00,0x01,0x00,0x00,0x00,0x00,0x00,0x00,0x00,0x00,0x00,0x00,
 0x08,0x00,0x01,0x00,0x00,0x00,0x00,0x00,0x00,0x00,0x00,0x00,0x00,0x08,0x00,
 0x01,0x00,0x00,0x00,0x00,0x00,0x00,0x00,0x00,0x00,0x00,0x08,0x00,0x01,0xfe,
 0xff,0xff,0xff,0xff,0xff,0xff,0xff,0xff,0x07,0x08,0x00,0x61,0x06,0x00,0x00,
 0x00,0x00,0x00,0x00,0x00,0x00,0x04,0x08,0x00,0x01,0x02,0x00,0x00,0x00,0x00,
 0x00,0x00,0x00,0x00,0x04,0x08,0x00,0x01,0x02,0x0c,0x00,0x00,0x00,0x00,0x00,
 0x00,0x00,0x04,0x08,0x00,0x61,0x06,0x0c,0x00,0x00,0x00,0x00,0x00,0x00,0x00,
 0x04,0x08,0x00,0x81,0x02,0x0c,0x00,0x00,0x00,0x00,0x00,0x00,0x00,0x04,0x08,
 0xfb,0xff,0x01,0x3f,0x00,0x00,0x00,0x00,0x00,0x00,0x00,0x04,0x08,0x03,0x81,
 0x02,0x3f,0x00,0x00,0x00,0x00,0x00,0x00,0x00,0x04,0x08,0x00,0x61,0x06,0x7f,
 0x00,0x00,0x00,0x00,0x00,0x00,0x00,0x04,0x08,0x00,0x01,0x02,0x7b,0x00,0x00,
 0x00,0x00,0x00,0x00,0x00,0x04,0x08,0x00,0x01,0x02,0x41,0x00,0x00,0x00,0x00,
 0x00,0x00,0x00,0x04,0x08,0x00,0x61,0x06,0x6b,0x00,0x00,0x00,0x00,0x00,0x00,
 0x00,0x04,0x08,0x00,0x01,0x02,0x45,0x00,0x00,0x00,0x00,0x00,0x00,0x00,0x04,
 0x08,0x00,0x01,0x02,0x6b,0x00,0x00,0x00,0x00,0x00,0x00,0x00,0x04,0x08,0x00,
 0x01,0x02,0xc1,0x01,0x00,0x00,0x00,0x00,0x00,0x00,0x04,0x08,0x00,0x61,0x06,
 0xab,0x01,0x00,0x00,0x00,0x00,0x00,0x00,0x04,0x08,0x00,0x01,0x82,0x85,0x01,
 0x00,0x00,0x00,0x00,0x00,0x00,0x04,0x08,0x00,0x01,0x82,0xaa,0x07,0x00,0x00,
 0x00,0x00,0x00,0x00,0x04,0x08,0x00,0x61,0x86,0x00,0x07,0x00,0x00,0x00,0x00,
 0x00,0x00,0x04,0x08,0x00,0x01,0x82,0xae,0x07,0x00,0x00,0x00,0x00,0x00,0x00,
 0x04,0x08,0xfb,0xff,0xff,0x4f,0x07,0x00,0x00,0x00,0x00,0x00,0x00,0x04,0x08,
 0x03,0x01,0x86,0xae,0x06,0x00,0x00,0x00,0x00,0x00,0x00,0x04,0x08,0x00,0x61,
 0x82,0x00,0x6c,0x00,0x00,0x00,0x00,0x00,0x00,0x04,0x08,0x00,0x01,0x82,0xaa,
 0x6e,0x00,0x00,0x00,0x00,0x00,0x00,0x04,0x08,0x00,0x01,0x82,0x04,0x7c,0x00,
 0x00,0x00,0x00,0x00,0x00,0x04,0x08,0x00,0x61,0x86,0xaa,0x6a,0x03,0x00,0x00,
 0x00,0x00,0x00,0x04,0x08,0x00,0x01,0xc2,0x00,0x60,0x03,0x00,0x00,0x00,0x00,
 0x00,0x04,0x08,0x00,0x01,0xc2,0xaa,0xea,0x33,0x00,0x00,0x00,0x00,0x00,0x04,
 0x08,0x00,0x01,0x46,0x44,0x40,0xfe,0x03,0x00,0x00,0x00,0x00,0x04,0x08,0x00,
 0x61,0xe2,0xaa,0xaa,0xea,0x7b,0x00,0x00,0x00,0x00,0x04,0x08,0x00,0x01,0x32,
 0x01,0x81,0xc8,0xfe,0x6f,0x10,0x10,0x0c,0x04,0x08,0x00,0x01,0xb6,0xef,0xbf,
 0xef,0xfb,0x7f,0xdb,0xf6,0xdf,0x06,0x08,0x00,0x41,0xfe,0xff,0xff,0xff,0xff,
 0xff,0xff,0xff,0xff,0x07,0x08,0x00,0x01,0x00,0x00,0x03,0x00,0x00,0x00,0x00,
 0x00,0x00,0x00,0x08,0x00,0x01,0x82,0xc3,0xc3,0xe1,0xd0,0x70,0x68,0x34,0x1c,
 0x0c,0x08,0x00,0x01,0x00,0x00,0x01,0x00,0x00,0x00,0x00,0x00,0x00,0x00,0x08,
 0x00,0x01,0x00,0x00,0x01,0x00,0x00,0x00,0x00,0x00,0x00,0x00,0x08,0x00,0x01,
 0x00,0x00,0x01,0x00,0x00,0x00,0x00,0x00,0x00,0x00,0x08,0x00,0x01,0x00,0x00,
 0x01,0x80,0xbe,0x17,0x00,0x00,0x00,0x00,0x08,0x00,0x01,0x00,0x00,0x01,0x00,
 0x00,0x00,0x00,0x00,0x00,0x00,0x08,0x00,0x01,0x00,0x00,0x02,0x00,0x00,0x00,
 0x00,0x00,0x00,0x00,0x08,0x00,0x01,0xfe,0xff,0xff,0xff,0xff,0xff,0xff,0xff,
 0xff,0x07,0x08,0x00,0x01,0x02,0x00,0x02,0x00,0x00,0x00,0x00,0x00,0x00,0x04,
 0x08,0x00,0x01,0x06,0x00,0x02,0x00,0x00,0x00,0x00,0x00,0x00,0x04,0x08,0x00,
 0x61,0x02,0x00,0x62,0x00,0x00,0x00,0x00,0x00,0x00,0x04,0x08,0x03,0x01,0x62,
 0x00,0x6e,0x00,0x00,0x00,0x00,0x00,0x00,0x04,0x08,0xfb,0xff,0x7f,0x00,0x6f,
 0x01,0x00,0x00,0x00,0x00,0x00,0x04,0x08,0x00,0x01,0x22,0x00,0xff,0x09,0x00,
 0x00,0x00,0x00,0x00,0x04,0x08,0x00,0x61,0x06,0x00,0xa7,0x09,0x00,0x00,0x00,
 0x00,0x00,0x04,0x08,0x00,0x01,0x02,0x80,0xaf,0x1f,0x03,0x00,0x00,0x00,0x00,
 0x04,0x08,0x00,0x01,0x02,0x80,0x87,0x1f,0x03,0x00,0x00,0x00,0x00,0x04,0x08,
 0x00,0x01,0x02,0x80,0xaf,0x1f,0x03,0x00,0x00,0x00,0x00,0x04,0x08,0x00,0x61,
 0x06,0x80,0xc3,0xd9,0x05,0x00,0x00,0x00,0x00,0x04,0x08,0x00,0x81,0x02,0x80,
 0xab,0xfa,0x0b,0x00,0x00,0x00,0x00,0x04,0x08,0xfb,0xff,0x03,0x80,0x02,0xb3,
 0x3f,0x00,0x00,0x00,0x00,0x04,0x08,0x03,0x81,0x02,0x80,0xaa,0xba,0xbb,0x00,
 0x00,0x00,0x00,0x04,0x08,0x00,0x61,0x06,0x80,0x46,0x84,0xf5,0x00,0x00,0x00,
 0x00,0x04,0x08,0x00,0x01,0x02,0x80,0xaa,0xaa,0x7b,0x02,0x00,0x00,0x00,0x04,
 0x08,0x00,0x01,0x02,0xe0,0x12,0x80,0x41,0x07,0x00,0x00,0x00,0x04,0x08,0x00,
 0x01,0x02,0xe0,0xae,0xaa,0x6a,0x0b,0x00,0x00,0x00,0x04,0x08,0x00,0x01,0x06,
 0x60,0x44,0x44,0xc0,0x1d,0x00,0x00,0x02,0x04,0x08,0x00,0x61,0x02,0xa0,0xae,
 0xaa,0xea,0x2e,0x00,0x00,0x03,0x04,0x08,0x00,0x01,0x02,0x20,0x05,0x00,0x00,
 0x2c,0x00,0x00,0x02,0x04,0x08,0x00,0x01,0x02,0xa0,0xae,0xaa,0xaa,0x1e,0x06,
 0x00,0x02,0x04,0x08,0x00,0x01,0x02,0xe0,0x04,0x04,0x04,0xbc,0x07,0x00,0x02,
 0x04,0x08,0x00,0x61,0x06,0xb8,0xae,0xaa,0xaa,0xee,0x1e,0x00,0x02,0x04,0x08,
 0x00,0x01,0x02,0x1c,0x04,0x00,0x00,0xe0,0x7e,0x00,0x02,0x04,0x08,0x00,0x01,
 0x02,0xa8,0xae,0xaa,0xaa,0xea,0xfa,0x07,0x02,0x04,0x08,0x00,0x01,0x02,0x44,
 0x44,0x40,0x40,0x40,0xd0,0x7f,0x06,0x04,0x08,0x00,0x61,0x86,0xad,0xae,0xaa,
 0xaa,0xaa,0xaa,0xfb,0x07,0x04,0x08,0x00,0x01,0xe2,0x05,0x04,0x00,0x00,0x00,
 0x84,0x91,0x3f,0x04,0x08,0x00,0x01,0x8a,0xaf,0xae,0xaa,0xaa,0xaa,0xae,0xaa,
 0xef,0x04,0x08,0x00,0x01,0xb6,0x05,0x85,0x44,0x44,0x24,0x14,0xdc,0x8f,0x07,
 0x08,0x00,0x41,0xfe,0xff,0xbf,0xff,0xff,0xff,0xff,0xff,0xff,0x07,0x08,0x00,
 0x01,0x00,0x01,0x44,0x00,0x00,0x00,0x04,0x00,0x02,0x00,0x08,0x00,0x01,0x82,
 0x43,0x67,0xe1,0xd0,0x70,0x6c,0x34,0x1e,0x0c,0x08,0x00,0x01,0x00,0x01,0x44,
 0x00,0x00,0x00,0x04,0x00,0x02,0x00,0x08,0x00,0x01,0x00,0x01,0x28,0x00,0x00,
 0x00,0x04,0x00,0x02,0x00,0x08,0x00,0x01,0x00,0x01,0x28,0x00,0x00,0x00,0x04,
 0x00,0x02,0x00,0x08,0x00,0x01,0x00,0x01,0x28,0x00,0x00,0x00,0x04,0x00,0x02,
 0x00,0x08,0x00,0x31,0x00,0x01,0x28,0x80,0xbe,0x17,0x04,0x00,0x02,0x00,0x08,
 0x00,0x31,0x00,0x01,0x28,0x00,0x00,0x00,0x04,0x00,0x02,0x00,0x08,0x00,0xff,
 0xff,0xff,0xff,0xff,0xff,0xff,0xff,0xff,0xff,0xff,0x0f,0x00,0x10,0x00,0x01,
 0x18,0x00,0x00,0x00,0x04,0x00,0x02,0x00,0x00,0x00,0x10,0x00,0x01,0x18,0x00,
 0x00,0x00,0x04,0x00,0x02,0x00,0x00,0x00,0x10,0x00,0x01,0x18,0x00,0x00,0x00,
 0x04,0x00,0x02,0x00,0x00,0x00,0x10,0x00,0x01,0x18,0x00,0x00,0x00,0x04,0x00,
 0x02,0x00,0x00,0x00,0x10,0x00,0x01,0x18,0x00,0x00,0x00,0x04,0x00,0x02,0x00,
 0x00,0x00,0x00,0x80,0x00,0x0c,0x00,0x00,0x00,0x02,0x00,0x01,0x00,0x00,0x00,
 0x10,0x80,0x01,0x0c,0x00,0x00,0x00,0x06,0x00,0x03,0x00,0x00};
