#define noname_width 193
#define noname_height 95
static char noname_bits[] = {
 0x00,0x00,0x00,0x00,0x00,0x00,0x00,0x00,0x00,0x00,0x00,0x00,0x00,0x00,0x00,
 0x00,0x00,0x00,0x1c,0x70,0x97,0x13,0x10,0x00,0x00,0x00,0x00,0x00,0x00,0x00,
 0x00,0x00,0x00,0x00,0x00,0x00,0x00,0x00,0x00,0x00,0x00,0x00,0x00,0x18,0x50,
 0x91,0x12,0x10,0x00,0x00,0x00,0x00,0x00,0x00,0x00,0x00,0x00,0x00,0x00,0x00,
 0x00,0x00,0x00,0x00,0x00,0x00,0x00,0x00,0x88,0x13,0xa7,0xb0,0xb7,0x01,0x00,
 0x00,0x00,0x00,0x00,0x00,0x00,0x00,0x00,0x00,0x00,0x00,0x00,0x00,0x00,0x00,
 0x00,0x00,0x00,0x94,0x53,0xad,0xb2,0xb7,0x01,0x00,0x00,0x00,0x00,0x00,0x00,
 0x00,0x00,0x00,0x00,0x00,0x00,0x00,0x00,0x00,0x00,0x00,0x00,0x00,0x00,0x00,
 0x00,0x00,0x00,0x00,0x00,0x00,0x00,0x00,0x00,0x00,0x00,0x00,0x00,0x00,0x00,
 0x00,0x00,0x00,0x00,0x00,0x00,0x00,0x00,0x00,0x00,0x00,0x00,0x00,0x00,0x00,
 0x00,0x00,0x00,0x00,0x00,0x00,0x00,0x00,0x00,0x00,0x00,0x00,0x00,0x00,0x00,
 0x00,0x00,0x00,0x00,0x00,0x00,0x00,0x00,0x00,0x00,0x00,0x00,0x00,0x00,0x00,
 0x00,0x00,0x00,0x00,0x00,0x00,0x00,0x00,0x00,0x00,0x00,0x00,0x00,0x00,0x00,
 0x00,0x00,0x00,0x00,0x00,0x00,0x00,0x00,0x00,0x00,0x00,0x00,0x00,0x00,0x00,
 0x00,0x00,0x00,0x00,0x00,0x00,0x00,0x00,0x00,0x00,0x00,0x00,0x00,0x00,0x00,
 0x00,0xff,0xff,0xff,0xff,0xff,0xff,0xff,0xff,0xff,0xff,0xff,0xff,0xff,0xff,
 0xff,0xff,0xff,0xff,0xff,0xff,0xff,0xff,0xff,0x01,0x00,0x41,0x10,0x04,0x82,
 0x20,0x08,0x82,0x20,0x10,0x04,0x00,0x10,0x04,0x81,0x20,0x08,0x82,0x20,0x00,
 0x00,0x00,0x00,0x00,0x01,0x00,0x41,0x10,0x04,0x82,0x20,0x08,0x82,0x20,0x10,
 0x04,0x00,0x10,0x04,0x81,0x20,0x08,0x82,0x20,0x00,0x00,0x00,0x00,0x00,0x01,
 0x00,0x41,0x10,0x04,0x82,0x20,0x08,0x82,0x20,0x10,0x04,0x00,0x10,0x04,0x81,
 0x20,0x08,0x82,0x20,0x00,0x00,0x00,0x00,0x00,0x01,0x00,0x41,0x10,0x04,0x82,
 0x20,0x08,0x82,0x20,0x10,0x04,0x00,0x10,0x04,0x81,0x20,0x08,0x82,0x20,0x00,
 0x00,0x00,0x00,0x00,0x01,0x00,0x41,0x10,0x04,0x82,0x20,0x08,0x82,0x20,0x10,
 0x04,0x00,0x10,0x04,0x81,0x20,0x08,0x82,0x20,0x00,0x00,0x00,0x00,0x00,0x01,
 0x00,0x41,0x10,0x04,0x82,0x20,0x08,0x82,0x20,0x10,0x04,0x00,0x10,0x04,0x81,
 0x20,0x08,0x82,0x20,0x00,0x00,0x00,0x00,0x00,0x01,0x00,0x41,0xd0,0x75,0x9e,
 0x20,0x08,0xba,0x2e,0x10,0x04,0x00,0x10,0x74,0x9d,0x27,0x08,0x82,0x20,0x00,
 0x00,0x00,0x00,0x00,0x01,0x00,0x41,0x90,0x24,0x8a,0x20,0x08,0x92,0x24,0x10,
 0x04,0x00,0x10,0x24,0x89,0x22,0x08,0x82,0x20,0x00,0x00,0x00,0x00,0x00,0x01,
 0x00,0x41,0x90,0x65,0x9a,0x20,0x08,0xb2,0x2c,0x10,0x04,0x00,0x10,0x64,0x99,
 0x26,0x08,0x82,0x20,0x00,0x00,0x00,0x00,0x00,0x01,0x00,0x41,0x50,0x55,0x96,
 0x20,0x08,0xaa,0x2a,0x10,0x04,0x00,0x10,0x54,0x95,0x25,0x08,0x82,0x20,0x00,
 0x00,0x00,0x00,0x00,0x01,0x00,0x41,0x10,0x04,0x82,0x20,0x08,0x82,0x20,0x10,
 0x04,0x00,0x10,0x04,0x81,0x20,0x08,0x82,0x20,0x00,0x00,0x00,0x00,0x00,0x01,
 0x00,0x41,0x10,0x04,0x82,0x20,0x08,0x82,0x20,0x10,0x04,0x00,0x10,0x04,0x81,
 0x20,0x08,0x82,0x20,0x00,0x00,0x00,0x00,0x00,0x01,0x00,0x41,0x10,0x04,0x82,
 0x20,0x08,0x82,0x20,0x10,0x04,0x00,0x10,0x04,0x81,0x20,0x08,0x82,0x20,0x00,
 0x00,0x00,0x00,0x00,0x01,0x39,0x41,0x10,0x04,0x82,0x20,0x08,0x82,0x20,0x10,
 0x04,0x00,0x10,0x04,0x81,0x20,0x08,0x82,0x20,0x80,0x01,0x00,0x00,0x00,0x01,
 0x0a,0x41,0x10,0x04,0x82,0x20,0x08,0x82,0x20,0x10,0x04,0x00,0x10,0x04,0x81,
 0x20,0x08,0x82,0x20,0x80,0xde,0x7c,0x6b,0x00,0x01,0x39,0x41,0x10,0x04,0x82,
 0x20,0x08,0x82,0x20,0x10,0x04,0x00,0x10,0x04,0x81,0x20,0x08,0x82,0x20,0x80,
 0xda,0x5c,0x67,0x00,0x01,0x2a,0x41,0x10,0x04,0x82,0x20,0x08,0x82,0x20,0x10,
 0x04,0x49,0x10,0x04,0x81,0x20,0x08,0x82,0x20,0x80,0xda,0x5c,0x67,0x00,0x01,
 0x00,0x41,0x10,0x04,0x82,0x20,0x08,0x82,0x20,0x10,0x04,0x00,0x10,0x04,0x81,
 0x20,0x08,0x82,0x20,0x00,0x00,0x10,0x00,0x00,0x01,0x00,0x41,0x10,0x04,0x82,
 0x20,0x08,0x82,0x20,0x10,0x04,0x00,0x10,0x04,0x81,0x20,0x08,0x82,0x20,0x00,
 0x00,0x00,0x00,0x00,0x01,0x00,0x41,0x10,0x04,0x82,0x20,0x08,0x82,0x20,0x10,
 0x04,0x00,0x10,0x04,0x81,0x20,0x08,0x82,0x20,0x00,0x00,0x00,0x00,0x00,0x01,
 0x00,0x41,0x10,0x04,0x82,0x20,0x08,0x82,0x20,0x10,0x04,0x00,0x10,0x04,0x81,
 0x20,0x08,0x82,0x20,0x00,0x00,0x00,0x00,0x00,0x01,0x00,0x49,0x13,0x04,0x82,
 0x26,0x69,0x82,0x20,0xd1,0x04,0x00,0x70,0x05,0x81,0xa0,0xba,0xae,0x2a,0x00,
 0x00,0x00,0x00,0x00,0x01,0x00,0x49,0x13,0x04,0x82,0xa4,0x29,0x82,0xa0,0xd0,
 0x04,0x00,0x30,0x04,0x81,0xe0,0x28,0x8e,0x22,0x00,0x00,0x00,0x00,0x00,0x01,
 0x00,0x49,0x12,0x04,0x82,0xa4,0x49,0x82,0xa0,0x91,0x04,0x00,0x50,0x04,0x81,
 0xe0,0x28,0x8a,0x22,0x00,0x00,0x00,0x00,0x00,0x01,0x00,0x4d,0x13,0x04,0x82,
 0x26,0x69,0x82,0xa0,0x91,0x04,0x00,0x70,0x04,0x81,0xa0,0x38,0x8e,0x23,0x00,
 0x00,0x00,0x00,0x00,0x01,0x00,0x41,0x10,0x04,0x82,0x20,0x08,0x82,0x20,0x10,
 0x04,0x00,0x10,0x04,0x81,0x20,0x08,0x82,0x20,0x00,0x00,0x00,0x00,0x00,0x01,
 0x00,0x41,0x10,0x04,0x82,0x20,0x08,0x82,0x20,0x10,0x04,0x00,0x10,0x04,0x81,
 0x20,0x08,0x82,0x20,0x00,0x00,0x00,0x00,0x00,0x01,0x00,0x41,0x10,0x04,0x82,
 0x20,0x08,0x82,0x20,0x10,0x04,0x00,0x10,0x04,0x81,0x20,0x08,0x82,0x20,0x00,
 0x00,0x00,0x00,0x00,0x01,0x00,0x41,0x10,0x04,0x82,0x20,0x08,0x82,0x20,0x10,
 0x04,0x00,0x10,0x04,0x81,0x20,0x08,0x82,0x20,0x00,0x00,0x00,0x00,0x00,0x01,
 0x00,0x41,0x10,0x04,0x82,0x20,0x08,0x82,0x20,0x10,0x04,0x00,0x10,0x04,0x81,
 0x20,0x08,0x82,0x20,0x00,0x00,0x00,0x00,0x00,0x01,0x00,0xff,0xff,0xff,0xff,
 0xff,0xff,0xff,0xff,0xff,0xff,0xff,0xff,0xff,0xff,0xff,0xff,0xff,0xff,0xff,
 0xff,0xff,0xff,0xff,0x01,0x00,0x00,0x00,0x00,0x00,0x00,0x00,0x00,0x00,0x00,
 0x00,0x00,0x00,0x00,0x00,0x00,0x00,0x00,0x00,0x00,0x00,0x00,0x00,0x00,0x00,
 0x00,0x00,0x00,0x00,0x00,0x00,0x00,0x00,0x00,0x00,0x00,0x00,0x00,0x00,0x00,
 0x00,0x00,0x00,0x00,0x00,0x00,0x00,0x00,0x00,0x00,0x00,0x00,0x00,0x00,0x00,
 0x00,0x00,0x00,0x00,0x00,0x00,0x00,0x00,0x00,0x00,0x00,0x00,0x00,0x00,0x00,
 0x00,0x00,0x00,0x00,0x00,0x00,0x00,0x00,0x00,0x00,0x00,0x00,0x00,0x00,0x00,
 0x00,0x00,0x00,0x00,0x00,0x00,0x00,0x00,0x00,0x00,0x00,0x00,0x00,0x00,0x00,
 0x00,0x00,0x00,0x00,0x00,0x00,0x00,0x00,0x00,0x00,0x00,0x00,0x00,0x00,0x00,
 0x00,0x00,0x00,0x00,0x00,0x00,0x00,0x00,0x00,0x00,0x00,0x00,0x00,0x00,0x00,
 0x00,0x00,0x00,0x00,0x00,0x00,0x00,0x00,0x00,0x00,0x00,0x00,0x00,0x00,0x00,
 0x00,0x00,0x00,0x00,0x00,0x00,0x00,0x00,0x00,0x00,0x00,0x00,0x00,0x00,0x00,
 0x00,0x00,0x00,0x00,0x00,0x00,0x00,0x00,0x00,0x00,0x00,0x00,0x00,0x00,0x00,
 0x00,0x00,0x00,0x00,0x00,0x00,0x00,0x00,0x00,0x00,0x00,0x00,0x00,0x00,0x00,
 0x00,0x00,0x00,0x00,0x00,0x00,0x00,0x00,0x00,0x00,0x00,0x00,0x00,0x00,0x00,
 0x00,0x00,0x00,0x00,0x00,0x00,0x00,0x00,0x00,0x00,0x00,0x00,0x00,0x00,0x00,
 0x00,0x00,0x00,0x00,0x00,0x00,0x00,0x00,0x00,0x00,0x00,0x00,0x00,0x00,0x00,
 0x00,0x00,0x00,0x00,0x00,0x00,0x00,0x00,0x00,0x00,0x00,0x00,0x00,0x00,0x00,
 0x00,0x00,0x00,0x00,0x00,0x00,0x00,0x00,0x00,0x00,0x00,0x00,0x00,0x00,0x00,
 0x00,0x00,0x00,0x00,0x00,0x00,0x00,0x00,0x00,0x00,0x00,0x00,0x00,0x00,0x00,
 0x00,0x00,0x00,0x00,0x00,0x00,0x00,0x00,0x00,0x00,0x00,0x00,0x00,0x00,0x00,
 0x00,0x00,0x00,0x00,0x00,0x00,0x00,0x00,0x00,0x00,0x00,0x00,0x00,0x00,0x00,
 0x00,0x00,0x00,0x00,0x00,0x00,0x00,0x00,0x00,0x00,0x00,0x00,0x00,0x00,0x00,
 0x00,0x00,0x00,0x00,0x00,0x00,0x00,0x00,0x00,0x00,0x00,0x00,0x00,0x00,0x00,
 0x00,0x00,0x00,0x00,0x00,0x00,0x00,0x00,0x00,0x00,0x00,0xff,0xff,0xff,0xff,
 0xff,0xff,0xff,0xff,0xff,0xff,0xff,0xff,0xff,0xff,0xff,0xff,0xff,0xff,0xff,
 0xff,0xff,0xff,0xff,0x01,0x00,0x41,0x10,0x04,0x82,0x20,0x08,0x00,0x00,0x10,
 0x04,0x41,0x10,0x04,0x00,0x00,0x00,0x00,0x00,0x00,0x00,0x00,0x00,0x00,0x01,
 0x00,0x41,0x10,0x04,0x82,0x20,0x08,0x00,0x00,0x10,0x04,0x41,0x10,0x04,0x00,
 0x00,0x00,0x00,0x00,0x00,0x00,0x00,0x00,0x00,0x01,0x00,0x41,0x10,0x04,0x82,
 0x20,0x08,0x00,0x00,0x10,0x04,0x41,0x10,0x04,0x00,0x00,0x00,0x00,0x00,0x00,
 0x00,0x00,0x00,0x00,0x01,0x00,0x41,0x10,0x04,0x82,0x20,0x08,0x00,0x00,0x10,
 0x04,0x41,0x10,0x04,0x00,0x00,0x00,0x00,0x00,0x00,0x00,0x00,0x00,0x00,0x01,
 0x00,0x41,0x10,0x04,0x82,0x20,0x08,0x00,0x00,0x10,0x04,0x41,0x10,0x04,0x00,
 0x00,0x00,0x00,0x00,0x00,0x00,0x00,0x00,0x00,0x01,0x00,0x41,0x10,0x04,0x82,
 0x20,0x08,0x00,0x00,0x10,0x04,0x41,0x10,0x04,0x00,0x00,0x00,0x00,0x00,0x00,
 0x00,0x00,0x00,0x00,0x01,0x00,0x41,0x10,0x04,0x82,0x20,0x08,0x00,0x00,0x10,
 0x04,0x41,0x10,0x04,0x00,0x00,0x00,0x00,0x00,0x00,0x00,0x00,0x00,0x00,0x01,
 0x00,0x41,0x10,0x04,0x82,0x20,0x08,0x00,0x00,0x10,0x04,0x41,0x10,0x04,0x00,
 0x00,0x00,0x00,0x00,0x00,0x00,0x00,0x00,0x00,0x01,0x00,0x41,0x10,0x04,0x82,
 0x20,0x08,0x00,0x00,0x10,0x04,0x41,0x10,0x04,0x00,0x00,0x00,0x00,0x00,0x00,
 0x00,0x00,0x00,0x00,0x01,0x00,0x41,0x10,0x04,0x82,0x20,0x08,0x00,0x00,0x10,
 0x04,0x41,0x10,0x04,0x00,0x00,0x00,0x00,0x00,0x00,0x00,0x00,0x00,0x00,0x01,
 0x00,0x41,0x10,0x04,0x82,0x20,0x08,0x00,0x00,0x10,0x04,0x41,0x10,0x04,0x00,
 0x00,0x00,0x00,0x00,0x00,0x00,0x00,0x00,0x00,0x01,0x00,0x41,0x10,0x04,0x82,
 0x20,0x08,0x00,0x00,0x10,0x04,0x41,0x10,0x04,0x00,0x00,0x00,0x00,0x00,0x00,
 0x00,0x00,0x00,0x00,0x01,0x00,0x41,0x10,0x04,0x82,0x20,0x08,0x00,0x00,0x10,
 0x04,0x41,0x10,0x04,0x00,0x00,0x00,0x00,0x00,0x00,0x00,0x00,0x00,0x00,0x01,
 0x01,0x49,0xd3,0x44,0x9a,0xa4,0x09,0x00,0x00,0x70,0x55,0xd7,0x55,0x05,0x00,
 0x00,0x00,0xc0,0x00,0x00,0x00,0x00,0x00,0x00,0x01,0x02,0x49,0x93,0x64,0x8a,
 0xa2,0x09,0x00,0x00,0x30,0x1c,0xc5,0x51,0x04,0x00,0x00,0x00,0x40,0x6f,0xbe,
 0x39,0x00,0x00,0x00,0x01,0x01,0x49,0x92,0x64,0x92,0x26,0x09,0x00,0x00,0x50,
 0x1c,0x45,0x51,0x04,0x00,0x00,0x00,0x40,0x6d,0xae,0x35,0x00,0x00,0x00,0x01,
 0x02,0x4d,0xd3,0x44,0x9a,0x26,0x09,0x48,0x0a,0x70,0x14,0xc7,0x71,0x04,0x00,
 0x00,0x00,0x40,0x6d,0xae,0x35,0x00,0x00,0x00,0x01,0x00,0x41,0x10,0x04,0x82,
 0x20,0x08,0x00,0x00,0x10,0x04,0x41,0x10,0x04,0x00,0x00,0x00,0x00,0x00,0x08,
 0x00,0x00,0x00,0x00,0x01,0x00,0x41,0x10,0x04,0x82,0x20,0x08,0x00,0x00,0x10,
 0x04,0x41,0x10,0x04,0x00,0x00,0x00,0x00,0x00,0x00,0x00,0x00,0x00,0x00,0x01,
 0x00,0x41,0x10,0x04,0x82,0x20,0x08,0x00,0x00,0x10,0x04,0x41,0x10,0x04,0x00,
 0x00,0x00,0x00,0x00,0x00,0x00,0x00,0x00,0x00,0x01,0x00,0x41,0x10,0x04,0x82,
 0x20,0x08,0x00,0x00,0x10,0x04,0x41,0x10,0x04,0x00,0x00,0x00,0x00,0x00,0x00,
 0x00,0x00,0x00,0x00,0x01,0x00,0x41,0x10,0x04,0x82,0x20,0x08,0x00,0x00,0x10,
 0x04,0x41,0x10,0x04,0x00,0x00,0x00,0x00,0x00,0x00,0x00,0x00,0x00,0x00,0x01,
 0x00,0x41,0x10,0x04,0x82,0x20,0x08,0x00,0x00,0x10,0x04,0x41,0x10,0x04,0x00,
 0x00,0x00,0x00,0x00,0x00,0x00,0x00,0x00,0x00,0x01,0x00,0x41,0x10,0x04,0x82,
 0x20,0x08,0x00,0x00,0x10,0x04,0x41,0x10,0x04,0x00,0x00,0x00,0x00,0x00,0x00,
 0x00,0x00,0x00,0x00,0x01,0x00,0x41,0x10,0x04,0x82,0x20,0x08,0x00,0x00,0x10,
 0x04,0x41,0x10,0x04,0x00,0x00,0x00,0x00,0x00,0x00,0x00,0x00,0x00,0x00,0x01,
 0x00,0x41,0x10,0x04,0x82,0x20,0x08,0x00,0x00,0x10,0x04,0x41,0x10,0x04,0x00,
 0x00,0x00,0x00,0x00,0x00,0x00,0x00,0x00,0x00,0x01,0x00,0x41,0x10,0x04,0x82,
 0x20,0x08,0x00,0x00,0x10,0x04,0x41,0x10,0x04,0x00,0x00,0x00,0x00,0x00,0x00,
 0x00,0x00,0x00,0x00,0x01,0x00,0x41,0x10,0x04,0x82,0x20,0x08,0x00,0x00,0x10,
 0x04,0x41,0x10,0x04,0x00,0x00,0x00,0x00,0x00,0x00,0x00,0x00,0x00,0x00,0x01,
 0x00,0x41,0x10,0x04,0x82,0x20,0x08,0x00,0x00,0x10,0x04,0x41,0x10,0x04,0x00,
 0x00,0x00,0x00,0x00,0x00,0x00,0x00,0x00,0x00,0x01,0x00,0x41,0x10,0x04,0x82,
 0x20,0x08,0x00,0x00,0x10,0x04,0x41,0x10,0x04,0x00,0x00,0x00,0x00,0x00,0x00,
 0x00,0x00,0x00,0x00,0x01,0x00,0xff,0xff,0xff,0xff,0xff,0xff,0xff,0xff,0xff,
 0xff,0xff,0xff,0xff,0xff,0xff,0xff,0xff,0xff,0xff,0xff,0xff,0xff,0xff,0x01,
 0x00,0x00,0x00,0x00,0x00,0x00,0x00,0x00,0x00,0x00,0x00,0x00,0x00,0x00,0x00,
 0x00,0x00,0x00,0x00,0x00,0x00,0x00,0x00,0x00,0x00,0x00,0x00,0x00,0x00,0x00,
 0x00,0x00,0x00,0x00,0x00,0x00,0x00,0x00,0x00,0x00,0x00,0x00,0x00,0x00,0x00,
 0x00,0x00,0x00,0x00,0x00,0x00,0x00,0x00,0x00,0x00,0x00,0x00,0x00,0x00,0x00,
 0x00,0x00,0x00,0x00,0x00,0x00,0x00,0x00,0x00,0x00,0x00,0x00,0x00,0x00,0x00,
 0x00,0x00,0x00,0x00,0x00,0x00,0x00,0x00,0x00,0x00,0x00,0x00,0x00,0x00,0x00,
 0x00,0x00,0x00,0x00,0x00,0x00,0x00,0x00,0x00,0x00,0x00,0x00,0x00,0x00,0x00,
 0x00,0x00,0x00,0x00,0x00,0x00,0x00,0x00,0x00,0x00,0x00,0x00,0x00,0x00,0x00,
 0x00,0x00,0x00,0x00,0x00,0x00,0x74,0xd9,0x81,0x00,0x00,0x00,0x00,0x00,0x00,
 0x00,0x00,0x00,0x00,0x00,0x00,0x00,0x00,0x00,0x00,0xf0,0x3a,0x10,0x00,0x00,
 0x00,0x22,0xa9,0x40,0x08,0x00,0x00,0x00,0x00,0x00,0x00,0x00,0x00,0x00,0x00,
 0x00,0x00,0x00,0x00,0x00,0x90,0x29,0x08,0x01,0x00,0x00,0x26,0x9a,0x58,0xee,
 0x06,0x00,0x00,0x00,0x00,0x00,0x00,0x00,0x00,0x00,0x00,0x00,0x00,0x00,0x00,
 0xf0,0x09,0xcb,0xdd,0x00};
