#define noname_width 99
#define noname_height 99
static char noname_bits[] = {
 0xff,0xff,0xff,0xff,0xff,0xff,0xff,0xff,0xff,0xff,0xff,0xff,0x07,0x01,0x00,
 0x00,0x00,0x00,0x00,0x00,0x00,0x00,0x00,0x00,0x00,0x04,0x01,0x00,0x00,0x00,
 0x00,0x00,0x00,0x00,0x00,0x00,0x00,0x00,0x04,0x01,0x00,0x00,0x00,0x00,0x00,
 0x00,0x00,0x00,0x00,0x00,0x00,0x04,0x01,0x00,0x00,0x00,0x00,0x00,0x00,0x00,
 0x00,0x00,0x00,0x00,0x04,0x01,0x00,0x00,0x00,0x00,0x00,0x00,0x00,0x00,0x00,
 0x00,0x00,0x04,0x01,0x00,0x00,0x00,0x00,0x00,0x00,0x00,0x00,0x00,0x00,0x00,
 0x04,0x01,0xf0,0x03,0x00,0x00,0x00,0x00,0x00,0x00,0x80,0x1f,0x00,0x04,0x01,
 0x0c,0x06,0x00,0x00,0x00,0x00,0x00,0x00,0xe0,0x70,0x00,0x04,0x01,0x00,0x08,
 0x00,0xe0,0xff,0xff,0x0f,0x00,0x20,0x80,0x00,0x04,0x01,0x01,0x10,0x00,0x20,
 0x00,0x00,0x08,0x00,0x18,0x80,0x01,0x04,0x01,0x01,0x20,0x00,0x20,0x00,0x00,
 0x08,0x00,0x08,0x00,0x01,0x04,0x81,0x00,0x20,0x00,0x20,0x00,0x00,0x08,0x00,
 0x08,0x00,0x02,0x04,0x81,0x60,0x40,0x00,0x20,0xac,0x4e,0x08,0x00,0xc4,0x2c,
 0x02,0x04,0x81,0x00,0xc0,0xff,0x3f,0x00,0x00,0xf8,0xff,0x07,0x00,0x02,0x04,
 0x81,0xac,0xce,0x00,0x30,0x30,0x11,0x38,0x00,0x74,0x55,0x02,0x04,0x81,0x00,
 0x40,0x00,0x20,0x00,0x00,0x08,0x00,0x04,0x00,0x02,0x04,0x81,0x80,0x20,0x00,
 0x20,0x5c,0x29,0x08,0x00,0x88,0x29,0x02,0x04,0x01,0x01,0x20,0x00,0x20,0x00,
 0x00,0x08,0x00,0x08,0x00,0x01,0x04,0x01,0x03,0x10,0x00,0x20,0x00,0x00,0x08,
 0x00,0x18,0x80,0x01,0x04,0x01,0x06,0x08,0x00,0xe0,0xff,0xff,0x0f,0x00,0x30,
 0x80,0x00,0x04,0x01,0x08,0x06,0x00,0x00,0x00,0x01,0x00,0x00,0xc0,0x70,0x00,
 0x04,0x01,0xf0,0x01,0x00,0x00,0x00,0x01,0x00,0x00,0x80,0x1f,0x00,0x04,0x01,
 0x00,0x00,0x00,0x00,0x00,0x01,0x00,0x00,0x00,0x06,0x00,0x04,0x01,0x00,0x00,
 0x00,0x00,0x00,0x03,0x00,0x00,0x00,0x04,0x00,0x04,0x01,0x00,0x00,0x00,0x00,
 0x00,0x01,0x00,0x00,0x00,0x04,0x00,0x04,0x01,0x00,0x00,0x00,0x00,0xe0,0x0f,
 0x00,0x00,0x00,0x04,0x00,0x04,0x01,0x00,0x00,0x00,0x00,0x10,0x10,0x00,0x00,
 0x00,0x04,0x00,0x04,0x01,0x00,0x00,0x00,0x00,0x08,0x60,0x00,0x00,0x00,0x04,
 0x00,0x04,0x01,0x00,0x00,0x00,0x00,0x04,0x40,0x00,0x00,0x00,0x04,0x00,0x04,
 0x01,0x00,0x00,0x00,0x00,0x02,0x80,0x00,0x00,0x00,0x04,0x00,0x04,0x01,0x00,
 0x00,0x00,0x00,0xea,0xac,0x00,0x00,0x00,0x04,0x00,0x04,0x01,0x00,0x00,0x00,
 0x00,0x02,0x80,0x00,0x00,0x00,0x04,0x00,0x04,0x01,0x00,0x00,0x00,0x00,0xc2,
 0x84,0x00,0x00,0x00,0x04,0x00,0x04,0x01,0x00,0x00,0x00,0x00,0x02,0x80,0x00,
 0x00,0x00,0x04,0x00,0x04,0x01,0x00,0x00,0x00,0x00,0x42,0x99,0x00,0x00,0x00,
 0x04,0x00,0x04,0x01,0x00,0x00,0x00,0x00,0x02,0x80,0x00,0x00,0x00,0x04,0x00,
 0x04,0x01,0x00,0x00,0x00,0x00,0x04,0xc0,0x00,0x00,0x00,0x04,0x00,0x04,0x01,
 0x00,0x00,0x00,0x00,0x04,0x00,0x00,0x00,0x00,0x04,0x00,0x04,0x01,0x00,0x00,
 0x00,0x00,0x18,0x30,0x00,0xc0,0xff,0xff,0x3f,0x04,0x01,0x00,0x00,0x00,0x00,
 0x60,0x1c,0x00,0x40,0x00,0x00,0x20,0x04,0x01,0x00,0x00,0x00,0x00,0x80,0x03,
 0x00,0x40,0x00,0x00,0x20,0x04,0x01,0x00,0x00,0x00,0x00,0x00,0x01,0x00,0x40,
 0x80,0x2b,0x20,0x04,0x01,0x00,0x00,0x00,0x00,0x00,0x03,0x00,0x40,0x00,0x00,
 0x20,0x04,0x01,0x00,0x00,0x00,0xe0,0xff,0xff,0x0f,0x40,0x00,0x00,0x20,0x04,
 0x01,0x00,0x00,0x00,0x20,0x00,0x00,0x08,0x40,0x80,0x0d,0x20,0x04,0x01,0x00,
 0x00,0x00,0x20,0x00,0x00,0x08,0x40,0x00,0x00,0x20,0x04,0x01,0x00,0x00,0x00,
 0x20,0x00,0x00,0x08,0x40,0xb0,0x92,0x20,0x04,0x01,0x00,0x00,0x00,0xa0,0x52,
 0xfb,0x0b,0x40,0x00,0x00,0x20,0x04,0x01,0x00,0x00,0x00,0x20,0x00,0x00,0x08,
 0x40,0x00,0x00,0x20,0x04,0x01,0x00,0x00,0x00,0x20,0xa8,0x29,0x08,0xc0,0xff,
 0xff,0x3f,0x04,0x01,0x00,0x00,0x00,0x20,0x00,0x00,0x08,0x00,0x00,0x04,0x00,
 0x04,0x01,0x00,0x00,0x00,0x20,0xb0,0x1c,0x08,0x00,0x00,0x04,0x00,0x04,0x01,
 0x00,0x00,0x00,0x20,0x00,0x00,0x08,0x00,0x00,0x04,0x00,0x04,0x01,0x00,0x00,
 0x00,0x20,0x00,0x00,0x08,0x00,0x00,0x04,0x00,0x04,0x01,0x00,0x00,0x00,0x20,
 0x00,0x00,0x08,0x00,0x00,0x04,0x00,0x04,0x01,0x00,0x00,0x00,0xe0,0xff,0xff,
 0x0f,0x00,0x00,0x04,0x00,0x04,0x01,0x00,0x00,0x00,0x40,0x00,0x01,0x04,0x00,
 0x00,0x04,0x00,0x04,0x01,0x00,0x00,0x00,0x30,0x00,0x01,0x18,0x00,0x00,0x04,
 0x00,0x04,0x01,0x00,0x00,0x00,0x0c,0x00,0x01,0x60,0x00,0x00,0x04,0x00,0x04,
 0x01,0x00,0x00,0x00,0x02,0x00,0x03,0x80,0x00,0x00,0x06,0x00,0x04,0x01,0xf0,
 0x01,0x80,0x01,0xc0,0x07,0x00,0x03,0x80,0x0f,0x00,0x04,0x01,0x18,0x06,0x60,
 0x00,0x30,0x18,0x00,0x0c,0xc0,0x70,0x00,0x04,0x01,0x06,0x08,0x10,0x00,0x18,
 0x20,0x00,0x10,0x30,0xc0,0x00,0x04,0x01,0x03,0x10,0x0c,0x00,0x04,0x40,0x00,
 0x60,0x18,0x80,0x01,0x04,0x01,0x01,0x20,0x03,0x00,0x04,0x80,0x00,0x80,0x09,
 0x00,0x01,0x04,0x81,0x01,0xa0,0x00,0x00,0x02,0x80,0x00,0x00,0x0e,0x00,0x02,
 0x04,0x81,0x60,0xc3,0x00,0x00,0x82,0x8d,0x00,0x00,0x86,0x1a,0x02,0x04,0x81,
 0x00,0x40,0x00,0x00,0x02,0x80,0x00,0x00,0x04,0x00,0x02,0x04,0x81,0xb8,0x42,
 0x00,0x00,0xde,0xbb,0x00,0x00,0x84,0x72,0x02,0x04,0x81,0x00,0x40,0x00,0x00,
 0x02,0x80,0x00,0x00,0x04,0x00,0x02,0x04,0x81,0x60,0x66,0x00,0x00,0x42,0x99,
 0x00,0x00,0x08,0x59,0x02,0x04,0x01,0x01,0x20,0x00,0x00,0x02,0x80,0x00,0x00,
 0x08,0x00,0x01,0x04,0x01,0x01,0x10,0x00,0x00,0x04,0x40,0x00,0x00,0x18,0x80,
 0x01,0x04,0x01,0x00,0x10,0x00,0x00,0x08,0x20,0x00,0x00,0x20,0x80,0x00,0x04,
 0x01,0x0c,0x0c,0x00,0x00,0x30,0x18,0x00,0x00,0x60,0x60,0x00,0x04,0x01,0xf0,
 0x03,0x00,0x00,0xc0,0x0f,0x00,0x00,0x80,0x1f,0x00,0x04,0x01,0x40,0x00,0x00,
 0x00,0x00,0x01,0x00,0x00,0x00,0x04,0x00,0x04,0x01,0x40,0x00,0x00,0x00,0x00,
 0x01,0x00,0x00,0x00,0x04,0x00,0x04,0x01,0x40,0x00,0x00,0x00,0x00,0x01,0x00,
 0x00,0x00,0x04,0x00,0x04,0x01,0xc0,0x00,0x00,0x00,0x00,0x03,0x00,0x00,0x00,
 0x06,0x00,0x04,0x01,0xc0,0x00,0x00,0x00,0x00,0x01,0x00,0x00,0x00,0x06,0x00,
 0x04,0xf9,0xff,0xff,0x07,0xe0,0xff,0xff,0x0f,0xc0,0xff,0xff,0x3f,0x04,0x09,
 0x00,0x00,0x04,0x20,0x00,0x00,0x08,0x40,0x00,0x00,0x20,0x04,0x09,0x00,0x00,
 0x04,0x20,0xd6,0xab,0x08,0x40,0x00,0x00,0x20,0x04,0x89,0xba,0x4a,0x04,0x20,
 0x00,0x00,0x08,0x40,0x80,0x34,0x20,0x04,0x09,0x00,0x00,0x04,0x20,0xb8,0x3b,
 0x08,0x40,0x00,0x00,0x20,0x04,0x09,0xe0,0x02,0x04,0x20,0x00,0x00,0x08,0x40,
 0xa0,0x2e,0x20,0x04,0x09,0x00,0x00,0x04,0x20,0x00,0x00,0x08,0x40,0x00,0x00,
 0x20,0x04,0x09,0x00,0x00,0x04,0x20,0xb0,0x15,0x08,0x40,0x00,0x00,0x20,0x04,
 0x09,0x78,0x01,0x04,0x20,0x00,0x00,0x08,0x40,0x70,0x55,0x20,0x04,0x09,0x00,
 0x00,0x04,0x20,0x88,0x6e,0x08,0x40,0x00,0x00,0x20,0x04,0x09,0x00,0x00,0x04,
 0x20,0x00,0x00,0x08,0x40,0x00,0x00,0x20,0x04,0xf9,0xff,0xff,0x07,0xe0,0xff,
 0xff,0x0f,0xc0,0xff,0xff,0x3f,0x04,0x01,0x00,0x00,0x00,0x00,0x00,0x00,0x00,
 0x00,0x00,0x00,0x00,0x04,0x01,0x00,0x00,0x00,0x00,0x00,0x00,0x00,0x00,0x00,
 0x00,0x00,0x04,0x01,0x00,0x00,0x00,0x00,0x00,0x00,0x00,0x00,0x00,0x00,0x00,
 0x04,0x01,0x00,0x00,0x00,0x00,0x00,0x00,0x00,0x00,0x00,0x00,0x00,0x04,0x01,
 0x00,0x00,0x00,0x00,0x00,0x00,0x00,0x00,0x00,0x00,0x00,0x04};
