#define noname_width 67
#define noname_height 94
static char noname_bits[] = {
 0x22,0x47,0xaf,0x52,0xab,0x56,0xab,0x56,0x03,0x55,0x55,0x55,0x55,0x55,0x55,
 0x55,0x55,0x05,0x00,0x00,0x00,0x00,0x00,0xa8,0x56,0xab,0x04,0x00,0x00,0x00,
 0x00,0x00,0x56,0x55,0x55,0x05,0x00,0x00,0x00,0x00,0x10,0xfc,0x6f,0xfb,0x03,
 0x00,0x00,0x00,0x00,0x00,0x00,0x00,0x00,0x00,0x00,0x00,0x00,0x00,0x40,0x00,
 0x00,0x00,0x00,0x00,0x58,0x62,0xe5,0x4f,0x00,0x00,0x00,0x00,0x00,0x00,0x00,
 0x00,0x00,0x00,0x00,0x00,0x00,0x00,0x00,0x00,0x0f,0x00,0x00,0x00,0x00,0x00,
 0x00,0x00,0x00,0x44,0xda,0x04,0x00,0x00,0x00,0x00,0x00,0x00,0x00,0x00,0x00,
 0x00,0x00,0x00,0x00,0x00,0x00,0xff,0xff,0x7f,0x00,0x00,0x00,0x00,0x00,0x00,
 0x7d,0xf1,0x11,0x00,0x00,0x00,0x00,0x00,0x00,0x00,0x00,0x00,0x00,0x00,0x00,
 0x00,0x00,0x00,0xff,0xff,0xff,0xff,0x03,0x00,0x00,0x00,0x00,0x86,0x6d,0x02,
 0x0f,0x02,0x00,0x00,0x00,0x00,0x14,0x00,0x0a,0x00,0x00,0x00,0x00,0x00,0x00,
 0x00,0x00,0x00,0x00,0x00,0x00,0x00,0x00,0x00,0x47,0x5c,0x04,0x00,0x00,0x00,
 0x00,0x00,0x00,0x14,0x40,0x10,0xa0,0x00,0x00,0x00,0x00,0x00,0x15,0x11,0x15,
 0x11,0x01,0x00,0x00,0x00,0x00,0x86,0x0a,0x84,0x05,0x06,0x00,0x00,0x00,0x00,
 0xa0,0x00,0x40,0x00,0x00,0x00,0x00,0x00,0x00,0x00,0x00,0x00,0x02,0x00,0x00,
 0x70,0x00,0x00,0x50,0x01,0x01,0x01,0x00,0x00,0x70,0x00,0x00,0x2c,0x00,0x48,
 0x00,0x00,0x00,0x70,0x00,0x00,0x50,0x44,0x44,0x00,0x00,0x00,0x00,0x00,0x00,
 0x20,0x00,0x00,0x00,0x00,0x00,0x00,0x00,0x00,0xa0,0x00,0x80,0x00,0x00,0x00,
 0x00,0x00,0x00,0x00,0x00,0x00,0x00,0x00,0x00,0x00,0x00,0x00,0x40,0x45,0x44,
 0x14,0x00,0x00,0x00,0x00,0x00,0x80,0x04,0x40,0x00,0x00,0x00,0x00,0x00,0x00,
 0xc0,0x81,0x05,0x1d,0x00,0x00,0x00,0x00,0x00,0xc0,0x03,0x00,0x00,0x00,0x00,
 0x00,0x00,0x00,0xa0,0x00,0x08,0x00,0x00,0x00,0x00,0x00,0x00,0x2d,0x60,0x00,
 0x00,0x00,0x00,0x00,0x00,0x00,0x78,0x11,0x11,0x00,0x00,0x00,0x00,0x00,0x00,
 0x04,0x60,0x08,0x80,0x00,0x00,0x00,0x00,0x00,0x47,0x46,0x47,0x46,0x05,0x00,
 0x00,0x00,0x00,0xff,0xff,0xff,0xff,0x03,0x00,0x00,0x00,0x00,0x14,0x60,0x08,
 0x80,0x00,0x00,0x00,0x00,0x00,0x00,0x00,0x0c,0x00,0x01,0x00,0x00,0x00,0x00,
 0xff,0xff,0x47,0x54,0x00,0x00,0x22,0x22,0x22,0x22,0x22,0x02,0x00,0x20,0x02,
 0xd7,0xff,0x55,0x55,0x55,0x05,0x00,0x54,0x05,0xa5,0x52,0xad,0x52,0xa9,0x46,
 0x40,0x54,0x03,0x44,0x44,0x44,0x44,0x44,0x04,0x44,0x44,0x04,0xea,0x54,0x5c,
 0x00,0x00,0xd0,0x56,0x00,0x02,0x11,0x01,0x11,0x01,0x11,0x01,0x00,0x00,0x01,
 0x00,0x00,0x00,0x00,0x00,0x70,0xd3,0x00,0x00,0x44,0x44,0x44,0x44,0x44,0x44,
 0x44,0x44,0x04,0x22,0x22,0x22,0x22,0x22,0x02,0x00,0x20,0x02,0x11,0x11,0x01,
 0x11,0x11,0x01,0x00,0x34,0x01,0x00,0x00,0x00,0x00,0x00,0x00,0x00,0x00,0x00,
 0x44,0x45,0x54,0x44,0x44,0x34,0x54,0x44,0x04,0x0a,0x00,0x00,0x0c,0x80,0x00,
 0x00,0x00,0x00,0x11,0xd1,0x11,0x11,0x51,0x11,0x60,0x10,0x05,0x02,0xc0,0x00,
 0x00,0xc0,0x00,0x00,0x00,0x00,0x7e,0x45,0x44,0x44,0x44,0xf4,0x8e,0x44,0x04,
 0x20,0xe2,0x4c,0x44,0xe0,0x00,0x00,0x00,0x02,0x33,0x11,0x11,0x11,0x11,0x11,
 0x00,0x10,0x05,0x00,0x00,0x00,0x00,0x00,0x00,0x00,0x00,0x00,0xd7,0x7d,0x55,
 0x55,0x55,0x05,0x44,0x54,0x05,0x5a,0xad,0x52,0xad,0x56,0x81,0x77,0xa8,0x04,
 0x11,0x01,0x11,0x01,0x11,0x01,0x00,0x00,0x01,0x8c,0x00,0x00,0x00,0x00,0x10,
 0x16,0x80,0x03,0x44,0x44,0x44,0x44,0x44,0x44,0x44,0x44,0x04,0x00,0x00,0x00,
 0x00,0x00,0xd0,0x7a,0x00,0x00,0x91,0x11,0x53,0x11,0x11,0x11,0x00,0x10,0x01,
 0x00,0x00,0x00,0x00,0x00,0x00,0x06,0x00,0x00,0x44,0x44,0x44,0x44,0x44,0x04,
 0x04,0x44,0x07,0x00,0x00,0x00,0x02,0x00,0x00,0x00,0x00,0x00,0x11,0x11,0x11,
 0x10,0x11,0x51,0x0d,0x10,0x05,0x26,0x30,0x00,0x60,0xe0,0xe0,0x80,0x00,0x00,
 0x44,0x64,0x64,0x44,0x64,0x64,0xc4,0x44,0x04,0x0a,0x30,0x50,0x60,0xe0,0xe0,
 0xc0,0x00,0x00,0x11,0x11,0x11,0x11,0x11,0x11,0x11,0x11,0x05,0x00,0x00,0xf8,
 0x00,0x00,0x00,0x00,0x00,0x00,0x7e,0x44,0x44,0x44,0x44,0x44,0x44,0x44,0x04,
 0x3e,0x30,0x70,0x60,0xc0,0xe0,0x80,0x00,0x00,0x11,0x01,0x71,0x01,0xf1,0x61,
 0xd1,0x01,0x05,0x20,0x00,0x00,0x00,0x80,0x20,0x00,0x00,0x00,0x55,0x55,0x55,
 0x55,0x55,0x55,0x55,0x55,0x05,0x04,0x00,0x00,0x00,0x00,0x00,0x00,0x00,0x00,
 0x11,0x11,0x11,0x11,0x11,0x11,0x11,0x11,0x01,0x00,0x00,0x00,0x00,0x00,0x00,
 0x00,0x00,0x00,0x00,0x00,0x00,0x00,0x00,0x00,0x00,0x00,0x00,0x1c,0x00,0x00,
 0x00,0x07,0x00,0x00,0x00,0x00,0xdc,0xee,0x6d,0x00,0xf7,0xf7,0xf5,0x0f,0x00,
 0x1c,0x00,0x00,0x00,0x06,0x00,0x00,0x00,0x00,0xdc,0xfe,0xdf,0x00,0xf7,0x3f,
 0xbf,0xdf,0x03,0x1c,0x00,0x00,0x00,0x07,0x00,0x00,0x00,0x00,0x08,0x00,0x00,
 0x00,0x02,0x00,0x00,0x00,0x00};
